<svg width="395" height="120" viewBox="0 0 395 120" fill="none" xmlns="http://www.w3.org/2000/svg">
<path fill-rule="evenodd" clip-rule="evenodd" d="M56.1712 0.00438063C70.389 0.195188 84.9299 5.82637 93.9926 15.7935C102.287 24.9154 98.6254 38.211 101.423 49.7721C103.838 59.7565 112.598 69.0755 109.245 78.8333C105.885 88.6108 93.4738 92.4323 84.5959 98.7351C75.3041 105.332 67.5986 113.885 56.1712 116.513C42.503 119.655 25.5671 123.192 14.9577 114.747C4.27205 106.241 10.011 90.272 7.28243 77.5963C5.00071 66.9966 -1.44755 57.3159 0.295084 46.6318C2.25285 34.6287 7.70018 22.9703 17.5302 14.7673C28.0831 5.96116 41.852 -0.187787 56.1712 0.00438063Z" fill="#82A816"/>
<path d="M28.5107 31.3887H42.5518V50H39.1748V34.5117H31.8877V50H28.5107V31.3887ZM63.3467 30.9062C64.5062 30.9062 65.5895 31.0163 66.5967 31.2363C67.6038 31.4479 68.5221 31.7441 69.3516 32.125C70.1895 32.4974 70.9342 32.9417 71.5859 33.458C72.2376 33.9743 72.7878 34.5371 73.2363 35.1465C73.6849 35.7474 74.0234 36.3822 74.252 37.0508C74.4889 37.7109 74.6074 38.3796 74.6074 39.0566C74.6074 39.7507 74.5016 40.4447 74.29 41.1387C74.0869 41.8327 73.7653 42.4971 73.3252 43.1318C72.8936 43.7581 72.3392 44.3464 71.6621 44.8965C70.9935 45.4382 70.1852 45.9079 69.2373 46.3057C68.2979 46.7035 67.2188 47.0166 66 47.2451C64.7897 47.4736 63.4271 47.5879 61.9121 47.5879C60.1009 47.5879 58.4801 47.4186 57.0498 47.0801C55.6279 46.7331 54.3711 46.2845 53.2793 45.7344C52.196 45.1758 51.2607 44.5495 50.4736 43.8555C49.695 43.1615 49.0348 42.459 48.4932 41.748V53.2627H45.04V31.3887H48.4932V32.8994C48.4932 33.8643 48.5905 34.7402 48.7852 35.5273C48.9798 36.3145 49.1956 36.9915 49.4326 37.5586C49.6781 38.1257 49.9023 38.5742 50.1055 38.9043C50.3086 39.2259 50.4229 39.4036 50.4482 39.4375C52.7926 42.916 56.6139 44.6553 61.9121 44.6553C63.4186 44.6553 64.7305 44.4987 65.8477 44.1855C66.9648 43.8724 67.8916 43.4577 68.6279 42.9414C69.3727 42.4167 69.9271 41.82 70.291 41.1514C70.6549 40.4743 70.8369 39.776 70.8369 39.0566C70.8369 38.4896 70.7015 37.9014 70.4307 37.292C70.1683 36.6742 69.7409 36.1113 69.1484 35.6035C68.556 35.0872 67.7816 34.6641 66.8252 34.334C65.8773 34.0039 64.7178 33.8389 63.3467 33.8389C60.8669 33.8389 58.7171 34.3171 56.8975 35.2734C55.0778 36.2214 53.584 37.6517 52.416 39.5645L49.915 38.0283C50.2451 37.4867 50.6344 36.9365 51.083 36.3779C51.5316 35.8109 52.0436 35.265 52.6191 34.7402C53.1947 34.207 53.8421 33.7119 54.5615 33.2549C55.2894 32.7894 56.0934 32.3831 56.9736 32.0361C57.8623 31.6891 58.8356 31.4141 59.8936 31.2109C60.9515 31.0078 62.1025 30.9062 63.3467 30.9062ZM88.6611 30.8555C89.846 30.8555 90.9971 30.974 92.1143 31.2109C93.2399 31.4395 94.2979 31.7653 95.2881 32.1885C96.2783 32.6117 97.1839 33.1237 98.0049 33.7246C98.8258 34.3171 99.5326 34.9772 100.125 35.7051C100.726 36.4245 101.191 37.2031 101.521 38.041C101.852 38.8704 102.017 39.7337 102.017 40.6309C102.017 41.528 101.852 42.3955 101.521 43.2334C101.191 44.0628 100.726 44.8415 100.125 45.5693C99.5326 46.2887 98.8258 46.9489 98.0049 47.5498C97.1839 48.1423 96.2783 48.6501 95.2881 49.0732C94.2979 49.4964 93.2399 49.8223 92.1143 50.0508C90.9971 50.2878 89.846 50.4062 88.6611 50.4062C87.4762 50.4062 86.321 50.2878 85.1953 50.0508C84.0781 49.8223 83.0244 49.4964 82.0342 49.0732C81.0439 48.6501 80.1341 48.1423 79.3047 47.5498C78.4837 46.9489 77.777 46.2887 77.1846 45.5693C76.5921 44.8415 76.1309 44.0628 75.8008 43.2334C75.4707 42.3955 75.3057 41.528 75.3057 40.6309C75.3057 39.7337 75.4707 38.8704 75.8008 38.041C76.1309 37.2031 76.5921 36.4245 77.1846 35.7051C77.777 34.9772 78.4837 34.3171 79.3047 33.7246C80.1341 33.1237 81.0439 32.6117 82.0342 32.1885C83.0244 31.7653 84.0781 31.4395 85.1953 31.2109C86.321 30.974 87.4762 30.8555 88.6611 30.8555ZM78.9238 40.6309C78.9238 41.3757 79.0508 42.0612 79.3047 42.6875C79.5586 43.3138 79.9098 43.8766 80.3584 44.376C80.8154 44.8753 81.3486 45.3112 81.958 45.6836C82.5758 46.056 83.2445 46.3691 83.9639 46.623C84.6833 46.8685 85.4408 47.0547 86.2363 47.1816C87.0319 47.3001 87.8359 47.3594 88.6484 47.3594C89.4609 47.3594 90.265 47.3001 91.0605 47.1816C91.8561 47.0547 92.6136 46.8685 93.333 46.623C94.0609 46.3691 94.7295 46.056 95.3389 45.6836C95.9567 45.3027 96.4899 44.8626 96.9385 44.3633C97.3955 43.8639 97.751 43.3053 98.0049 42.6875C98.2588 42.0612 98.3857 41.3757 98.3857 40.6309C98.3857 39.8776 98.2588 39.1921 98.0049 38.5742C97.751 37.9479 97.3955 37.3851 96.9385 36.8857C96.4899 36.3864 95.9567 35.9505 95.3389 35.5781C94.7295 35.2057 94.0609 34.8968 93.333 34.6514C92.6136 34.3975 91.8561 34.2113 91.0605 34.0928C90.265 33.9658 89.4609 33.9023 88.6484 33.9023C87.8359 33.9023 87.0319 33.9658 86.2363 34.0928C85.4408 34.2113 84.6833 34.3975 83.9639 34.6514C83.2445 34.8968 82.5758 35.21 81.958 35.5908C81.3486 35.9632 80.8154 36.3991 80.3584 36.8984C79.9098 37.3978 79.5586 37.9606 79.3047 38.5869C79.0508 39.2048 78.9238 39.8861 78.9238 40.6309ZM113.138 34.3213L105.305 34.3086L112.401 50H108.466L101.369 34.3086L102.689 31.376L113.138 31.3887V34.3213ZM133.272 30.9062C134.432 30.9062 135.515 31.0163 136.522 31.2363C137.53 31.4479 138.448 31.7441 139.277 32.125C140.115 32.4974 140.86 32.9417 141.512 33.458C142.163 33.9743 142.714 34.5371 143.162 35.1465C143.611 35.7474 143.949 36.3822 144.178 37.0508C144.415 37.7109 144.533 38.3796 144.533 39.0566C144.533 39.7507 144.427 40.4447 144.216 41.1387C144.013 41.8327 143.691 42.4971 143.251 43.1318C142.819 43.7581 142.265 44.3464 141.588 44.8965C140.919 45.4382 140.111 45.9079 139.163 46.3057C138.224 46.7035 137.145 47.0166 135.926 47.2451C134.715 47.4736 133.353 47.5879 131.838 47.5879C130.027 47.5879 128.406 47.4186 126.976 47.0801C125.554 46.7331 124.297 46.2845 123.205 45.7344C122.122 45.1758 121.187 44.5495 120.399 43.8555C119.621 43.1615 118.961 42.459 118.419 41.748V53.2627H114.966V31.3887H118.419V32.8994C118.419 33.8643 118.516 34.7402 118.711 35.5273C118.906 36.3145 119.121 36.9915 119.358 37.5586C119.604 38.1257 119.828 38.5742 120.031 38.9043C120.234 39.2259 120.349 39.4036 120.374 39.4375C122.718 42.916 126.54 44.6553 131.838 44.6553C133.344 44.6553 134.656 44.4987 135.773 44.1855C136.891 43.8724 137.817 43.4577 138.554 42.9414C139.299 42.4167 139.853 41.82 140.217 41.1514C140.581 40.4743 140.763 39.776 140.763 39.0566C140.763 38.4896 140.627 37.9014 140.356 37.292C140.094 36.6742 139.667 36.1113 139.074 35.6035C138.482 35.0872 137.707 34.6641 136.751 34.334C135.803 34.0039 134.644 33.8389 133.272 33.8389C130.793 33.8389 128.643 34.3171 126.823 35.2734C125.004 36.2214 123.51 37.6517 122.342 39.5645L119.841 38.0283C120.171 37.4867 120.56 36.9365 121.009 36.3779C121.457 35.8109 121.969 35.265 122.545 34.7402C123.12 34.207 123.768 33.7119 124.487 33.2549C125.215 32.7894 126.019 32.3831 126.899 32.0361C127.788 31.6891 128.761 31.4141 129.819 31.2109C130.877 31.0078 132.028 30.9062 133.272 30.9062ZM174.951 31.3887V50H171.485V48.1973C171.485 47.3001 171.413 46.4115 171.27 45.5312C171.134 44.651 170.923 43.7878 170.635 42.9414C170.576 42.7552 170.478 42.4844 170.343 42.1289C170.207 41.765 170.025 41.3545 169.797 40.8975C169.568 40.432 169.285 39.9368 168.946 39.4121C168.608 38.8789 168.197 38.3542 167.715 37.8379C167.241 37.3132 166.691 36.8096 166.064 36.3271C165.438 35.8447 164.719 35.4215 163.906 35.0576C163.094 34.6852 162.184 34.389 161.177 34.1689C160.178 33.9489 159.065 33.8389 157.838 33.8389C156.771 33.8389 155.819 33.932 154.981 34.1182C154.152 34.2959 153.424 34.5456 152.798 34.8672C152.172 35.1803 151.638 35.5527 151.198 35.9844C150.767 36.416 150.415 36.8857 150.145 37.3936C149.874 37.9014 149.675 38.4346 149.548 38.9932C149.421 39.5518 149.349 40.1146 149.332 40.6816C149.332 40.7155 149.332 40.7451 149.332 40.7705C149.332 41.2614 149.396 41.7692 149.522 42.2939C149.649 42.8187 149.853 43.335 150.132 43.8428C150.411 44.3506 150.762 44.8288 151.186 45.2773C151.609 45.7259 152.108 46.1195 152.684 46.458C153.259 46.7881 153.911 47.0505 154.639 47.2451C155.367 47.4398 156.171 47.5371 157.051 47.5371C158.041 47.5371 159.019 47.3975 159.983 47.1182C160.957 46.8389 161.888 46.4115 162.776 45.8359C163.674 45.252 164.516 44.5114 165.303 43.6143C166.09 42.7171 166.792 41.6549 167.41 40.4277L170.038 41.748C168.591 44.6257 166.767 46.8008 164.566 48.2734C162.366 49.7376 159.848 50.4697 157.013 50.4697C156.776 50.4697 156.475 50.4697 156.111 50.4697C155.747 50.4697 155.337 50.4443 154.88 50.3936C154.423 50.3512 153.928 50.2708 153.395 50.1523C152.861 50.0339 152.307 49.8561 151.731 49.6191C151.156 49.3822 150.568 49.0775 149.967 48.7051C149.374 48.3242 148.79 47.8503 148.215 47.2832C147.292 46.3776 146.598 45.3704 146.133 44.2617C145.676 43.153 145.447 42.002 145.447 40.8086C145.447 40.7493 145.447 40.6859 145.447 40.6182C145.464 39.8395 145.587 39.0609 145.815 38.2822C146.052 37.4951 146.395 36.7419 146.844 36.0225C147.301 35.3031 147.868 34.6344 148.545 34.0166C149.222 33.3903 150.018 32.8486 150.932 32.3916C151.846 31.9346 152.874 31.5749 154.017 31.3125C155.168 31.0501 156.441 30.9189 157.838 30.9189C159.074 30.9189 160.216 31.0163 161.266 31.2109C162.324 31.3971 163.297 31.6553 164.186 31.9854C165.074 32.3154 165.887 32.7048 166.623 33.1533C167.359 33.6019 168.028 34.0885 168.629 34.6133C169.23 35.1296 169.763 35.6712 170.229 36.2383C170.702 36.7969 171.121 37.3597 171.485 37.9268V31.3887H174.951ZM213.786 31.376V50H210.231V34.6895C209.918 34.7826 209.495 34.9222 208.962 35.1084C208.437 35.2861 207.84 35.5062 207.172 35.7686C206.503 36.0309 205.784 36.3356 205.014 36.6826C204.252 37.0212 203.478 37.402 202.69 37.8252C201.903 38.2399 201.12 38.6927 200.342 39.1836C199.572 39.666 198.848 40.1823 198.171 40.7324C198.738 41.4518 199.174 42.1543 199.479 42.8398C199.783 43.5169 199.982 44.1178 200.075 44.6426C200.177 45.1673 200.228 45.6286 200.228 46.0264C200.228 46.1872 200.211 46.4411 200.177 46.7881C200.151 47.1351 200.067 47.5286 199.923 47.9688C199.787 48.4004 199.618 48.777 199.415 49.0986C199.212 49.4202 199.013 49.6699 198.818 49.8477C198.421 50.2201 197.964 50.4909 197.447 50.6602C196.931 50.8294 196.406 50.9141 195.873 50.9141C195.298 50.9141 194.743 50.821 194.21 50.6348C193.677 50.457 193.228 50.1947 192.864 49.8477C192.45 49.4583 192.111 48.9378 191.849 48.2861C191.595 47.6344 191.468 46.9023 191.468 46.0898C191.468 45.2773 191.624 44.4141 191.938 43.5C192.259 42.5775 192.784 41.6549 193.512 40.7324C192.911 40.2415 192.272 39.776 191.595 39.3359C190.926 38.8958 190.236 38.4811 189.525 38.0918C188.823 37.694 188.112 37.3258 187.393 36.9873C186.673 36.6403 185.966 36.3271 185.272 36.0479C184.587 35.7601 183.918 35.502 183.267 35.2734C182.615 35.0449 182.01 34.8503 181.451 34.6895V50H177.896V31.376H181.121C181.773 31.5537 182.492 31.778 183.279 32.0488C184.066 32.3112 184.887 32.6117 185.742 32.9502C186.605 33.2887 187.486 33.6654 188.383 34.0801C189.288 34.4863 190.177 34.9264 191.049 35.4004C191.921 35.8743 192.763 36.3779 193.575 36.9111C194.396 37.4443 195.154 37.9987 195.848 38.5742C196.652 37.9056 197.57 37.237 198.603 36.5684C199.635 35.8997 200.769 35.2565 202.005 34.6387C203.249 34.0124 204.586 33.4242 206.017 32.874C207.455 32.3154 208.975 31.8161 210.574 31.376H213.786ZM196.99 46.1787C196.99 45.5863 196.889 45.0234 196.686 44.4902C196.482 43.9486 196.203 43.4238 195.848 42.916C195.492 43.4238 195.213 43.9486 195.01 44.4902C194.807 45.0234 194.705 45.5863 194.705 46.1787C194.705 46.3818 194.718 46.585 194.743 46.7881C194.777 46.9912 194.832 47.1774 194.908 47.3467C194.993 47.516 195.111 47.6556 195.264 47.7656C195.416 47.8672 195.615 47.918 195.86 47.918C196.097 47.918 196.288 47.863 196.432 47.7529C196.584 47.6429 196.698 47.5033 196.774 47.334C196.859 47.1647 196.914 46.9785 196.939 46.7754C196.973 46.5638 196.99 46.3649 196.99 46.1787ZM252.075 31.376V50H248.521V34.6895C248.207 34.7826 247.784 34.9222 247.251 35.1084C246.726 35.2861 246.13 35.5062 245.461 35.7686C244.792 36.0309 244.073 36.3356 243.303 36.6826C242.541 37.0212 241.767 37.402 240.979 37.8252C240.192 38.2399 239.41 38.6927 238.631 39.1836C237.861 39.666 237.137 40.1823 236.46 40.7324C237.027 41.4518 237.463 42.1543 237.768 42.8398C238.072 43.5169 238.271 44.1178 238.364 44.6426C238.466 45.1673 238.517 45.6286 238.517 46.0264C238.517 46.1872 238.5 46.4411 238.466 46.7881C238.44 47.1351 238.356 47.5286 238.212 47.9688C238.076 48.4004 237.907 48.777 237.704 49.0986C237.501 49.4202 237.302 49.6699 237.107 49.8477C236.71 50.2201 236.253 50.4909 235.736 50.6602C235.22 50.8294 234.695 50.9141 234.162 50.9141C233.587 50.9141 233.032 50.821 232.499 50.6348C231.966 50.457 231.517 50.1947 231.153 49.8477C230.739 49.4583 230.4 48.9378 230.138 48.2861C229.884 47.6344 229.757 46.9023 229.757 46.0898C229.757 45.2773 229.913 44.4141 230.227 43.5C230.548 42.5775 231.073 41.6549 231.801 40.7324C231.2 40.2415 230.561 39.776 229.884 39.3359C229.215 38.8958 228.525 38.4811 227.814 38.0918C227.112 37.694 226.401 37.3258 225.682 36.9873C224.962 36.6403 224.256 36.3271 223.562 36.0479C222.876 35.7601 222.207 35.502 221.556 35.2734C220.904 35.0449 220.299 34.8503 219.74 34.6895V50H216.186V31.376H219.41C220.062 31.5537 220.781 31.778 221.568 32.0488C222.355 32.3112 223.176 32.6117 224.031 32.9502C224.895 33.2887 225.775 33.6654 226.672 34.0801C227.577 34.4863 228.466 34.9264 229.338 35.4004C230.21 35.8743 231.052 36.3779 231.864 36.9111C232.685 37.4443 233.443 37.9987 234.137 38.5742C234.941 37.9056 235.859 37.237 236.892 36.5684C237.924 35.8997 239.058 35.2565 240.294 34.6387C241.538 34.0124 242.875 33.4242 244.306 32.874C245.744 32.3154 247.264 31.8161 248.863 31.376H252.075ZM235.279 46.1787C235.279 45.5863 235.178 45.0234 234.975 44.4902C234.771 43.9486 234.492 43.4238 234.137 42.916C233.781 43.4238 233.502 43.9486 233.299 44.4902C233.096 45.0234 232.994 45.5863 232.994 46.1787C232.994 46.3818 233.007 46.585 233.032 46.7881C233.066 46.9912 233.121 47.1774 233.197 47.3467C233.282 47.516 233.4 47.6556 233.553 47.7656C233.705 47.8672 233.904 47.918 234.149 47.918C234.386 47.918 234.577 47.863 234.721 47.7529C234.873 47.6429 234.987 47.5033 235.063 47.334C235.148 47.1647 235.203 46.9785 235.229 46.7754C235.262 46.5638 235.279 46.3649 235.279 46.1787ZM283.344 31.3887V50H279.878V48.1973C279.878 47.3001 279.806 46.4115 279.662 45.5312C279.527 44.651 279.315 43.7878 279.027 42.9414C278.968 42.7552 278.871 42.4844 278.735 42.1289C278.6 41.765 278.418 41.3545 278.189 40.8975C277.961 40.432 277.677 39.9368 277.339 39.4121C277 38.8789 276.59 38.3542 276.107 37.8379C275.633 37.3132 275.083 36.8096 274.457 36.3271C273.831 35.8447 273.111 35.4215 272.299 35.0576C271.486 34.6852 270.576 34.389 269.569 34.1689C268.571 33.9489 267.458 33.8389 266.23 33.8389C265.164 33.8389 264.212 33.932 263.374 34.1182C262.545 34.2959 261.817 34.5456 261.19 34.8672C260.564 35.1803 260.031 35.5527 259.591 35.9844C259.159 36.416 258.808 36.8857 258.537 37.3936C258.266 37.9014 258.067 38.4346 257.94 38.9932C257.813 39.5518 257.742 40.1146 257.725 40.6816C257.725 40.7155 257.725 40.7451 257.725 40.7705C257.725 41.2614 257.788 41.7692 257.915 42.2939C258.042 42.8187 258.245 43.335 258.524 43.8428C258.804 44.3506 259.155 44.8288 259.578 45.2773C260.001 45.7259 260.501 46.1195 261.076 46.458C261.652 46.7881 262.303 47.0505 263.031 47.2451C263.759 47.4398 264.563 47.5371 265.443 47.5371C266.434 47.5371 267.411 47.3975 268.376 47.1182C269.349 46.8389 270.28 46.4115 271.169 45.8359C272.066 45.252 272.908 44.5114 273.695 43.6143C274.482 42.7171 275.185 41.6549 275.803 40.4277L278.431 41.748C276.983 44.6257 275.16 46.8008 272.959 48.2734C270.758 49.7376 268.241 50.4697 265.405 50.4697C265.168 50.4697 264.868 50.4697 264.504 50.4697C264.14 50.4697 263.729 50.4443 263.272 50.3936C262.815 50.3512 262.32 50.2708 261.787 50.1523C261.254 50.0339 260.7 49.8561 260.124 49.6191C259.549 49.3822 258.96 49.0775 258.359 48.7051C257.767 48.3242 257.183 47.8503 256.607 47.2832C255.685 46.3776 254.991 45.3704 254.525 44.2617C254.068 43.153 253.84 42.002 253.84 40.8086C253.84 40.7493 253.84 40.6859 253.84 40.6182C253.857 39.8395 253.979 39.0609 254.208 38.2822C254.445 37.4951 254.788 36.7419 255.236 36.0225C255.693 35.3031 256.26 34.6344 256.938 34.0166C257.615 33.3903 258.41 32.8486 259.324 32.3916C260.238 31.9346 261.267 31.5749 262.409 31.3125C263.56 31.0501 264.834 30.9189 266.23 30.9189C267.466 30.9189 268.609 31.0163 269.658 31.2109C270.716 31.3971 271.689 31.6553 272.578 31.9854C273.467 32.3154 274.279 32.7048 275.016 33.1533C275.752 33.6019 276.421 34.0885 277.021 34.6133C277.622 35.1296 278.156 35.6712 278.621 36.2383C279.095 36.7969 279.514 37.3597 279.878 37.9268V31.3887H283.344Z" fill="#82A816"/>
<path d="M81.4248 71.5801C81.4248 71.6647 81.4248 71.7493 81.4248 71.834C81.4248 72.7142 81.2979 73.569 81.0439 74.3984C80.79 75.2279 80.4176 76.0107 79.9268 76.7471C79.4359 77.4749 78.8477 78.1351 78.1621 78.7275C77.4766 79.3115 76.7191 79.8066 75.8896 80.2129C75.0687 80.6191 74.1885 80.9323 73.249 81.1523C72.3096 81.3724 71.349 81.4824 70.3672 81.4824C69.1992 81.4824 68.0143 81.3174 66.8125 80.9873C65.6191 80.6572 64.4596 80.141 63.334 79.4385C62.2083 78.7275 61.1419 77.8177 60.1348 76.709C59.1276 75.6003 58.2305 74.2673 57.4434 72.71L60.0713 71.3896C60.6891 72.6169 61.3916 73.679 62.1787 74.5762C62.9658 75.4648 63.8037 76.1969 64.6924 76.7725C65.5895 77.348 66.5205 77.7754 67.4854 78.0547C68.4587 78.334 69.4404 78.4736 70.4307 78.4736C71.3109 78.4736 72.1149 78.3763 72.8428 78.1816C73.5706 77.987 74.2223 77.7246 74.7979 77.3945C75.3734 77.0645 75.8727 76.6794 76.2959 76.2393C76.7191 75.7907 77.0703 75.3125 77.3496 74.8047C77.6289 74.2969 77.832 73.7806 77.959 73.2559C78.0859 72.7311 78.1494 72.2233 78.1494 71.7324C78.1494 71.707 78.1494 71.6774 78.1494 71.6436C78.141 71.0765 78.069 70.5179 77.9336 69.9678C77.8066 69.4092 77.6077 68.8802 77.3369 68.3809C77.0661 67.873 76.7106 67.4033 76.2705 66.9717C75.8389 66.54 75.3099 66.1676 74.6836 65.8545C74.0573 65.5329 73.3294 65.2832 72.5 65.1055C71.6706 64.9277 70.7184 64.8389 69.6436 64.8389C66.9691 64.8389 64.667 65.3678 62.7373 66.4258C60.8076 67.4753 59.2461 69.0579 58.0527 71.1738C57.9089 71.4277 57.7184 71.7959 57.4814 72.2783C57.2529 72.7523 57.0286 73.3278 56.8086 74.0049C56.5885 74.682 56.3981 75.4521 56.2373 76.3154C56.0765 77.1787 55.9961 78.1224 55.9961 79.1465V81.0127H52.5303V79.1465C52.5303 78.1139 52.4456 77.166 52.2764 76.3027C52.1156 75.431 51.9251 74.6566 51.7051 73.9795C51.485 73.2939 51.2565 72.7142 51.0195 72.2402C50.791 71.7663 50.609 71.4108 50.4736 71.1738C49.2803 69.0579 47.7188 67.4753 45.7891 66.4258C43.8594 65.3678 41.5573 64.8389 38.8828 64.8389C37.8164 64.8389 36.8643 64.9277 36.0264 65.1055C35.1969 65.2832 34.4691 65.5329 33.8428 65.8545C33.2165 66.1676 32.6833 66.54 32.2432 66.9717C31.8115 67.4033 31.4603 67.873 31.1895 68.3809C30.9186 68.8802 30.7197 69.4092 30.5928 69.9678C30.4658 70.5179 30.3981 71.0765 30.3896 71.6436C30.3896 71.6774 30.3896 71.7113 30.3896 71.7451C30.3896 72.2275 30.4489 72.7311 30.5674 73.2559C30.6943 73.7806 30.8975 74.2969 31.1768 74.8047C31.4561 75.3125 31.8073 75.7907 32.2305 76.2393C32.6536 76.6794 33.153 77.0645 33.7285 77.3945C34.304 77.7246 34.9557 77.987 35.6836 78.1816C36.4115 78.3763 37.2155 78.4736 38.0957 78.4736C39.0859 78.4736 40.0635 78.334 41.0283 78.0547C42.0016 77.7754 42.9326 77.348 43.8213 76.7725C44.7184 76.1969 45.5605 75.4648 46.3477 74.5762C47.1348 73.679 47.8372 72.6169 48.4551 71.3896L51.083 72.71C50.2959 74.2673 49.3945 75.6003 48.3789 76.709C47.3717 77.8177 46.3053 78.7275 45.1797 79.4385C44.054 80.1494 42.8903 80.6699 41.6885 81C40.4867 81.3216 39.3018 81.4824 38.1338 81.4824C37.152 81.4824 36.1914 81.3724 35.252 81.1523C34.321 80.9323 33.4408 80.6191 32.6113 80.2129C31.7904 79.7982 31.0371 79.2988 30.3516 78.7148C29.666 78.1309 29.0778 77.4707 28.5869 76.7344C28.1045 75.998 27.7363 75.2194 27.4824 74.3984C27.2285 73.569 27.1016 72.7142 27.1016 71.834C27.1016 71.7493 27.1016 71.6647 27.1016 71.5801C27.1185 70.8014 27.2285 70.0228 27.4316 69.2441C27.6348 68.4655 27.9395 67.7207 28.3457 67.0098C28.752 66.2904 29.2682 65.6217 29.8945 65.0039C30.5208 64.3861 31.2656 63.8486 32.1289 63.3916C33.0007 62.9346 33.9951 62.5749 35.1123 62.3125C36.2295 62.0501 37.4863 61.9189 38.8828 61.9189C40.7363 61.9189 42.3867 62.1263 43.834 62.541C45.2897 62.9473 46.5677 63.4847 47.668 64.1533C48.7767 64.8135 49.7288 65.5625 50.5244 66.4004C51.32 67.2298 51.9886 68.0677 52.5303 68.9141V62.3887H55.9961V68.9141C56.5378 68.0677 57.2064 67.2298 58.002 66.4004C58.7975 65.5625 59.7454 64.8135 60.8457 64.1533C61.9544 63.4847 63.2324 62.9473 64.6797 62.541C66.1354 62.1263 67.79 61.9189 69.6436 61.9189C71.04 61.9189 72.2969 62.0501 73.4141 62.3125C74.5312 62.5749 75.5215 62.9346 76.3848 63.3916C77.2565 63.8486 78.0055 64.3861 78.6318 65.0039C79.2581 65.6217 79.7744 66.2904 80.1807 67.0098C80.5869 67.7207 80.8916 68.4655 81.0947 69.2441C81.2979 70.0228 81.4079 70.8014 81.4248 71.5801ZM102.651 77.1533C102.042 77.9235 101.373 78.5837 100.646 79.1338C99.9261 79.6755 99.1813 80.1198 98.4111 80.4668C97.641 80.8138 96.8623 81.0677 96.0752 81.2285C95.2881 81.3893 94.5264 81.4697 93.79 81.4697C92.5374 81.4697 91.4202 81.3089 90.4385 80.9873C89.4567 80.6657 88.5934 80.2552 87.8486 79.7559C87.1038 79.2565 86.4691 78.7064 85.9443 78.1055C85.4196 77.5046 84.988 76.9248 84.6494 76.3662C84.3109 75.7992 84.0527 75.2956 83.875 74.8555C83.6973 74.4154 83.5872 74.1064 83.5449 73.9287C83.0879 73.9202 82.7747 73.916 82.6055 73.916C82.4362 73.9076 82.3262 73.8991 82.2754 73.8906L82.3516 70.9453C82.36 70.9453 82.377 70.9453 82.4023 70.9453C82.4362 70.9453 82.487 70.9495 82.5547 70.958C82.6309 70.958 82.7324 70.9622 82.8594 70.9707C82.9948 70.9707 83.1641 70.9707 83.3672 70.9707C83.4603 70.2259 83.6507 69.4896 83.9385 68.7617C84.2262 68.0339 84.6029 67.3398 85.0684 66.6797C85.5423 66.0195 86.0967 65.4059 86.7314 64.8389C87.3662 64.2718 88.0687 63.7767 88.8389 63.3535C89.609 62.9303 90.4427 62.596 91.3398 62.3506C92.237 62.0967 93.1849 61.957 94.1836 61.9316C94.2936 61.9316 94.4036 61.9316 94.5137 61.9316C95.2331 61.9316 95.944 62.012 96.6465 62.1729C97.349 62.3252 98.0218 62.5579 98.665 62.8711C99.3083 63.1758 99.888 63.5397 100.404 63.9629C100.929 64.3776 101.373 64.8262 101.737 65.3086C102.101 65.791 102.381 66.2946 102.575 66.8193C102.778 67.3356 102.88 67.8434 102.88 68.3428C102.88 69.1637 102.749 69.8704 102.486 70.4629C102.224 71.0469 101.881 71.5378 101.458 71.9355C101.043 72.3333 100.574 72.6507 100.049 72.8877C99.5241 73.1247 98.9951 73.3109 98.4619 73.4463C97.9372 73.5732 97.4378 73.6579 96.9639 73.7002C96.4899 73.7425 96.0921 73.7721 95.7705 73.7891L95.4404 73.8018C94.9242 73.8187 94.3275 73.8398 93.6504 73.8652C92.9818 73.8822 92.2751 73.9033 91.5303 73.9287C90.7855 73.9456 90.1211 73.9583 89.5371 73.9668C88.9616 73.9668 88.4876 73.9668 88.1152 73.9668C87.7428 73.9668 87.3747 73.9668 87.0107 73.9668C87.2816 74.6439 87.6709 75.2575 88.1787 75.8076C88.695 76.3577 89.2747 76.8317 89.918 77.2295C90.5697 77.6188 91.2594 77.9193 91.9873 78.1309C92.7152 78.3424 93.4346 78.4482 94.1455 78.4482C94.6956 78.4482 95.2458 78.3848 95.7959 78.2578C96.3545 78.1309 96.9046 77.9362 97.4463 77.6738C97.988 77.403 98.5127 77.056 99.0205 76.6328C99.5283 76.2012 100.011 75.6891 100.468 75.0967L102.651 77.1533ZM98.6523 66.5908C98.043 65.9984 97.3701 65.5667 96.6338 65.2959C95.9059 65.0251 95.1442 64.8896 94.3486 64.8896C93.4938 64.8896 92.6432 65.0378 91.7969 65.334C90.959 65.6302 90.1888 66.0492 89.4863 66.5908C88.7923 67.124 88.1956 67.7673 87.6963 68.5205C87.2054 69.2653 86.8753 70.0947 86.7061 71.0088C87.1885 71.0173 87.6709 71.0215 88.1533 71.0215C88.3988 71.0215 88.7627 71.0215 89.2451 71.0215C89.736 71.013 90.3285 71.0046 91.0225 70.9961C91.7249 70.9792 92.3893 70.9622 93.0156 70.9453C93.6419 70.9199 94.209 70.8903 94.7168 70.8564L94.9072 70.8438C95.762 70.7845 96.4814 70.6956 97.0654 70.5771C97.6494 70.4587 98.1191 70.3021 98.4746 70.1074C98.8301 69.9043 99.084 69.6589 99.2363 69.3711C99.3971 69.0749 99.4775 68.7321 99.4775 68.3428C99.4775 67.7165 99.2025 67.1325 98.6523 66.5908ZM128.283 76.6582C127.716 77.3438 127.022 77.9827 126.201 78.5752C125.389 79.1592 124.487 79.667 123.497 80.0986C122.515 80.5303 121.466 80.8646 120.349 81.1016C119.231 81.347 118.089 81.4697 116.921 81.4697C115.736 81.4697 114.576 81.3512 113.442 81.1143C112.317 80.8773 111.255 80.543 110.256 80.1113C109.257 79.6797 108.339 79.1634 107.501 78.5625C106.663 77.9616 105.944 77.3014 105.343 76.582C104.742 75.8542 104.272 75.0798 103.934 74.2588C103.595 73.4294 103.426 72.5745 103.426 71.6943C103.426 70.8141 103.595 69.9635 103.934 69.1426C104.272 68.3132 104.742 67.5387 105.343 66.8193C105.944 66.0915 106.663 65.4271 107.501 64.8262C108.339 64.2253 109.257 63.709 110.256 63.2773C111.255 62.8457 112.317 62.5114 113.442 62.2744C114.576 62.0374 115.736 61.9189 116.921 61.9189C118.089 61.9189 119.231 62.0417 120.349 62.2871C121.466 62.5241 122.515 62.8584 123.497 63.29C124.487 63.7132 125.389 64.221 126.201 64.8135C127.022 65.3975 127.716 66.0322 128.283 66.7178L125.389 68.4824C125.312 68.3893 125.181 68.2412 124.995 68.0381C124.817 67.8265 124.572 67.5938 124.259 67.3398C123.946 67.0775 123.565 66.8109 123.116 66.54C122.676 66.2607 122.156 66.0111 121.555 65.791C120.962 65.5625 120.285 65.3763 119.523 65.2324C118.77 65.0801 117.928 65.0039 116.997 65.0039C115.389 65.0039 113.976 65.1986 112.757 65.5879C111.538 65.9688 110.514 66.4723 109.685 67.0986C108.864 67.7249 108.242 68.4401 107.818 69.2441C107.395 70.0397 107.179 70.6533 107.171 71.085C107.162 71.5166 107.158 71.7451 107.158 71.7705C107.158 72.583 107.353 73.3828 107.742 74.1699C108.14 74.957 108.745 75.6637 109.558 76.29C110.37 76.9163 111.394 77.4242 112.63 77.8135C113.874 78.1943 115.33 78.3848 116.997 78.3848C117.937 78.3848 118.787 78.3086 119.549 78.1562C120.311 78.0039 120.992 77.8135 121.593 77.585C122.194 77.3564 122.714 77.1025 123.154 76.8232C123.603 76.5355 123.979 76.2646 124.284 76.0107C124.597 75.7568 124.843 75.5283 125.021 75.3252C125.198 75.1221 125.321 74.9824 125.389 74.9062L128.283 76.6582ZM141.88 65.3213H138.338L131.254 81H127.687L134.771 65.3213H130.264L131.597 62.3887H143.213L141.88 65.3213ZM162.903 73.5732C162.895 73.734 162.891 73.8991 162.891 74.0684C162.891 74.4069 162.912 74.7962 162.954 75.2363C162.996 75.668 163.068 76.1165 163.17 76.582C163.28 77.0391 163.415 77.4368 163.576 77.7754C163.737 78.1055 163.919 78.3255 164.122 78.4355L162.535 81.4824C162.163 81.2878 161.803 81.0042 161.456 80.6318C161.109 80.251 160.8 79.8151 160.529 79.3242C160.267 78.8249 160.055 78.2832 159.895 77.6992C159.742 77.1068 159.666 76.5016 159.666 75.8838C159.539 76.0192 159.357 76.2266 159.12 76.5059C158.892 76.7852 158.617 77.0983 158.295 77.4453C157.982 77.7839 157.622 78.1436 157.216 78.5244C156.81 78.8968 156.365 79.2565 155.883 79.6035C155.409 79.9505 154.893 80.2679 154.334 80.5557C153.784 80.835 153.204 81.0465 152.595 81.1904C152.341 81.2581 152.04 81.3132 151.693 81.3555C151.355 81.3978 150.987 81.4189 150.589 81.4189C150.191 81.4189 149.776 81.3893 149.345 81.3301C148.913 81.2708 148.486 81.1608 148.062 81C147.639 80.8477 147.229 80.6445 146.831 80.3906C146.442 80.1283 146.082 79.8024 145.752 79.4131C145.422 79.0153 145.134 78.5413 144.889 77.9912C144.652 77.4411 144.478 76.8021 144.368 76.0742C144.275 75.4648 144.203 74.8724 144.152 74.2969C144.11 73.7129 144.08 73.1924 144.063 72.7354C144.047 72.3291 144.038 71.9398 144.038 71.5674V62.3887H147.479V72.748C147.479 73.7467 147.559 74.5889 147.72 75.2744C147.889 75.96 148.113 76.5143 148.393 76.9375C148.68 77.3522 149.015 77.6527 149.396 77.8389C149.785 78.0166 150.2 78.1055 150.64 78.1055C151.097 78.1055 151.571 78.0251 152.062 77.8643C152.561 77.695 153.052 77.4749 153.534 77.2041C154.017 76.9333 154.482 76.6243 154.931 76.2773C155.388 75.9303 155.798 75.5791 156.162 75.2236C157.008 74.4027 157.694 73.6536 158.219 72.9766C158.752 72.291 159.167 71.7113 159.463 71.2373V62.3887H162.903V73.5732ZM188.751 71.4658C189.919 72.0244 190.799 72.6592 191.392 73.3701C191.993 74.0726 192.293 74.8597 192.293 75.7314C192.293 76.0869 192.229 76.4847 192.103 76.9248C191.984 77.3649 191.76 77.805 191.43 78.2451C191.108 78.6852 190.668 79.1084 190.109 79.5146C189.551 79.9124 188.836 80.251 187.964 80.5303C186.982 80.8519 185.84 81.0889 184.536 81.2412C183.233 81.402 181.769 81.4824 180.144 81.4824C179.001 81.4824 177.88 81.402 176.779 81.2412C175.688 81.0804 174.655 80.8519 173.682 80.5557C172.717 80.251 171.837 79.887 171.041 79.4639C170.245 79.0407 169.573 78.571 169.022 78.0547L171.041 75.9219C171.371 76.235 171.828 76.5524 172.412 76.874C172.996 77.1872 173.677 77.4665 174.456 77.7119C175.243 77.9574 176.115 78.1605 177.071 78.3213C178.028 78.4736 179.052 78.5498 180.144 78.5498C180.643 78.5498 181.206 78.5286 181.832 78.4863C182.458 78.444 183.093 78.3763 183.736 78.2832C184.38 78.1901 185.006 78.0716 185.615 77.9277C186.233 77.7839 186.779 77.6146 187.253 77.4199C187.735 77.2168 188.12 76.984 188.408 76.7217C188.704 76.4508 188.853 76.1504 188.853 75.8203C188.853 75.541 188.747 75.2448 188.535 74.9316C188.324 74.6185 187.96 74.3307 187.443 74.0684C186.936 73.806 186.254 73.5902 185.399 73.4209C184.553 73.2432 183.487 73.1543 182.2 73.1543H169.556C169.488 73.4251 169.412 73.734 169.327 74.0811C169.243 74.4281 169.179 74.7624 169.137 75.084C169.103 75.3464 169.069 75.6341 169.035 75.9473C169.001 76.252 168.972 76.5693 168.946 76.8994C168.929 77.2295 168.912 77.5596 168.896 77.8896C168.879 78.2197 168.862 78.5371 168.845 78.8418C168.811 79.5527 168.79 80.2721 168.781 81H165.582V62.3887H168.781V67.6953C168.866 67.5768 169.022 67.3525 169.251 67.0225C169.479 66.6924 169.805 66.3115 170.229 65.8799C170.66 65.4482 171.198 64.9997 171.841 64.5342C172.493 64.0687 173.271 63.6413 174.177 63.252C175.082 62.8626 176.132 62.541 177.325 62.2871C178.527 62.0332 179.89 61.9062 181.413 61.9062C182.81 61.9062 184.083 62.0374 185.234 62.2998C186.385 62.5622 187.384 62.9473 188.23 63.4551C189.085 63.9714 189.745 64.5934 190.211 65.3213C190.676 66.0407 190.909 66.8109 190.909 67.6318C190.909 68.3682 190.719 69.0664 190.338 69.7266C189.965 70.3867 189.437 70.9665 188.751 71.4658ZM182.467 70.2217C183.415 70.2217 184.236 70.137 184.93 69.9678C185.624 69.7985 186.195 69.5869 186.644 69.333C187.092 69.0791 187.426 68.7998 187.646 68.4951C187.867 68.1904 187.977 67.9027 187.977 67.6318C187.977 67.3441 187.867 67.0563 187.646 66.7686C187.426 66.4808 187.113 66.2142 186.707 65.9688C186.495 65.8418 186.233 65.7106 185.92 65.5752C185.607 65.4398 185.234 65.3171 184.803 65.207C184.371 65.097 183.876 65.0081 183.317 64.9404C182.759 64.8727 182.124 64.8389 181.413 64.8389C179.881 64.8389 178.535 64.9785 177.376 65.2578C176.216 65.5286 175.209 65.9053 174.354 66.3877C173.5 66.8701 172.776 67.4414 172.184 68.1016C171.591 68.7533 171.092 69.46 170.686 70.2217H182.467ZM222.559 62.3887V81H219.093V79.1973C219.093 78.3001 219.021 77.4115 218.877 76.5312C218.742 75.651 218.53 74.7878 218.242 73.9414C218.183 73.7552 218.086 73.4844 217.95 73.1289C217.815 72.765 217.633 72.3545 217.404 71.8975C217.176 71.432 216.892 70.9368 216.554 70.4121C216.215 69.8789 215.805 69.3542 215.322 68.8379C214.848 68.3132 214.298 67.8096 213.672 67.3271C213.046 66.8447 212.326 66.4215 211.514 66.0576C210.701 65.6852 209.791 65.389 208.784 65.1689C207.785 64.9489 206.673 64.8389 205.445 64.8389C204.379 64.8389 203.427 64.932 202.589 65.1182C201.759 65.2959 201.032 65.5456 200.405 65.8672C199.779 66.1803 199.246 66.5527 198.806 66.9844C198.374 67.416 198.023 67.8857 197.752 68.3936C197.481 68.9014 197.282 69.4346 197.155 69.9932C197.028 70.5518 196.956 71.1146 196.939 71.6816C196.939 71.7155 196.939 71.7451 196.939 71.7705C196.939 72.2614 197.003 72.7692 197.13 73.2939C197.257 73.8187 197.46 74.335 197.739 74.8428C198.019 75.3506 198.37 75.8288 198.793 76.2773C199.216 76.7259 199.715 77.1195 200.291 77.458C200.867 77.7881 201.518 78.0505 202.246 78.2451C202.974 78.4398 203.778 78.5371 204.658 78.5371C205.648 78.5371 206.626 78.3975 207.591 78.1182C208.564 77.8389 209.495 77.4115 210.384 76.8359C211.281 76.252 212.123 75.5114 212.91 74.6143C213.697 73.7171 214.4 72.6549 215.018 71.4277L217.646 72.748C216.198 75.6257 214.374 77.8008 212.174 79.2734C209.973 80.7376 207.455 81.4697 204.62 81.4697C204.383 81.4697 204.083 81.4697 203.719 81.4697C203.355 81.4697 202.944 81.4443 202.487 81.3936C202.03 81.3512 201.535 81.2708 201.002 81.1523C200.469 81.0339 199.914 80.8561 199.339 80.6191C198.763 80.3822 198.175 80.0775 197.574 79.7051C196.982 79.3242 196.398 78.8503 195.822 78.2832C194.9 77.3776 194.206 76.3704 193.74 75.2617C193.283 74.153 193.055 73.002 193.055 71.8086C193.055 71.7493 193.055 71.6859 193.055 71.6182C193.072 70.8395 193.194 70.0609 193.423 69.2822C193.66 68.4951 194.003 67.7419 194.451 67.0225C194.908 66.3031 195.475 65.6344 196.152 65.0166C196.829 64.3903 197.625 63.8486 198.539 63.3916C199.453 62.9346 200.481 62.5749 201.624 62.3125C202.775 62.0501 204.049 61.9189 205.445 61.9189C206.681 61.9189 207.824 62.0163 208.873 62.2109C209.931 62.3971 210.904 62.6553 211.793 62.9854C212.682 63.3154 213.494 63.7048 214.23 64.1533C214.967 64.6019 215.635 65.0885 216.236 65.6133C216.837 66.1296 217.37 66.6712 217.836 67.2383C218.31 67.7969 218.729 68.3597 219.093 68.9268V62.3887H222.559ZM237.006 62.3887V81H233.68V66.21L227.002 81H223.358L231.775 62.376H235.419V62.3887H237.006ZM261.343 62.4014V81.0127H258.169V77.8516C258.144 77.5807 258.101 77.2168 258.042 76.7598C257.991 76.3027 257.907 75.7822 257.788 75.1982C257.67 74.6143 257.517 73.988 257.331 73.3193C257.145 72.6507 256.912 71.9779 256.633 71.3008C254.872 67.0013 252.088 64.8516 248.279 64.8516C247.577 64.8516 246.946 64.8939 246.388 64.9785C245.838 65.0547 245.347 65.1562 244.915 65.2832C244.492 65.4102 244.124 65.5498 243.811 65.7021C243.506 65.8545 243.248 66.0068 243.036 66.1592C242.596 66.4639 242.257 66.8109 242.021 67.2002C241.792 67.5811 241.678 67.9788 241.678 68.3936C241.678 68.7998 241.792 69.2018 242.021 69.5996C242.257 69.9889 242.609 70.3359 243.074 70.6406C243.54 70.9453 244.115 71.195 244.801 71.3896C245.486 71.5758 246.282 71.6689 247.188 71.6689C249.464 71.6689 251.377 71.1569 252.926 70.1328L256.011 72.4561C256.002 72.473 255.994 72.4941 255.985 72.5195L255.96 72.5576C255.96 72.583 255.951 72.6042 255.935 72.6211C255.664 73.1712 255.334 73.7721 254.944 74.4238C254.555 75.0755 254.106 75.7314 253.599 76.3916C253.091 77.0433 252.515 77.6738 251.872 78.2832C251.237 78.8926 250.535 79.4342 249.765 79.9082C249.003 80.3822 248.165 80.7588 247.251 81.0381C246.345 81.3258 245.368 81.4697 244.318 81.4697C243.887 81.4697 243.434 81.4232 242.96 81.3301C242.486 81.2454 242.008 81.1227 241.525 80.9619C241.051 80.7926 240.577 80.5895 240.104 80.3525C239.63 80.1156 239.173 79.8447 238.732 79.54L240.396 77.1279C240.709 77.3395 241.035 77.5342 241.373 77.7119C241.712 77.8812 242.05 78.0293 242.389 78.1562C242.736 78.2747 243.074 78.3678 243.404 78.4355C243.734 78.5033 244.039 78.5371 244.318 78.5371C245.165 78.5371 245.952 78.4059 246.68 78.1436C247.408 77.8727 248.08 77.5215 248.698 77.0898C249.325 76.6582 249.892 76.1673 250.399 75.6172C250.916 75.0586 251.377 74.4915 251.783 73.916C250.387 74.373 248.855 74.6016 247.188 74.6016C245.799 74.6016 244.576 74.4238 243.519 74.0684C242.469 73.7129 241.589 73.2432 240.878 72.6592C240.175 72.0752 239.642 71.4108 239.278 70.666C238.923 69.9212 238.745 69.1637 238.745 68.3936C238.745 67.4964 238.969 66.6458 239.418 65.8418C239.867 65.0378 240.51 64.3438 241.348 63.7598C242.202 63.1504 243.214 62.6934 244.382 62.3887C245.558 62.0755 246.857 61.9189 248.279 61.9189C250.412 61.9189 252.308 62.4141 253.967 63.4043C255.626 64.3945 257.026 65.8587 258.169 67.7969V62.4014H261.343Z" fill="#82A816"/>
<mask id="mask0_130_55" style="mask-type:alpha" maskUnits="userSpaceOnUse" x="0" y="0" width="110" height="120">
<path fill-rule="evenodd" clip-rule="evenodd" d="M56.1712 0.00438063C70.389 0.195188 84.9299 5.82637 93.9926 15.7935C102.287 24.9154 98.6254 38.211 101.423 49.7721C103.838 59.7565 112.598 69.0755 109.245 78.8333C105.885 88.6108 93.4738 92.4323 84.5959 98.7351C75.3041 105.332 67.5986 113.885 56.1712 116.513C42.503 119.655 25.5671 123.192 14.9577 114.747C4.27205 106.241 10.011 90.272 7.28243 77.5963C5.00071 66.9966 -1.44755 57.3159 0.295084 46.6318C2.25285 34.6287 7.70018 22.9703 17.5302 14.7673C28.0831 5.96116 41.852 -0.187787 56.1712 0.00438063Z" fill="#82A816"/>
</mask>
<g mask="url(#mask0_130_55)">
<path d="M28.5107 31.3887H42.5518V50H39.1748V34.5117H31.8877V50H28.5107V31.3887ZM63.3467 30.9062C64.5062 30.9062 65.5895 31.0163 66.5967 31.2363C67.6038 31.4479 68.5221 31.7441 69.3516 32.125C70.1895 32.4974 70.9342 32.9417 71.5859 33.458C72.2376 33.9743 72.7878 34.5371 73.2363 35.1465C73.6849 35.7474 74.0234 36.3822 74.252 37.0508C74.4889 37.7109 74.6074 38.3796 74.6074 39.0566C74.6074 39.7507 74.5016 40.4447 74.29 41.1387C74.0869 41.8327 73.7653 42.4971 73.3252 43.1318C72.8936 43.7581 72.3392 44.3464 71.6621 44.8965C70.9935 45.4382 70.1852 45.9079 69.2373 46.3057C68.2979 46.7035 67.2188 47.0166 66 47.2451C64.7897 47.4736 63.4271 47.5879 61.9121 47.5879C60.1009 47.5879 58.4801 47.4186 57.0498 47.0801C55.6279 46.7331 54.3711 46.2845 53.2793 45.7344C52.196 45.1758 51.2607 44.5495 50.4736 43.8555C49.695 43.1615 49.0348 42.459 48.4932 41.748V53.2627H45.04V31.3887H48.4932V32.8994C48.4932 33.8643 48.5905 34.7402 48.7852 35.5273C48.9798 36.3145 49.1956 36.9915 49.4326 37.5586C49.6781 38.1257 49.9023 38.5742 50.1055 38.9043C50.3086 39.2259 50.4229 39.4036 50.4482 39.4375C52.7926 42.916 56.6139 44.6553 61.9121 44.6553C63.4186 44.6553 64.7305 44.4987 65.8477 44.1855C66.9648 43.8724 67.8916 43.4577 68.6279 42.9414C69.3727 42.4167 69.9271 41.82 70.291 41.1514C70.6549 40.4743 70.8369 39.776 70.8369 39.0566C70.8369 38.4896 70.7015 37.9014 70.4307 37.292C70.1683 36.6742 69.7409 36.1113 69.1484 35.6035C68.556 35.0872 67.7816 34.6641 66.8252 34.334C65.8773 34.0039 64.7178 33.8389 63.3467 33.8389C60.8669 33.8389 58.7171 34.3171 56.8975 35.2734C55.0778 36.2214 53.584 37.6517 52.416 39.5645L49.915 38.0283C50.2451 37.4867 50.6344 36.9365 51.083 36.3779C51.5316 35.8109 52.0436 35.265 52.6191 34.7402C53.1947 34.207 53.8421 33.7119 54.5615 33.2549C55.2894 32.7894 56.0934 32.3831 56.9736 32.0361C57.8623 31.6891 58.8356 31.4141 59.8936 31.2109C60.9515 31.0078 62.1025 30.9062 63.3467 30.9062ZM88.6611 30.8555C89.846 30.8555 90.9971 30.974 92.1143 31.2109C93.2399 31.4395 94.2979 31.7653 95.2881 32.1885C96.2783 32.6117 97.1839 33.1237 98.0049 33.7246C98.8258 34.3171 99.5326 34.9772 100.125 35.7051C100.726 36.4245 101.191 37.2031 101.521 38.041C101.852 38.8704 102.017 39.7337 102.017 40.6309C102.017 41.528 101.852 42.3955 101.521 43.2334C101.191 44.0628 100.726 44.8415 100.125 45.5693C99.5326 46.2887 98.8258 46.9489 98.0049 47.5498C97.1839 48.1423 96.2783 48.6501 95.2881 49.0732C94.2979 49.4964 93.2399 49.8223 92.1143 50.0508C90.9971 50.2878 89.846 50.4062 88.6611 50.4062C87.4762 50.4062 86.321 50.2878 85.1953 50.0508C84.0781 49.8223 83.0244 49.4964 82.0342 49.0732C81.0439 48.6501 80.1341 48.1423 79.3047 47.5498C78.4837 46.9489 77.777 46.2887 77.1846 45.5693C76.5921 44.8415 76.1309 44.0628 75.8008 43.2334C75.4707 42.3955 75.3057 41.528 75.3057 40.6309C75.3057 39.7337 75.4707 38.8704 75.8008 38.041C76.1309 37.2031 76.5921 36.4245 77.1846 35.7051C77.777 34.9772 78.4837 34.3171 79.3047 33.7246C80.1341 33.1237 81.0439 32.6117 82.0342 32.1885C83.0244 31.7653 84.0781 31.4395 85.1953 31.2109C86.321 30.974 87.4762 30.8555 88.6611 30.8555ZM78.9238 40.6309C78.9238 41.3757 79.0508 42.0612 79.3047 42.6875C79.5586 43.3138 79.9098 43.8766 80.3584 44.376C80.8154 44.8753 81.3486 45.3112 81.958 45.6836C82.5758 46.056 83.2445 46.3691 83.9639 46.623C84.6833 46.8685 85.4408 47.0547 86.2363 47.1816C87.0319 47.3001 87.8359 47.3594 88.6484 47.3594C89.4609 47.3594 90.265 47.3001 91.0605 47.1816C91.8561 47.0547 92.6136 46.8685 93.333 46.623C94.0609 46.3691 94.7295 46.056 95.3389 45.6836C95.9567 45.3027 96.4899 44.8626 96.9385 44.3633C97.3955 43.8639 97.751 43.3053 98.0049 42.6875C98.2588 42.0612 98.3857 41.3757 98.3857 40.6309C98.3857 39.8776 98.2588 39.1921 98.0049 38.5742C97.751 37.9479 97.3955 37.3851 96.9385 36.8857C96.4899 36.3864 95.9567 35.9505 95.3389 35.5781C94.7295 35.2057 94.0609 34.8968 93.333 34.6514C92.6136 34.3975 91.8561 34.2113 91.0605 34.0928C90.265 33.9658 89.4609 33.9023 88.6484 33.9023C87.8359 33.9023 87.0319 33.9658 86.2363 34.0928C85.4408 34.2113 84.6833 34.3975 83.9639 34.6514C83.2445 34.8968 82.5758 35.21 81.958 35.5908C81.3486 35.9632 80.8154 36.3991 80.3584 36.8984C79.9098 37.3978 79.5586 37.9606 79.3047 38.5869C79.0508 39.2048 78.9238 39.8861 78.9238 40.6309ZM113.138 34.3213L105.305 34.3086L112.401 50H108.466L101.369 34.3086L102.689 31.376L113.138 31.3887V34.3213ZM133.272 30.9062C134.432 30.9062 135.515 31.0163 136.522 31.2363C137.53 31.4479 138.448 31.7441 139.277 32.125C140.115 32.4974 140.86 32.9417 141.512 33.458C142.163 33.9743 142.714 34.5371 143.162 35.1465C143.611 35.7474 143.949 36.3822 144.178 37.0508C144.415 37.7109 144.533 38.3796 144.533 39.0566C144.533 39.7507 144.427 40.4447 144.216 41.1387C144.013 41.8327 143.691 42.4971 143.251 43.1318C142.819 43.7581 142.265 44.3464 141.588 44.8965C140.919 45.4382 140.111 45.9079 139.163 46.3057C138.224 46.7035 137.145 47.0166 135.926 47.2451C134.715 47.4736 133.353 47.5879 131.838 47.5879C130.027 47.5879 128.406 47.4186 126.976 47.0801C125.554 46.7331 124.297 46.2845 123.205 45.7344C122.122 45.1758 121.187 44.5495 120.399 43.8555C119.621 43.1615 118.961 42.459 118.419 41.748V53.2627H114.966V31.3887H118.419V32.8994C118.419 33.8643 118.516 34.7402 118.711 35.5273C118.906 36.3145 119.121 36.9915 119.358 37.5586C119.604 38.1257 119.828 38.5742 120.031 38.9043C120.234 39.2259 120.349 39.4036 120.374 39.4375C122.718 42.916 126.54 44.6553 131.838 44.6553C133.344 44.6553 134.656 44.4987 135.773 44.1855C136.891 43.8724 137.817 43.4577 138.554 42.9414C139.299 42.4167 139.853 41.82 140.217 41.1514C140.581 40.4743 140.763 39.776 140.763 39.0566C140.763 38.4896 140.627 37.9014 140.356 37.292C140.094 36.6742 139.667 36.1113 139.074 35.6035C138.482 35.0872 137.707 34.6641 136.751 34.334C135.803 34.0039 134.644 33.8389 133.272 33.8389C130.793 33.8389 128.643 34.3171 126.823 35.2734C125.004 36.2214 123.51 37.6517 122.342 39.5645L119.841 38.0283C120.171 37.4867 120.56 36.9365 121.009 36.3779C121.457 35.8109 121.969 35.265 122.545 34.7402C123.12 34.207 123.768 33.7119 124.487 33.2549C125.215 32.7894 126.019 32.3831 126.899 32.0361C127.788 31.6891 128.761 31.4141 129.819 31.2109C130.877 31.0078 132.028 30.9062 133.272 30.9062ZM174.951 31.3887V50H171.485V48.1973C171.485 47.3001 171.413 46.4115 171.27 45.5312C171.134 44.651 170.923 43.7878 170.635 42.9414C170.576 42.7552 170.478 42.4844 170.343 42.1289C170.207 41.765 170.025 41.3545 169.797 40.8975C169.568 40.432 169.285 39.9368 168.946 39.4121C168.608 38.8789 168.197 38.3542 167.715 37.8379C167.241 37.3132 166.691 36.8096 166.064 36.3271C165.438 35.8447 164.719 35.4215 163.906 35.0576C163.094 34.6852 162.184 34.389 161.177 34.1689C160.178 33.9489 159.065 33.8389 157.838 33.8389C156.771 33.8389 155.819 33.932 154.981 34.1182C154.152 34.2959 153.424 34.5456 152.798 34.8672C152.172 35.1803 151.638 35.5527 151.198 35.9844C150.767 36.416 150.415 36.8857 150.145 37.3936C149.874 37.9014 149.675 38.4346 149.548 38.9932C149.421 39.5518 149.349 40.1146 149.332 40.6816C149.332 40.7155 149.332 40.7451 149.332 40.7705C149.332 41.2614 149.396 41.7692 149.522 42.2939C149.649 42.8187 149.853 43.335 150.132 43.8428C150.411 44.3506 150.762 44.8288 151.186 45.2773C151.609 45.7259 152.108 46.1195 152.684 46.458C153.259 46.7881 153.911 47.0505 154.639 47.2451C155.367 47.4398 156.171 47.5371 157.051 47.5371C158.041 47.5371 159.019 47.3975 159.983 47.1182C160.957 46.8389 161.888 46.4115 162.776 45.8359C163.674 45.252 164.516 44.5114 165.303 43.6143C166.09 42.7171 166.792 41.6549 167.41 40.4277L170.038 41.748C168.591 44.6257 166.767 46.8008 164.566 48.2734C162.366 49.7376 159.848 50.4697 157.013 50.4697C156.776 50.4697 156.475 50.4697 156.111 50.4697C155.747 50.4697 155.337 50.4443 154.88 50.3936C154.423 50.3512 153.928 50.2708 153.395 50.1523C152.861 50.0339 152.307 49.8561 151.731 49.6191C151.156 49.3822 150.568 49.0775 149.967 48.7051C149.374 48.3242 148.79 47.8503 148.215 47.2832C147.292 46.3776 146.598 45.3704 146.133 44.2617C145.676 43.153 145.447 42.002 145.447 40.8086C145.447 40.7493 145.447 40.6859 145.447 40.6182C145.464 39.8395 145.587 39.0609 145.815 38.2822C146.052 37.4951 146.395 36.7419 146.844 36.0225C147.301 35.3031 147.868 34.6344 148.545 34.0166C149.222 33.3903 150.018 32.8486 150.932 32.3916C151.846 31.9346 152.874 31.5749 154.017 31.3125C155.168 31.0501 156.441 30.9189 157.838 30.9189C159.074 30.9189 160.216 31.0163 161.266 31.2109C162.324 31.3971 163.297 31.6553 164.186 31.9854C165.074 32.3154 165.887 32.7048 166.623 33.1533C167.359 33.6019 168.028 34.0885 168.629 34.6133C169.23 35.1296 169.763 35.6712 170.229 36.2383C170.702 36.7969 171.121 37.3597 171.485 37.9268V31.3887H174.951ZM213.786 31.376V50H210.231V34.6895C209.918 34.7826 209.495 34.9222 208.962 35.1084C208.437 35.2861 207.84 35.5062 207.172 35.7686C206.503 36.0309 205.784 36.3356 205.014 36.6826C204.252 37.0212 203.478 37.402 202.69 37.8252C201.903 38.2399 201.12 38.6927 200.342 39.1836C199.572 39.666 198.848 40.1823 198.171 40.7324C198.738 41.4518 199.174 42.1543 199.479 42.8398C199.783 43.5169 199.982 44.1178 200.075 44.6426C200.177 45.1673 200.228 45.6286 200.228 46.0264C200.228 46.1872 200.211 46.4411 200.177 46.7881C200.151 47.1351 200.067 47.5286 199.923 47.9688C199.787 48.4004 199.618 48.777 199.415 49.0986C199.212 49.4202 199.013 49.6699 198.818 49.8477C198.421 50.2201 197.964 50.4909 197.447 50.6602C196.931 50.8294 196.406 50.9141 195.873 50.9141C195.298 50.9141 194.743 50.821 194.21 50.6348C193.677 50.457 193.228 50.1947 192.864 49.8477C192.45 49.4583 192.111 48.9378 191.849 48.2861C191.595 47.6344 191.468 46.9023 191.468 46.0898C191.468 45.2773 191.624 44.4141 191.938 43.5C192.259 42.5775 192.784 41.6549 193.512 40.7324C192.911 40.2415 192.272 39.776 191.595 39.3359C190.926 38.8958 190.236 38.4811 189.525 38.0918C188.823 37.694 188.112 37.3258 187.393 36.9873C186.673 36.6403 185.966 36.3271 185.272 36.0479C184.587 35.7601 183.918 35.502 183.267 35.2734C182.615 35.0449 182.01 34.8503 181.451 34.6895V50H177.896V31.376H181.121C181.773 31.5537 182.492 31.778 183.279 32.0488C184.066 32.3112 184.887 32.6117 185.742 32.9502C186.605 33.2887 187.486 33.6654 188.383 34.0801C189.288 34.4863 190.177 34.9264 191.049 35.4004C191.921 35.8743 192.763 36.3779 193.575 36.9111C194.396 37.4443 195.154 37.9987 195.848 38.5742C196.652 37.9056 197.57 37.237 198.603 36.5684C199.635 35.8997 200.769 35.2565 202.005 34.6387C203.249 34.0124 204.586 33.4242 206.017 32.874C207.455 32.3154 208.975 31.8161 210.574 31.376H213.786ZM196.99 46.1787C196.99 45.5863 196.889 45.0234 196.686 44.4902C196.482 43.9486 196.203 43.4238 195.848 42.916C195.492 43.4238 195.213 43.9486 195.01 44.4902C194.807 45.0234 194.705 45.5863 194.705 46.1787C194.705 46.3818 194.718 46.585 194.743 46.7881C194.777 46.9912 194.832 47.1774 194.908 47.3467C194.993 47.516 195.111 47.6556 195.264 47.7656C195.416 47.8672 195.615 47.918 195.86 47.918C196.097 47.918 196.288 47.863 196.432 47.7529C196.584 47.6429 196.698 47.5033 196.774 47.334C196.859 47.1647 196.914 46.9785 196.939 46.7754C196.973 46.5638 196.99 46.3649 196.99 46.1787ZM252.075 31.376V50H248.521V34.6895C248.207 34.7826 247.784 34.9222 247.251 35.1084C246.726 35.2861 246.13 35.5062 245.461 35.7686C244.792 36.0309 244.073 36.3356 243.303 36.6826C242.541 37.0212 241.767 37.402 240.979 37.8252C240.192 38.2399 239.41 38.6927 238.631 39.1836C237.861 39.666 237.137 40.1823 236.46 40.7324C237.027 41.4518 237.463 42.1543 237.768 42.8398C238.072 43.5169 238.271 44.1178 238.364 44.6426C238.466 45.1673 238.517 45.6286 238.517 46.0264C238.517 46.1872 238.5 46.4411 238.466 46.7881C238.44 47.1351 238.356 47.5286 238.212 47.9688C238.076 48.4004 237.907 48.777 237.704 49.0986C237.501 49.4202 237.302 49.6699 237.107 49.8477C236.71 50.2201 236.253 50.4909 235.736 50.6602C235.22 50.8294 234.695 50.9141 234.162 50.9141C233.587 50.9141 233.032 50.821 232.499 50.6348C231.966 50.457 231.517 50.1947 231.153 49.8477C230.739 49.4583 230.4 48.9378 230.138 48.2861C229.884 47.6344 229.757 46.9023 229.757 46.0898C229.757 45.2773 229.913 44.4141 230.227 43.5C230.548 42.5775 231.073 41.6549 231.801 40.7324C231.2 40.2415 230.561 39.776 229.884 39.3359C229.215 38.8958 228.525 38.4811 227.814 38.0918C227.112 37.694 226.401 37.3258 225.682 36.9873C224.962 36.6403 224.256 36.3271 223.562 36.0479C222.876 35.7601 222.207 35.502 221.556 35.2734C220.904 35.0449 220.299 34.8503 219.74 34.6895V50H216.186V31.376H219.41C220.062 31.5537 220.781 31.778 221.568 32.0488C222.355 32.3112 223.176 32.6117 224.031 32.9502C224.895 33.2887 225.775 33.6654 226.672 34.0801C227.577 34.4863 228.466 34.9264 229.338 35.4004C230.21 35.8743 231.052 36.3779 231.864 36.9111C232.685 37.4443 233.443 37.9987 234.137 38.5742C234.941 37.9056 235.859 37.237 236.892 36.5684C237.924 35.8997 239.058 35.2565 240.294 34.6387C241.538 34.0124 242.875 33.4242 244.306 32.874C245.744 32.3154 247.264 31.8161 248.863 31.376H252.075ZM235.279 46.1787C235.279 45.5863 235.178 45.0234 234.975 44.4902C234.771 43.9486 234.492 43.4238 234.137 42.916C233.781 43.4238 233.502 43.9486 233.299 44.4902C233.096 45.0234 232.994 45.5863 232.994 46.1787C232.994 46.3818 233.007 46.585 233.032 46.7881C233.066 46.9912 233.121 47.1774 233.197 47.3467C233.282 47.516 233.4 47.6556 233.553 47.7656C233.705 47.8672 233.904 47.918 234.149 47.918C234.386 47.918 234.577 47.863 234.721 47.7529C234.873 47.6429 234.987 47.5033 235.063 47.334C235.148 47.1647 235.203 46.9785 235.229 46.7754C235.262 46.5638 235.279 46.3649 235.279 46.1787ZM283.344 31.3887V50H279.878V48.1973C279.878 47.3001 279.806 46.4115 279.662 45.5312C279.527 44.651 279.315 43.7878 279.027 42.9414C278.968 42.7552 278.871 42.4844 278.735 42.1289C278.6 41.765 278.418 41.3545 278.189 40.8975C277.961 40.432 277.677 39.9368 277.339 39.4121C277 38.8789 276.59 38.3542 276.107 37.8379C275.633 37.3132 275.083 36.8096 274.457 36.3271C273.831 35.8447 273.111 35.4215 272.299 35.0576C271.486 34.6852 270.576 34.389 269.569 34.1689C268.571 33.9489 267.458 33.8389 266.23 33.8389C265.164 33.8389 264.212 33.932 263.374 34.1182C262.545 34.2959 261.817 34.5456 261.19 34.8672C260.564 35.1803 260.031 35.5527 259.591 35.9844C259.159 36.416 258.808 36.8857 258.537 37.3936C258.266 37.9014 258.067 38.4346 257.94 38.9932C257.813 39.5518 257.742 40.1146 257.725 40.6816C257.725 40.7155 257.725 40.7451 257.725 40.7705C257.725 41.2614 257.788 41.7692 257.915 42.2939C258.042 42.8187 258.245 43.335 258.524 43.8428C258.804 44.3506 259.155 44.8288 259.578 45.2773C260.001 45.7259 260.501 46.1195 261.076 46.458C261.652 46.7881 262.303 47.0505 263.031 47.2451C263.759 47.4398 264.563 47.5371 265.443 47.5371C266.434 47.5371 267.411 47.3975 268.376 47.1182C269.349 46.8389 270.28 46.4115 271.169 45.8359C272.066 45.252 272.908 44.5114 273.695 43.6143C274.482 42.7171 275.185 41.6549 275.803 40.4277L278.431 41.748C276.983 44.6257 275.16 46.8008 272.959 48.2734C270.758 49.7376 268.241 50.4697 265.405 50.4697C265.168 50.4697 264.868 50.4697 264.504 50.4697C264.14 50.4697 263.729 50.4443 263.272 50.3936C262.815 50.3512 262.32 50.2708 261.787 50.1523C261.254 50.0339 260.7 49.8561 260.124 49.6191C259.549 49.3822 258.96 49.0775 258.359 48.7051C257.767 48.3242 257.183 47.8503 256.607 47.2832C255.685 46.3776 254.991 45.3704 254.525 44.2617C254.068 43.153 253.84 42.002 253.84 40.8086C253.84 40.7493 253.84 40.6859 253.84 40.6182C253.857 39.8395 253.979 39.0609 254.208 38.2822C254.445 37.4951 254.788 36.7419 255.236 36.0225C255.693 35.3031 256.26 34.6344 256.938 34.0166C257.615 33.3903 258.41 32.8486 259.324 32.3916C260.238 31.9346 261.267 31.5749 262.409 31.3125C263.56 31.0501 264.834 30.9189 266.23 30.9189C267.466 30.9189 268.609 31.0163 269.658 31.2109C270.716 31.3971 271.689 31.6553 272.578 31.9854C273.467 32.3154 274.279 32.7048 275.016 33.1533C275.752 33.6019 276.421 34.0885 277.021 34.6133C277.622 35.1296 278.156 35.6712 278.621 36.2383C279.095 36.7969 279.514 37.3597 279.878 37.9268V31.3887H283.344Z" fill="#F7FFE1"/>
<path d="M81.4248 71.5801C81.4248 71.6647 81.4248 71.7493 81.4248 71.834C81.4248 72.7142 81.2979 73.569 81.0439 74.3984C80.79 75.2279 80.4176 76.0107 79.9268 76.7471C79.4359 77.4749 78.8477 78.1351 78.1621 78.7275C77.4766 79.3115 76.7191 79.8066 75.8896 80.2129C75.0687 80.6191 74.1885 80.9323 73.249 81.1523C72.3096 81.3724 71.349 81.4824 70.3672 81.4824C69.1992 81.4824 68.0143 81.3174 66.8125 80.9873C65.6191 80.6572 64.4596 80.141 63.334 79.4385C62.2083 78.7275 61.1419 77.8177 60.1348 76.709C59.1276 75.6003 58.2305 74.2673 57.4434 72.71L60.0713 71.3896C60.6891 72.6169 61.3916 73.679 62.1787 74.5762C62.9658 75.4648 63.8037 76.1969 64.6924 76.7725C65.5895 77.348 66.5205 77.7754 67.4854 78.0547C68.4587 78.334 69.4404 78.4736 70.4307 78.4736C71.3109 78.4736 72.1149 78.3763 72.8428 78.1816C73.5706 77.987 74.2223 77.7246 74.7979 77.3945C75.3734 77.0645 75.8727 76.6794 76.2959 76.2393C76.7191 75.7907 77.0703 75.3125 77.3496 74.8047C77.6289 74.2969 77.832 73.7806 77.959 73.2559C78.0859 72.7311 78.1494 72.2233 78.1494 71.7324C78.1494 71.707 78.1494 71.6774 78.1494 71.6436C78.141 71.0765 78.069 70.5179 77.9336 69.9678C77.8066 69.4092 77.6077 68.8802 77.3369 68.3809C77.0661 67.873 76.7106 67.4033 76.2705 66.9717C75.8389 66.54 75.3099 66.1676 74.6836 65.8545C74.0573 65.5329 73.3294 65.2832 72.5 65.1055C71.6706 64.9277 70.7184 64.8389 69.6436 64.8389C66.9691 64.8389 64.667 65.3678 62.7373 66.4258C60.8076 67.4753 59.2461 69.0579 58.0527 71.1738C57.9089 71.4277 57.7184 71.7959 57.4814 72.2783C57.2529 72.7523 57.0286 73.3278 56.8086 74.0049C56.5885 74.682 56.3981 75.4521 56.2373 76.3154C56.0765 77.1787 55.9961 78.1224 55.9961 79.1465V81.0127H52.5303V79.1465C52.5303 78.1139 52.4456 77.166 52.2764 76.3027C52.1156 75.431 51.9251 74.6566 51.7051 73.9795C51.485 73.2939 51.2565 72.7142 51.0195 72.2402C50.791 71.7663 50.609 71.4108 50.4736 71.1738C49.2803 69.0579 47.7188 67.4753 45.7891 66.4258C43.8594 65.3678 41.5573 64.8389 38.8828 64.8389C37.8164 64.8389 36.8643 64.9277 36.0264 65.1055C35.1969 65.2832 34.4691 65.5329 33.8428 65.8545C33.2165 66.1676 32.6833 66.54 32.2432 66.9717C31.8115 67.4033 31.4603 67.873 31.1895 68.3809C30.9186 68.8802 30.7197 69.4092 30.5928 69.9678C30.4658 70.5179 30.3981 71.0765 30.3896 71.6436C30.3896 71.6774 30.3896 71.7113 30.3896 71.7451C30.3896 72.2275 30.4489 72.7311 30.5674 73.2559C30.6943 73.7806 30.8975 74.2969 31.1768 74.8047C31.4561 75.3125 31.8073 75.7907 32.2305 76.2393C32.6536 76.6794 33.153 77.0645 33.7285 77.3945C34.304 77.7246 34.9557 77.987 35.6836 78.1816C36.4115 78.3763 37.2155 78.4736 38.0957 78.4736C39.0859 78.4736 40.0635 78.334 41.0283 78.0547C42.0016 77.7754 42.9326 77.348 43.8213 76.7725C44.7184 76.1969 45.5605 75.4648 46.3477 74.5762C47.1348 73.679 47.8372 72.6169 48.4551 71.3896L51.083 72.71C50.2959 74.2673 49.3945 75.6003 48.3789 76.709C47.3717 77.8177 46.3053 78.7275 45.1797 79.4385C44.054 80.1494 42.8903 80.6699 41.6885 81C40.4867 81.3216 39.3018 81.4824 38.1338 81.4824C37.152 81.4824 36.1914 81.3724 35.252 81.1523C34.321 80.9323 33.4408 80.6191 32.6113 80.2129C31.7904 79.7982 31.0371 79.2988 30.3516 78.7148C29.666 78.1309 29.0778 77.4707 28.5869 76.7344C28.1045 75.998 27.7363 75.2194 27.4824 74.3984C27.2285 73.569 27.1016 72.7142 27.1016 71.834C27.1016 71.7493 27.1016 71.6647 27.1016 71.5801C27.1185 70.8014 27.2285 70.0228 27.4316 69.2441C27.6348 68.4655 27.9395 67.7207 28.3457 67.0098C28.752 66.2904 29.2682 65.6217 29.8945 65.0039C30.5208 64.3861 31.2656 63.8486 32.1289 63.3916C33.0007 62.9346 33.9951 62.5749 35.1123 62.3125C36.2295 62.0501 37.4863 61.9189 38.8828 61.9189C40.7363 61.9189 42.3867 62.1263 43.834 62.541C45.2897 62.9473 46.5677 63.4847 47.668 64.1533C48.7767 64.8135 49.7288 65.5625 50.5244 66.4004C51.32 67.2298 51.9886 68.0677 52.5303 68.9141V62.3887H55.9961V68.9141C56.5378 68.0677 57.2064 67.2298 58.002 66.4004C58.7975 65.5625 59.7454 64.8135 60.8457 64.1533C61.9544 63.4847 63.2324 62.9473 64.6797 62.541C66.1354 62.1263 67.79 61.9189 69.6436 61.9189C71.04 61.9189 72.2969 62.0501 73.4141 62.3125C74.5312 62.5749 75.5215 62.9346 76.3848 63.3916C77.2565 63.8486 78.0055 64.3861 78.6318 65.0039C79.2581 65.6217 79.7744 66.2904 80.1807 67.0098C80.5869 67.7207 80.8916 68.4655 81.0947 69.2441C81.2979 70.0228 81.4079 70.8014 81.4248 71.5801ZM102.651 77.1533C102.042 77.9235 101.373 78.5837 100.646 79.1338C99.9261 79.6755 99.1813 80.1198 98.4111 80.4668C97.641 80.8138 96.8623 81.0677 96.0752 81.2285C95.2881 81.3893 94.5264 81.4697 93.79 81.4697C92.5374 81.4697 91.4202 81.3089 90.4385 80.9873C89.4567 80.6657 88.5934 80.2552 87.8486 79.7559C87.1038 79.2565 86.4691 78.7064 85.9443 78.1055C85.4196 77.5046 84.988 76.9248 84.6494 76.3662C84.3109 75.7992 84.0527 75.2956 83.875 74.8555C83.6973 74.4154 83.5872 74.1064 83.5449 73.9287C83.0879 73.9202 82.7747 73.916 82.6055 73.916C82.4362 73.9076 82.3262 73.8991 82.2754 73.8906L82.3516 70.9453C82.36 70.9453 82.377 70.9453 82.4023 70.9453C82.4362 70.9453 82.487 70.9495 82.5547 70.958C82.6309 70.958 82.7324 70.9622 82.8594 70.9707C82.9948 70.9707 83.1641 70.9707 83.3672 70.9707C83.4603 70.2259 83.6507 69.4896 83.9385 68.7617C84.2262 68.0339 84.6029 67.3398 85.0684 66.6797C85.5423 66.0195 86.0967 65.4059 86.7314 64.8389C87.3662 64.2718 88.0687 63.7767 88.8389 63.3535C89.609 62.9303 90.4427 62.596 91.3398 62.3506C92.237 62.0967 93.1849 61.957 94.1836 61.9316C94.2936 61.9316 94.4036 61.9316 94.5137 61.9316C95.2331 61.9316 95.944 62.012 96.6465 62.1729C97.349 62.3252 98.0218 62.5579 98.665 62.8711C99.3083 63.1758 99.888 63.5397 100.404 63.9629C100.929 64.3776 101.373 64.8262 101.737 65.3086C102.101 65.791 102.381 66.2946 102.575 66.8193C102.778 67.3356 102.88 67.8434 102.88 68.3428C102.88 69.1637 102.749 69.8704 102.486 70.4629C102.224 71.0469 101.881 71.5378 101.458 71.9355C101.043 72.3333 100.574 72.6507 100.049 72.8877C99.5241 73.1247 98.9951 73.3109 98.4619 73.4463C97.9372 73.5732 97.4378 73.6579 96.9639 73.7002C96.4899 73.7425 96.0921 73.7721 95.7705 73.7891L95.4404 73.8018C94.9242 73.8187 94.3275 73.8398 93.6504 73.8652C92.9818 73.8822 92.2751 73.9033 91.5303 73.9287C90.7855 73.9456 90.1211 73.9583 89.5371 73.9668C88.9616 73.9668 88.4876 73.9668 88.1152 73.9668C87.7428 73.9668 87.3747 73.9668 87.0107 73.9668C87.2816 74.6439 87.6709 75.2575 88.1787 75.8076C88.695 76.3577 89.2747 76.8317 89.918 77.2295C90.5697 77.6188 91.2594 77.9193 91.9873 78.1309C92.7152 78.3424 93.4346 78.4482 94.1455 78.4482C94.6956 78.4482 95.2458 78.3848 95.7959 78.2578C96.3545 78.1309 96.9046 77.9362 97.4463 77.6738C97.988 77.403 98.5127 77.056 99.0205 76.6328C99.5283 76.2012 100.011 75.6891 100.468 75.0967L102.651 77.1533ZM98.6523 66.5908C98.043 65.9984 97.3701 65.5667 96.6338 65.2959C95.9059 65.0251 95.1442 64.8896 94.3486 64.8896C93.4938 64.8896 92.6432 65.0378 91.7969 65.334C90.959 65.6302 90.1888 66.0492 89.4863 66.5908C88.7923 67.124 88.1956 67.7673 87.6963 68.5205C87.2054 69.2653 86.8753 70.0947 86.7061 71.0088C87.1885 71.0173 87.6709 71.0215 88.1533 71.0215C88.3988 71.0215 88.7627 71.0215 89.2451 71.0215C89.736 71.013 90.3285 71.0046 91.0225 70.9961C91.7249 70.9792 92.3893 70.9622 93.0156 70.9453C93.6419 70.9199 94.209 70.8903 94.7168 70.8564L94.9072 70.8438C95.762 70.7845 96.4814 70.6956 97.0654 70.5771C97.6494 70.4587 98.1191 70.3021 98.4746 70.1074C98.8301 69.9043 99.084 69.6589 99.2363 69.3711C99.3971 69.0749 99.4775 68.7321 99.4775 68.3428C99.4775 67.7165 99.2025 67.1325 98.6523 66.5908ZM128.283 76.6582C127.716 77.3438 127.022 77.9827 126.201 78.5752C125.389 79.1592 124.487 79.667 123.497 80.0986C122.515 80.5303 121.466 80.8646 120.349 81.1016C119.231 81.347 118.089 81.4697 116.921 81.4697C115.736 81.4697 114.576 81.3512 113.442 81.1143C112.317 80.8773 111.255 80.543 110.256 80.1113C109.257 79.6797 108.339 79.1634 107.501 78.5625C106.663 77.9616 105.944 77.3014 105.343 76.582C104.742 75.8542 104.272 75.0798 103.934 74.2588C103.595 73.4294 103.426 72.5745 103.426 71.6943C103.426 70.8141 103.595 69.9635 103.934 69.1426C104.272 68.3132 104.742 67.5387 105.343 66.8193C105.944 66.0915 106.663 65.4271 107.501 64.8262C108.339 64.2253 109.257 63.709 110.256 63.2773C111.255 62.8457 112.317 62.5114 113.442 62.2744C114.576 62.0374 115.736 61.9189 116.921 61.9189C118.089 61.9189 119.231 62.0417 120.349 62.2871C121.466 62.5241 122.515 62.8584 123.497 63.29C124.487 63.7132 125.389 64.221 126.201 64.8135C127.022 65.3975 127.716 66.0322 128.283 66.7178L125.389 68.4824C125.312 68.3893 125.181 68.2412 124.995 68.0381C124.817 67.8265 124.572 67.5938 124.259 67.3398C123.946 67.0775 123.565 66.8109 123.116 66.54C122.676 66.2607 122.156 66.0111 121.555 65.791C120.962 65.5625 120.285 65.3763 119.523 65.2324C118.77 65.0801 117.928 65.0039 116.997 65.0039C115.389 65.0039 113.976 65.1986 112.757 65.5879C111.538 65.9688 110.514 66.4723 109.685 67.0986C108.864 67.7249 108.242 68.4401 107.818 69.2441C107.395 70.0397 107.179 70.6533 107.171 71.085C107.162 71.5166 107.158 71.7451 107.158 71.7705C107.158 72.583 107.353 73.3828 107.742 74.1699C108.14 74.957 108.745 75.6637 109.558 76.29C110.37 76.9163 111.394 77.4242 112.63 77.8135C113.874 78.1943 115.33 78.3848 116.997 78.3848C117.937 78.3848 118.787 78.3086 119.549 78.1562C120.311 78.0039 120.992 77.8135 121.593 77.585C122.194 77.3564 122.714 77.1025 123.154 76.8232C123.603 76.5355 123.979 76.2646 124.284 76.0107C124.597 75.7568 124.843 75.5283 125.021 75.3252C125.198 75.1221 125.321 74.9824 125.389 74.9062L128.283 76.6582ZM141.88 65.3213H138.338L131.254 81H127.687L134.771 65.3213H130.264L131.597 62.3887H143.213L141.88 65.3213ZM162.903 73.5732C162.895 73.734 162.891 73.8991 162.891 74.0684C162.891 74.4069 162.912 74.7962 162.954 75.2363C162.996 75.668 163.068 76.1165 163.17 76.582C163.28 77.0391 163.415 77.4368 163.576 77.7754C163.737 78.1055 163.919 78.3255 164.122 78.4355L162.535 81.4824C162.163 81.2878 161.803 81.0042 161.456 80.6318C161.109 80.251 160.8 79.8151 160.529 79.3242C160.267 78.8249 160.055 78.2832 159.895 77.6992C159.742 77.1068 159.666 76.5016 159.666 75.8838C159.539 76.0192 159.357 76.2266 159.12 76.5059C158.892 76.7852 158.617 77.0983 158.295 77.4453C157.982 77.7839 157.622 78.1436 157.216 78.5244C156.81 78.8968 156.365 79.2565 155.883 79.6035C155.409 79.9505 154.893 80.2679 154.334 80.5557C153.784 80.835 153.204 81.0465 152.595 81.1904C152.341 81.2581 152.04 81.3132 151.693 81.3555C151.355 81.3978 150.987 81.4189 150.589 81.4189C150.191 81.4189 149.776 81.3893 149.345 81.3301C148.913 81.2708 148.486 81.1608 148.062 81C147.639 80.8477 147.229 80.6445 146.831 80.3906C146.442 80.1283 146.082 79.8024 145.752 79.4131C145.422 79.0153 145.134 78.5413 144.889 77.9912C144.652 77.4411 144.478 76.8021 144.368 76.0742C144.275 75.4648 144.203 74.8724 144.152 74.2969C144.11 73.7129 144.08 73.1924 144.063 72.7354C144.047 72.3291 144.038 71.9398 144.038 71.5674V62.3887H147.479V72.748C147.479 73.7467 147.559 74.5889 147.72 75.2744C147.889 75.96 148.113 76.5143 148.393 76.9375C148.68 77.3522 149.015 77.6527 149.396 77.8389C149.785 78.0166 150.2 78.1055 150.64 78.1055C151.097 78.1055 151.571 78.0251 152.062 77.8643C152.561 77.695 153.052 77.4749 153.534 77.2041C154.017 76.9333 154.482 76.6243 154.931 76.2773C155.388 75.9303 155.798 75.5791 156.162 75.2236C157.008 74.4027 157.694 73.6536 158.219 72.9766C158.752 72.291 159.167 71.7113 159.463 71.2373V62.3887H162.903V73.5732ZM188.751 71.4658C189.919 72.0244 190.799 72.6592 191.392 73.3701C191.993 74.0726 192.293 74.8597 192.293 75.7314C192.293 76.0869 192.229 76.4847 192.103 76.9248C191.984 77.3649 191.76 77.805 191.43 78.2451C191.108 78.6852 190.668 79.1084 190.109 79.5146C189.551 79.9124 188.836 80.251 187.964 80.5303C186.982 80.8519 185.84 81.0889 184.536 81.2412C183.233 81.402 181.769 81.4824 180.144 81.4824C179.001 81.4824 177.88 81.402 176.779 81.2412C175.688 81.0804 174.655 80.8519 173.682 80.5557C172.717 80.251 171.837 79.887 171.041 79.4639C170.245 79.0407 169.573 78.571 169.022 78.0547L171.041 75.9219C171.371 76.235 171.828 76.5524 172.412 76.874C172.996 77.1872 173.677 77.4665 174.456 77.7119C175.243 77.9574 176.115 78.1605 177.071 78.3213C178.028 78.4736 179.052 78.5498 180.144 78.5498C180.643 78.5498 181.206 78.5286 181.832 78.4863C182.458 78.444 183.093 78.3763 183.736 78.2832C184.38 78.1901 185.006 78.0716 185.615 77.9277C186.233 77.7839 186.779 77.6146 187.253 77.4199C187.735 77.2168 188.12 76.984 188.408 76.7217C188.704 76.4508 188.853 76.1504 188.853 75.8203C188.853 75.541 188.747 75.2448 188.535 74.9316C188.324 74.6185 187.96 74.3307 187.443 74.0684C186.936 73.806 186.254 73.5902 185.399 73.4209C184.553 73.2432 183.487 73.1543 182.2 73.1543H169.556C169.488 73.4251 169.412 73.734 169.327 74.0811C169.243 74.4281 169.179 74.7624 169.137 75.084C169.103 75.3464 169.069 75.6341 169.035 75.9473C169.001 76.252 168.972 76.5693 168.946 76.8994C168.929 77.2295 168.912 77.5596 168.896 77.8896C168.879 78.2197 168.862 78.5371 168.845 78.8418C168.811 79.5527 168.79 80.2721 168.781 81H165.582V62.3887H168.781V67.6953C168.866 67.5768 169.022 67.3525 169.251 67.0225C169.479 66.6924 169.805 66.3115 170.229 65.8799C170.66 65.4482 171.198 64.9997 171.841 64.5342C172.493 64.0687 173.271 63.6413 174.177 63.252C175.082 62.8626 176.132 62.541 177.325 62.2871C178.527 62.0332 179.89 61.9062 181.413 61.9062C182.81 61.9062 184.083 62.0374 185.234 62.2998C186.385 62.5622 187.384 62.9473 188.23 63.4551C189.085 63.9714 189.745 64.5934 190.211 65.3213C190.676 66.0407 190.909 66.8109 190.909 67.6318C190.909 68.3682 190.719 69.0664 190.338 69.7266C189.965 70.3867 189.437 70.9665 188.751 71.4658ZM182.467 70.2217C183.415 70.2217 184.236 70.137 184.93 69.9678C185.624 69.7985 186.195 69.5869 186.644 69.333C187.092 69.0791 187.426 68.7998 187.646 68.4951C187.867 68.1904 187.977 67.9027 187.977 67.6318C187.977 67.3441 187.867 67.0563 187.646 66.7686C187.426 66.4808 187.113 66.2142 186.707 65.9688C186.495 65.8418 186.233 65.7106 185.92 65.5752C185.607 65.4398 185.234 65.3171 184.803 65.207C184.371 65.097 183.876 65.0081 183.317 64.9404C182.759 64.8727 182.124 64.8389 181.413 64.8389C179.881 64.8389 178.535 64.9785 177.376 65.2578C176.216 65.5286 175.209 65.9053 174.354 66.3877C173.5 66.8701 172.776 67.4414 172.184 68.1016C171.591 68.7533 171.092 69.46 170.686 70.2217H182.467ZM222.559 62.3887V81H219.093V79.1973C219.093 78.3001 219.021 77.4115 218.877 76.5312C218.742 75.651 218.53 74.7878 218.242 73.9414C218.183 73.7552 218.086 73.4844 217.95 73.1289C217.815 72.765 217.633 72.3545 217.404 71.8975C217.176 71.432 216.892 70.9368 216.554 70.4121C216.215 69.8789 215.805 69.3542 215.322 68.8379C214.848 68.3132 214.298 67.8096 213.672 67.3271C213.046 66.8447 212.326 66.4215 211.514 66.0576C210.701 65.6852 209.791 65.389 208.784 65.1689C207.785 64.9489 206.673 64.8389 205.445 64.8389C204.379 64.8389 203.427 64.932 202.589 65.1182C201.759 65.2959 201.032 65.5456 200.405 65.8672C199.779 66.1803 199.246 66.5527 198.806 66.9844C198.374 67.416 198.023 67.8857 197.752 68.3936C197.481 68.9014 197.282 69.4346 197.155 69.9932C197.028 70.5518 196.956 71.1146 196.939 71.6816C196.939 71.7155 196.939 71.7451 196.939 71.7705C196.939 72.2614 197.003 72.7692 197.13 73.2939C197.257 73.8187 197.46 74.335 197.739 74.8428C198.019 75.3506 198.37 75.8288 198.793 76.2773C199.216 76.7259 199.715 77.1195 200.291 77.458C200.867 77.7881 201.518 78.0505 202.246 78.2451C202.974 78.4398 203.778 78.5371 204.658 78.5371C205.648 78.5371 206.626 78.3975 207.591 78.1182C208.564 77.8389 209.495 77.4115 210.384 76.8359C211.281 76.252 212.123 75.5114 212.91 74.6143C213.697 73.7171 214.4 72.6549 215.018 71.4277L217.646 72.748C216.198 75.6257 214.374 77.8008 212.174 79.2734C209.973 80.7376 207.455 81.4697 204.62 81.4697C204.383 81.4697 204.083 81.4697 203.719 81.4697C203.355 81.4697 202.944 81.4443 202.487 81.3936C202.03 81.3512 201.535 81.2708 201.002 81.1523C200.469 81.0339 199.914 80.8561 199.339 80.6191C198.763 80.3822 198.175 80.0775 197.574 79.7051C196.982 79.3242 196.398 78.8503 195.822 78.2832C194.9 77.3776 194.206 76.3704 193.74 75.2617C193.283 74.153 193.055 73.002 193.055 71.8086C193.055 71.7493 193.055 71.6859 193.055 71.6182C193.072 70.8395 193.194 70.0609 193.423 69.2822C193.66 68.4951 194.003 67.7419 194.451 67.0225C194.908 66.3031 195.475 65.6344 196.152 65.0166C196.829 64.3903 197.625 63.8486 198.539 63.3916C199.453 62.9346 200.481 62.5749 201.624 62.3125C202.775 62.0501 204.049 61.9189 205.445 61.9189C206.681 61.9189 207.824 62.0163 208.873 62.2109C209.931 62.3971 210.904 62.6553 211.793 62.9854C212.682 63.3154 213.494 63.7048 214.23 64.1533C214.967 64.6019 215.635 65.0885 216.236 65.6133C216.837 66.1296 217.37 66.6712 217.836 67.2383C218.31 67.7969 218.729 68.3597 219.093 68.9268V62.3887H222.559ZM237.006 62.3887V81H233.68V66.21L227.002 81H223.358L231.775 62.376H235.419V62.3887H237.006ZM261.343 62.4014V81.0127H258.169V77.8516C258.144 77.5807 258.101 77.2168 258.042 76.7598C257.991 76.3027 257.907 75.7822 257.788 75.1982C257.67 74.6143 257.517 73.988 257.331 73.3193C257.145 72.6507 256.912 71.9779 256.633 71.3008C254.872 67.0013 252.088 64.8516 248.279 64.8516C247.577 64.8516 246.946 64.8939 246.388 64.9785C245.838 65.0547 245.347 65.1562 244.915 65.2832C244.492 65.4102 244.124 65.5498 243.811 65.7021C243.506 65.8545 243.248 66.0068 243.036 66.1592C242.596 66.4639 242.257 66.8109 242.021 67.2002C241.792 67.5811 241.678 67.9788 241.678 68.3936C241.678 68.7998 241.792 69.2018 242.021 69.5996C242.257 69.9889 242.609 70.3359 243.074 70.6406C243.54 70.9453 244.115 71.195 244.801 71.3896C245.486 71.5758 246.282 71.6689 247.188 71.6689C249.464 71.6689 251.377 71.1569 252.926 70.1328L256.011 72.4561C256.002 72.473 255.994 72.4941 255.985 72.5195L255.96 72.5576C255.96 72.583 255.951 72.6042 255.935 72.6211C255.664 73.1712 255.334 73.7721 254.944 74.4238C254.555 75.0755 254.106 75.7314 253.599 76.3916C253.091 77.0433 252.515 77.6738 251.872 78.2832C251.237 78.8926 250.535 79.4342 249.765 79.9082C249.003 80.3822 248.165 80.7588 247.251 81.0381C246.345 81.3258 245.368 81.4697 244.318 81.4697C243.887 81.4697 243.434 81.4232 242.96 81.3301C242.486 81.2454 242.008 81.1227 241.525 80.9619C241.051 80.7926 240.577 80.5895 240.104 80.3525C239.63 80.1156 239.173 79.8447 238.732 79.54L240.396 77.1279C240.709 77.3395 241.035 77.5342 241.373 77.7119C241.712 77.8812 242.05 78.0293 242.389 78.1562C242.736 78.2747 243.074 78.3678 243.404 78.4355C243.734 78.5033 244.039 78.5371 244.318 78.5371C245.165 78.5371 245.952 78.4059 246.68 78.1436C247.408 77.8727 248.08 77.5215 248.698 77.0898C249.325 76.6582 249.892 76.1673 250.399 75.6172C250.916 75.0586 251.377 74.4915 251.783 73.916C250.387 74.373 248.855 74.6016 247.188 74.6016C245.799 74.6016 244.576 74.4238 243.519 74.0684C242.469 73.7129 241.589 73.2432 240.878 72.6592C240.175 72.0752 239.642 71.4108 239.278 70.666C238.923 69.9212 238.745 69.1637 238.745 68.3936C238.745 67.4964 238.969 66.6458 239.418 65.8418C239.867 65.0378 240.51 64.3438 241.348 63.7598C242.202 63.1504 243.214 62.6934 244.382 62.3887C245.558 62.0755 246.857 61.9189 248.279 61.9189C250.412 61.9189 252.308 62.4141 253.967 63.4043C255.626 64.3945 257.026 65.8587 258.169 67.7969V62.4014H261.343Z" fill="#F7FFE1"/>
</g>
</svg>
