<svg width="127" height="75" viewBox="0 0 127 75" fill="none" xmlns="http://www.w3.org/2000/svg">
<g clip-path="url(#clip0_143_2384)">
<path d="M32.5826 48.0667L35.6879 40.6079C37.2111 36.9867 37.3761 36.6065 37.9212 35.0942C39.0643 36.0127 39.2824 36.1209 41.0236 37.1476C36.8311 46.6071 32.8006 56.1748 25.7236 73.6898C25.1256 73.2569 24.7985 73.0405 24.2535 72.6632C23.8734 72.4467 23.4904 72.1776 23.1633 71.9611L22.7273 71.6365C27.4089 60.7174 28.172 58.8775 31.1683 51.4743L25.9417 51.527C22.2942 51.6352 17.9926 51.7434 12.981 51.9043C11.8379 54.4988 10.8038 56.8768 9.66061 59.4187C8.62647 61.7967 7.64536 64.0139 6.72023 66.1755C5.84814 68.1762 5.03202 70.1213 4.21591 72.0694C3.94485 72.6105 3.72683 73.1516 3.5088 73.6898L2.96374 73.3652L1.98264 72.6632C1.32857 72.1776 1.11054 72.0138 0.512451 71.6365C4.37795 63.0428 4.54294 62.7181 6.17517 58.8775C6.93826 57.0406 7.69839 55.2008 8.46148 53.4165L9.11555 51.957C7.75437 52.0096 7.04727 52.0652 5.35906 52.2261C5.46807 51.3076 5.46807 50.9273 5.46807 49.0904V48.6049C6.17517 48.6575 6.44918 48.6575 8.08141 48.6575C8.84449 48.6575 9.33357 48.6575 10.5857 48.6049C12.1119 45.1446 15.5414 37.3611 16.4105 35.0913C16.8465 35.416 16.8996 35.416 17.2826 35.6851C17.6627 35.9542 18.4257 36.4427 19.4069 37.1447C18.4817 39.2536 16.7935 43.0912 14.4512 48.6049C18.3167 48.5522 21.5841 48.4967 32.5826 48.0667Z" fill="#010202"/>
<path d="M50.3838 63.2564L50.6549 63.4728C50.9819 63.7419 51.0909 63.8501 51.907 64.5551C47.7675 70.9872 43.631 74.3948 39.9835 74.3948C36.9341 74.3948 34.7568 71.5839 34.7568 67.638C34.7568 62.0688 38.2423 55.3676 43.687 50.3921C47.1164 47.3121 50.7668 45.5278 53.7072 45.5278C55.7755 45.5278 57.0836 46.7183 57.0836 48.6079C57.0836 51.527 54.9063 54.3906 50.0597 57.7427C46.5743 60.1763 44.07 61.5803 40.5315 63.0399L39.8774 60.5536C38.6253 63.7419 38.1892 65.4179 38.1892 67.366C38.1892 69.4749 39.1703 70.9872 40.5315 70.9872C42.1107 70.9872 44.562 69.2029 46.6833 66.4446C47.4464 65.4706 47.8824 64.8768 49.4057 62.3906C49.5677 62.4988 49.6767 62.6626 49.7857 62.7679L50.3838 63.2564ZM40.3636 59.6352C46.8424 56.9325 53.3772 51.9599 53.3772 49.7428C53.3772 49.2572 53.0502 48.9326 52.6141 48.9326C49.7857 48.9296 43.4689 54.4433 40.3636 59.6352Z" fill="#010202"/>
<path d="M64.1194 73.5817L63.5743 73.5261C65.8606 68.0651 66.0786 67.5796 68.3119 62.1186C64.8265 66.4973 63.9014 67.5796 62.1041 69.4165C59.1638 72.2801 56.8775 73.687 55.0243 73.687C52.9 73.687 51.5388 72.011 51.5388 69.5247C51.5388 64.8213 55.5133 58.0119 61.341 52.7673C65.0445 49.5235 68.583 47.1454 74.2457 44.3345C74.5727 45.3612 74.8998 46.3878 75.2268 47.3092C68.692 50.8777 65.9696 52.7702 61.9951 56.6078C58.1826 60.2846 54.9712 65.7982 54.9712 68.7174C54.9712 69.475 55.3513 70.0688 55.8963 70.0688C57.4755 70.0688 62.2662 65.4209 66.6767 59.6352C69.8351 55.5256 71.6854 52.7146 74.2457 48.175C74.3547 48.175 75.3358 48.3915 77.8401 48.9326C74.0277 55.0956 72.2304 59.3661 67.1688 73.962C65.9726 73.7426 65.9726 73.7426 64.1194 73.5817Z" fill="#010202"/>
<path d="M89.3748 34.983L90.2999 35.5767C90.898 35.9541 91.281 36.1705 91.9321 36.6034C87.7926 43.8458 78.9744 64.9849 76.0341 74.497C75.327 74.1197 74.1838 73.5786 72.6046 72.8766L73.2587 71.2561L75.601 65.0404C78.9774 56.1221 85.7302 40.7687 88.9417 34.7139L89.3748 34.983Z" fill="#010202"/>
<path d="M100.671 58.7138L101.487 59.4714C101.814 59.7961 101.867 59.8487 102.848 60.7145C95.117 65.7426 89.8344 69.7967 85.8039 73.7981C85.0408 73.0961 84.1717 72.283 83.1906 71.4201C85.0408 67.2578 87.9812 60.6092 92.0117 51.4715C91.4136 51.5241 91.4136 51.5797 90.8685 51.6323C90.2144 51.7406 89.6164 51.7932 89.0183 51.9014C88.5822 51.9014 88.5292 51.9541 87.9282 52.0623L87.7661 51.5212L87.4951 50.3307C87.333 49.6287 87.224 49.304 86.95 48.6547C90.3264 48.33 92.5597 48.1135 93.6468 47.9527C96.5872 41.7897 96.9143 41.1403 98.2754 38.4932C99.0385 38.9787 99.3096 39.1425 99.8016 39.4672C100.727 40.1165 100.892 40.2248 101.325 40.5495C99.6896 43.4686 99.6896 43.4686 99.4746 43.8459L97.6773 47.5227L100.073 47.2536C101.761 47.0927 103.449 46.8763 105.081 46.6598C105.953 46.5516 106.879 46.3907 107.857 46.2825C108.128 48.0667 108.402 49.0934 108.62 49.7954C105.57 49.8481 103.938 49.9592 96.0422 50.9303C94.2449 54.8235 92.1767 59.4714 89.8344 64.7686C89.5074 65.3624 89.1803 66.0673 88.9093 66.7693C94.625 62.2297 95.5531 61.5247 100.288 58.3891L100.671 58.7138Z" fill="#010202"/>
<path d="M119.433 35.1469L119.922 35.4716C115.24 43.5271 111.319 51.0415 107.235 59.9043C112.736 54.0659 115.567 51.4188 124.005 44.2817C124.659 44.9837 125.475 45.7969 126.509 46.8236C123.024 52.4981 117.526 65.9064 115.346 74.0701C114.312 73.529 113.06 72.9879 111.97 72.6105C113.876 66.3949 117.414 57.5291 120.411 51.4188C118.015 53.203 112.842 58.2311 108.487 63.0399C104.84 67.0413 104.622 67.363 101.625 72.6076C100.7 72.1747 99.7191 71.7418 98.6849 71.2562C99.8841 68.8782 100.155 68.3371 102.17 63.6892C108.923 48.3358 111.537 42.8777 116.816 33.5791C117.034 33.6873 117.196 33.7956 117.361 33.9564C117.688 34.1202 118.015 34.3338 118.395 34.5502L119.433 35.1469Z" fill="#010202"/>
<path d="M15.4883 0.953613H10.2204L0.55957 10.9806V16.2134H10.2204V26.2404H15.4883V16.2105H24.2711V10.9806H15.4883V0.953613Z" fill="#010202"/>
<path d="M31.298 6.18354H41.8368V0.953613H26.0271V26.2375H31.298V16.2105H40.9588V10.9806H31.298V6.18354Z" fill="#010202"/>
<path d="M118.242 0.953613V10.9806H109.459V0.953613H104.192V26.2375H109.462V16.2105H118.245V26.2375H123.516V0.953613H118.242Z" fill="#010202"/>
<path d="M102.035 15.5699C101.502 14.7099 100.803 13.9611 99.9784 13.3673C99.1063 12.7414 98.1576 12.2266 97.1529 11.8405C96.1011 11.431 95.064 11.0419 94.0357 10.6909C93.1106 10.3838 92.2385 9.94212 91.443 9.38345C91.1278 9.16114 90.8744 8.86279 90.7006 8.51764C90.5297 8.17249 90.4442 7.79224 90.456 7.40906C90.456 6.5608 90.7536 5.92023 91.3488 5.49317C91.9763 5.0515 92.7276 4.82334 93.4966 4.83797C94.4983 4.83797 95.2673 5.15972 95.8094 5.8003C96.3486 6.44088 96.6137 7.23941 96.6137 8.35091H102.412C102.421 7.34471 102.232 6.3502 101.855 5.4142C101.481 4.46649 100.915 3.60654 100.19 2.88698C99.395 2.11478 98.4434 1.521 97.3974 1.14367C96.1482 0.696146 94.8253 0.47677 93.4966 0.503095C92.377 0.497245 91.2604 0.643495 90.182 0.938922C89.1715 1.21095 88.2198 1.6614 87.3742 2.2698C86.5729 2.85773 85.9099 3.60946 85.4268 4.47234C84.9259 5.39957 84.6755 6.44088 84.699 7.49096C84.699 8.74287 84.92 9.79587 85.3796 10.65C85.8245 11.4982 86.4462 12.2412 87.2034 12.8291C88.0254 13.4697 88.9358 13.9903 89.9051 14.3735C90.9422 14.8094 92.0323 15.2364 93.1784 15.6576C93.7234 15.8624 94.239 16.0759 94.7163 16.2748C95.1553 16.4532 95.5708 16.6843 95.9508 16.9651C96.2779 17.2137 96.5548 17.5208 96.7699 17.8689C96.9879 18.2521 97.094 18.6879 97.0763 19.1267C97.091 19.5274 97.0144 19.9252 96.8494 20.2908C96.6874 20.6565 96.4399 20.9811 96.1305 21.2385C95.4735 21.7826 94.6397 22.0663 93.7853 22.0371C92.5921 22.0371 91.6228 21.6597 90.8862 20.9022C90.185 20.1826 89.8196 19.1969 89.7872 17.9391H83.9919C83.986 19.1735 84.2276 20.3991 84.702 21.5427C85.1528 22.6045 85.8333 23.5551 86.6907 24.3303C87.5628 25.1025 88.5881 25.6904 89.6988 26.0502C90.9039 26.4451 92.1619 26.644 93.4318 26.6352C94.7163 26.6498 95.995 26.4743 97.2266 26.1175C98.3078 25.8074 99.3155 25.2897 100.193 24.5906C101.027 23.9149 101.693 23.0608 102.141 22.0897C102.621 21.0162 102.857 19.8521 102.836 18.6762C102.866 17.591 102.589 16.5117 102.035 15.5699Z" fill="#010202"/>
<path d="M76.8797 17.9799C76.5262 19.0534 75.9045 20.0099 75.0088 20.5949C74.0218 21.2355 72.7549 21.5543 71.2081 21.5514C69.9236 21.5982 68.6537 21.2559 67.5666 20.5686C66.4794 19.8812 65.6338 18.8808 65.1359 17.705C64.9179 17.2282 64.7499 16.7309 64.6409 16.222H82.6455C83.002 12.8377 82.3185 8.65205 81.4464 6.78881C80.5684 4.92265 79.1631 3.34899 77.4012 2.26089C75.5745 1.09966 73.3442 0.517578 70.7132 0.517578C68.1146 0.517578 65.899 1.12013 64.0723 2.32816C62.2751 3.5011 60.8402 5.14788 59.9269 7.08132C58.9782 9.08788 58.498 11.2816 58.5186 13.4959C58.5068 15.7306 59.0253 17.9331 60.0241 19.9338C61.0082 21.9229 62.5167 23.6106 64.3934 24.8128C66.2967 26.053 68.5653 26.6731 71.1993 26.6731C74.2575 26.6731 76.8561 25.8687 78.9981 24.257C81.0457 22.7126 82.3244 20.5218 82.8341 17.977H76.8797V17.9799ZM65.9255 7.73359C67.0127 6.35884 68.6095 5.66853 70.7132 5.66853C72.4574 5.66853 73.8716 6.18919 74.9558 7.23049C75.9988 8.22207 76.6411 9.55588 76.7678 10.9833H64.5054C64.6792 9.79281 65.1712 8.6696 65.9255 7.73359Z" fill="#010202"/>
<path d="M60.2804 1.39216C59.7118 0.991436 58.8014 0.520508 56.7685 0.520508C51.7569 0.520508 49.5236 4.59213 49.2378 5.15958V0.95341H43.5957V26.2373H48.8636V14.467C48.8636 11.3314 49.9007 9.87764 51.2265 8.43853C52.5524 6.99942 54.2582 5.91131 56.7685 5.91131C58.5745 5.91131 59.7118 6.19797 60.2804 6.39102V1.39216Z" fill="#010202"/>
</g>
<defs>
<clipPath id="clip0_143_2384">
<rect width="126" height="74" fill="white" transform="translate(0.512451 0.5)"/>
</clipPath>
</defs>
</svg>
