<svg width="116" height="117" viewBox="0 0 116 117" fill="none" xmlns="http://www.w3.org/2000/svg">
<mask id="mask0_143_2398" style="mask-type:luminance" maskUnits="userSpaceOnUse" x="0" y="0" width="116" height="117">
<path d="M0 0.241219H116V116.241H0V0.241219Z" fill="white"/>
</mask>
<g mask="url(#mask0_143_2398)">
<path d="M71.1589 63.6704C69.4913 57.1536 66.671 51.2309 62.7769 46.0674C61.4735 44.3393 60.0352 42.6811 58.5017 41.1393L61.4667 38.1905C63.1339 39.8668 64.6979 41.6696 66.1157 43.5492C70.3451 49.1571 73.4048 55.5781 75.2102 62.634L71.1589 63.6704Z" fill="#23739A"/>
<path d="M79.6981 60.7588C77.6639 58.0748 75.6465 55.2919 73.7024 52.4878C72.0211 50.0632 70.8188 48.2354 69.8528 46.7671C68.0901 44.0877 67.2059 42.7429 65.712 41.2849C62.6965 38.3411 58.5791 36.2947 53.4736 35.2025L54.3482 31.1128C60.2376 32.3728 65.0438 34.7884 68.6333 38.2922C70.4511 40.0667 71.4795 41.6301 73.3469 44.4688C74.3001 45.9183 75.4868 47.7221 77.1391 50.105C79.0498 52.861 81.032 55.5953 83.031 58.2328L79.6981 60.7588Z" fill="#84C200"/>
<path d="M88.1328 57.5405C85.17 55.4043 82.3709 52.995 79.8138 50.3799C76.2134 46.6984 74.509 44.0708 73.0046 41.7522C71.5522 39.5128 70.4047 37.7436 67.8261 35.532C62.9915 31.3843 57.7903 29.1243 52.3676 28.8138C48.5421 28.593 44.7362 29.3326 41.059 31.0089L39.3251 27.2033C43.566 25.2707 48.1561 24.3824 52.6068 24.6384C58.9661 25.0026 65.0024 27.5999 70.5488 32.3575C73.5852 34.9623 75.0073 37.1546 76.513 39.4763C77.9109 41.6306 79.4948 44.0727 82.804 47.4561C85.194 49.9003 87.8098 52.1519 90.5786 54.1484L88.1328 57.5405Z" fill="#FDBF03"/>
<path d="M98.6164 53.0225C93.031 52.174 88.2476 50.2162 84.3993 47.2029C80.9354 44.4908 79.1715 41.6923 77.4653 38.9859C75.7881 36.3255 74.2038 33.8124 70.9582 31.0669C66.4492 27.2529 61.8725 25.721 60.1495 25.1441C48.9665 21.4009 38.2606 24.9418 32.8745 27.3863L31.1461 23.5782C37.0913 20.8802 48.9366 16.981 61.4771 21.1783C63.4078 21.8249 68.5371 23.5418 73.6591 27.8737C77.3974 31.036 79.3131 34.0749 81.0031 36.7558C82.6569 39.3797 84.0856 41.6459 86.9776 43.9099C90.2522 46.4742 94.3793 48.1489 99.2444 48.8876L98.6164 53.0225Z" fill="#FD9FA2"/>
<path d="M47.199 21.8513C45.808 22.0752 43.8533 22.5111 41.6641 23.4347C39.2912 24.4359 37.2536 25.7529 31.5438 31.1781C23.4692 38.8494 22.9722 40.5594 23.1116 42.072C23.3386 44.5334 25.2222 46.1545 25.6269 46.4853C29.1363 49.3542 34.7055 47.8285 39.7362 46.4504C42.1857 45.779 44.1445 44.9924 45.4666 44.4046C44.9521 46.228 44.267 48.9155 43.6955 52.2191C42.8393 57.1675 42.36 59.6323 42.906 61.0317C45.3116 67.197 64.0478 64.9542 65.483 64.7721C65.7942 61.9325 66.0976 57.9464 66.0181 53.1748C65.8684 44.1564 65.6866 37.8171 61.8754 31.7674C60.5858 29.721 58.318 26.8143 54.3197 24.1415C54.9265 22.5697 55.0808 21.2165 55.1142 20.3247C55.1538 19.2667 55.1965 17.5247 54.1688 15.902C53.7921 15.3068 53.4653 14.8406 52.9278 14.7427C51.7978 14.5366 50.6475 16.1696 49.4617 17.853C48.8222 18.761 47.981 20.0943 47.199 21.8513Z" fill="white"/>
<path d="M46.2101 43.5458L45.9307 44.5358C45.216 47.0698 44.6239 49.6828 44.1705 52.3016L44.0193 53.1756C43.2925 57.3619 42.8918 59.6677 43.3558 60.857C44.2716 63.2036 48.1517 64.5675 54.5765 64.8001C59.1488 64.9657 63.6613 64.4998 65.0444 64.3395C65.4323 60.6524 65.5976 56.9014 65.5359 53.1834C65.3955 44.7475 65.2849 38.0842 61.4668 32.0251C59.6436 29.1306 57.1489 26.6131 54.0517 24.5427L53.7305 24.3282L53.8696 23.9677C54.3295 22.7769 54.5861 21.5453 54.6323 20.3071C54.6663 19.392 54.7293 17.6886 53.7614 16.1607C53.3854 15.5667 53.1518 15.2743 52.8413 15.2175C52.0181 15.0678 50.8678 16.6951 49.8563 18.131C49.0035 19.3418 48.2577 20.6595 47.6397 22.0479L47.5337 22.2862L47.2755 22.3276C45.4012 22.6295 43.5766 23.1517 41.8519 23.8795C39.4573 24.8897 37.4483 26.2343 31.876 31.5281C24.0094 39.0024 23.47 40.7052 23.5922 42.0279C23.7927 44.2062 25.4344 45.705 25.9327 46.1123C29.2493 48.8228 34.7527 47.3149 39.6088 45.9854C41.5398 45.4559 43.445 44.7759 45.2706 43.9639L46.2101 43.5458ZM56.6487 65.8057C50.7584 65.8057 43.9195 64.9569 42.4565 61.2074C41.895 59.7678 42.2869 57.5094 43.0683 53.0104L43.2198 52.1367C43.6211 49.8187 44.1303 47.5048 44.7352 45.2445C43.1516 45.9018 41.5171 46.463 39.8639 46.9161C34.7833 48.3083 29.0236 49.8867 25.3218 46.8593C24.7503 46.3919 22.8663 44.6683 22.6309 42.1165C22.4753 40.428 22.9998 38.6305 31.2112 30.8284C36.8927 25.4307 38.9699 24.0482 41.4768 22.9905C43.1933 22.2659 45.0049 21.7374 46.8655 21.4181C47.4872 20.0595 48.2271 18.7677 49.0675 17.5751C50.3605 15.7401 51.5819 14.0108 53.0146 14.2684C53.796 14.4109 54.2288 15.0946 54.5768 15.6447C55.7049 17.4251 55.6344 19.3231 55.5967 20.343C55.5512 21.5631 55.3179 22.776 54.9032 23.954C57.968 26.059 60.4497 28.5999 62.2834 31.5107C66.2452 37.7982 66.3584 44.5807 66.5009 53.1669C66.5654 57.0536 66.3846 60.9761 65.963 64.8247L65.9212 65.2029L65.5437 65.251C64.6644 65.3626 60.904 65.8057 56.6487 65.8057Z" fill="#23739A"/>
<path d="M39.2704 25.4879C38.0768 24.9342 37.7151 23.6629 36.6444 17.9743C34.9715 9.08785 35.1861 8.64165 35.4249 8.54811C36.5253 8.11719 40.266 14.3614 41.5921 16.8048C41.594 16.8082 41.5959 16.8116 41.5974 16.8147C44.5399 22.2386 44.9328 22.5857 44.7922 23.2489C44.442 24.8993 41.2348 26.3997 39.2704 25.4879Z" fill="#FDBF03"/>
<path d="M36.9359 33.3549C37.0481 33.7459 37.3331 34.5167 38.0602 35.0916C39.2083 35.9993 41.2812 36.2796 42.4473 34.9903C43.3298 34.0147 43.4317 32.4294 42.6294 31.1601" fill="white"/>
<path d="M40.3335 36.3438C39.4005 36.3438 38.457 36.0207 37.7611 35.4704C36.9912 34.8614 36.6351 34.0563 36.472 33.4882L37.3997 33.2219C37.5238 33.6544 37.791 34.2637 38.3597 34.7133C39.3765 35.5178 41.1585 35.6964 42.0896 34.6669C42.8348 33.8427 42.8906 32.4761 42.2218 31.4181L43.0371 30.9021C43.9476 32.3423 43.8522 34.1564 42.8052 35.3142C42.1566 36.031 41.2505 36.3438 40.3335 36.3438Z" fill="#23739A"/>
<path d="M36.3632 37.0249L35.7701 36.2635L37.7641 34.711L38.3572 35.4724L36.3632 37.0249Z" fill="#23739A"/>
<path d="M40.8159 38.4087L39.8508 38.4L39.8742 35.8765L40.8396 35.8856L40.8159 38.4087Z" fill="#23739A"/>
<path d="M44.3697 36.728L42.3043 35.2055L42.8774 34.4288L44.9422 35.9513L44.3697 36.728Z" fill="#23739A"/>
<path d="M43.3633 32.9443L43.1195 32.0105L45.3929 31.4174L45.637 32.3513L43.3633 32.9443Z" fill="#23739A"/>
<path d="M9.05303 107.956C8.64612 107.956 8.38295 107.952 8.3577 107.951C7.71007 107.942 7.05247 107.919 6.40173 107.885L5.02729 107.813L4.86671 106.447C4.28955 101.549 3.80501 96.5756 3.42678 91.664C3.08442 87.2195 2.81907 82.7014 2.63916 78.2357L5.8991 78.1041C6.07777 82.5305 6.34031 87.0081 6.67955 91.4133C7.01911 95.8188 7.44473 100.275 7.94642 104.68C8.10108 104.684 8.25511 104.687 8.40852 104.689C8.42162 104.689 9.7892 104.71 11.1749 104.654C14.2371 104.532 18.2513 103.883 18.6994 103.809L19.2282 107.029C18.7602 107.106 14.5623 107.784 11.3046 107.914C10.4484 107.949 9.61428 107.956 9.05303 107.956Z" fill="#23739A"/>
<path d="M14.401 92.8012C14.4559 94.3468 14.57 97.5628 16.2307 98.3741C17.1269 98.8107 18.457 98.4876 19.3086 97.9426C22.0793 96.1672 21.1847 90.4826 20.606 88.4425C20.215 87.0652 19.7426 85.6792 18.665 85.1978C18.6572 85.1947 17.791 84.8168 16.9887 85.0949C15.2195 85.7117 14.2838 89.4973 14.401 92.8012ZM17.2054 101.844C16.4025 101.844 15.5809 101.688 14.7983 101.305C11.379 99.6348 11.2181 95.0977 11.1402 92.9172C11.1068 91.9743 11.1096 89.5129 11.8567 87.0319C12.8585 83.7043 14.6162 82.4664 15.9145 82.014C17.8041 81.356 19.5153 82.0049 19.9958 82.2188C22.5551 83.3628 23.329 86.0877 23.745 87.5516C24.0259 88.5419 26.3333 97.3162 21.0693 100.69C20.0953 101.314 18.6834 101.844 17.2054 101.844Z" fill="#23739A"/>
<path d="M44.2204 97.9986C44.6701 99.0023 46.1854 101.308 47.3931 101.309C47.4161 101.309 47.4386 101.307 47.4614 101.306C48.1554 101.255 48.7999 100.399 49.0117 100.117C50.2149 98.5174 49.8482 96.3469 49.5804 94.762L49.5676 94.6881V94.6872C48.9583 91.073 47.9378 89.06 46.534 88.7039C45.8824 88.5368 45.0645 88.7033 44.5057 89.1155C42.6895 90.455 43.2523 94.9401 44.033 97.4526C44.0686 97.5661 44.1051 97.6837 44.1546 97.8227C44.1553 97.8249 44.1562 97.8277 44.1575 97.8305C44.1649 97.8514 44.1911 97.9234 44.2204 97.9986ZM47.3815 104.572C43.4855 104.572 41.2162 99.2742 41.1944 99.219C41.1479 99.1014 41.107 98.9985 41.0746 98.8994C41.0104 98.7192 40.9621 98.5648 40.9168 98.4189C40.6403 97.529 38.3307 89.6153 42.5694 86.4895C43.9118 85.4998 45.738 85.1369 47.336 85.5413C51.5133 86.6008 52.4705 92.2788 52.7851 94.145L52.7976 94.2185C53.1222 96.1405 53.6657 99.3574 51.619 102.078C51.1868 102.653 49.8726 104.399 47.7021 104.56C47.5939 104.568 47.4872 104.572 47.3815 104.572Z" fill="#23739A"/>
<path d="M34.5181 95.0271C34.5082 96.8319 34.4898 100.192 32.3848 101.395C31.4634 101.921 30.3808 101.902 29.5726 101.77C29.938 98.2989 30.3028 94.8279 30.6726 91.3562C30.7456 90.6706 30.8195 89.9865 30.8924 89.3014C31.5893 89.3261 32.4714 89.4885 33.1789 90.0551C34.5393 91.1439 34.5281 93.2065 34.5181 95.0271ZM35.2181 87.5082C34.1433 86.6476 32.7608 86.1525 31.2398 86.0558C31.4088 84.479 31.5766 82.901 31.7465 81.3245L28.5024 80.9756C28.1423 84.3184 27.7844 87.6635 27.4283 91.0104C26.9269 95.7187 26.4296 100.426 25.9363 105.133L29.1813 105.473C29.1972 105.322 29.2134 105.171 29.2293 105.021C29.6356 105.08 30.0674 105.117 30.5161 105.117C31.6296 105.117 32.8425 104.891 34.0037 104.228C37.7422 102.091 37.769 97.1533 37.7809 95.0446C37.7924 92.8694 37.8105 89.583 35.2181 87.5082Z" fill="#23739A"/>
<path d="M62.3405 107.562L59.3706 107.181C58.2849 103.418 57.4015 99.5548 56.7455 95.7006C55.7577 89.8957 55.2575 83.9576 55.2594 78.0526L58.5218 78.0532C58.5203 83.7752 59.0048 89.5287 59.9621 95.153C60.3671 97.5327 60.8613 99.9159 61.4391 102.275C61.4522 102.247 61.4653 102.218 61.4781 102.19C62.4232 100.124 63.024 98.3207 63.3474 97.3519C63.3483 97.3478 63.4621 97.0067 63.5684 96.6734C64.6831 93.1824 65.5129 88.3142 65.5213 88.2652L65.5559 88.0594C66.0938 84.8806 66.703 81.2773 67.3444 77.2865L70.5663 77.8041C69.9221 81.8083 69.3116 85.4181 68.7731 88.6035L68.7382 88.8093C68.7026 89.0176 67.8611 93.9566 66.6771 97.6646C66.564 98.0198 66.4424 98.384 66.4424 98.384C66.1 99.4104 65.463 101.322 64.4452 103.547C63.8247 104.905 63.116 106.256 62.3405 107.562Z" fill="#FD9FA2"/>
<path d="M77.6201 102.249C77.0083 102.32 76.6463 102.354 76.3252 102.219C75.8172 102.006 75.4063 101.35 74.9922 100.095C73.4151 95.3074 73.9801 90.051 75.1578 89.4131C75.5531 89.1992 76.0969 89.0804 76.2662 89.0539C76.8016 88.9737 77.3688 89.0289 77.9144 89.202C78.3906 91.1847 78.81 93.1847 79.1542 95.183C79.5081 97.2422 79.7853 99.3291 80.0014 101.42C79.2374 101.869 78.4258 102.154 77.6201 102.249ZM83.5943 105.231C83.382 101.69 82.9698 98.1231 82.3692 94.6299C81.8061 91.3547 81.0653 88.0707 80.1666 84.87L77.0249 85.7518C77.0258 85.7543 77.0264 85.7565 77.027 85.7593C76.6105 85.7437 76.1951 85.7655 75.7867 85.8263C75.666 85.8444 74.5787 86.0165 73.6047 86.5435C69.9989 88.497 70.2936 96.2616 71.8935 101.115C72.3886 102.618 73.1962 104.443 75.0608 105.227C75.7006 105.496 76.3143 105.573 76.8649 105.573C77.2852 105.573 77.6687 105.528 77.9999 105.49C78.776 105.399 79.5486 105.199 80.2982 104.9C80.3097 105.075 80.3269 105.251 80.3372 105.427L83.5943 105.231Z" fill="#FD9FA2"/>
<path d="M104.662 101.3C103.743 100.637 103.713 99.0743 103.774 96.5792C103.854 93.2391 104.956 89.4348 106.661 88.8489C106.953 88.7488 107.521 88.6365 108.163 88.6462C108.702 88.6549 109.241 88.7612 109.758 88.9433C109.562 90.8485 109.358 92.7483 109.147 94.6217C108.903 96.79 108.64 98.9764 108.369 101.162C107.437 101.547 105.679 102.034 104.662 101.3ZM110.114 85.3997C110.106 85.4779 110.098 85.5565 110.09 85.6348C109.476 85.481 108.847 85.3947 108.219 85.3841C107.308 85.3657 106.338 85.5104 105.601 85.7632C100.866 87.3899 100.534 95.573 100.512 96.5006C100.444 99.3175 100.374 102.23 102.753 103.946C103.794 104.697 104.955 104.952 106.051 104.952C106.71 104.952 107.346 104.859 107.917 104.727C107.888 104.956 107.861 105.187 107.83 105.415L111.066 105.84C111.539 102.234 111.984 98.5835 112.389 94.9874C112.733 91.9361 113.06 88.8164 113.361 85.7149L110.114 85.3997Z" fill="#FD9FA2"/>
<path d="M91.0987 107.327C88.6189 102.684 86.6829 97.7526 85.3449 92.6686C84.1635 88.1799 83.4441 83.5508 83.2068 78.9101L86.4655 78.744C86.6913 83.1604 87.3763 87.5659 88.5001 91.838C89.4299 95.3714 90.6634 98.8274 92.1803 102.156C92.8149 99.877 93.3468 97.5752 93.7693 95.2747C94.4406 91.625 94.7135 88.6756 94.8164 87.2426C95.0455 84.0534 95.0549 80.8259 94.8438 77.6486L98.0994 77.4328C98.3201 80.7595 98.3105 84.1382 98.0707 87.4761C97.9631 88.9759 97.6778 92.0609 96.9784 95.8643C96.2865 99.6319 95.3124 103.404 94.0845 107.076L91.0987 107.327Z" fill="#FD9FA2"/>
</g>
</svg>
