<svg width="212" height="105" viewBox="0 0 212 105" fill="none" xmlns="http://www.w3.org/2000/svg">
<path d="M168.732 23.1826H52.6551L47.6608 46.9421H163.98L168.732 23.1826Z" fill="#EEEEEE"/>
<path d="M57.4883 42.0579C57.3272 42.7202 56.9244 43.1341 56.28 43.0513C55.6356 43.0513 55.3939 42.7202 55.555 41.9751L58.2133 29.3089C58.2939 28.9778 58.455 28.6466 58.6161 28.481C58.8577 28.3155 59.0994 28.1499 59.341 28.1499H63.6909C65.6242 28.1499 66.9936 28.481 67.7991 28.9778C68.5241 29.5573 68.8463 30.4679 68.5241 31.7097C68.2824 32.9515 67.638 33.9449 66.7519 34.6072C65.8658 35.2695 64.6576 35.6006 63.2076 35.6006H58.7772L57.4883 42.0579ZM62.5632 33.7793C64.0937 33.7793 65.1409 33.6965 65.6242 33.4482C66.1075 33.1998 66.4297 32.7031 66.5908 31.958C66.6714 31.4613 66.6714 31.0474 66.5103 30.799C66.3492 30.5507 66.027 30.3851 65.5436 30.3023C65.0603 30.2195 64.3353 30.1368 63.2881 30.1368H59.9049L59.0994 33.7793H62.5632Z" fill="black"/>
<path d="M57.4883 42.0579C57.3272 42.7202 56.9244 43.1341 56.28 43.0513C55.6356 43.0513 55.3939 42.7202 55.555 41.9751L58.2133 29.3089C58.2939 28.9778 58.455 28.6466 58.6161 28.481C58.8577 28.3155 59.0994 28.1499 59.341 28.1499H63.6909C65.6242 28.1499 66.9936 28.481 67.7991 28.9778C68.5241 29.5573 68.8463 30.4679 68.5241 31.7097C68.2824 32.9515 67.638 33.9449 66.7519 34.6072C65.8658 35.2695 64.6576 35.6006 63.2076 35.6006H58.7772L57.4883 42.0579ZM62.5632 33.7793C64.0937 33.7793 65.1409 33.6965 65.6242 33.4482C66.1075 33.1998 66.4297 32.7031 66.5908 31.958C66.6714 31.4613 66.6714 31.0474 66.5103 30.799C66.3492 30.5507 66.027 30.3851 65.5436 30.3023C65.0603 30.2195 64.3353 30.1368 63.2881 30.1368H59.9049L59.0994 33.7793H62.5632Z" fill="black"/>
<path d="M56.3604 43.2997C56.2799 43.2997 56.2799 43.2997 56.3604 43.2997C55.9577 43.2997 55.716 43.2169 55.5549 42.9685C55.3938 42.7202 55.3132 42.4718 55.3938 42.0579L58.052 29.3917C58.1326 28.9778 58.2937 28.6466 58.5354 28.481C58.777 28.2327 59.0187 28.1499 59.4214 28.1499H63.7713C65.7851 28.1499 67.1545 28.481 67.9601 29.0605C68.7656 29.64 69.0878 30.6335 68.7656 31.958C68.5239 33.2826 67.8795 34.276 66.9129 34.9383C65.9462 35.6006 64.738 35.9318 63.288 35.9318H58.9381L57.6493 42.1407C57.4882 42.8858 57.0049 43.2997 56.3604 43.2997ZM59.3409 28.3983C59.0992 28.3983 58.9381 28.481 58.6965 28.6466C58.5354 28.8122 58.3742 29.0605 58.2937 29.3917L55.6354 42.0579C55.5549 42.3891 55.5549 42.5546 55.716 42.7202C55.7966 42.803 55.9577 42.8858 56.1993 42.8858C56.7632 42.8858 57.0854 42.6374 57.2465 41.9751L58.6159 35.435H63.2074C64.6574 35.435 65.7851 35.1039 66.6712 34.5244C67.5573 33.8621 68.1212 32.9515 68.3628 31.7097C68.6045 30.5507 68.3628 29.7228 67.7184 29.1433C66.9934 28.5638 65.624 28.3155 63.7713 28.3155L59.3409 28.3983ZM62.8047 33.9449C62.7241 33.9449 62.6436 33.9449 62.563 33.9449H59.0187L59.8242 29.8884H63.3685C64.4157 29.8884 65.1407 29.9712 65.624 30.054C66.1879 30.1368 66.5101 30.3851 66.6712 30.6335C66.8323 30.9646 66.8323 31.3785 66.7518 31.8753C66.5907 32.7031 66.1879 33.1998 65.7046 33.4482C65.2213 33.8621 64.2546 33.9449 62.8047 33.9449ZM59.4214 33.6138H62.563C64.0935 33.6138 65.0602 33.531 65.5435 33.2826C66.0268 33.117 66.2685 32.6203 66.4296 31.958C66.5101 31.4613 66.5101 31.1302 66.4296 30.9646C66.349 30.7163 66.0268 30.6335 65.624 30.5507C65.1407 30.4679 64.4157 30.3851 63.3685 30.3851H60.1464L59.4214 33.6138Z" fill="white"/>
<path d="M81.1708 37.67C80.9291 38.7462 80.5264 39.7396 79.8014 40.5675C79.157 41.3954 78.3514 42.0576 77.3042 42.4716C76.3376 42.8855 75.2099 43.1339 74.0016 43.1339C72.7933 43.1339 71.8266 42.8855 71.0211 42.4716C70.2156 42.0576 69.6517 41.3954 69.3295 40.5675C69.0073 39.7396 69.0073 38.7462 69.2489 37.67L70.0545 33.6963C70.2961 32.6201 70.6989 31.6266 71.4239 30.7988C72.0683 29.9709 72.8738 29.3086 73.921 28.8947C74.8876 28.4808 76.0154 28.2324 77.2237 28.2324C78.432 28.2324 79.3986 28.4808 80.2041 28.8947C81.0097 29.3086 81.5736 29.9709 81.8958 30.7988C82.218 31.6266 82.218 32.6201 81.9763 33.6963L81.1708 37.67ZM76.8209 30.0537C75.5321 30.0537 74.4849 30.3849 73.6793 30.9644C72.8738 31.6266 72.3099 32.5373 72.0683 33.6963L71.2628 37.5044C71.0211 38.7462 71.1822 39.6569 71.6655 40.2364C72.2294 40.8986 73.1155 41.147 74.4043 41.2298C75.6932 41.2298 76.7404 40.8986 77.5459 40.3191C78.3514 39.6569 78.9153 38.7462 79.157 37.5872L79.9625 33.7791C80.2042 32.6201 80.043 31.7094 79.5597 31.0471C79.0764 30.3849 78.1098 30.0537 76.8209 30.0537Z" fill="black"/>
<path d="M81.1708 37.67C80.9291 38.7462 80.5264 39.7396 79.8014 40.5675C79.157 41.3954 78.3514 42.0576 77.3042 42.4716C76.3376 42.8855 75.2099 43.1339 74.0016 43.1339C72.7933 43.1339 71.8266 42.8855 71.0211 42.4716C70.2156 42.0576 69.6517 41.3954 69.3295 40.5675C69.0073 39.7396 69.0073 38.7462 69.2489 37.67L70.0545 33.6963C70.2961 32.6201 70.6989 31.6266 71.4239 30.7988C72.0683 29.9709 72.8738 29.3086 73.921 28.8947C74.8876 28.4808 76.0154 28.2324 77.2237 28.2324C78.432 28.2324 79.3986 28.4808 80.2041 28.8947C81.0097 29.3086 81.5736 29.9709 81.8958 30.7988C82.218 31.6266 82.218 32.6201 81.9763 33.6963L81.1708 37.67ZM76.8209 30.0537C75.5321 30.0537 74.4849 30.3849 73.6793 30.9644C72.8738 31.6266 72.3099 32.5373 72.0683 33.6963L71.2628 37.5044C71.0211 38.7462 71.1822 39.6569 71.6655 40.2364C72.2294 40.8986 73.1155 41.147 74.4043 41.2298C75.6932 41.2298 76.7404 40.8986 77.5459 40.3191C78.3514 39.6569 78.9153 38.7462 79.157 37.5872L79.9625 33.7791C80.2042 32.6201 80.043 31.7094 79.5597 31.0471C79.0764 30.3849 78.1098 30.0537 76.8209 30.0537Z" fill="black"/>
<path d="M74.163 43.3823H74.0825C72.8742 43.3823 71.827 43.1339 71.0214 42.6372C70.2159 42.1405 69.5715 41.4782 69.2493 40.6503C68.9271 39.8225 68.9271 38.7463 69.1687 37.67L69.9742 33.6963C70.2159 32.5373 70.6992 31.5439 71.3436 30.716C71.9881 29.8882 72.8742 29.2259 73.8408 28.7292C74.8074 28.2325 76.0157 28.0669 77.1435 28.0669C78.3518 28.0669 79.399 28.3153 80.2045 28.812C81.01 29.3087 81.6545 29.971 81.9767 30.7988C82.2989 31.6267 82.2989 32.7029 82.0572 33.7791L81.2517 37.7528C81.01 38.9118 80.5267 39.9053 79.8823 40.7331C79.2379 41.561 78.3518 42.2233 77.3851 42.72C76.4185 43.1339 75.3713 43.3823 74.163 43.3823ZM77.1435 28.398C76.0157 28.398 74.9685 28.6464 74.0019 29.0603C73.0353 29.4743 72.2297 30.1365 71.5853 30.9644C70.9409 31.7923 70.5381 32.7029 70.2965 33.7791L69.4909 37.7528C69.2493 38.829 69.3298 39.7397 69.5715 40.5675C69.8937 41.3954 70.377 41.9749 71.1825 42.3888C71.9881 42.8028 72.9547 43.0511 74.0825 43.0511C75.2908 43.0511 76.338 42.8028 77.3046 42.3888C78.2712 41.9749 79.0768 41.3126 79.7212 40.4848C80.3656 39.6569 80.7684 38.7463 81.01 37.67L81.8156 33.6963C82.0572 32.6201 81.9767 31.7095 81.735 30.8816C81.4128 30.0538 80.9295 29.4743 80.124 29.0603C79.3184 28.6464 78.3518 28.398 77.224 28.398H77.1435ZM74.5658 41.4782C74.4852 41.4782 74.4852 41.4782 74.5658 41.4782C73.1158 41.4782 72.1492 41.147 71.5853 40.4848C71.0214 39.8225 70.8603 38.829 71.102 37.5873L71.9075 33.7791C72.1492 32.5373 72.7131 31.5439 73.5991 30.9644C74.4047 30.3021 75.5324 29.971 76.8213 29.971H76.9018C78.2712 29.971 79.2379 30.3021 79.8017 30.9644C80.3656 31.7095 80.5267 32.7029 80.2851 33.8619L79.4795 37.67C79.2379 38.9118 78.674 39.9053 77.7879 40.4848C76.9018 41.147 75.8546 41.4782 74.5658 41.4782ZM76.7407 30.3021C75.5324 30.3021 74.4852 30.6333 73.7602 31.2128C72.9547 31.7923 72.4714 32.7029 72.2297 33.8619L71.4242 37.67C71.1825 38.829 71.3437 39.6569 71.827 40.2364C72.3103 40.8159 73.1964 41.147 74.4852 41.147C75.6935 41.147 76.7407 40.8159 77.5463 40.2364C78.3518 39.6569 78.8351 38.7463 79.0768 37.5873L79.8823 33.7791C80.1239 32.7029 79.9628 31.7923 79.4795 31.2128C78.9962 30.5505 78.1101 30.3021 76.7407 30.3021C76.8213 30.3021 76.8213 30.3021 76.7407 30.3021Z" fill="white"/>
<path d="M88.8235 43.0513C87.293 43.0513 86.1652 42.8857 85.3597 42.6373C84.5542 42.389 84.0709 41.8922 83.8292 41.3127C83.5875 40.7332 83.5875 39.8226 83.8292 38.7464L85.118 32.703C85.3597 31.6268 85.6819 30.799 86.1652 30.2195C86.6486 29.64 87.293 29.1432 88.1791 28.8949C89.0652 28.6465 90.1123 28.481 91.4817 28.481H95.1066C95.9927 28.481 96.6372 28.7293 96.9594 29.1432C97.2816 29.5572 97.3621 30.3022 97.201 31.2129C97.0399 32.0407 96.6372 32.4547 95.9927 32.4547C95.6705 32.4547 95.5094 32.3719 95.3483 32.1235C95.1872 31.8752 95.1872 31.6268 95.2678 31.2129C95.3483 30.799 95.3483 30.5506 95.2678 30.4678C95.1872 30.3022 94.9455 30.3022 94.6233 30.3022H91.1595C90.1123 30.3022 89.3068 30.385 88.8235 30.4678C88.3402 30.5506 87.9374 30.799 87.6957 31.1301C87.4541 31.4612 87.2124 31.958 87.0513 32.703L85.7625 38.6636C85.6014 39.4087 85.6014 39.9054 85.6819 40.2365C85.843 40.5677 86.1652 40.816 86.6486 40.8988C87.2124 40.9816 88.018 41.0644 89.2263 41.0644H92.2873C92.6095 41.0644 92.8512 40.9816 93.0123 40.8988C93.1734 40.7332 93.2539 40.4849 93.3345 40.1538C93.415 39.7398 93.5761 39.4915 93.7372 39.2431C93.9789 38.9947 94.2206 38.912 94.5428 38.912C95.1872 38.912 95.4289 39.3259 95.2678 40.2365C95.1066 41.1472 94.7039 41.8923 94.14 42.3062C93.5761 42.7201 92.9317 42.9685 91.9651 42.9685L88.8235 43.0513Z" fill="black"/>
<path d="M88.8235 43.0513C87.293 43.0513 86.1652 42.8857 85.3597 42.6373C84.5542 42.389 84.0709 41.8922 83.8292 41.3127C83.5875 40.7332 83.5875 39.8226 83.8292 38.7464L85.118 32.703C85.3597 31.6268 85.6819 30.799 86.1652 30.2195C86.6486 29.64 87.293 29.1432 88.1791 28.8949C89.0652 28.6465 90.1123 28.481 91.4817 28.481H95.1066C95.9927 28.481 96.6372 28.7293 96.9594 29.1432C97.2816 29.5572 97.3621 30.3022 97.201 31.2129C97.0399 32.0407 96.6372 32.4547 95.9927 32.4547C95.6705 32.4547 95.5094 32.3719 95.3483 32.1235C95.1872 31.8752 95.1872 31.6268 95.2678 31.2129C95.3483 30.799 95.3483 30.5506 95.2678 30.4678C95.1872 30.3022 94.9455 30.3022 94.6233 30.3022H91.1595C90.1123 30.3022 89.3068 30.385 88.8235 30.4678C88.3402 30.5506 87.9374 30.799 87.6957 31.1301C87.4541 31.4612 87.2124 31.958 87.0513 32.703L85.7625 38.6636C85.6014 39.4087 85.6014 39.9054 85.6819 40.2365C85.843 40.5677 86.1652 40.816 86.6486 40.8988C87.2124 40.9816 88.018 41.0644 89.2263 41.0644H92.2873C92.6095 41.0644 92.8512 40.9816 93.0123 40.8988C93.1734 40.7332 93.2539 40.4849 93.3345 40.1538C93.415 39.7398 93.5761 39.4915 93.7372 39.2431C93.9789 38.9947 94.2206 38.912 94.5428 38.912C95.1872 38.912 95.4289 39.3259 95.2678 40.2365C95.1066 41.1472 94.7039 41.8923 94.14 42.3062C93.5761 42.7201 92.9317 42.9685 91.9651 42.9685L88.8235 43.0513Z" fill="black"/>
<path d="M92.0459 43.2169H88.7433C87.2127 43.2169 86.085 43.0513 85.2795 42.8029C84.4739 42.5546 83.9101 42.0579 83.5879 41.3956C83.3462 40.7333 83.3462 39.8227 83.5073 38.7464L84.7962 32.7031C85.0378 31.6269 85.36 30.7162 85.9239 30.1367C86.4072 29.4744 87.1322 29.0605 88.0183 28.7294C88.9044 28.481 90.0321 28.3154 91.4015 28.3154H95.0264C95.993 28.3154 96.6375 28.5638 97.0402 29.0605C97.443 29.5572 97.5236 30.3023 97.2819 31.2957C97.0402 32.4547 96.3958 32.7031 95.9125 32.7031C95.5097 32.7031 95.2681 32.5375 95.107 32.2891C94.9458 32.0408 94.9459 31.7096 95.0264 31.2957C95.107 30.8818 95.0264 30.7162 95.0264 30.7162C95.0264 30.7162 94.8653 30.6334 94.4625 30.5506H90.9987C89.9516 30.5506 89.146 30.6334 88.6627 30.7162C88.1794 30.799 87.8572 31.0474 87.6155 31.2957C87.3739 31.6269 87.2127 32.1236 87.0516 32.7859L85.7628 38.7464C85.6017 39.4087 85.6017 39.9054 85.6822 40.2366C85.7628 40.4849 86.085 40.7333 86.5683 40.8161C87.0516 40.8989 87.9377 40.9817 89.0655 40.9817H92.1265C92.4487 40.9817 92.6904 40.8989 92.7709 40.8161C92.8515 40.7333 92.932 40.5677 93.0931 40.1538C93.1737 39.7399 93.3348 39.4087 93.5764 39.1604C93.8181 38.912 94.1403 38.8292 94.4625 38.8292C94.7847 38.8292 95.0264 38.912 95.1875 39.1604C95.3486 39.4087 95.4292 39.8226 95.3486 40.3194C95.107 41.3128 94.7847 41.9751 94.2209 42.4718C93.7376 42.9685 93.0126 43.2169 92.0459 43.2169ZM91.2404 28.6466C89.9516 28.6466 88.9044 28.8121 88.0988 29.0605C87.2933 29.3089 86.6489 29.7228 86.1656 30.3023C85.6822 30.8818 85.36 31.7096 85.1184 32.7859L83.8295 38.8292C83.5878 39.9054 83.5878 40.6505 83.8295 41.23C84.0712 41.8095 84.5545 42.2234 85.2795 42.4718C86.085 42.7202 87.2127 42.8857 88.6627 42.8857H91.8848C92.7709 42.8857 93.4153 42.6374 93.8987 42.2234C94.382 41.8095 94.7042 41.1472 94.9458 40.2366C95.0264 39.8226 95.0264 39.4915 94.8653 39.3259C94.7847 39.2432 94.6236 39.1604 94.382 39.1604C94.1403 39.1604 93.8987 39.2431 93.7375 39.4087C93.5764 39.5743 93.4153 39.8226 93.3348 40.2366C93.2542 40.6505 93.0931 40.8989 92.932 41.0644C92.7709 41.23 92.4487 41.3128 92.1265 41.3128H89.0655C87.8572 41.3128 86.9711 41.23 86.4878 41.1472C85.9239 40.9816 85.5211 40.7333 85.36 40.3194C85.1989 39.9882 85.1989 39.4087 85.36 38.6636L86.6489 32.7031C86.81 31.958 87.0516 31.4613 87.2933 31.0474C87.535 30.7162 88.0183 30.4679 88.5822 30.3023C89.146 30.2195 89.9516 30.1367 90.9987 30.1367H94.4625C94.8653 30.1367 95.107 30.2195 95.2681 30.3851C95.4292 30.5506 95.4292 30.8818 95.3486 31.2957C95.2681 31.6269 95.2681 31.8752 95.4292 32.0408C95.5097 32.2064 95.6708 32.2891 95.9125 32.2891C96.4764 32.2891 96.7986 31.958 96.9597 31.1301C97.1208 30.2195 97.1208 29.5572 96.7986 29.1433C96.4764 28.7294 95.9125 28.5638 95.107 28.5638H91.4821C91.4015 28.6466 91.321 28.6466 91.2404 28.6466Z" fill="white"/>
<path d="M103.243 43.1338C101.712 43.1338 100.585 42.9682 99.779 42.7198C98.9735 42.4715 98.4902 41.9748 98.2485 41.3953C98.0068 40.8158 98.0068 39.9051 98.2485 38.8289L99.5373 32.7855C99.779 31.7093 100.101 30.8815 100.585 30.302C101.068 29.7225 101.712 29.2258 102.598 28.9774C103.484 28.729 104.532 28.5635 105.901 28.5635H109.526C110.412 28.5635 111.056 28.8118 111.379 29.2258C111.701 29.6397 111.781 30.3848 111.62 31.2954C111.459 32.1233 111.056 32.5372 110.412 32.5372C110.09 32.5372 109.929 32.4544 109.768 32.206C109.607 31.9577 109.607 31.7093 109.687 31.2954C109.768 30.8815 109.768 30.6331 109.687 30.5503C109.607 30.3848 109.365 30.3848 109.043 30.3848H105.579C104.532 30.3848 103.726 30.4675 103.243 30.5503C102.759 30.6331 102.357 30.8815 102.115 31.2126C101.873 31.5438 101.632 32.0405 101.471 32.7855L100.182 38.7461C100.021 39.4912 100.021 39.9879 100.101 40.3191C100.262 40.6502 100.585 40.8986 101.068 40.9813C101.632 41.0641 102.437 41.1469 103.646 41.1469H106.707C107.029 41.1469 107.27 41.0641 107.432 40.9813C107.593 40.8158 107.673 40.5674 107.754 40.2363C107.834 39.8223 107.995 39.574 108.157 39.3256C108.398 39.0773 108.64 38.9945 108.962 38.9945C109.607 38.9945 109.848 39.4084 109.687 40.3191C109.526 41.2297 109.123 41.9748 108.559 42.3887C107.995 42.8026 107.351 43.051 106.384 43.051L103.243 43.1338Z" fill="black"/>
<path d="M103.243 43.1338C101.712 43.1338 100.585 42.9682 99.779 42.7198C98.9735 42.4715 98.4902 41.9748 98.2485 41.3953C98.0068 40.8158 98.0068 39.9051 98.2485 38.8289L99.5373 32.7855C99.779 31.7093 100.101 30.8815 100.585 30.302C101.068 29.7225 101.712 29.2258 102.598 28.9774C103.484 28.729 104.532 28.5635 105.901 28.5635H109.526C110.412 28.5635 111.056 28.8118 111.379 29.2258C111.701 29.6397 111.781 30.3848 111.62 31.2954C111.459 32.1233 111.056 32.5372 110.412 32.5372C110.09 32.5372 109.929 32.4544 109.768 32.206C109.607 31.9577 109.607 31.7093 109.687 31.2954C109.768 30.8815 109.768 30.6331 109.687 30.5503C109.607 30.3848 109.365 30.3848 109.043 30.3848H105.579C104.532 30.3848 103.726 30.4675 103.243 30.5503C102.759 30.6331 102.357 30.8815 102.115 31.2126C101.873 31.5438 101.632 32.0405 101.471 32.7855L100.182 38.7461C100.021 39.4912 100.021 39.9879 100.101 40.3191C100.262 40.6502 100.585 40.8986 101.068 40.9813C101.632 41.0641 102.437 41.1469 103.646 41.1469H106.707C107.029 41.1469 107.27 41.0641 107.432 40.9813C107.593 40.8158 107.673 40.5674 107.754 40.2363C107.834 39.8223 107.995 39.574 108.157 39.3256C108.398 39.0773 108.64 38.9945 108.962 38.9945C109.607 38.9945 109.848 39.4084 109.687 40.3191C109.526 41.2297 109.123 41.9748 108.559 42.3887C107.995 42.8026 107.351 43.051 106.384 43.051L103.243 43.1338Z" fill="black"/>
<path d="M106.545 43.2994C106.465 43.2994 106.465 43.2994 106.545 43.2994H103.243C101.712 43.2994 100.585 43.1338 99.779 42.8855C98.9734 42.6371 98.4096 42.1404 98.0874 41.4781C97.8457 40.8158 97.8457 39.9052 98.0068 38.829L99.2957 32.7856C99.5373 31.7094 99.8595 30.7987 100.423 30.2192C100.907 29.557 101.632 29.143 102.518 28.8119C103.404 28.5635 104.532 28.3979 105.901 28.3979H109.526C110.493 28.3979 111.137 28.6463 111.54 29.143C111.943 29.6397 112.023 30.3848 111.781 31.3782C111.54 32.5372 110.895 32.7856 110.412 32.7856C110.009 32.7856 109.768 32.62 109.606 32.3717C109.445 32.1233 109.445 31.7922 109.526 31.3782C109.606 30.9643 109.526 30.7987 109.526 30.7987C109.526 30.7987 109.365 30.7159 108.962 30.7159H105.498C104.451 30.7159 103.646 30.7987 103.162 30.8815C102.679 30.9643 102.357 31.2127 102.115 31.461C101.873 31.7922 101.712 32.2889 101.551 32.9512L100.262 38.9117C100.101 39.574 100.101 40.0707 100.182 40.4019C100.262 40.6502 100.585 40.8986 101.068 40.9814C101.551 41.0642 102.437 41.147 103.565 41.147H106.626C107.029 41.147 107.19 41.0642 107.27 40.9814C107.351 40.8986 107.432 40.733 107.593 40.3191C107.673 39.9052 107.834 39.574 108.076 39.3257C108.318 39.0773 108.64 38.9945 108.962 38.9945C109.284 38.9945 109.526 39.0773 109.687 39.3257C109.848 39.574 109.929 39.988 109.848 40.4847C109.606 41.4781 109.284 42.1404 108.72 42.6371C108.157 43.051 107.432 43.2994 106.545 43.2994ZM105.74 28.6463C104.451 28.6463 103.404 28.8119 102.598 29.0602C101.793 29.3086 101.148 29.7225 100.665 30.302C100.182 30.8815 99.8595 31.7094 99.6179 32.7856L98.329 38.829C98.0874 39.9052 98.0874 40.6502 98.329 41.2297C98.5707 41.8092 99.054 42.2232 99.779 42.4715C100.585 42.7199 101.712 42.8855 103.162 42.8855H106.384C107.27 42.8855 107.915 42.6371 108.398 42.2232C108.881 41.8092 109.204 41.147 109.445 40.2363C109.526 39.8224 109.526 39.4912 109.365 39.3257C109.284 39.2429 109.123 39.1601 108.881 39.1601C108.64 39.1601 108.398 39.2429 108.237 39.4085C108.076 39.574 107.915 39.8224 107.834 40.2363C107.754 40.6502 107.593 40.8986 107.432 41.0642C107.27 41.2297 106.948 41.3125 106.626 41.3125H103.565C102.357 41.3125 101.471 41.2297 100.987 41.147C100.423 40.9814 100.021 40.733 99.8595 40.3191C99.6984 39.988 99.6984 39.4085 99.8595 38.6634L101.148 32.7028C101.309 31.9577 101.551 31.461 101.793 31.0471C102.034 30.716 102.518 30.3848 103.082 30.302C103.646 30.2192 104.371 30.1364 105.498 30.1364H108.962C109.365 30.1364 109.606 30.2192 109.768 30.3848C109.929 30.5504 109.929 30.8815 109.848 31.2955C109.768 31.6266 109.768 31.8749 109.929 32.0405C110.009 32.2061 110.17 32.2889 110.412 32.2889C110.976 32.2889 111.298 31.9577 111.459 31.1299C111.62 30.2192 111.62 29.5569 111.298 29.143C110.976 28.7291 110.412 28.5635 109.606 28.5635H105.982C105.82 28.6463 105.82 28.6463 105.74 28.6463Z" fill="white"/>
<path d="M112.265 42.2232L114.923 29.4742C115.084 28.7291 115.487 28.3979 116.131 28.3979C116.776 28.3979 117.017 28.8119 116.856 29.5569L114.681 39.9052L124.992 28.9775C125.395 28.5635 125.717 28.3979 126.12 28.3979C126.764 28.3979 126.925 28.7291 126.764 29.4742L124.106 42.2232C123.945 42.9682 123.542 43.2994 122.898 43.2994C122.253 43.2994 122.012 42.9682 122.173 42.306L124.348 31.7922L114.117 42.6371C113.876 42.8855 113.715 43.051 113.553 43.1338C113.392 43.2166 113.231 43.2166 112.99 43.2166C112.345 43.2994 112.104 42.8855 112.265 42.2232Z" fill="black"/>
<path d="M112.265 42.2232L114.923 29.4742C115.084 28.7291 115.487 28.3979 116.131 28.3979C116.776 28.3979 117.017 28.8119 116.856 29.5569L114.681 39.9052L124.992 28.9775C125.395 28.5635 125.717 28.3979 126.12 28.3979C126.764 28.3979 126.925 28.7291 126.764 29.4742L124.106 42.2232C123.945 42.9682 123.542 43.2994 122.898 43.2994C122.253 43.2994 122.012 42.9682 122.173 42.306L124.348 31.7922L114.117 42.6371C113.876 42.8855 113.715 43.051 113.553 43.1338C113.392 43.2166 113.231 43.2166 112.99 43.2166C112.345 43.2994 112.104 42.8855 112.265 42.2232Z" fill="black"/>
<path d="M122.897 43.465C122.495 43.465 122.253 43.3822 122.092 43.1339C121.931 42.8855 121.85 42.6371 121.931 42.2232L124.025 32.3717L114.278 42.8027C114.037 43.0511 113.795 43.2166 113.634 43.3822C113.473 43.465 113.231 43.5478 112.989 43.5478C112.667 43.5478 112.426 43.465 112.264 43.2166C112.103 42.9683 112.023 42.6371 112.103 42.2232L114.762 29.4742C115.003 28.4808 115.648 28.2324 116.131 28.2324C116.453 28.2324 116.695 28.3152 116.856 28.5636C117.017 28.8119 117.098 29.1431 117.017 29.6398L114.923 39.3257L124.831 28.8119C125.234 28.398 125.636 28.2324 126.039 28.2324C126.361 28.2324 126.603 28.3152 126.764 28.5636C126.925 28.8119 127.006 29.1431 126.925 29.557L124.267 42.306C124.106 43.0511 123.622 43.465 122.897 43.465ZM124.67 31.2127L122.334 42.306C122.253 42.5544 122.253 42.8027 122.414 42.9683C122.495 43.0511 122.656 43.1339 122.978 43.1339C123.542 43.1339 123.864 42.8027 124.025 42.2232L126.684 29.4742C126.764 29.1431 126.764 28.8947 126.603 28.7291C126.522 28.6463 126.361 28.5636 126.12 28.5636C125.797 28.5636 125.475 28.7291 125.153 29.0603L114.439 40.4847L116.775 29.557C116.856 29.2258 116.856 28.8947 116.695 28.8119C116.614 28.7291 116.453 28.6464 116.212 28.6464C115.648 28.6464 115.326 28.9775 115.164 29.6398L112.506 42.3888C112.426 42.7199 112.426 42.9683 112.587 43.0511C112.667 43.1339 112.828 43.2166 113.07 43.2166C113.312 43.2166 113.473 43.2166 113.553 43.1339C113.714 43.0511 113.876 42.8855 114.117 42.6371L124.67 31.2127Z" fill="white"/>
<path d="M136.511 42.3062L137.639 36.7595H134.417C133.692 36.7595 133.128 36.8423 132.806 37.0907C132.403 37.339 132.081 37.753 131.839 38.2497L130.792 40.3193C130.308 41.23 129.745 41.8923 129.1 42.4718C128.375 42.9685 127.65 43.2996 126.925 43.2996C126.12 43.2996 125.798 42.9685 125.959 42.389C126.12 41.8095 126.522 41.4783 127.328 41.4783C127.57 41.4783 127.892 41.3127 128.214 41.0644C128.536 40.816 128.697 40.5677 128.859 40.2365L129.986 37.9185C130.308 37.2562 130.792 36.6767 131.356 36.18C129.986 35.5177 129.422 34.276 129.825 32.6202C130.067 31.2957 130.792 30.3022 131.92 29.5572C133.047 28.8949 134.497 28.481 136.269 28.481H140.458C141.103 28.481 141.264 28.8949 141.103 29.64L138.525 42.3062C138.364 42.9685 137.961 43.3824 137.397 43.2996C136.672 43.3824 136.431 43.0512 136.511 42.3062ZM139.008 30.4678H135.786C134.497 30.4678 133.611 30.6334 132.967 30.9645C132.322 31.2957 131.92 31.8752 131.758 32.703C131.436 34.1104 132.483 34.8555 134.9 34.8555H138.122L139.008 30.4678Z" fill="black"/>
<path d="M136.511 42.3062L137.639 36.7595H134.417C133.692 36.7595 133.128 36.8423 132.806 37.0907C132.403 37.339 132.081 37.753 131.839 38.2497L130.792 40.3193C130.308 41.23 129.745 41.8923 129.1 42.4718C128.375 42.9685 127.65 43.2996 126.925 43.2996C126.12 43.2996 125.798 42.9685 125.959 42.389C126.12 41.8095 126.522 41.4783 127.328 41.4783C127.57 41.4783 127.892 41.3127 128.214 41.0644C128.536 40.816 128.697 40.5677 128.859 40.2365L129.986 37.9185C130.308 37.2562 130.792 36.6767 131.356 36.18C129.986 35.5177 129.422 34.276 129.825 32.6202C130.067 31.2957 130.792 30.3022 131.92 29.5572C133.047 28.8949 134.497 28.481 136.269 28.481H140.458C141.103 28.481 141.264 28.8949 141.103 29.64L138.525 42.3062C138.364 42.9685 137.961 43.3824 137.397 43.2996C136.672 43.3824 136.431 43.0512 136.511 42.3062ZM139.008 30.4678H135.786C134.497 30.4678 133.611 30.6334 132.967 30.9645C132.322 31.2957 131.92 31.8752 131.758 32.703C131.436 34.1104 132.483 34.8555 134.9 34.8555H138.122L139.008 30.4678Z" fill="black"/>
<path d="M137.317 43.548C136.914 43.548 136.672 43.4652 136.511 43.2169C136.35 42.9685 136.27 42.7202 136.35 42.3062L137.478 37.0079H134.497C133.853 37.0079 133.289 37.0907 132.967 37.3391C132.645 37.5874 132.322 37.9186 132.081 38.4153L131.034 40.4849C130.55 41.3956 129.986 42.1407 129.261 42.6374C128.536 43.2169 127.811 43.4652 127.006 43.4652C126.523 43.4652 126.2 43.3824 125.959 43.1341C125.798 42.9685 125.798 42.6374 125.798 42.3062C125.878 41.8095 126.281 41.23 127.328 41.23C127.57 41.23 127.811 41.1472 128.053 40.8989C128.295 40.6505 128.536 40.4022 128.698 40.1538L129.825 37.8358C130.147 37.1735 130.55 36.6768 131.034 36.1801C129.745 35.435 129.261 34.1932 129.584 32.5375C129.906 31.2129 130.631 30.1367 131.759 29.3916C132.886 28.7294 134.336 28.3154 136.108 28.3154H136.189H140.378C140.7 28.3154 140.942 28.3982 141.103 28.6466C141.264 28.8949 141.344 29.2261 141.264 29.7228L138.606 42.3062C138.525 43.1341 138.042 43.548 137.317 43.548ZM136.672 42.389C136.592 42.7201 136.592 42.8857 136.753 43.0513C136.833 43.2169 137.075 43.2169 137.317 43.2169C137.881 43.2169 138.203 42.9685 138.283 42.3062L140.942 29.7228C141.022 29.3916 141.022 29.0605 140.861 28.9777C140.78 28.8949 140.619 28.8121 140.378 28.8121H136.189C134.417 28.8121 133.047 29.1433 131.92 29.8056C130.872 30.4679 130.147 31.4613 129.906 32.7031C129.584 34.3588 130.067 35.435 131.356 36.0973L131.597 36.1801L131.356 36.3456C130.792 36.7596 130.389 37.3391 129.986 38.0014L128.859 40.3194C128.698 40.6505 128.456 40.8989 128.134 41.1472C127.811 41.3956 127.489 41.5611 127.167 41.5611C126.442 41.5611 126.039 41.8095 125.959 42.3062C125.878 42.5546 125.959 42.7201 126.039 42.8029C126.12 42.9685 126.442 43.0513 126.764 43.0513C127.409 43.0513 128.134 42.8029 128.778 42.3062C129.422 41.8095 129.986 41.0644 130.47 40.2366L131.517 38.1669C131.839 37.5874 132.161 37.1735 132.564 36.9251C132.967 36.6768 133.531 36.594 134.256 36.594C134.256 36.594 134.256 36.594 134.336 36.594H137.8L136.672 42.389ZM138.203 35.1039H134.9C133.289 35.1039 132.322 34.7727 131.839 34.1932C131.517 33.7793 131.436 33.3654 131.597 32.7859C131.759 31.958 132.242 31.2957 132.886 30.9646C133.531 30.6334 134.497 30.3851 135.786 30.3851H139.169L138.203 35.1039ZM135.706 30.6334C134.578 30.6334 133.611 30.799 133.047 31.1301C132.403 31.4613 132.081 31.958 131.92 32.7031C131.839 33.1998 131.92 33.5309 132.081 33.8621C132.484 34.3588 133.45 34.6071 134.9 34.6899H137.961L138.847 30.6334H135.867C135.786 30.6334 135.786 30.6334 135.706 30.6334Z" fill="white"/>
<path d="M150.608 37.5873C150.527 37.4217 150.446 37.2561 150.527 37.0078C150.608 36.7594 150.688 36.5938 150.849 36.4283C151.01 36.2627 151.252 36.2627 151.494 36.2627H160.032C160.274 36.2627 160.516 36.3455 160.596 36.4283C160.677 36.5938 160.757 36.7594 160.677 37.0078C160.596 37.2561 160.516 37.4217 160.355 37.5873C160.193 37.7528 159.952 37.7528 159.71 37.7528H151.171C150.93 37.8356 150.769 37.7528 150.608 37.5873Z" fill="black"/>
<path d="M150.608 37.5873C150.527 37.4217 150.446 37.2561 150.527 37.0078C150.608 36.7594 150.688 36.5938 150.849 36.4283C151.01 36.2627 151.252 36.2627 151.494 36.2627H160.032C160.274 36.2627 160.516 36.3455 160.596 36.4283C160.677 36.5938 160.757 36.7594 160.677 37.0078C160.596 37.2561 160.516 37.4217 160.355 37.5873C160.193 37.7528 159.952 37.7528 159.71 37.7528H151.171C150.93 37.8356 150.769 37.7528 150.608 37.5873Z" fill="black"/>
<path d="M159.71 38.0012C159.63 38.0012 159.63 38.0012 159.71 38.0012H151.171C150.849 38.0012 150.688 37.9185 150.527 37.7529C150.366 37.5873 150.366 37.339 150.366 37.0078C150.447 36.6767 150.527 36.5111 150.769 36.3455C151.01 36.18 151.252 36.0972 151.494 36.0972H160.032C160.355 36.0972 160.596 36.18 160.757 36.3455C160.918 36.5111 160.918 36.7595 160.838 37.0906C160.757 37.4217 160.677 37.5873 160.435 37.7529C160.193 37.9185 159.952 38.0012 159.71 38.0012ZM151.494 36.4283C151.252 36.4283 151.091 36.5111 151.01 36.5939C150.849 36.6767 150.769 36.8422 150.769 37.0906C150.769 37.2562 150.769 37.4217 150.849 37.5045C150.93 37.5873 151.091 37.6701 151.252 37.6701H159.791C160.032 37.6701 160.193 37.5873 160.355 37.5045C160.516 37.4217 160.596 37.2562 160.596 37.0078C160.677 36.8422 160.596 36.6767 160.516 36.5939C160.435 36.5111 160.274 36.4283 160.113 36.4283H151.494Z" fill="white"/>
<path d="M67.8798 49.4258L62.8855 73.4336H158.341L163.416 49.4258H67.8798Z" fill="#25649F"/>
<path d="M76.1766 69.5429C74.6461 69.5429 73.5184 69.3774 72.7129 69.129C71.9073 68.8807 71.424 68.3839 71.1823 67.8044C70.9407 67.2249 70.9407 66.3143 71.1823 65.2381L72.4712 59.1947C72.7129 58.1185 73.0351 57.2907 73.5184 56.7112C74.0017 56.1317 74.6461 55.6349 75.5322 55.3866C76.4183 55.1382 77.4655 54.9727 78.8349 54.9727H82.4598C83.3459 54.9727 83.9903 55.221 84.3125 55.6349C84.6347 56.0489 84.7153 56.7939 84.5542 57.7046C84.3931 58.5324 83.9903 58.9464 83.3459 58.9464C83.0237 58.9464 82.8626 58.8636 82.7014 58.6152C82.5403 58.3669 82.5403 58.1185 82.6209 57.7046C82.7014 57.2907 82.7014 57.0423 82.6209 56.9595C82.5403 56.7939 82.2987 56.7939 81.9765 56.7939H78.5127C77.4655 56.7939 76.66 56.8767 76.1766 56.9595C75.6933 57.0423 75.2906 57.2907 75.0489 57.6218C74.8072 57.9529 74.5656 58.4497 74.4045 59.1947L73.1156 65.1553C72.9545 65.9004 72.9545 66.3971 73.0351 66.7282C73.1962 67.0594 73.5184 67.3077 74.0017 67.3905C74.5656 67.4733 75.3711 67.5561 76.5794 67.5561H79.6404C79.9626 67.5561 80.2043 67.4733 80.3654 67.3905C80.5265 67.2249 80.6071 66.9766 80.6876 66.6454C80.7682 66.3143 80.9293 65.9832 81.0904 65.7348C81.332 65.4864 81.5737 65.4037 81.8959 65.4037C82.5403 65.4037 82.782 65.8176 82.6209 66.7282C82.4598 67.6389 82.057 68.3839 81.4932 68.7979C80.9293 69.2118 80.2849 69.4602 79.3182 69.4602L76.1766 69.5429Z" fill="white"/>
<path d="M79.4793 69.7086H76.1766C74.6461 69.7086 73.5184 69.543 72.7128 69.2946C71.9073 69.0463 71.3434 68.5496 71.0212 67.8873C70.7795 67.225 70.7795 66.3143 70.9406 65.2381L72.2295 59.1948C72.4712 58.1186 72.7934 57.2079 73.3572 56.6284C73.8406 55.9661 74.5655 55.5522 75.4516 55.2211C76.3377 54.9727 77.4655 54.8071 78.8349 54.8071H82.4598C83.4264 54.8071 84.0708 55.0555 84.4736 55.5522C84.8763 56.0489 84.9569 56.794 84.7152 57.7874C84.4736 58.9464 83.8292 59.1948 83.3458 59.1948C82.9431 59.1948 82.7014 59.0292 82.5403 58.7808C82.3792 58.5325 82.3792 58.2013 82.4598 57.7874C82.5403 57.3735 82.4598 57.2079 82.4598 57.2079C82.4598 57.2079 82.2987 57.1251 81.8959 57.0423H78.4321C77.3849 57.0423 76.5794 57.1251 76.0961 57.2079C75.6127 57.2907 75.2905 57.5391 75.0489 57.7874C74.8072 58.1186 74.6461 58.6153 74.485 59.2776L73.1961 65.2381C73.035 65.9004 73.035 66.3971 73.1156 66.7283C73.1961 66.9766 73.5184 67.225 74.0017 67.3078C74.485 67.3906 75.3711 67.4734 76.4988 67.4734H79.5598C79.8821 67.4734 80.1237 67.3906 80.2043 67.3078C80.2848 67.225 80.3654 67.0594 80.5265 66.6455C80.607 66.2316 80.7681 65.9004 81.0098 65.6521C81.2515 65.4037 81.5737 65.3209 81.8959 65.3209C82.2181 65.3209 82.4598 65.4037 82.6209 65.6521C82.782 65.9004 82.8625 66.3143 82.782 66.8111C82.5403 67.8045 82.2181 68.4668 81.6542 68.9635C81.0904 69.4602 80.3654 69.7086 79.4793 69.7086ZM78.6738 55.0555C77.3849 55.0555 76.3377 55.2211 75.5322 55.4694C74.7267 55.7178 74.0822 56.1317 73.5989 56.7112C73.1156 57.2907 72.7934 58.1186 72.5517 59.1948L71.2629 65.2381C71.0212 66.3143 71.0212 67.0594 71.2629 67.6389C71.5045 68.2184 71.9878 68.6323 72.7128 68.8807C73.5184 69.1291 74.6461 69.2946 76.0961 69.2946H79.3182C80.2043 69.2946 80.8487 69.0463 81.332 68.6324C81.8153 68.2184 82.1375 67.5561 82.3792 66.6455C82.4598 66.2316 82.4598 65.9004 82.2987 65.7349C82.2181 65.6521 82.057 65.5693 81.8153 65.5693C81.5737 65.5693 81.332 65.6521 81.1709 65.8176C81.0098 65.9832 80.8487 66.2316 80.7681 66.6455C80.6876 67.0594 80.5265 67.3078 80.3654 67.4734C80.2043 67.6389 79.8821 67.7217 79.4793 67.7217H76.4183C75.21 67.7217 74.3239 67.6389 73.8406 67.5561C73.2767 67.3906 72.8739 67.1422 72.7128 66.7283C72.5517 66.3971 72.5517 65.8176 72.7128 65.0726L74.0017 59.112C74.1628 58.3669 74.4044 57.8702 74.6461 57.4563C74.8878 57.1251 75.3711 56.8768 75.935 56.7112C76.4988 56.6284 77.2238 56.5456 78.3516 56.5456H81.8153C82.2181 56.5456 82.4598 56.6284 82.6209 56.794C82.782 56.9596 82.782 57.2907 82.7014 57.7046C82.6209 58.0358 82.6209 58.2841 82.782 58.4497C82.8625 58.6153 83.0236 58.6981 83.2653 58.6981C83.8292 58.6981 84.1514 58.3669 84.3125 57.5391C84.4736 56.6284 84.4736 55.9661 84.1514 55.5522C83.8292 55.1383 83.2653 54.9727 82.4598 54.9727H78.8349C78.7543 55.0555 78.7543 55.0555 78.6738 55.0555Z" fill="white"/>
<path d="M96.6374 54.9727C97.3623 54.9727 97.6846 55.3038 97.5234 55.8833C97.3623 56.5456 96.9596 56.7939 96.2346 56.7939H93.0125L90.5153 68.6323C90.4348 68.9634 90.2737 69.2118 90.032 69.3774C89.7904 69.5429 89.4681 69.7085 89.1459 69.6257C88.8237 69.6257 88.5821 69.5429 88.4209 69.3774C88.2598 69.2118 88.2598 68.9634 88.3404 68.6323L90.8375 56.7939H87.5349C87.2126 56.7939 86.8904 56.7112 86.7293 56.5456C86.5682 56.38 86.4877 56.1317 86.5682 55.8833C86.6488 55.6349 86.8099 55.3866 86.971 55.221C87.2126 55.0554 87.5349 54.9727 87.8571 54.9727H96.6374Z" fill="white"/>
<path d="M89.1459 69.8737C88.7431 69.8737 88.4209 69.7909 88.2598 69.5426C88.0987 69.2942 88.0181 69.0458 88.0987 68.6319L90.5153 57.0419H87.4542C87.0515 57.0419 86.7293 56.9591 86.5682 56.7108C86.3265 56.4624 86.3265 56.214 86.4071 55.8829C86.4876 55.5518 86.6487 55.3034 86.8904 55.055C87.132 54.8895 87.4542 54.7239 87.857 54.8067H96.5568C97.0401 54.8067 97.3623 54.8895 97.5234 55.1378C97.6845 55.3034 97.6845 55.6345 97.6845 55.9657C97.604 56.4624 97.2817 57.0419 96.2345 57.0419H93.093L90.6764 68.7147C90.5958 69.0458 90.4347 69.377 90.1125 69.5426C89.7903 69.7909 89.4681 69.8737 89.1459 69.8737ZM87.857 55.1378C87.5348 55.1378 87.2931 55.2206 87.132 55.3862C86.9709 55.5518 86.8098 55.7173 86.7293 55.9657C86.6487 56.214 86.7293 56.3796 86.8098 56.4624C86.9709 56.628 87.132 56.628 87.4542 56.7108H90.9986L88.5014 68.7147C88.4209 68.9631 88.5014 69.2114 88.582 69.2942C88.6626 69.4598 88.9042 69.5426 89.1459 69.5426C89.4681 69.5426 89.7097 69.4598 89.9514 69.2942C90.1931 69.1286 90.2736 68.8803 90.3542 68.6319L92.8513 56.628H96.2345C96.879 56.628 97.2817 56.3796 97.3623 55.8001C97.4428 55.5518 97.3623 55.3862 97.2817 55.3034C97.2012 55.1378 96.9595 55.055 96.5568 55.055L87.857 55.1378Z" fill="white"/>
<path d="M99.0539 68.7151C98.8928 69.3774 98.49 69.7086 97.8456 69.7086C97.2012 69.7086 96.9595 69.3774 97.1206 68.6324L99.7789 55.9661C99.8594 55.635 100.021 55.3038 100.182 55.1383C100.343 54.9727 100.665 54.8071 100.907 54.8071H105.256C107.19 54.8071 108.559 55.1383 109.365 55.635C110.09 56.2145 110.412 57.1251 110.09 58.3669C109.848 59.6087 109.204 60.6021 108.317 61.2644C107.431 61.9267 106.223 62.2578 104.773 62.2578H100.343L99.0539 68.7151ZM104.129 60.4366C105.659 60.4366 106.706 60.3538 107.19 60.0226C107.673 59.7743 107.995 59.2776 108.156 58.5325C108.237 58.0358 108.237 57.6218 108.076 57.3735C107.915 57.1251 107.593 56.9596 107.109 56.8768C106.626 56.794 105.901 56.7112 104.854 56.7112H101.47L100.665 60.3538L104.129 60.4366Z" fill="white"/>
<path d="M97.8453 69.9569C97.4425 69.9569 97.2009 69.8741 97.0398 69.6258C96.8786 69.3774 96.7981 69.1291 96.8786 68.7151L99.5369 56.0489C99.6174 55.635 99.7786 55.3038 100.02 55.1383C100.262 54.8899 100.584 54.8071 100.906 54.8071H105.256C107.27 54.8071 108.639 55.1383 109.445 55.7178C110.25 56.2973 110.573 57.2907 110.25 58.6153C110.009 59.9398 109.364 60.9333 108.398 61.5956C107.431 62.2579 106.223 62.589 104.773 62.589H100.423L99.1341 68.7979C99.0536 69.543 98.5703 69.9569 97.8453 69.9569ZM100.906 55.0555C100.665 55.0555 100.504 55.1383 100.262 55.3038C100.101 55.4694 99.9397 55.7178 99.8591 56.0489L97.2009 68.7151C97.1203 69.0463 97.1203 69.2118 97.2814 69.3774C97.362 69.4602 97.5231 69.543 97.7647 69.543C98.3286 69.543 98.6508 69.2946 98.7314 68.6324L100.101 62.0923H104.692C106.062 62.0923 107.27 61.7611 108.156 61.1816C109.042 60.5193 109.606 59.6087 109.848 58.3669C110.089 57.2079 109.848 56.3801 109.203 55.8006C108.478 55.2211 107.109 54.9727 105.256 54.9727L100.906 55.0555ZM104.37 60.6021C104.29 60.6021 104.209 60.6021 104.128 60.6021H100.584L101.47 56.5456H105.015C106.062 56.5456 106.787 56.6284 107.27 56.7112C107.834 56.794 108.156 57.0423 108.317 57.2907C108.478 57.6218 108.478 58.0358 108.398 58.5325C108.237 59.3603 107.834 59.8571 107.351 60.1054C106.787 60.5193 105.82 60.6021 104.37 60.6021ZM104.128 60.271C105.659 60.271 106.626 60.1882 107.109 59.9398C107.592 59.7743 107.834 59.2776 107.995 58.6153C108.076 58.1186 108.076 57.7874 107.995 57.6218C107.914 57.3735 107.592 57.2907 107.189 57.2079C106.706 57.1251 105.981 57.0423 104.934 57.0423H101.712L100.987 60.3538L104.128 60.271Z" fill="white"/>
<path d="M119.514 55.0552L122.172 68.632C122.172 68.7976 122.172 68.9632 122.092 69.2115C122.011 69.4599 121.931 69.6255 121.689 69.791C121.447 69.9566 121.206 70.0394 120.964 70.0394C120.481 70.0394 120.239 69.791 120.159 69.2943L119.434 65.4034H113.231L110.895 69.2943C110.573 69.791 110.17 70.0394 109.767 70.0394C109.526 70.0394 109.284 69.9566 109.123 69.791C108.962 69.6255 108.881 69.4599 108.962 69.2115C109.042 68.9632 109.042 68.7976 109.123 68.632L117.42 55.0552H119.514ZM117.823 57.8699L114.359 63.4993H118.95L117.823 57.8699Z" fill="white"/>
<path d="M120.964 70.205C120.4 70.205 120.078 69.8739 119.917 69.3772L119.192 65.6518H113.231L110.895 69.4599C110.573 69.9567 110.089 70.2878 109.606 70.2878C109.284 70.2878 109.042 70.205 108.881 69.9567C108.72 69.7083 108.64 69.4599 108.64 69.2116C108.72 68.9632 108.72 68.7977 108.881 68.6321L117.339 54.8896H119.675V55.0552L122.334 68.6321C122.334 68.7977 122.334 69.046 122.253 69.2944C122.172 69.5427 122.011 69.7911 121.77 69.9567C121.528 70.1222 121.286 70.205 120.964 70.205ZM113.151 65.2379H119.595L120.32 69.2944C120.4 69.7083 120.561 69.8739 120.964 69.8739C121.206 69.8739 121.367 69.7911 121.609 69.6255C121.77 69.4599 121.931 69.3772 121.931 69.1288C122.011 68.9632 122.011 68.7149 122.011 68.6321L119.434 55.2208H117.581L109.284 68.7149C109.203 68.7977 109.123 69.046 109.123 69.2116C109.123 69.3772 109.123 69.4599 109.284 69.6255C109.445 69.7911 109.606 69.7911 109.767 69.7911C110.17 69.7911 110.492 69.5427 110.734 69.1288L113.151 65.2379ZM119.192 63.6649H114.037L117.903 57.456L119.192 63.6649ZM114.681 63.3338H118.789L117.742 58.3667L114.681 63.3338Z" fill="white"/>
<path d="M126.281 68.7979C126.12 69.5429 125.717 69.8741 125.073 69.8741C124.428 69.8741 124.187 69.5429 124.348 68.7979L127.006 56.0489C127.167 55.3038 127.57 54.9727 128.134 54.9727C128.778 54.9727 129.1 55.3038 128.939 56.0489L127.892 60.9332H135.867L136.914 56.1317C137.075 55.3866 137.478 55.0554 138.122 55.0554C138.767 55.0554 139.008 55.3866 138.847 56.1317L136.189 68.7979C136.028 69.5429 135.625 69.8741 134.981 69.8741C134.336 69.8741 134.095 69.5429 134.256 68.7979L135.545 62.8373H127.57L126.281 68.7979Z" fill="white"/>
<path d="M135.061 70.0395C134.658 70.0395 134.417 69.9567 134.255 69.7083C134.094 69.46 134.014 69.1288 134.094 68.7149L135.303 62.9199H127.65L126.442 68.7977C126.281 69.6256 125.797 70.0395 125.072 70.0395C124.75 70.0395 124.428 69.9567 124.267 69.7083C124.106 69.46 124.025 69.1288 124.106 68.7149L126.764 55.9659C127.006 54.9725 127.569 54.7241 128.053 54.7241C128.456 54.7241 128.697 54.8069 128.858 55.0553C129.019 55.3036 129.1 55.6348 129.019 56.0487L128.053 60.6847H135.705L136.672 55.9659C136.914 54.9725 137.558 54.7241 138.041 54.7241C138.364 54.7241 138.686 54.8069 138.847 55.0553C139.008 55.3036 139.089 55.6348 139.008 56.0487L136.35 68.7977C136.189 69.6256 135.705 70.0395 135.061 70.0395ZM127.408 62.5888H135.705L134.417 68.7977C134.336 69.1288 134.336 69.3772 134.497 69.46C134.578 69.5428 134.739 69.6256 134.98 69.6256C135.544 69.6256 135.866 69.2944 136.028 68.7149L138.686 55.9659C138.766 55.6348 138.766 55.3864 138.605 55.2208C138.525 55.138 138.364 55.0553 138.122 55.0553C137.558 55.0553 137.236 55.3864 137.075 56.0487L136.028 61.0158H127.731L128.778 55.9659C128.858 55.6348 128.858 55.3864 128.697 55.3036C128.617 55.138 128.456 55.138 128.133 55.138C127.569 55.138 127.328 55.4692 127.167 56.1315L124.589 68.7977C124.508 69.1288 124.508 69.3772 124.67 69.46C124.75 69.5428 124.911 69.6256 125.153 69.6256C125.717 69.6256 126.039 69.2944 126.2 68.7149L127.408 62.5888Z" fill="white"/>
<path d="M148.916 55.1382L151.575 68.715C151.575 68.8806 151.575 69.0462 151.494 69.2945C151.414 69.5429 151.333 69.7085 151.091 69.8741C150.85 70.0396 150.608 70.1224 150.366 70.1224C149.883 70.1224 149.641 69.874 149.561 69.3773L148.755 65.4864H142.553L140.217 69.3773C139.894 69.874 139.492 70.1224 139.089 70.1224C138.847 70.1224 138.606 70.0396 138.445 69.8741C138.283 69.7085 138.203 69.5429 138.283 69.2945C138.364 69.0462 138.364 68.8806 138.445 68.715L146.742 55.1382H148.916ZM147.225 57.9529L143.761 63.5823H148.353L147.225 57.9529Z" fill="white"/>
<path d="M150.366 70.288C149.802 70.288 149.48 69.9569 149.319 69.3774L148.594 65.652H142.633L140.297 69.4602C139.975 69.9569 139.491 70.288 139.008 70.288C138.686 70.288 138.444 70.2052 138.283 69.9569C138.122 69.7085 138.042 69.4602 138.042 69.2118C138.122 68.9634 138.122 68.7979 138.283 68.6323L146.661 54.9727H148.997V55.1382L151.655 68.7151C151.655 68.8807 151.655 69.129 151.574 69.3774C151.494 69.6257 151.333 69.8741 151.091 70.0397C150.93 70.2052 150.608 70.288 150.366 70.288ZM142.472 65.3209H148.916L149.641 69.3774C149.722 69.7913 149.883 69.9569 150.286 69.9569C150.527 69.9569 150.688 69.8741 150.93 69.7085C151.091 69.5429 151.252 69.3774 151.252 69.2946C151.333 69.0462 151.333 68.8807 151.333 68.7979L148.755 55.3038H146.902L138.605 68.7979C138.525 68.9634 138.444 69.129 138.444 69.2946C138.444 69.4602 138.444 69.5429 138.605 69.7085C138.766 69.8741 138.928 69.8741 139.089 69.8741C139.491 69.8741 139.814 69.6257 140.055 69.2118L142.472 65.3209ZM148.594 63.7479H143.439L147.305 57.539L148.594 63.7479ZM144.083 63.4168H148.191L147.144 58.4497L144.083 63.4168Z" fill="white"/>
<path d="M12.4591 75.4204L7.46484 99.1799H200.712L205.626 75.4204H12.4591Z" fill="#AE3857"/>
<path d="M18.0979 80.9671C18.1784 80.636 18.3395 80.3048 18.5006 80.1392C18.7423 79.9737 18.9839 79.8081 19.2256 79.8081H23.4949C24.8643 79.8081 25.9115 79.9737 26.717 80.222C27.442 80.4704 28.0059 80.8843 28.2476 81.4638C28.4892 82.0433 28.5698 82.7056 28.3281 83.6162C28.0864 84.6925 27.6837 85.4375 26.9587 86.017C28.0059 86.6793 28.3281 87.9211 27.9253 89.7424L27.8448 90.1563C27.6031 91.2325 27.2809 92.0604 26.717 92.7227C26.2337 93.3022 25.5087 93.7989 24.6227 94.0473C23.7366 94.2956 22.5283 94.4612 21.0783 94.4612H16.084C15.7618 94.4612 15.6007 94.3784 15.4396 94.13C15.359 93.9645 15.2785 93.6333 15.3591 93.3022L18.0979 80.9671ZM18.6617 87.4244L17.6145 92.5571H21.5616C22.7699 92.5571 23.5755 92.4743 24.1393 92.3915C24.7032 92.3088 25.106 92.0604 25.4282 91.7292C25.6699 91.3981 25.9115 90.9014 26.0726 90.1563L26.1532 89.8252C26.3143 89.0801 26.3143 88.5834 26.2337 88.2522C26.1532 87.9211 25.831 87.6727 25.3476 87.59C24.8643 87.5072 24.1393 87.4244 23.0922 87.4244H18.6617ZM22.3672 85.6031C23.4144 85.6031 24.1393 85.5203 24.7032 85.4375C25.2671 85.3547 25.6699 85.1892 25.9115 84.9408C26.1532 84.6925 26.3948 84.2785 26.4754 83.7818C26.5559 83.2851 26.5559 82.8712 26.3948 82.6228C26.2337 82.3745 25.9115 82.2089 25.4282 82.1261C24.9449 82.0433 24.1393 81.9605 23.1727 81.9605H19.87L19.0645 85.6031H22.3672Z" fill="white"/>
<path d="M21.4008 94.7093C21.3202 94.7093 21.2397 94.7093 21.1591 94.7093H16.1648C15.8426 94.7093 15.5204 94.5438 15.4399 94.2954C15.2788 94.047 15.2788 93.7159 15.3593 93.302L17.937 80.9669C18.0176 80.553 18.1787 80.2218 18.4203 80.0562C18.662 79.8079 18.9036 79.7251 19.2259 79.7251H23.4952C24.8646 79.7251 25.9923 79.8907 26.7173 80.139C27.5228 80.3874 28.0867 80.8841 28.3284 81.4636C28.6506 82.0431 28.6506 82.7882 28.4895 83.7816C28.2478 84.775 27.845 85.5201 27.2812 86.0996C28.2478 86.8447 28.57 88.0865 28.1673 89.9077L28.0867 90.3217C27.845 91.3979 27.4423 92.3085 26.959 92.9708C26.3951 93.6331 25.6701 94.047 24.784 94.3782C23.9785 94.5438 22.7702 94.6265 21.4008 94.7093ZM19.2259 80.0562C18.9842 80.0562 18.7425 80.139 18.5814 80.3046C18.4203 80.4702 18.2592 80.7185 18.1787 81.0497L15.601 93.3847C15.5204 93.7159 15.5204 93.9642 15.6815 94.047C15.7621 94.2126 15.9232 94.2954 16.1648 94.2954H21.1591C22.6091 94.2954 23.8174 94.1298 24.7035 93.8815C25.5896 93.6331 26.234 93.2192 26.7173 92.6397C27.2006 92.0602 27.6034 91.2323 27.7645 90.1561L27.845 89.7422C28.2478 88.0037 27.9256 86.8447 26.8784 86.1824L26.7173 86.0168L26.8784 85.8512C27.5228 85.2717 27.9256 84.5267 28.1673 83.5332C28.3284 82.7054 28.3284 81.9603 28.0867 81.4636C27.845 80.9669 27.3617 80.553 26.6368 80.3046C25.9118 80.0562 24.8646 79.8907 23.4952 79.8907L19.2259 80.0562ZM21.8841 92.8052C21.8036 92.8052 21.723 92.8052 21.6425 92.8052H17.4537L18.5814 87.3414H23.0924C24.1396 87.3414 24.8646 87.4242 25.3479 87.507C25.8312 87.6725 26.234 87.9209 26.3145 88.252C26.4756 88.5832 26.3951 89.1627 26.234 89.9077L26.1534 90.2389C25.9923 90.984 25.7507 91.4807 25.509 91.8946C25.1868 92.2257 24.784 92.4741 24.1396 92.6397C23.7368 92.7225 22.9313 92.8052 21.8841 92.8052ZM17.8565 92.3913H21.6425C22.7702 92.3913 23.6563 92.3085 24.2202 92.2258C24.784 92.143 25.1062 91.8946 25.3479 91.6462C25.5896 91.3151 25.8312 90.8184 25.9118 90.1561L25.9923 89.825C26.1534 89.1627 26.1534 88.666 26.0729 88.4176C25.9923 88.1692 25.7507 88.0037 25.3479 87.8381C24.8646 87.7553 24.1396 87.6725 23.173 87.6725H18.9036L17.8565 92.3913ZM22.6091 85.7685C22.5285 85.7685 22.448 85.7685 22.3674 85.7685H18.8231L19.7092 81.712H23.173C24.2202 81.712 24.9451 81.7947 25.509 81.8775C26.0729 81.9603 26.3951 82.2087 26.5562 82.457C26.7173 82.7882 26.7979 83.2021 26.6368 83.6988C26.5562 84.2783 26.3145 84.6922 26.0729 84.9406C25.7507 85.189 25.3479 85.4373 24.784 85.5201C24.2202 85.6857 23.5757 85.7685 22.6091 85.7685ZM19.3064 85.3545H22.3674C23.4146 85.3545 24.1396 85.2717 24.7035 85.189C25.1868 85.1062 25.5896 84.9406 25.8312 84.6922C26.0729 84.4439 26.234 84.1127 26.3145 83.616C26.3951 83.1193 26.3951 82.7882 26.234 82.6226C26.0729 82.457 25.8312 82.2915 25.3479 82.2087C24.8646 82.1259 24.1396 82.0431 23.0924 82.0431H19.9508L19.3064 85.3545Z" fill="white"/>
<path d="M42.5053 89.2457C42.2636 90.3219 41.8608 91.3153 41.1359 92.1432C40.4914 92.971 39.6859 93.6333 38.6387 94.0473C37.6721 94.4612 36.5443 94.7095 35.336 94.7095C34.1277 94.7095 33.1611 94.4612 32.3556 94.0473C31.55 93.6333 30.9862 92.971 30.6639 92.1432C30.3417 91.3153 30.3417 90.3219 30.5834 89.2457L31.3889 85.272C31.6306 84.1957 32.0333 83.2023 32.7583 82.3745C33.4027 81.5466 34.2083 80.8843 35.2555 80.4704C36.2221 80.0565 37.3499 79.8081 38.5581 79.8081C39.7664 79.8081 40.7331 80.0565 41.5386 80.4704C42.3442 80.8843 42.908 81.5466 43.2302 82.3745C43.5524 83.2023 43.5524 84.1957 43.3108 85.272L42.5053 89.2457ZM38.2359 81.6294C36.9471 81.6294 35.8999 81.9605 35.0944 82.54C34.2888 83.2023 33.725 84.113 33.4833 85.272L32.6778 89.0801C32.4361 90.3219 32.5972 91.2325 33.0805 91.812C33.6444 92.4743 34.5305 92.7227 35.8193 92.8055C37.1082 92.8055 38.1554 92.4743 38.9609 91.8948C39.7664 91.2325 40.3303 90.3219 40.572 89.1629L41.3775 85.3547C41.6192 84.1957 41.4581 83.2851 40.9747 82.6228C40.4914 81.9605 39.5248 81.6294 38.2359 81.6294Z" fill="white"/>
<path d="M35.4976 94.9579H35.4171C34.2088 94.9579 33.1616 94.7096 32.356 94.2129C31.5505 93.7162 30.9061 93.0539 30.5839 92.226C30.2617 91.3982 30.2617 90.3219 30.5033 89.2457L31.3088 85.272C31.5505 84.113 32.0338 83.1196 32.6782 82.2917C33.3227 81.4639 34.2088 80.8016 35.1754 80.3049C36.142 79.8082 37.2698 79.6426 38.4781 79.6426C39.6864 79.6426 40.7336 79.8909 41.5391 80.3877C42.3446 80.8844 42.9891 81.5467 43.3113 82.3745C43.6335 83.2024 43.6335 84.2786 43.3918 85.3548L42.5863 89.3285C42.3446 90.4875 41.8613 91.4809 41.2169 92.3088C40.5725 93.1367 39.6864 93.7989 38.7197 94.2957C37.8337 94.7096 36.7059 94.8752 35.4976 94.9579ZM38.5586 79.8909C37.4309 79.8909 36.3837 80.1393 35.4171 80.5532C34.4504 80.9671 33.6449 81.6294 33.0005 82.4573C32.356 83.2852 31.9533 84.1958 31.7116 85.272L30.9061 89.2457C30.6644 90.3219 30.745 91.2326 30.9866 92.0604C31.3088 92.8883 31.7922 93.4678 32.5977 93.8817C33.4032 94.2957 34.3699 94.544 35.4976 94.544C36.6254 94.544 37.7531 94.2957 38.7197 93.8817C39.6864 93.4678 40.4919 92.8055 41.1363 91.9777C41.7808 91.1498 42.1835 90.2392 42.4252 89.1629L43.2307 85.1892C43.4724 84.113 43.3918 83.2024 43.1502 82.3745C42.8279 81.5467 42.3446 80.9671 41.5391 80.5532C40.7336 80.1393 39.7669 79.8909 38.5586 79.8909ZM35.9004 93.0539C34.4504 93.0539 33.4838 92.7227 32.9199 92.0604C32.356 91.3982 32.1949 90.4047 32.4366 89.1629L33.2421 85.3548C33.4838 84.113 34.0476 83.1196 34.9337 82.5401C35.7393 81.8778 36.867 81.5467 38.1559 81.5467H38.2364C39.6058 81.5467 40.5725 81.8778 41.1363 82.5401C41.7002 83.2852 41.8613 84.2786 41.6196 85.4376L40.8141 89.2457C40.5725 90.4875 40.0086 91.4809 39.1225 92.0604C38.317 92.7227 37.1892 93.0539 35.9004 93.0539ZM38.1559 81.795C36.9476 81.795 35.9004 82.1262 35.1754 82.7057C34.3699 83.2852 33.8865 84.1958 33.6449 85.3548L32.8394 89.1629C32.5977 90.3219 32.7588 91.1498 33.2421 91.7293C33.7254 92.3088 34.6115 92.6399 35.9004 92.6399C37.1892 92.6399 38.1559 92.3088 38.9614 91.7293C39.7669 91.1498 40.2502 90.2392 40.4919 89.0802L41.2974 85.272C41.5391 84.1958 41.378 83.2852 40.8947 82.7057C40.3308 82.1262 39.4447 81.795 38.1559 81.795Z" fill="white"/>
<path d="M52.7359 86.0996C53.622 86.0996 54.3469 85.934 54.9108 85.5201C55.4747 85.1889 55.8774 84.6922 55.958 84.0299C56.1191 83.3676 55.958 82.8709 55.4747 82.457C54.9914 82.0431 54.3469 81.7947 53.5414 81.7947H49.3526C48.9499 81.7947 48.7082 81.8775 48.6277 81.9603C48.4666 82.0431 48.386 82.3742 48.3055 82.7881L48.2249 83.2021C48.0638 83.9471 47.661 84.3611 47.0166 84.3611C46.3722 84.3611 46.1305 83.9471 46.2916 83.2021C46.5333 81.9603 46.936 81.1324 47.4194 80.6357C47.9027 80.139 48.6277 79.8906 49.6749 79.8906H54.1858C55.0719 79.8906 55.8774 80.0562 56.5219 80.3873C57.1663 80.7185 57.5691 81.2152 57.8913 81.7947C58.1329 82.3742 58.2135 83.1193 58.0524 83.8643C57.8107 85.1889 57.0857 86.2651 55.958 87.0102C56.7635 87.8381 57.0052 88.9971 56.7635 90.3216C56.6024 91.1495 56.2802 91.8118 55.7163 92.4741C55.1525 93.1363 54.508 93.6331 53.7025 93.9642C52.897 94.2953 52.0914 94.4609 51.2054 94.4609H46.6944C45.7278 94.4609 45.0833 94.2126 44.7611 93.7158C44.4389 93.2191 44.4389 92.3913 44.6806 91.1495C44.8417 90.4044 45.2444 89.9905 45.8889 89.9905C46.5333 89.9905 46.7749 90.4044 46.6138 91.1495L46.5333 91.5634C46.4527 91.9773 46.4527 92.2257 46.5333 92.3913C46.6138 92.4741 46.8555 92.5568 47.1777 92.5568H51.3665C52.172 92.5568 52.897 92.3085 53.5414 91.8946C54.1858 91.3978 54.5886 90.8183 54.7497 90.1561C54.9108 89.4938 54.7497 88.9971 54.3469 88.5831C53.9442 88.1692 53.2997 87.9208 52.4942 87.9208H50.5609C49.7554 87.9208 49.4332 87.5897 49.5943 87.0102C49.7554 86.3479 50.1582 86.0996 50.9637 86.0996H52.7359Z" fill="white"/>
<path d="M51.0442 94.7923H46.4527C45.4055 94.7923 44.7611 94.5439 44.4388 93.9644C44.1166 93.4677 44.1166 92.5571 44.3583 91.3153C44.6 90.2391 45.2444 90.0735 45.7277 89.9907C46.0499 89.9907 46.2916 90.0735 46.4527 90.3219C46.6138 90.5702 46.6943 90.9014 46.6138 91.3981L46.5332 91.812C46.4527 92.3087 46.4527 92.4743 46.5332 92.4743C46.5332 92.4743 46.6138 92.5571 47.0971 92.5571H51.2859C52.0914 92.5571 52.7358 92.3087 53.3802 91.8948C54.0247 91.4809 54.3469 90.9014 54.508 90.2391C54.6691 89.6596 54.508 89.1628 54.1052 88.8317C53.7025 88.4178 53.1386 88.2522 52.3331 88.2522H50.3998C49.9165 88.2522 49.5942 88.1694 49.3526 87.9211C49.1915 87.7555 49.1915 87.4243 49.1915 87.0932C49.272 86.5965 49.6748 86.017 50.722 86.017H52.6553C53.4608 86.017 54.1858 85.8514 54.7497 85.5203C55.3135 85.1891 55.6357 84.7752 55.7163 84.1957C55.8774 83.6162 55.7163 83.1195 55.3135 82.7883C54.9108 82.3744 54.2663 82.2088 53.4608 82.2088H49.272C48.8693 82.2088 48.7082 82.2916 48.6276 82.3744C48.5471 82.4572 48.4665 82.6228 48.386 83.0367L48.3054 83.4506C48.0637 84.5268 47.4193 84.6924 46.936 84.7752C46.6138 84.7752 46.3721 84.6924 46.211 84.4441C46.0499 84.1957 45.9694 83.8646 46.0499 83.3678C46.2916 82.1261 46.6943 81.2154 47.2582 80.7187C47.8221 80.222 48.5471 79.9736 49.5942 79.9736H54.1052C55.0719 79.9736 55.8774 80.1392 56.5218 80.4703C57.1662 80.8015 57.6496 81.2982 57.9718 81.9605C58.2134 82.6228 58.294 83.3678 58.1329 84.1129C57.8912 85.4375 57.1662 86.4309 56.1191 87.2588C56.844 88.1694 57.0857 89.2456 56.7635 90.5702C56.6024 91.3981 56.1996 92.1431 55.7163 92.8054C55.1524 93.4677 54.508 93.9644 53.7025 94.3784C52.8164 94.5439 52.0108 94.7923 51.0442 94.7923ZM45.7277 90.3219C45.1638 90.3219 44.8416 90.653 44.6805 91.3153C44.4388 92.4743 44.4388 93.3021 44.7611 93.7161C45.0027 94.13 45.6471 94.3784 46.5332 94.3784H51.0442C51.9303 94.3784 52.7358 94.2128 53.4608 93.8816C54.1858 93.5505 54.8302 93.0538 55.3941 92.4743C55.8774 91.8948 56.2802 91.1497 56.4413 90.4046C56.6829 89.0801 56.4413 88.0866 55.7163 87.2588L55.5552 87.0932L55.7163 87.0104C56.844 86.2654 57.4885 85.2719 57.7301 84.0301C57.8912 83.2851 57.8107 82.6228 57.569 82.0433C57.3274 81.4638 56.9246 81.0498 56.2802 80.7187C55.6357 80.3876 54.9108 80.222 54.0247 80.222H49.5137C49.5137 80.222 49.5137 80.222 49.4331 80.222C48.5471 80.222 47.8221 80.4703 47.4193 80.8843C46.936 81.381 46.6138 82.1261 46.3721 83.2851C46.2916 83.6162 46.2916 83.8646 46.4527 84.0301C46.5332 84.1129 46.6943 84.1957 46.936 84.1957C47.4999 84.1957 47.8221 83.8646 47.9832 83.2023L48.0637 82.7883C48.1443 82.3744 48.3054 82.0433 48.4665 81.8777C48.6276 81.7121 48.9498 81.7121 49.3526 81.6293H53.5414C54.4274 81.6293 55.1524 81.8777 55.6357 82.2916C56.1191 82.7884 56.2802 83.3678 56.1996 84.1129C56.0385 84.7752 55.7163 85.2719 55.0719 85.6859C54.4274 86.0998 53.7025 86.2653 52.8164 86.2653H50.8831C50.1581 86.2653 49.7554 86.5137 49.6748 87.0932C49.5942 87.3416 49.6748 87.5071 49.7554 87.5899C49.8359 87.7555 50.1581 87.8383 50.4803 87.8383H52.4136C53.2997 87.8383 53.9441 88.0866 54.4274 88.5006C54.9108 88.9973 55.0719 89.5768 54.9108 90.2391C54.7497 90.9841 54.3469 91.5636 53.6219 92.0604C52.9775 92.5571 52.1719 92.8054 51.3664 92.8054H47.1777C46.7749 92.8054 46.4527 92.7226 46.3721 92.5571C46.211 92.3915 46.211 92.0604 46.3721 91.6464L46.4527 91.2325C46.5332 90.9014 46.5332 90.653 46.3721 90.4874C46.1305 90.4046 45.9694 90.3219 45.7277 90.3219Z" fill="white"/>
<path d="M67.0742 88.0036C66.8326 88.252 66.5104 88.3348 66.2687 88.3348C65.9465 88.3348 65.7854 88.252 65.5437 88.0036L63.1271 83.1193L60.9522 93.6331C60.7911 94.3781 60.3883 94.7921 59.7439 94.7921C59.0995 94.7921 58.8578 94.4609 59.0189 93.7158L61.6772 80.9668C61.8383 80.2218 62.241 79.8906 62.8049 79.8906C63.2077 79.8906 63.4493 80.0562 63.691 80.4701L66.6715 86.3479L72.1491 80.4701C72.5518 80.0562 72.8741 79.8906 73.1963 79.8906C73.8407 79.8906 74.0824 80.2218 73.9213 80.9668L71.263 93.7158C71.1019 94.4609 70.6991 94.7921 70.0547 94.7921C69.4103 94.7921 69.1686 94.3781 69.3297 93.6331L71.5047 83.1193L67.0742 88.0036Z" fill="white"/>
<path d="M70.135 94.9579C69.7322 94.9579 69.4905 94.8752 69.3294 94.6268C69.1683 94.3784 69.0878 94.0473 69.1683 93.5506L71.2627 83.6991L67.1545 88.1695C66.8323 88.4179 66.5906 88.5007 66.2684 88.5007C65.9462 88.5007 65.624 88.3351 65.4629 88.0867L63.2074 83.6163L61.113 93.6334C60.8713 94.7096 60.2269 94.9579 59.7436 94.9579C59.4214 94.9579 59.0992 94.8752 58.9381 94.6268C58.777 94.3784 58.6964 94.0473 58.777 93.6334L61.4352 80.8844C61.6769 79.8909 62.2407 79.6426 62.7241 79.6426C63.2074 79.6426 63.5296 79.8909 63.7713 80.3049L66.6712 85.9343L71.9877 80.3049C72.3904 79.8909 72.7932 79.7254 73.196 79.7254C73.5182 79.7254 73.7599 79.8081 73.921 80.0565C74.0821 80.3049 74.1626 80.636 74.0821 81.0499L71.4238 93.7989C71.2627 94.544 70.8599 94.9579 70.135 94.9579ZM71.9071 82.6229L69.5711 93.7162C69.4905 94.0473 69.4905 94.2957 69.6516 94.4612C69.7322 94.544 69.8933 94.6268 70.135 94.6268C70.6988 94.6268 71.021 94.2957 71.1821 93.7162L73.8404 80.9671C73.921 80.636 73.9209 80.3877 73.7598 80.2221C73.6793 80.1393 73.5182 80.0565 73.2765 80.0565C72.9543 80.0565 72.6321 80.2221 72.3099 80.5532L66.6712 86.5966L63.5296 80.5532C63.3685 80.2221 63.1268 80.0565 62.8046 80.0565C62.3213 80.0565 61.9991 80.3877 61.838 81.0499L59.1797 93.7989C59.0992 94.1301 59.0992 94.3784 59.2603 94.4612C59.3408 94.544 59.5019 94.6268 59.7436 94.6268C60.3075 94.6268 60.6297 94.2957 60.7908 93.6334L63.1268 82.6229L65.7851 87.9212C65.8656 88.0867 66.1073 88.1695 66.349 88.1695C66.5906 88.1695 66.8323 88.0867 66.9934 87.9212L71.9071 82.6229Z" fill="white"/>
<path d="M87.1318 89.4112C86.8902 90.4874 86.4874 91.4809 85.7624 92.3087C85.118 93.1366 84.3125 93.7989 83.2653 94.2128C82.2987 94.6267 81.1709 94.8751 79.9626 94.8751C78.7543 94.8751 77.7877 94.6267 76.9821 94.2128C76.1766 93.7989 75.6127 93.1366 75.2905 92.3087C74.9683 91.4809 74.9683 90.4874 75.21 89.4112L76.0155 85.4375C76.2572 84.3613 76.6599 83.3678 77.3849 82.54C78.0293 81.7121 78.8349 81.0499 79.8821 80.6359C80.8487 80.222 81.9764 79.9736 83.1847 79.9736C84.393 79.9736 85.3597 80.222 86.1652 80.6359C86.9707 81.0499 87.5346 81.7121 87.8568 82.54C88.179 83.3678 88.179 84.3613 87.9374 85.4375L87.1318 89.4112ZM82.8625 81.7949C81.5737 81.7949 80.5265 82.1261 79.721 82.7056C78.9154 83.3679 78.3516 84.2785 78.1099 85.4375L77.3044 89.2456C77.0627 90.4874 77.2238 91.3981 77.7071 91.9776C78.271 92.6399 79.1571 92.8882 80.4459 92.971C81.7348 92.971 82.782 92.6399 83.5875 92.0604C84.393 91.3981 84.9569 90.4874 85.1986 89.3284L86.0041 85.5203C86.2458 84.3613 86.0847 83.4506 85.6013 82.7883C85.118 82.1261 84.1514 81.7949 82.8625 81.7949Z" fill="white"/>
<path d="M80.1236 95.0405C78.8347 95.0405 77.7875 94.7921 76.982 94.2954C76.1765 93.7987 75.5321 93.1364 75.2098 92.3085C74.8876 91.4807 74.8876 90.4045 75.1293 89.3282L75.9348 85.3545C76.1765 84.1955 76.6598 83.2021 77.3042 82.3742C77.9487 81.5464 78.8347 80.8841 79.8014 80.3874C80.768 79.9735 81.8958 79.7251 83.1041 79.7251C84.3123 79.7251 85.3595 79.9735 86.1651 80.4702C86.9706 80.9669 87.615 81.6292 87.9372 82.457C88.2595 83.2849 88.2595 84.3611 88.0178 85.4373L87.2123 89.411C86.9706 90.57 86.4873 91.5635 85.8429 92.3913C85.1984 93.2192 84.3124 93.8815 83.3457 94.3782C82.4596 94.8749 81.3319 95.0405 80.1236 95.0405ZM83.1846 80.0562C82.0569 80.0562 81.0097 80.3046 80.043 80.7185C79.0764 81.1325 78.2709 81.7947 77.6264 82.6226C76.982 83.4505 76.5792 84.3611 76.3376 85.4373L75.5321 89.411C75.2904 90.4872 75.3709 91.3979 75.6126 92.2258C75.9348 93.0536 76.4181 93.6331 77.2237 94.047C78.0292 94.461 78.9958 94.7093 80.1236 94.7093C81.2513 94.7093 82.3791 94.461 83.3457 94.047C84.3124 93.6331 85.1179 92.9708 85.7623 92.143C86.4067 91.3151 86.8095 90.4045 87.0512 89.3282L87.8567 85.3545C88.0983 84.2783 88.0178 83.3677 87.7761 82.5398C87.4539 81.712 86.9706 81.1325 86.1651 80.7185C85.3595 80.3046 84.3929 80.0562 83.1846 80.0562ZM80.5264 93.2192C79.0764 93.2192 78.1098 92.888 77.5459 92.2258C76.982 91.5635 76.8209 90.57 77.0626 89.3282L77.8681 85.5201C78.1098 84.2783 78.6736 83.2849 79.5597 82.7054C80.3652 82.0431 81.493 81.712 82.8624 81.712C84.2318 81.712 85.1984 82.0431 85.7623 82.7054C86.3262 83.4505 86.4873 84.4439 86.2456 85.6029L85.4401 89.411C85.1984 90.6528 84.6346 91.6463 83.7485 92.2258C82.9429 92.8053 81.8152 93.1364 80.5264 93.2192ZM82.7818 81.9603C81.5735 81.9603 80.5263 82.2915 79.8014 82.871C78.9958 83.4505 78.5125 84.3611 78.2709 85.5201L77.4653 89.3282C77.2237 90.4873 77.3848 91.3151 77.8681 91.8946C78.3514 92.4741 79.2375 92.8052 80.5264 92.8052C81.8152 92.8052 82.7818 92.4741 83.5874 91.8946C84.3929 91.3151 84.8762 90.4045 85.1179 89.2455L85.9234 85.4373C86.1651 84.3611 86.004 83.4505 85.5206 82.871C85.0373 82.2915 84.0707 81.9603 82.7818 81.9603Z" fill="white"/>
<path d="M98.9732 88.9145L97.926 93.8817C97.8455 94.2128 97.6844 94.4612 97.4427 94.6268C97.201 94.7923 96.9594 94.9579 96.6372 94.9579C96.315 94.9579 96.1538 94.8751 95.9927 94.6268C95.8316 94.4612 95.8316 94.2128 95.9122 93.8817L96.9594 88.9145H96.7983C96.1538 88.9145 95.5094 89.0801 94.9455 89.4113C94.3817 89.7424 93.9789 90.2391 93.5761 90.9014C93.3345 91.3153 93.0123 91.8948 92.6095 92.6399C92.2067 93.385 91.7234 93.8817 91.1595 94.2956C90.5957 94.7095 89.9513 94.8751 89.2263 94.8751C88.8235 94.8751 88.5818 94.7923 88.4207 94.6268C88.2596 94.4612 88.1791 94.2128 88.2596 93.9645C88.4207 93.3022 88.8235 93.0538 89.629 93.0538C89.7096 93.0538 89.7901 92.971 89.8707 92.8883C89.9512 92.8055 90.1124 92.6399 90.1929 92.4743C90.5957 91.812 90.8373 91.2325 90.9984 90.8186C91.3207 90.1563 91.804 89.5768 92.3678 88.9145C93.0123 88.2523 93.6567 87.8383 94.3817 87.5072C94.14 87.0933 93.8178 86.431 93.4956 85.6031C93.1734 84.6925 92.8512 83.9474 92.6095 83.3679C92.3678 82.8712 92.0456 82.6228 91.7234 82.54C91.3207 82.54 91.079 82.4573 90.9179 82.2917C90.7568 82.1261 90.6762 81.8777 90.7568 81.6294C90.9179 81.0499 91.3207 80.7188 92.0456 80.7188C92.6095 80.7188 93.1734 80.8843 93.6567 81.2982C94.14 81.7122 94.5428 82.2917 94.9455 83.0367C95.1872 83.6162 95.4289 84.1958 95.7511 84.9408C95.9927 85.6031 96.2344 86.1826 96.4761 86.5138C96.6372 86.9277 96.8788 87.0933 97.1205 87.0933H97.2816L98.4093 81.8778C98.4899 81.5466 98.651 81.2983 98.8927 81.0499C99.1343 80.8843 99.376 80.7188 99.6982 80.7188C100.343 80.7188 100.665 81.0499 100.504 81.795L99.376 87.0105H99.5371C99.6982 87.0105 100.02 86.8449 100.423 86.431C100.745 86.0998 101.229 85.6031 101.793 84.858C102.437 84.0302 103.081 83.3679 103.565 82.7884C104.048 82.2089 104.612 81.795 105.176 81.381C105.901 80.9671 106.465 80.7188 107.109 80.7188C107.512 80.7188 107.754 80.8015 107.915 80.9671C108.076 81.1327 108.156 81.381 108.076 81.6294C107.995 81.8777 107.834 82.1261 107.673 82.2917C107.431 82.4573 107.109 82.54 106.706 82.54C106.384 82.54 105.901 82.8712 105.498 83.3679C105.015 83.8646 104.37 84.6097 103.645 85.5203C103.001 86.3482 102.437 87.0105 101.954 87.4244C102.356 87.6728 102.759 87.9211 103.081 88.2523C103.404 88.5834 103.645 88.9973 103.726 89.4113C103.968 90.2391 104.129 91.067 104.129 91.8948C104.129 92.226 104.129 92.4743 104.209 92.7227C104.29 92.8883 104.37 92.971 104.531 92.971C104.854 92.971 105.176 93.0538 105.337 93.2194C105.498 93.385 105.579 93.6333 105.498 93.8817C105.337 94.544 104.854 94.7923 104.048 94.7923C103.323 94.7923 102.84 94.6268 102.356 94.2128C101.954 93.7989 101.712 93.3022 101.631 92.5571C101.631 92.3088 101.551 92.0604 101.551 91.9776C101.47 91.3153 101.39 90.7358 101.309 90.4047C101.229 89.9908 101.068 89.6596 100.745 89.4113C100.343 88.9973 99.7787 88.8317 99.0538 88.8317L98.9732 88.9145Z" fill="white"/>
<path d="M104.048 95.1231C103.323 95.1231 102.679 94.8748 102.276 94.4608C101.792 94.0469 101.551 93.4674 101.47 92.7223C101.47 92.474 101.39 92.2256 101.39 92.06C101.309 91.3978 101.229 90.901 101.148 90.4871C101.068 90.156 100.906 89.8248 100.665 89.4937C100.343 89.1625 99.7787 88.997 99.1342 88.997L98.0871 93.7985C98.0065 94.1297 97.8454 94.4608 97.6037 94.6264C97.3621 94.8748 97.0399 94.9575 96.7176 94.9575C96.3954 94.9575 96.0732 94.792 95.9121 94.6264C95.751 94.378 95.6705 94.1297 95.751 93.7158L96.7176 88.9142C96.0732 88.9142 95.5093 89.0798 95.026 89.4109C94.5427 89.742 94.0594 90.2388 93.7372 90.8183C93.4955 91.2322 93.1733 91.8117 92.7705 92.5568C92.3678 93.3018 91.8845 93.8813 91.24 94.2953C90.6762 94.7092 89.9512 94.8748 89.3067 94.8748C88.904 94.8748 88.5818 94.792 88.3401 94.5436C88.179 94.378 88.0179 94.1297 88.0985 93.7158C88.179 93.219 88.5818 92.6395 89.629 92.6395C89.629 92.6395 89.7095 92.6395 89.7901 92.5568C89.8706 92.474 89.9512 92.3084 90.0317 92.1428C90.4345 91.4805 90.6762 90.901 90.8373 90.4871C91.1595 89.8248 91.6428 89.1625 92.2872 88.5003C92.8511 87.9208 93.4955 87.424 94.1399 87.1757C93.8983 86.7617 93.6566 86.1823 93.3344 85.3544C93.0122 84.4438 92.69 83.6987 92.4483 83.1192C92.2067 82.7053 91.965 82.4569 91.7233 82.4569C91.3206 82.4569 90.9984 82.2913 90.8373 82.1257C90.6762 81.9602 90.5151 81.7118 90.5956 81.2979C90.6762 80.8012 90.9984 80.2217 92.0456 80.2217C92.69 80.2217 93.2539 80.47 93.8177 80.884C94.3011 81.2979 94.7844 81.8774 95.1066 82.7053C95.3482 83.2848 95.5899 83.8642 95.9121 84.6093C96.1538 85.2716 96.3954 85.8511 96.6371 86.1823C96.7982 86.5134 96.9593 86.679 97.1204 86.679L98.1676 81.629C98.2482 81.2151 98.4093 80.9668 98.6509 80.7184C98.8926 80.47 99.2148 80.3872 99.537 80.3872C99.9398 80.3872 100.181 80.47 100.343 80.7184C100.504 80.9668 100.584 81.2979 100.504 81.7118L99.4565 86.679C99.537 86.679 99.7787 86.5134 100.181 86.1823C100.504 85.8511 100.987 85.3544 101.551 84.6093C102.195 83.7815 102.84 83.0364 103.323 82.5397C103.806 81.9602 104.37 81.5463 105.015 81.1323C105.74 80.6356 106.384 80.3872 107.028 80.47C107.431 80.47 107.753 80.5528 107.995 80.8012C108.237 81.0495 108.317 81.2979 108.237 81.629C108.156 81.9602 107.995 82.2085 107.753 82.3741C107.512 82.5397 107.19 82.6225 106.706 82.7053C106.384 82.7053 106.062 82.9536 105.578 83.4503C105.095 83.947 104.451 84.6921 103.726 85.6028C103.162 86.3478 102.598 86.9273 102.195 87.3413C102.517 87.5068 102.84 87.838 103.162 88.1691C103.484 88.583 103.726 88.997 103.806 89.4109C104.048 90.2388 104.209 91.0666 104.209 91.8945C104.209 92.2256 104.209 92.474 104.29 92.6395C104.29 92.7223 104.37 92.8051 104.451 92.8051C104.854 92.8051 105.176 92.8879 105.337 93.1363C105.578 93.3846 105.659 93.633 105.578 93.9641C105.498 94.5436 105.176 95.1231 104.048 95.1231ZM98.812 88.7486H99.1342C99.9398 88.7486 100.504 88.997 100.906 89.3281C101.229 89.6593 101.39 89.9904 101.47 90.4043C101.551 90.8183 101.631 91.315 101.712 91.9773C101.712 92.1428 101.712 92.3084 101.792 92.5568C101.873 93.219 102.034 93.7158 102.437 94.1297C102.84 94.4608 103.323 94.7092 103.967 94.7092C104.692 94.7092 105.095 94.4608 105.256 93.8813C105.337 93.633 105.256 93.4674 105.095 93.3846C104.934 93.219 104.692 93.1363 104.37 93.1363C104.209 93.1363 104.048 93.0535 103.887 92.7223C103.806 92.5568 103.806 92.2256 103.806 91.8945C103.806 91.1494 103.645 90.3215 103.404 89.4937C103.323 89.0798 103.081 88.7486 102.84 88.4175C102.517 88.0863 102.195 87.838 101.792 87.5896L101.551 87.5068L101.712 87.3413C102.195 86.9273 102.759 86.265 103.404 85.4372C104.129 84.4437 104.773 83.6987 105.256 83.202C105.74 82.6225 106.142 82.3741 106.626 82.3741C106.948 82.3741 107.27 82.2913 107.431 82.1257C107.592 81.9602 107.753 81.7946 107.834 81.5463C107.915 81.2979 107.834 81.1323 107.673 81.0495C107.512 80.884 107.27 80.8012 106.948 80.8012C106.384 80.8012 105.82 81.0495 105.176 81.4635C104.612 81.8774 104.048 82.2913 103.565 82.8708C103.081 83.3675 102.517 84.1126 101.792 84.9405C101.148 85.6855 100.745 86.1823 100.423 86.5134C99.9398 86.9273 99.6176 87.1757 99.4565 87.1757H99.1342L100.262 81.7118C100.343 81.3807 100.343 81.1323 100.181 80.9667C100.101 80.8012 99.9398 80.8012 99.6176 80.8012C99.3759 80.8012 99.1342 80.884 98.9731 81.0495C98.812 81.2151 98.6509 81.4635 98.5704 81.7946L97.4426 87.1757H97.201C96.8787 87.1757 96.6371 86.9273 96.476 86.4306C96.2343 86.0995 95.9927 85.52 95.751 84.8577C95.5093 84.1954 95.1871 83.5331 94.9455 82.9536C94.6233 82.2085 94.2205 81.7118 93.7372 81.2979C93.2539 80.9667 92.7705 80.7184 92.2067 80.7184C91.5622 80.7184 91.24 80.9668 91.0789 81.4635C90.9984 81.7118 91.0789 81.8774 91.1595 81.9602C91.3206 82.1258 91.5622 82.2085 91.8844 82.2085C92.2872 82.2085 92.6094 82.5397 92.9316 83.1192C93.1733 83.6159 93.4955 84.361 93.8177 85.3544C94.1399 86.265 94.3816 86.8445 94.7038 87.2585L94.7844 87.424L94.6233 87.5068C93.8983 87.7552 93.2539 88.2519 92.69 88.8314C92.1261 89.4109 91.6428 90.0732 91.3206 90.6527C91.1595 91.0666 90.8373 91.5633 90.4345 92.3084C90.3539 92.474 90.1928 92.6395 90.1123 92.8051C89.9512 92.9707 89.7901 92.9707 89.7095 92.9707C88.9845 92.9707 88.6623 93.219 88.5012 93.7985C88.4207 94.0469 88.5012 94.2125 88.6623 94.2953C88.8234 94.4608 89.0651 94.5436 89.3873 94.5436C90.0317 94.5436 90.5956 94.378 91.1595 93.9641C91.7233 93.633 92.2067 93.0535 92.5289 92.3912C92.9316 91.6461 93.2539 91.0666 93.4955 90.6527C93.8983 89.9904 94.3011 89.4109 94.8649 89.0798C95.4288 88.7486 96.0732 88.583 96.7982 88.5003H97.201L96.0732 93.7158C95.9927 93.9641 96.0732 94.1297 96.1538 94.2953C96.2343 94.4608 96.3954 94.5436 96.6371 94.5436C96.8788 94.5436 97.1204 94.4608 97.3621 94.2953C97.6037 94.1297 97.6843 93.8813 97.7648 93.633L98.812 88.7486Z" fill="white"/>
<path d="M110.009 93.8816C109.848 94.6267 109.445 94.9579 108.801 94.9579C108.156 94.9579 107.914 94.6267 108.076 93.8816L110.734 81.1326C110.895 80.3876 111.298 80.0564 111.862 80.0564C112.506 80.0564 112.828 80.3876 112.667 81.1326L111.62 85.9342H119.595L120.642 81.0499C120.803 80.3048 121.206 79.9736 121.85 79.9736C122.495 79.9736 122.736 80.3048 122.575 81.0499L119.917 93.7989C119.756 94.5439 119.353 94.8751 118.709 94.8751C118.064 94.8751 117.822 94.5439 117.984 93.7989L119.272 87.8383H111.298L110.009 93.8816Z" fill="white"/>
<path d="M118.709 95.1235C118.306 95.1235 118.064 95.0407 117.903 94.7923C117.742 94.544 117.661 94.2128 117.742 93.7989L118.95 88.0039H111.298L110.089 93.8817C109.928 94.7095 109.445 95.1235 108.72 95.1235C108.398 95.1235 108.076 95.0407 107.915 94.7923C107.753 94.544 107.673 94.2128 107.753 93.7989L110.412 81.0499C110.653 80.0565 111.217 79.8081 111.701 79.8081C112.103 79.8081 112.345 79.8909 112.506 80.1392C112.667 80.3876 112.748 80.7187 112.667 81.1327L111.701 85.7687H119.353L120.32 81.0499C120.561 80.0565 121.206 79.8081 121.689 79.8081C122.011 79.8081 122.334 79.8909 122.495 80.1392C122.656 80.3876 122.736 80.7187 122.656 81.1327L119.997 93.8817C119.836 94.7095 119.434 95.1235 118.709 95.1235ZM111.056 87.6728H119.353L118.064 93.8817C117.984 94.2128 117.984 94.4612 118.145 94.544C118.225 94.6268 118.386 94.7095 118.628 94.7095C119.192 94.7095 119.514 94.3784 119.675 93.7989L122.334 81.0499C122.414 80.7187 122.414 80.4704 122.253 80.3048C122.172 80.222 122.011 80.1392 121.77 80.1392C121.206 80.1392 120.884 80.4704 120.722 81.1327L119.675 86.0998H111.378L112.425 81.0499C112.506 80.7187 112.506 80.4704 112.345 80.3048C112.264 80.1392 112.023 80.1392 111.781 80.1392C111.298 80.1392 110.976 80.4704 110.814 81.1327L108.156 93.8817C108.076 94.2128 108.076 94.4612 108.237 94.544C108.317 94.6268 108.478 94.7095 108.72 94.7095C109.284 94.7095 109.606 94.3784 109.767 93.7989L111.056 87.6728Z" fill="white"/>
<path d="M135.705 89.5767C135.464 90.653 135.061 91.6464 134.336 92.4742C133.692 93.3021 132.886 93.9644 131.839 94.3783C130.872 94.7922 129.744 95.0406 128.536 95.0406C127.328 95.0406 126.361 94.7922 125.556 94.3783C124.75 93.9644 124.186 93.3021 123.864 92.4742C123.542 91.6464 123.542 90.653 123.783 89.5767L124.589 85.603C124.831 84.5268 125.233 83.5334 125.958 82.7055C126.603 81.8777 127.408 81.2154 128.456 80.8014C129.422 80.3875 130.55 80.1392 131.758 80.1392C132.967 80.1392 133.933 80.3875 134.739 80.8014C135.544 81.2154 136.108 81.8777 136.43 82.7055C136.753 83.5334 136.753 84.5268 136.511 85.603L135.705 89.5767ZM131.436 81.9605C130.147 81.9605 129.1 82.2916 128.294 82.8711C127.489 83.5334 126.925 84.444 126.683 85.603L125.878 89.4112C125.636 90.653 125.797 91.5636 126.281 92.1431C126.844 92.8054 127.731 93.0537 129.019 93.1365C130.308 93.1365 131.355 92.8054 132.161 92.2259C132.967 91.5636 133.53 90.653 133.772 89.494L134.578 85.6858C134.819 84.5268 134.658 83.6162 134.175 82.9539C133.691 82.2916 132.725 81.9605 131.436 81.9605Z" fill="white"/>
<path d="M128.778 95.206H128.697C127.489 95.206 126.442 94.9576 125.636 94.4609C124.831 93.9642 124.186 93.3019 123.864 92.4741C123.542 91.6462 123.542 90.57 123.783 89.4938L124.589 85.5201C124.831 84.3611 125.314 83.3676 125.958 82.5398C126.603 81.7119 127.489 81.0496 128.456 80.5529C129.422 80.0562 130.55 79.8906 131.758 79.8906C132.967 79.8906 134.014 80.139 134.819 80.6357C135.625 81.1324 136.269 81.7947 136.591 82.6226C136.914 83.4504 136.914 84.5266 136.672 85.6028L135.866 89.5766C135.625 90.7356 135.141 91.729 134.497 92.5568C133.853 93.3847 132.967 94.047 132 94.5437C131.033 94.9576 129.906 95.206 128.778 95.206ZM131.758 80.2218C130.63 80.2218 129.583 80.4701 128.617 80.8841C127.65 81.298 126.844 81.9603 126.2 82.7881C125.556 83.616 125.153 84.5266 124.911 85.6028L124.106 89.5766C123.864 90.6528 123.945 91.5634 124.186 92.3913C124.508 93.2191 124.992 93.7986 125.797 94.2126C126.603 94.6265 127.569 94.8748 128.697 94.8748C129.825 94.8748 130.953 94.6265 131.919 94.2126C132.886 93.7986 133.692 93.1363 134.336 92.3085C134.98 91.4806 135.383 90.57 135.625 89.4938L136.43 85.5201C136.672 84.4438 136.591 83.5332 136.35 82.7053C136.028 81.8775 135.544 81.298 134.739 80.8841C133.933 80.4701 132.967 80.2218 131.758 80.2218ZM129.1 93.3019C127.731 93.3019 126.683 92.9708 126.119 92.3085C125.556 91.6462 125.395 90.6528 125.636 89.411L126.442 85.6028C126.683 84.3611 127.247 83.3676 128.133 82.7881C128.939 82.1258 130.067 81.7947 131.355 81.7947H131.436C132.805 81.7947 133.772 82.1258 134.336 82.7881C134.9 83.5332 135.061 84.5266 134.819 85.6856L134.014 89.4938C133.772 90.7356 133.208 91.729 132.322 92.3085C131.517 92.9708 130.389 93.3019 129.1 93.3019ZM131.355 82.1258C130.147 82.1258 129.1 82.457 128.375 83.0365C127.569 83.616 127.086 84.5266 126.844 85.6856L126.039 89.4938C125.797 90.6528 125.958 91.4806 126.442 92.0601C126.925 92.6396 127.811 92.9708 129.1 92.9708C130.308 92.9708 131.355 92.6396 132.161 92.0601C132.967 91.4806 133.45 90.57 133.692 89.411L134.497 85.6028C134.739 84.5266 134.578 83.616 134.094 83.0365C133.611 82.457 132.644 82.1258 131.355 82.1258Z" fill="white"/>
<path d="M143.358 94.875C141.828 94.875 140.7 94.7094 139.894 94.461C139.089 94.2127 138.605 93.716 138.364 93.1365C138.122 92.557 138.122 91.6463 138.364 90.5701L139.653 84.5268C139.894 83.4505 140.216 82.6227 140.7 82.0432C141.183 81.4637 141.828 80.967 142.714 80.7186C143.6 80.4703 144.647 80.3047 146.016 80.3047H149.641C150.527 80.3047 151.172 80.553 151.494 80.967C151.816 81.3809 151.897 82.126 151.736 83.0366C151.574 83.8645 151.172 84.2784 150.527 84.2784C150.205 84.2784 150.044 84.1956 149.883 83.9473C149.722 83.6989 149.722 83.4505 149.802 83.0366C149.883 82.6227 149.883 82.3743 149.802 82.2915C149.722 82.126 149.48 82.126 149.158 82.126H145.694C144.647 82.126 143.841 82.2088 143.358 82.2915C142.875 82.3743 142.472 82.6227 142.23 82.9538C141.989 83.285 141.747 83.7817 141.586 84.5268L140.297 90.4873C140.136 91.2324 140.136 91.7291 140.216 92.0603C140.378 92.3914 140.7 92.6398 141.183 92.7225C141.747 92.8053 142.553 92.8881 143.761 92.8881H146.822C147.144 92.8881 147.386 92.8053 147.547 92.7225C147.708 92.557 147.788 92.3086 147.869 91.9775C147.95 91.5635 148.111 91.3152 148.272 91.0668C148.513 90.8185 148.755 90.7357 149.077 90.7357C149.722 90.7357 149.963 91.1496 149.802 92.0603C149.641 92.9709 149.238 93.716 148.675 94.1299C148.111 94.5438 147.466 94.7922 146.5 94.7922L143.358 94.875Z" fill="white"/>
<path d="M146.661 95.1231H143.358C141.827 95.1231 140.7 94.9575 139.894 94.7092C139.089 94.4608 138.525 93.9641 138.203 93.3018C137.961 92.6395 137.961 91.7289 138.122 90.6527L139.411 84.6093C139.653 83.5331 139.975 82.6225 140.539 82.043C141.022 81.3807 141.747 80.9668 142.633 80.6356C143.519 80.3873 144.647 80.2217 146.016 80.2217H149.641C150.608 80.2217 151.252 80.47 151.655 80.9667C152.058 81.4635 152.138 82.2085 151.897 83.202C151.655 84.361 151.011 84.6093 150.527 84.6093C150.124 84.6093 149.883 84.4437 149.722 84.1954C149.561 83.947 149.561 83.6159 149.641 83.202C149.722 82.788 149.641 82.6225 149.641 82.6225C149.641 82.6225 149.48 82.5397 149.077 82.4569H145.613C144.566 82.4569 143.761 82.5397 143.277 82.6225C142.794 82.7052 142.472 82.9536 142.23 83.202C141.989 83.5331 141.827 84.0298 141.666 84.6921L140.378 90.6527C140.216 91.315 140.216 91.8117 140.297 92.1428C140.378 92.3912 140.7 92.6395 141.183 92.7223C141.666 92.8051 142.552 92.8879 143.68 92.8879H146.741C147.063 92.8879 147.305 92.8051 147.386 92.7223C147.466 92.6395 147.547 92.474 147.708 92.06C147.788 91.6461 147.95 91.315 148.191 91.0666C148.433 90.8183 148.755 90.7355 149.077 90.7355C149.399 90.7355 149.641 90.8183 149.802 91.0666C149.963 91.315 150.044 91.7289 149.963 92.2256C149.722 93.219 149.399 93.8813 148.836 94.378C148.272 94.8748 147.547 95.1231 146.661 95.1231ZM143.358 94.7092H146.58C147.466 94.7092 148.111 94.4608 148.594 94.0469C149.077 93.633 149.399 92.9707 149.641 92.06C149.722 91.6461 149.722 91.315 149.561 91.1494C149.48 91.0666 149.319 90.9838 149.077 90.9838C148.836 90.9838 148.594 91.0666 148.433 91.2322C148.272 91.3978 148.111 91.6461 148.03 92.06C147.95 92.474 147.788 92.7223 147.627 92.8879C147.466 93.0535 147.144 93.1363 146.741 93.1363H143.68C142.472 93.1363 141.586 93.0535 141.103 92.9707C140.539 92.8051 140.136 92.5568 139.975 92.1428C139.814 91.8117 139.814 91.2322 139.975 90.4871L141.264 84.5265C141.425 83.7815 141.666 83.2847 141.908 82.8708C142.15 82.5397 142.633 82.2913 143.197 82.1257C143.761 82.043 144.486 81.9602 145.613 81.9602H149.077C149.48 81.9602 149.722 82.043 149.883 82.2085C150.044 82.3741 150.044 82.7053 149.963 83.1192C149.883 83.4503 149.883 83.6987 150.044 83.8642C150.124 84.0298 150.286 84.1126 150.527 84.1126C151.091 84.1126 151.413 83.7815 151.574 82.9536C151.736 82.043 151.736 81.3807 151.413 80.9667C151.091 80.5528 150.527 80.3872 149.722 80.3872H146.097C144.727 80.3872 143.68 80.5528 142.794 80.8012C141.989 81.0495 141.344 81.4635 140.861 82.043C140.378 82.6225 140.055 83.4503 139.814 84.5265L138.525 90.5699C138.283 91.6461 138.283 92.474 138.525 93.0535C138.766 93.633 139.25 94.0469 139.975 94.2953C140.78 94.6264 141.908 94.7092 143.358 94.7092Z" fill="white"/>
<path d="M163.819 80.3877C164.544 80.3877 164.866 80.7188 164.705 81.2983C164.544 81.9606 164.141 82.209 163.416 82.209H160.194L157.697 94.0473C157.616 94.3785 157.455 94.6268 157.213 94.7924C156.972 94.958 156.65 95.1236 156.327 95.1236C156.005 95.1236 155.763 95.0408 155.602 94.8752C155.441 94.7096 155.441 94.4613 155.522 94.1301L158.019 82.2918H154.716C154.394 82.2918 154.072 82.209 153.911 82.0434C153.75 81.8778 153.669 81.6295 153.75 81.3811C153.83 81.1328 153.991 80.8844 154.152 80.7188C154.394 80.5533 154.716 80.4705 155.038 80.4705L163.819 80.3877Z" fill="white"/>
<path d="M156.327 95.289C155.924 95.289 155.683 95.2062 155.441 94.9578C155.28 94.7095 155.199 94.4611 155.28 94.0472L157.696 82.4572H154.635C154.233 82.4572 153.91 82.3744 153.749 82.126C153.588 81.9604 153.427 81.7121 153.588 81.2982C153.669 80.967 153.83 80.7187 154.072 80.4703C154.313 80.3047 154.635 80.2219 155.038 80.1392H163.738C164.221 80.1392 164.543 80.2219 164.705 80.4703C164.866 80.6359 164.866 80.967 164.866 81.2982C164.785 81.7949 164.463 82.3744 163.416 82.3744H160.274L157.858 94.0472C157.777 94.3783 157.616 94.7095 157.294 94.875C157.052 95.2062 156.649 95.289 156.327 95.289ZM155.038 80.5531C154.716 80.5531 154.474 80.6359 154.313 80.8014C154.152 80.967 153.991 81.1326 153.91 81.3809C153.83 81.6293 153.91 81.7949 153.991 81.8777C154.152 82.0432 154.313 82.126 154.635 82.126H158.18L155.683 94.13C155.602 94.3783 155.683 94.6267 155.763 94.7095C155.844 94.875 156.085 94.9578 156.327 94.9578C156.649 94.9578 156.891 94.875 157.052 94.7095C157.294 94.5439 157.374 94.2955 157.455 94.0472L160.032 82.0432H163.416C164.06 82.0432 164.463 81.7949 164.543 81.2154C164.624 80.967 164.543 80.8015 164.463 80.7187C164.382 80.5531 164.141 80.4703 163.738 80.4703L155.038 80.5531Z" fill="white"/>
<path d="M167.524 87.7556L166.396 93.1367H175.177C175.579 93.1367 175.821 93.2195 175.982 93.3851C176.143 93.5506 176.224 93.799 176.143 94.1301C176.063 94.3785 175.902 94.6268 175.74 94.7924C175.499 94.958 175.177 95.0408 174.854 95.0408H165.107C164.785 95.0408 164.624 94.958 164.463 94.7096C164.382 94.5441 164.302 94.2129 164.382 93.8818L166.96 81.5467C167.041 81.2156 167.202 80.8844 167.363 80.7188C167.605 80.5533 167.846 80.3877 168.088 80.3877H177.835C178.238 80.3877 178.479 80.4705 178.64 80.6361C178.802 80.8016 178.882 81.05 178.801 81.3811C178.721 81.6295 178.56 81.8778 178.399 82.0434C178.157 82.209 177.835 82.2918 177.513 82.2918H168.732L168.007 85.8516H173.968C174.371 85.8516 174.693 85.9343 174.854 86.0999C175.016 86.2655 175.096 86.5138 175.016 86.845C174.854 87.4245 174.371 87.7556 173.566 87.7556H167.524Z" fill="white"/>
<path d="M174.774 95.2059H165.027C164.705 95.2059 164.383 95.0403 164.302 94.792C164.141 94.5436 164.141 94.2125 164.221 93.7985L166.799 81.4635C166.88 81.0495 167.041 80.7184 167.283 80.5528C167.524 80.3045 167.766 80.2217 168.088 80.2217H177.835C178.238 80.2217 178.56 80.3045 178.721 80.5528C178.963 80.8012 178.963 81.0495 178.882 81.4635C178.802 81.7946 178.641 82.043 178.399 82.2085C178.157 82.3741 177.835 82.4569 177.432 82.4569H168.813L168.169 85.6855H173.888C174.371 85.6855 174.693 85.7683 174.935 86.0167C175.177 86.265 175.257 86.5134 175.177 86.9273C175.016 87.5896 174.452 87.9207 173.566 88.0035H167.766L166.719 92.9707H175.257C175.66 92.9707 175.982 93.0535 176.143 93.3018C176.385 93.5502 176.385 93.7985 176.304 94.2125C176.224 94.5436 176.063 94.792 175.821 94.9575C175.499 95.1231 175.177 95.2059 174.774 95.2059ZM168.088 80.5528C167.846 80.5528 167.685 80.6356 167.444 80.8012C167.283 80.9667 167.121 81.2151 167.041 81.5463L164.463 93.8813C164.383 94.2125 164.383 94.4608 164.544 94.5436C164.624 94.7092 164.785 94.792 165.027 94.792H174.774C175.096 94.792 175.338 94.7092 175.579 94.6264C175.741 94.4608 175.902 94.2953 175.982 94.0469C176.063 93.7985 175.982 93.5502 175.902 93.4674C175.741 93.3018 175.579 93.3018 175.257 93.3018H166.316L167.524 87.5896H173.566C174.291 87.5896 174.693 87.3413 174.855 86.8445C174.935 86.5962 174.855 86.4306 174.693 86.265C174.532 86.0995 174.291 86.0995 173.888 86.0167H167.766L168.571 82.1257H177.432C177.754 82.1257 177.996 82.043 178.238 81.9602C178.399 81.7946 178.56 81.629 178.641 81.3807C178.721 81.1323 178.641 80.884 178.56 80.8012C178.399 80.6356 178.238 80.6356 177.916 80.6356L168.088 80.5528Z" fill="white"/>
<path d="M178.882 94.1299L181.54 81.3809C181.702 80.6358 182.104 80.3046 182.749 80.3046C183.393 80.3046 183.635 80.7186 183.474 81.4636L181.299 91.8119L191.61 80.8841C192.012 80.4702 192.335 80.3046 192.737 80.3046C193.382 80.3046 193.543 80.6358 193.382 81.3809L190.724 94.1299C190.562 94.8749 190.16 95.2061 189.515 95.2061C188.871 95.2061 188.629 94.8749 188.79 94.2126L190.965 83.6989L180.735 94.5438C180.493 94.7921 180.332 94.9577 180.171 95.0405C180.01 95.1233 179.849 95.1233 179.607 95.1233C178.963 95.2061 178.721 94.7921 178.882 94.1299ZM186.132 80.8014C185.246 80.8014 184.682 80.553 184.36 80.1391C184.118 79.7251 184.038 78.8973 184.279 77.8211L184.521 76.8276H186.454L186.213 78.1522C186.132 78.4834 186.132 78.6489 186.213 78.7317C186.293 78.8145 186.454 78.8145 186.776 78.8973H189.112C189.435 78.8973 189.596 78.8973 189.676 78.8145C189.757 78.7317 189.837 78.5661 189.918 78.235L190.16 76.9104H192.093L191.851 77.9039C191.61 78.9801 191.287 79.8079 190.804 80.2219C190.321 80.6358 189.676 80.8841 188.79 80.8841L186.132 80.8014Z" fill="white"/>
<path d="M189.515 95.3719C189.112 95.3719 188.871 95.2891 188.71 95.0408C188.548 94.7924 188.468 94.5441 188.548 94.1301L190.643 84.2786L180.896 94.7096C180.654 94.958 180.413 95.1236 180.251 95.2891C180.09 95.3719 179.849 95.4547 179.607 95.4547C179.285 95.4547 179.043 95.3719 178.882 95.1236C178.721 94.8752 178.64 94.5441 178.721 94.1301L181.379 81.3811C181.621 80.3877 182.265 80.1393 182.749 80.1393C183.071 80.1393 183.312 80.2221 183.474 80.4705C183.635 80.7188 183.715 81.05 183.635 81.5467L181.621 91.3154L191.529 80.8016C191.932 80.3877 192.334 80.2221 192.737 80.2221C193.059 80.2221 193.301 80.3049 193.462 80.5533C193.623 80.8016 193.704 81.1328 193.623 81.5467L190.965 94.2957C190.723 94.958 190.24 95.3719 189.515 95.3719ZM191.287 83.1196L188.951 94.2129C188.871 94.5441 188.871 94.7096 189.032 94.8752C189.112 94.958 189.273 95.0408 189.596 95.0408C190.159 95.0408 190.482 94.7096 190.643 94.1301L193.301 81.3811C193.382 81.05 193.382 80.8016 193.221 80.6361C193.14 80.5533 192.979 80.4705 192.737 80.4705C192.415 80.4705 192.093 80.636 191.771 80.9672L180.976 92.3916L183.312 81.4639C183.393 81.1328 183.393 80.8016 183.232 80.7188C183.151 80.6361 182.99 80.5533 182.749 80.5533C182.185 80.5533 181.862 80.8844 181.701 81.5467L179.043 94.2957C178.963 94.6268 178.963 94.8752 179.124 94.958C179.204 95.0408 179.365 95.1236 179.607 95.1236C179.849 95.1236 180.01 95.1236 180.09 95.0408C180.171 94.958 180.332 94.8752 180.654 94.5441L191.287 83.1196ZM188.871 81.05H186.132C185.165 81.05 184.521 80.8016 184.199 80.3049C183.876 79.8082 183.876 78.9803 184.118 77.8213L184.36 76.7451H186.615L186.293 78.318C186.212 78.732 186.212 78.8148 186.212 78.8148C186.212 78.8148 186.293 78.8975 186.615 78.8975H188.951C189.273 78.8975 189.434 78.8148 189.434 78.8148C189.434 78.8148 189.515 78.732 189.596 78.318L189.918 76.8279H192.173L191.932 77.9869C191.69 79.1459 191.287 79.9738 190.804 80.3877C190.482 80.8016 189.837 80.9672 188.871 81.05ZM184.682 76.9935L184.521 77.8213C184.279 78.8975 184.279 79.6426 184.521 79.9738C184.762 80.3877 185.326 80.5533 186.132 80.5533H188.79C189.596 80.5533 190.321 80.3877 190.723 79.9738C191.126 79.5598 191.529 78.8148 191.69 77.7386L191.851 76.9935H190.24L189.998 78.1525C189.918 78.5664 189.837 78.732 189.676 78.8975C189.515 78.9803 189.354 79.0631 188.951 79.0631H186.615C186.212 79.0631 185.971 78.9803 185.89 78.8975C185.81 78.732 185.81 78.5664 185.89 78.1525L186.132 77.0763L184.682 76.9935Z" fill="white"/>
</svg>
