<svg width="160" height="95" viewBox="0 0 160 95" fill="none" xmlns="http://www.w3.org/2000/svg">
<g clip-path="url(#clip0_143_2371)">
<path d="M36.2083 42.0728H24.9576V83.6875H11.2508V42.0728H0V30.3086H36.2083V42.0728Z" fill="#C0D966"/>
<path d="M98.2225 57.0384C98.2225 64.9344 95.4495 71.5768 89.9033 76.9654C84.41 82.2472 77.4641 84.8882 69.0657 84.8882C60.6672 84.8882 53.7214 82.2472 48.228 76.9654C42.682 71.5768 39.9088 64.9344 39.9088 57.0384C39.9088 53.357 40.5956 49.7558 41.9689 46.2345C43.395 42.7133 45.4815 39.6455 48.228 37.0313C53.7214 31.7494 60.6672 29.1084 69.0657 29.1084C77.4641 29.1084 84.41 31.7494 89.9033 37.0313C92.65 39.6455 94.7099 42.7133 96.0833 46.2345C97.5094 49.7558 98.2225 53.357 98.2225 57.0384ZM69.0657 42.5532C64.7344 42.5532 61.1691 43.967 58.3696 46.7947C55.5701 49.569 54.1703 53.0636 54.1703 57.2785C54.1703 61.1731 55.5701 64.481 58.3696 67.202C61.2747 70.0296 64.84 71.4434 69.0657 71.4434C73.3969 71.4434 76.9359 70.0563 79.6826 67.2819C82.5349 64.4009 83.961 60.9864 83.961 57.0384C83.961 52.9836 82.5349 49.569 79.6826 46.7947C76.7246 43.967 73.1857 42.5532 69.0657 42.5532Z" fill="#C0D966"/>
<path d="M120.677 83.6875H106.97V30.3086H120.677L145.952 62.9602V30.3086H159.658V83.6875H145.952L120.677 51.0359V83.6875Z" fill="#C0D966"/>
<path d="M96.7579 66.4056C92.1266 64.91 87.7161 62.9154 83.5885 60.4842C82.9952 63.0454 81.6932 65.3414 79.6826 67.3722C76.9359 70.1466 73.3969 71.5337 69.0657 71.5337C64.84 71.5337 61.2747 70.1199 58.3696 67.2922C55.5701 64.5713 54.1703 61.2634 54.1703 57.3687C54.1703 53.1539 55.5701 49.6593 58.3696 46.885C60.0605 45.177 62.0311 43.9848 64.2809 43.3085C61.4748 39.6181 59.0398 35.6246 57.0323 31.3853C53.7703 32.7023 50.8355 34.6144 48.228 37.1215C45.4815 39.7358 43.395 42.8036 41.9689 46.3248C40.5956 49.8461 39.9088 53.4473 39.9088 57.1287C39.9088 65.0247 42.682 71.6671 48.228 77.0557C53.7214 82.3375 60.6672 84.9785 69.0657 84.9785C77.4641 84.9785 84.41 82.3375 89.9033 77.0557C93.1224 73.9281 95.4072 70.378 96.7579 66.4056Z" fill="#1C4859"/>
<path d="M145.952 62.9002C150.893 60.4821 155.493 57.4639 159.658 53.9395V83.7787H145.952L133.376 67.5318C137.727 66.4192 141.905 64.8731 145.867 62.9417L145.952 63.0514V62.9002Z" fill="#1C4859"/>
<path d="M120.677 69.4813C119.465 69.5478 118.243 69.5815 117.013 69.5815C113.599 69.5815 110.245 69.3214 106.97 68.8198V83.7786H120.677V69.4813Z" fill="#1C4859"/>
<path d="M36.2083 42.1636H24.9576V83.7783H11.2508V42.1636H0V30.3994H36.2083V42.1636Z" fill="#1C4859"/>
<path d="M1.48437 16.3202V19.8882H0.368164V10.6034C0.735853 10.6034 1.12543 10.5989 1.5369 10.5901C1.94837 10.5812 2.35984 10.5768 2.7713 10.5768C3.97944 10.5768 4.84614 10.8509 5.37142 11.3992C5.90544 11.9386 6.17246 12.6239 6.17246 13.4551C6.17246 14.2598 5.88356 14.9496 5.30576 15.5243C4.74547 16.0903 3.93128 16.3732 2.86322 16.3732C2.30293 16.3732 1.84331 16.3556 1.48437 16.3202ZM2.87635 11.6379C2.71878 11.6379 2.25478 11.6468 1.48437 11.6645V15.2458C2.03592 15.29 2.4824 15.3121 2.82383 15.3121C3.49793 15.3121 4.02759 15.1485 4.41279 14.8213C4.79798 14.4853 4.99059 14.0255 4.99059 13.4419C4.99059 12.8671 4.81112 12.425 4.45218 12.1155C4.10199 11.7971 3.57672 11.6379 2.87635 11.6379ZM13.5221 19.8882H8.20369V10.6034H13.3908V11.6645H9.31991V14.6622H12.9968V15.7233H9.31991V18.8271H13.5221V19.8882ZM21.128 10.6034H22.4806L18.3835 14.9673L22.6907 19.8882H21.2593L17.0965 15.0468L21.128 10.6034ZM16.8733 19.8882H15.757V10.6034H16.8733V19.8882ZM30.9971 19.8882H29.8809V11.6645H26.5454L26.3877 13.4153C26.2827 14.5649 26.147 15.5509 25.9807 16.3732C25.8144 17.1868 25.6349 17.8279 25.4422 18.2965C25.2497 18.7652 25.022 19.1278 24.7594 19.3842C24.5055 19.6406 24.256 19.7999 24.011 19.8617C23.7658 19.9236 23.4857 19.9325 23.1705 19.8882L23.1836 18.7608C23.3674 18.7873 23.525 18.7741 23.6564 18.721C23.7877 18.6591 23.9365 18.522 24.1028 18.3098C24.2867 18.0887 24.453 17.7571 24.6019 17.315C24.9521 16.3246 25.2059 14.7064 25.3635 12.4603L25.4948 10.6034H30.9971V19.8882ZM33.6968 19.8882H32.5674L36.5202 10.5503H37.4788L41.4315 19.8882H40.2365L39.0546 17.0762H34.8655L33.6968 19.8882ZM38.6212 16.0151L36.9666 12.0491L35.312 16.0151H38.6212ZM44.1245 19.8882H43.0083V10.6034H44.1377L47.5914 15.3652L50.9006 10.6034H51.9643V19.8882H50.848V12.3807L47.5914 16.9967H47.4207L44.1245 12.4205V19.8882ZM62.0049 19.8882H60.8887V15.6835H55.8329V19.8882H54.7168V10.6034H55.8329V14.6224H60.8887V10.6034H62.0049V19.8882ZM64.0358 15.2458C64.0358 13.9017 64.4779 12.7698 65.3621 11.8502C66.2463 10.9305 67.3669 10.4707 68.7239 10.4707C70.072 10.4707 71.1882 10.9173 72.0725 11.8104C72.9654 12.7035 73.4119 13.8486 73.4119 15.2458C73.4119 16.6076 72.9654 17.7483 72.0725 18.6679C71.1795 19.5699 70.0634 20.0209 68.7239 20.0209C67.3843 20.0209 66.2638 19.5743 65.3621 18.6812C64.4779 17.7881 64.0358 16.6429 64.0358 15.2458ZM65.2177 15.2458C65.2177 16.2892 65.5547 17.1735 66.2288 17.8986C66.9029 18.606 67.7345 18.9597 68.7239 18.9597C69.7569 18.9597 70.5973 18.606 71.2452 17.8986C71.9018 17.1912 72.23 16.3069 72.23 15.2458C72.23 14.1847 71.893 13.3004 71.2189 12.593C70.5448 11.8855 69.7132 11.5318 68.7239 11.5318C67.7171 11.5318 66.881 11.8811 66.2157 12.5797C65.5503 13.2783 65.2177 14.167 65.2177 15.2458ZM80.7718 19.8882H75.4534V10.6034H80.6405V11.6645H76.5696V14.6622H80.2465V15.7233H76.5696V18.8271H80.7718V19.8882ZM85.9038 19.8882H84.7744L88.7272 10.5503H89.6857L93.6384 19.8882H92.4435L91.2616 17.0762H87.0725L85.9038 19.8882ZM90.8282 16.0151L89.1736 12.0491L87.5189 16.0151H90.8282ZM96.3315 19.8882H95.2153V10.6034H100.337V11.6645H96.3315V19.8882ZM107.164 19.8882H101.845V10.6034H107.032V11.6645H102.962V14.6622H106.638V15.7233H102.962V18.8271H107.164V19.8882ZM116.687 19.8882H115.571V15.6835H110.515V19.8882H109.399V10.6034H110.515V14.6224H115.571V10.6034H116.687V19.8882ZM121.409 11.6645H118.192V10.6034H125.743V11.6645H122.526V19.8882H121.409V11.6645ZM133.209 18.1374L133.656 18.9863C133.35 19.3046 132.933 19.5566 132.408 19.7423C131.882 19.928 131.332 20.0209 130.753 20.0209C129.379 20.0209 128.254 19.5876 127.378 18.721C126.52 17.8367 126.091 16.6783 126.091 15.2458C126.091 13.8663 126.503 12.73 127.326 11.8369C128.148 10.9261 129.265 10.4707 130.674 10.4707C131.84 10.4707 132.772 10.7714 133.472 11.3727L132.96 12.2216C132.346 11.7617 131.59 11.5318 130.688 11.5318C129.69 11.5318 128.871 11.8767 128.232 12.5664C127.593 13.2473 127.274 14.1405 127.274 15.2458C127.274 16.3511 127.602 17.2487 128.259 17.9384C128.932 18.6193 129.799 18.9597 130.859 18.9597C131.752 18.9597 132.535 18.6856 133.209 18.1374ZM137.401 11.6645H134.184V10.6034H141.735V11.6645H138.518V19.8882H137.401V11.6645ZM143.242 19.8749V10.6166C144.459 10.5812 145.299 10.5636 145.763 10.5636C146.76 10.5636 147.5 10.7669 147.982 11.1737C148.472 11.5716 148.717 12.1331 148.717 12.8582C148.717 13.3977 148.578 13.8486 148.297 14.2112C148.017 14.5737 147.632 14.839 147.142 15.007V15.0336C147.737 15.1308 148.201 15.3696 148.534 15.7498C148.875 16.1301 149.046 16.6253 149.046 17.2354C149.046 18.1197 148.748 18.7917 148.153 19.2516C147.558 19.7025 146.743 19.928 145.711 19.928C144.703 19.928 143.881 19.9103 143.242 19.8749ZM145.842 15.657H144.357V18.8138C144.717 18.8492 145.19 18.8669 145.776 18.8669C146.468 18.8669 146.997 18.7254 147.365 18.4424C147.741 18.1506 147.929 17.7262 147.929 17.1691C147.929 16.6827 147.746 16.3113 147.379 16.0549C147.019 15.7896 146.507 15.657 145.842 15.657ZM145.737 11.6247C145.474 11.6247 145.014 11.6379 144.357 11.6645V14.6622H145.828C146.345 14.6622 146.769 14.5251 147.103 14.251C147.435 13.968 147.602 13.5878 147.602 13.1103C147.602 12.1199 146.98 11.6247 145.737 11.6247ZM150.624 15.2458C150.624 13.9017 151.066 12.7698 151.95 11.8502C152.835 10.9305 153.956 10.4707 155.312 10.4707C156.66 10.4707 157.776 10.9173 158.661 11.8104C159.554 12.7035 160 13.8486 160 15.2458C160 16.6076 159.554 17.7483 158.661 18.6679C157.768 19.5699 156.651 20.0209 155.312 20.0209C153.972 20.0209 152.852 19.5743 151.95 18.6812C151.066 17.7881 150.624 16.6429 150.624 15.2458ZM151.806 15.2458C151.806 16.2892 152.143 17.1735 152.817 17.8986C153.492 18.606 154.323 18.9597 155.312 18.9597C156.345 18.9597 157.186 18.606 157.834 17.8986C158.49 17.1912 158.819 16.3069 158.819 15.2458C158.819 14.1847 158.481 13.3004 157.808 12.593C157.133 11.8855 156.301 11.5318 155.312 11.5318C154.306 11.5318 153.469 11.8811 152.804 12.5797C152.138 13.2783 151.806 14.167 151.806 15.2458Z" fill="#1C4859"/>
</g>
<defs>
<clipPath id="clip0_143_2371">
<rect width="160" height="94" fill="white" transform="translate(0 0.241211)"/>
</clipPath>
</defs>
</svg>
