<svg width="60" height="60" viewBox="0 0 60 60" fill="none" xmlns="http://www.w3.org/2000/svg">
<path d="M10 45C11.3261 45 12.5979 45.5268 13.5355 46.4645C14.4732 47.4021 15 48.6739 15 50C15 51.3261 14.4732 52.5979 13.5355 53.5355C12.5979 54.4732 11.3261 55 10 55C8.67392 55 7.40215 54.4732 6.46447 53.5355C5.52678 52.5979 5 51.3261 5 50C5 48.6739 5.52678 47.4021 6.46447 46.4645C7.40215 45.5268 8.67392 45 10 45ZM10 48.75C9.66848 48.75 9.35054 48.8817 9.11612 49.1161C8.8817 49.3505 8.75 49.6685 8.75 50C8.75 50.3315 8.8817 50.6495 9.11612 50.8839C9.35054 51.1183 9.66848 51.25 10 51.25C10.3315 51.25 10.6495 51.1183 10.8839 50.8839C11.1183 50.6495 11.25 50.3315 11.25 50C11.25 49.6685 11.1183 49.3505 10.8839 49.1161C10.6495 48.8817 10.3315 48.75 10 48.75ZM23.75 37.5C25.4076 37.5 26.9973 38.1585 28.1694 39.3306C29.3415 40.5027 30 42.0924 30 43.75C30 45.4076 29.3415 46.9973 28.1694 48.1694C26.9973 49.3415 25.4076 50 23.75 50C22.0924 50 20.5027 49.3415 19.3306 48.1694C18.1585 46.9973 17.5 45.4076 17.5 43.75C17.5 42.0924 18.1585 40.5027 19.3306 39.3306C20.5027 38.1585 22.0924 37.5 23.75 37.5ZM23.75 41.25C23.087 41.25 22.4511 41.5134 21.9822 41.9822C21.5134 42.4511 21.25 43.087 21.25 43.75C21.25 44.413 21.5134 45.0489 21.9822 45.5178C22.4511 45.9866 23.087 46.25 23.75 46.25C24.413 46.25 25.0489 45.9866 25.5178 45.5178C25.9866 45.0489 26.25 44.413 26.25 43.75C26.25 43.087 25.9866 42.4511 25.5178 41.9822C25.0489 41.5134 24.413 41.25 23.75 41.25ZM29.5575 5C32.7375 5.00063 35.8157 6.12089 38.2522 8.16429C40.6888 10.2077 42.328 13.0437 42.8825 16.175H43.0875C45.5839 16.175 47.978 17.1667 49.7431 18.9319C51.5083 20.697 52.5 23.0911 52.5 25.5875C52.5 28.0838 51.5083 30.478 49.7431 32.2431C47.978 34.0083 45.5839 35 43.0875 35H16.03C13.5337 35 11.1395 34.0083 9.37436 32.2431C7.60917 30.478 6.6175 28.0838 6.6175 25.5875C6.6175 23.0911 7.60917 20.697 9.37436 18.9319C11.1395 17.1667 13.5337 16.175 16.03 16.175H16.2325C16.787 13.0437 18.4262 10.2077 20.8628 8.16429C23.2993 6.12089 26.3775 5.00063 29.5575 5ZM29.5725 8.745C27.0544 8.74433 24.6323 9.71125 22.807 11.4459C20.9816 13.1805 19.8926 15.5501 19.765 18.065C19.7432 18.5092 19.5514 18.9279 19.2294 19.2346C18.9073 19.5413 18.4797 19.7124 18.035 19.7125H16.285C15.5096 19.6845 14.7365 19.8131 14.0119 20.0906C13.2873 20.368 12.6261 20.7886 12.0676 21.3273C11.5092 21.866 11.065 22.5116 10.7616 23.2258C10.4583 23.9399 10.3019 24.7078 10.3019 25.4837C10.3019 26.2596 10.4583 27.0276 10.7616 27.7417C11.065 28.4559 11.5092 29.1015 12.0676 29.6402C12.6261 30.1789 13.2873 30.5995 14.0119 30.8769C14.7365 31.1544 15.5096 31.283 16.285 31.255H42.86C43.6354 31.283 44.4085 31.1544 45.1331 30.8769C45.8577 30.5995 46.5189 30.1789 47.0774 29.6402C47.6358 29.1015 48.08 28.4559 48.3834 27.7417C48.6867 27.0276 48.8431 26.2596 48.8431 25.4837C48.8431 24.7078 48.6867 23.9399 48.3834 23.2258C48.08 22.5116 47.6358 21.866 47.0774 21.3273C46.5189 20.7886 45.8577 20.368 45.1331 20.0906C44.4085 19.8131 43.6354 19.6845 42.86 19.7125H41.11C40.6653 19.7124 40.2377 19.5413 39.9156 19.2346C39.5936 18.9279 39.4018 18.5092 39.38 18.065C39.2524 15.5501 38.1634 13.1805 36.338 11.4459C34.5127 9.71125 32.0906 8.74433 29.5725 8.745Z" fill="#82A816"/>
</svg>
