<svg width="77" height="77" viewBox="0 0 77 77" fill="none" xmlns="http://www.w3.org/2000/svg">
<path d="M38.5 7L77 35.875L72.8 41.475L66.5 36.75V70H10.5V36.75L4.2 41.475L0 35.875L38.5 7ZM22.225 38.675C22.225 41.7667 23.8875 45.0625 27.2125 48.5625C30.5375 52.0625 34.3 55.7083 38.5 59.5C42.7 55.7083 46.4625 52.0625 49.7875 48.5625C53.1125 45.0625 54.775 41.7667 54.775 38.675C54.775 36.1083 53.9 33.9792 52.15 32.2875C50.4 30.5958 48.3 29.75 45.85 29.75C44.3333 29.75 42.9473 30.0568 41.692 30.6705C40.4367 31.2842 39.3727 32.0857 38.5 33.075C37.625 32.0833 36.5318 31.2818 35.2205 30.6705C33.9092 30.0592 32.5523 29.7523 31.15 29.75C28.7 29.75 26.6 30.5958 24.85 32.2875C23.1 33.9792 22.225 36.1083 22.225 38.675ZM59.5 63V31.5L38.5 15.75L17.5 31.5V63H59.5Z" fill="#82A816"/>
</svg>
