<svg width="38" height="38" viewBox="0 0 38 38" fill="none" xmlns="http://www.w3.org/2000/svg">
<path d="M11.0833 14.25L18.9999 19.7917L26.9166 14.25" stroke="#82A816" stroke-width="2" stroke-linecap="round" stroke-linejoin="round"/>
<path d="M3.16663 26.9165V11.0832C3.16663 10.2433 3.50026 9.43786 4.09412 8.844C4.68799 8.25013 5.49344 7.9165 6.33329 7.9165H31.6666C32.5065 7.9165 33.3119 8.25013 33.9058 8.844C34.4997 9.43786 34.8333 10.2433 34.8333 11.0832V26.9165C34.8333 27.7564 34.4997 28.5618 33.9058 29.1557C33.3119 29.7495 32.5065 30.0832 31.6666 30.0832H6.33329C5.49344 30.0832 4.68799 29.7495 4.09412 29.1557C3.50026 28.5618 3.16663 27.7564 3.16663 26.9165Z" stroke="#82A816" stroke-width="2"/>
</svg>
