<svg width="60" height="60" viewBox="0 0 60 60" fill="none" xmlns="http://www.w3.org/2000/svg">
<path d="M38.975 35.925C39.24 37.035 39.3733 38.185 39.375 39.375C39.375 43.3533 37.7946 47.1686 34.9816 49.9816C32.1686 52.7947 28.3532 54.375 24.375 54.375V42.375M38.975 35.925C43.7497 32.447 47.6339 27.8887 50.3104 22.6227C52.9869 17.3567 54.3797 11.5322 54.375 5.62501C48.4683 5.62074 42.6443 7.01372 37.3787 9.69017C32.1131 12.3666 27.5553 16.2506 24.0775 21.025M38.975 35.925C34.6308 39.105 29.6514 41.3055 24.375 42.375M24.375 42.375C24.1167 42.4283 23.8575 42.4783 23.5975 42.525C21.3281 40.7281 19.2745 38.6744 17.4775 36.405L17.625 35.625M24.0775 21.025C21.8746 20.504 19.5824 20.4883 17.3727 20.9791C15.1629 21.4699 13.0929 22.4545 11.3177 23.859C9.54251 25.2636 8.10824 27.0517 7.12237 29.0894C6.1365 31.127 5.62459 33.3614 5.625 35.625H17.625M24.0775 21.025C20.8978 25.3685 18.6948 30.3495 17.625 35.625M12.0275 41.6C10.3823 42.8224 9.10321 44.4718 8.32889 46.3695C7.55457 48.2672 7.3146 50.3406 7.635 52.365C8.20333 52.455 8.78333 52.5 9.375 52.5C11.1283 52.5004 12.8574 52.091 14.4243 51.3045C15.9913 50.518 17.3527 49.3761 18.4 47.97M41.25 22.5C41.25 23.4946 40.8549 24.4484 40.1516 25.1517C39.4484 25.8549 38.4946 26.25 37.5 26.25C36.5054 26.25 35.5516 25.8549 34.8483 25.1517C34.1451 24.4484 33.75 23.4946 33.75 22.5C33.75 21.5054 34.1451 20.5516 34.8483 19.8484C35.5516 19.1451 36.5054 18.75 37.5 18.75C38.4946 18.75 39.4484 19.1451 40.1516 19.8484C40.8549 20.5516 41.25 21.5054 41.25 22.5Z" stroke="#82A816" stroke-width="4" stroke-linecap="round" stroke-linejoin="round"/>
</svg>
