<svg width="77" height="77" viewBox="0 0 77 77" fill="none" xmlns="http://www.w3.org/2000/svg">
<path d="M38.3396 67.5354L36.8959 38.4999L25.6667 35.2916H6.41672C5.50769 35.2916 4.74625 34.9836 4.13239 34.3676C3.51852 33.7516 3.21052 32.9902 3.20839 32.0833C3.20625 31.1764 3.51425 30.4149 4.13239 29.7989C4.75052 29.1829 5.51197 28.8749 6.41672 28.8749H22.4584L42.5105 14.5176C43.2056 14.0364 43.9542 13.8492 44.7563 13.9562C45.5584 14.0631 46.2535 14.4374 46.8417 15.0791C47.4299 15.8277 47.6705 16.6426 47.5636 17.5239C47.4566 18.4051 47.0289 19.1409 46.2803 19.7312L35.773 27.2708H44.9167L67.8563 14.0364C68.4445 13.6621 69.1001 13.5551 69.823 13.7156C70.546 13.876 71.2005 14.3038 71.7865 14.9989C72.3747 15.6406 72.6153 16.3763 72.5084 17.2062C72.4014 18.0361 72.0004 18.7174 71.3053 19.2499L46.5209 38.4999L45.0771 67.5354C45.0237 68.3909 44.6761 69.1128 44.0344 69.701C43.3928 70.2892 42.5639 70.5833 41.548 70.5833C40.6924 70.5833 39.9577 70.2892 39.3438 69.701C38.73 69.1128 38.3952 68.3909 38.3396 67.5354ZM19.2501 25.6666C17.4855 25.6666 15.9754 25.0388 14.7199 23.7833C13.4644 22.5278 12.8355 21.0167 12.8334 19.2499C12.8312 17.4832 13.4601 15.9732 14.7199 14.7198C15.9797 13.4664 17.4897 12.8376 19.2501 12.8333C21.0104 12.829 22.5215 13.4578 23.7834 14.7198C25.0454 15.9817 25.6731 17.4918 25.6667 19.2499C25.6603 21.0081 25.0325 22.5192 23.7834 23.7833C22.5343 25.0474 21.0232 25.6752 19.2501 25.6666Z" fill="#82A816"/>
</svg>
