<svg width="40" height="40" viewBox="0 0 40 40" fill="none" xmlns="http://www.w3.org/2000/svg">
<path d="M19.2 1C8.6016 1 0 9.6016 0 20.2C0 30.7984 8.6016 39.4 19.2 39.4C29.7984 39.4 38.4 30.7984 38.4 20.2C38.4 9.6016 29.7984 1 19.2 1ZM28.1088 14.056C27.8208 17.0896 26.5728 24.4624 25.9392 27.8608C25.6704 29.3008 25.1328 29.7808 24.6336 29.8384C23.52 29.9344 22.6752 29.1088 21.6 28.3984C19.9104 27.2848 18.9504 26.5936 17.3184 25.5184C15.4176 24.2704 16.6464 23.5792 17.7408 22.4656C18.0288 22.1776 22.944 17.704 23.04 17.3008C23.0533 17.2397 23.0516 17.1763 23.0348 17.1161C23.0181 17.0559 22.9869 17.0006 22.944 16.9552C22.8288 16.8592 22.6752 16.8976 22.5408 16.9168C22.368 16.9552 19.68 18.7408 14.4384 22.2736C13.6704 22.792 12.9792 23.0608 12.3648 23.0416C11.6736 23.0224 10.368 22.6576 9.3888 22.3312C8.1792 21.9472 7.2384 21.736 7.3152 21.064C7.3536 20.7184 7.8336 20.3728 8.736 20.008C14.3424 17.5696 18.0672 15.9568 19.9296 15.1888C25.2672 12.9616 26.3616 12.5776 27.0912 12.5776C27.2448 12.5776 27.6096 12.616 27.84 12.808C28.032 12.9616 28.0896 13.1728 28.1088 13.3264C28.0896 13.4416 28.128 13.7872 28.1088 14.056Z" fill="#36440F"/>
</svg>
