<svg width="308" height="135" viewBox="0 0 308 135" fill="none" xmlns="http://www.w3.org/2000/svg">
<path d="M285.165 67.4998L307.513 0.258789L241.518 19.1968L244.809 5.87243L187.81 25.3771L189.658 13.3437L154 26.557L118.342 13.3437L120.19 25.3771L63.1912 5.87243L66.4821 19.1968L0.487549 0.258789L22.835 67.4998L0.487549 134.741L66.4821 115.797L63.1912 129.127L120.19 109.623L118.342 121.65L154 108.443L189.658 121.65L187.81 109.623L244.809 129.127L241.518 115.791L307.513 134.735L285.165 67.4998Z" fill="#EF3124"/>
<path d="M268.01 78.2365H260.81L252.568 69.1355V78.2365H246.993V56.6173H252.568V65.1809L260.268 56.6173H267.274L257.866 66.9099L268.004 78.2365H268.01ZM237.167 64.6843H229.467V56.6173H223.892V78.2365H229.467V69.7138H237.167V78.2365H242.742V56.6173H237.167V64.6843ZM75.4069 68.3294C75.2715 72.36 74.7475 73.1661 72.4633 73.1661V78.2365H73.3169C79.0098 78.2365 80.3815 75.3158 80.5934 68.8318L80.8289 61.6526H86.1685V78.2424H91.7436V56.6231H75.8013L75.4128 68.3352L75.4069 68.3294ZM113.909 70.6309C113.909 74.3169 111.742 78.2307 105.667 78.2307H95.9941V56.6114H101.569V63.1772H105.596C110.9 63.1772 113.915 65.8643 113.915 70.6251L113.909 70.6309ZM108.257 70.6309C108.257 68.8259 107.097 67.9789 105.16 67.9789H101.563V73.4699H105.16C107.133 73.4699 108.257 72.5878 108.257 70.6309ZM142.738 67.4064C142.738 73.7035 138.44 78.2365 132.059 78.733V86.876H126.484V78.733C120.096 78.1956 115.804 73.7035 115.804 67.4064C115.804 61.1094 120.102 56.6523 126.484 56.1149V48.0888H132.059V56.1149C138.446 56.6114 142.744 61.1035 142.744 67.4064H142.738ZM126.489 61.3021C123.393 61.7227 121.456 64.0301 121.456 67.4064C121.456 70.7828 123.393 73.0902 126.489 73.5108V61.3021ZM137.092 67.4064C137.092 64.0242 135.155 61.7227 132.064 61.3021V73.5108C135.161 73.0902 137.092 70.7828 137.092 67.4064ZM165.032 73.2421V78.2307H163.095C160.964 78.2307 159.34 77.4246 158.604 75.9642C157.779 77.1734 155.89 78.7681 152.487 78.7681C147.848 78.7681 144.633 75.6955 144.633 71.2034C144.633 66.7113 147.577 64.328 152.528 64.328H158.062C158.062 61.7169 156.667 60.718 154.5 60.718C151.869 60.718 151.015 62.1024 150.821 62.9085H145.169C145.44 59.2226 148.578 55.6885 154.494 55.6885C160.411 55.6885 163.625 59.0298 163.625 64.328V71.5831C163.625 72.7747 164.014 73.2362 165.021 73.2362L165.032 73.2421ZM158.068 68.75H153.617C152.11 68.75 150.368 69.0946 150.368 71.2092C150.368 73.3238 151.957 74.0891 153.965 74.0891C156.29 74.0891 158.068 72.6696 158.068 70.1753V68.75ZM198.041 68.8668C198.041 74.9361 194.209 78.2365 187.515 78.2365H175.441V48.0946H195.722V53.5856H181.287V59.6899H187.515C194.209 59.6899 198.041 63.148 198.041 68.8668ZM192.084 68.8668C192.084 66.3725 190.341 64.953 187.244 64.953H181.287V72.7864H187.244C190.341 72.7864 192.084 71.4429 192.084 68.8668ZM220.76 73.2421V78.2307H218.823C216.692 78.2307 215.067 77.4246 214.337 75.9642C213.513 77.1734 211.623 78.7681 208.22 78.7681C203.581 78.7681 200.367 75.6955 200.367 71.2034C200.367 66.7113 203.31 64.328 208.261 64.328H213.795C213.795 61.7169 212.4 60.718 210.234 60.718C207.602 60.718 206.748 62.1024 206.56 62.9085H200.908C201.179 59.2167 204.317 55.6885 210.24 55.6885C216.162 55.6885 219.37 59.0298 219.37 64.328V71.5831C219.37 72.7747 219.759 73.2362 220.766 73.2362L220.76 73.2421ZM213.795 68.75H209.345C207.838 68.75 206.095 69.0946 206.095 71.2092C206.095 73.3238 207.679 74.0891 209.692 74.0891C212.017 74.0891 213.795 72.6696 213.795 70.1753V68.75ZM49.0561 78.2365H42.9394L52.1586 52.2303C53.0535 49.7068 54.0955 47.7324 57.4512 47.7324C60.8068 47.7324 61.7841 49.7185 62.6377 52.2303L71.4213 78.2365H64.9219L62.9438 72.0504H51.1814L49.0561 78.2365ZM52.9652 66.8281H61.2484L57.2981 54.5027H57.145L52.9652 66.8281ZM42.2859 92.7292H72.0748V86.5898H42.2859V92.7292Z" fill="white"/>
</svg>
