<svg width="283" height="124" viewBox="0 0 283 124" fill="none" xmlns="http://www.w3.org/2000/svg">
<path d="M161.915 63.5093H175.882V65.8598H170.264V85.6539H167.513V65.8598H161.915V63.5093Z" fill="black"/>
<path d="M44.2409 63.5093H46.9894V73.1036L56.7944 63.5093H60.5955L49.8549 73.8771L61.8719 85.7032H58.0123L47.8471 75.5597L46.9894 76.314V85.7032H44.2409V63.5093Z" fill="black"/>
<path d="M73.8257 63.5093C77.0898 63.5093 79.7948 64.6877 81.9406 67.0448C83.8913 69.1946 84.8666 71.7394 84.8666 74.6793C84.8666 77.632 83.8327 80.2157 81.765 82.4302C79.7102 84.6319 77.0638 85.7327 73.8257 85.7327C70.5744 85.7327 67.915 84.6319 65.8473 82.4302C63.7925 80.2157 62.7651 77.632 62.7651 74.6793C62.7651 71.7524 63.7405 69.214 65.6912 67.0642C67.837 64.6942 70.5485 63.5093 73.8257 63.5093ZM73.8257 66.1706C71.5628 66.1706 69.6187 67.006 67.993 68.6766C66.3675 70.3472 65.5547 72.3675 65.5547 74.7375C65.5547 76.2658 65.9253 77.6903 66.6665 79.0113C67.4078 80.3323 68.4091 81.3553 69.6706 82.0806C70.9321 82.7929 72.3171 83.149 73.8257 83.149C75.3342 83.149 76.7192 82.7929 77.9806 82.0806C79.2421 81.3553 80.2434 80.3323 80.9847 79.0113C81.726 77.6903 82.0966 76.2658 82.0966 74.7375C82.0966 72.3675 81.2773 70.3472 79.6387 68.6766C78.0132 67.006 76.0754 66.1706 73.8257 66.1706Z" fill="black"/>
<path fill-rule="evenodd" clip-rule="evenodd" d="M108.585 67.0531C106.439 64.696 103.735 63.5176 100.47 63.5176C97.193 63.5176 94.4815 64.7025 92.3358 67.0725C90.3851 69.2223 89.4097 71.7607 89.4097 74.6876C89.4097 77.6403 90.4371 80.224 92.4919 82.4385C94.5595 84.6402 97.219 85.741 100.47 85.741C103.708 85.741 106.355 84.6402 108.41 82.4385C109.088 81.7128 109.654 80.9474 110.109 80.1423L107.739 78.8179C107.703 78.8854 107.667 78.9526 107.63 79.0196C106.888 80.3406 105.886 81.3637 104.625 82.0889C103.364 82.8012 101.979 83.1573 100.47 83.1573C98.9616 83.1573 97.5767 82.8012 96.3152 82.0889C95.0537 81.3637 94.0524 80.3406 93.3111 79.0196C92.5699 77.6986 92.1992 76.2741 92.1992 74.7458C92.1992 72.3758 93.012 70.3555 94.6376 68.6849C96.2632 67.0143 98.2074 66.1789 100.47 66.1789C102.72 66.1789 104.658 67.0143 106.283 68.6849C106.832 69.2446 107.289 69.8435 107.654 70.4816L110.058 69.0612C109.652 68.3574 109.162 67.6881 108.585 67.0531Z" fill="black"/>
<path fill-rule="evenodd" clip-rule="evenodd" d="M156.922 67.0448C154.777 64.6877 152.071 63.5093 148.807 63.5093C145.53 63.5093 142.819 64.6942 140.673 67.0642C138.722 69.214 137.747 71.7524 137.747 74.6793C137.747 77.632 138.774 80.2157 140.829 82.4302C142.897 84.6319 145.556 85.7327 148.807 85.7327C152.045 85.7327 154.692 84.6319 156.747 82.4302C157.424 81.7045 157.991 80.9391 158.446 80.134L156.076 78.8095C156.041 78.8771 156.004 78.9443 155.966 79.0113C155.224 80.3323 154.223 81.3554 152.962 82.0806C151.701 82.7929 150.315 83.149 148.807 83.149C147.299 83.149 145.913 82.7929 144.652 82.0806C143.391 81.3554 142.39 80.3323 141.648 79.0113C140.907 77.6903 140.536 76.2658 140.536 74.7375C140.536 72.3675 141.349 70.3472 142.975 68.6766C144.6 67.006 146.544 66.1706 148.807 66.1706C151.057 66.1706 152.995 67.006 154.62 68.6766C155.169 69.2363 155.626 69.8352 155.991 70.4733L158.395 69.0529C157.989 68.3491 157.498 67.6797 156.922 67.0448Z" fill="black"/>
<path d="M117.342 63.5093H114.668V85.7032H117.342V63.5093Z" fill="black"/>
<path d="M133.19 63.5093H130.516V85.7032H133.19V63.5093Z" fill="black"/>
<path d="M132.709 65.1345L130.517 63.5093L115.163 84.0452L117.355 85.6704L132.709 65.1345Z" fill="black"/>
<path d="M161.915 56.0843V58.8066H175.884V56.0843H161.915Z" fill="black"/>
<path d="M161.915 50.0872V52.8096H175.884V50.0872H161.915Z" fill="black"/>
<path d="M211.96 63.5132H214.891L206.704 85.5552L203.813 85.5553L211.96 63.5132Z" fill="black"/>
<path d="M214.894 63.5132L211.963 63.5133L219.216 85.5552H222.108L214.894 63.5132Z" fill="black"/>
<path d="M226.482 63.5093H229.413L222.137 85.5814H219.246L226.482 63.5093Z" fill="black"/>
<path d="M229.416 63.5132H226.485L234.718 85.6019H237.609L229.416 63.5132Z" fill="black"/>
<path d="M253.184 63.4766C256.431 63.4766 259.123 64.6491 261.258 66.9945C263.199 69.1335 264.17 71.6656 264.17 74.5906C264.17 77.5286 263.14 80.0994 261.083 82.3029C259.038 84.4935 256.406 85.5888 253.184 85.5888C249.949 85.5888 247.302 84.4935 245.245 82.3029C243.2 80.0994 242.179 77.5286 242.179 74.5906C242.179 71.6784 243.149 69.1528 245.09 67.0138C247.225 64.6556 249.923 63.4766 253.184 63.4766ZM253.184 66.1246C250.932 66.1246 248.997 66.9557 247.38 68.618C245.763 70.2803 244.954 72.2905 244.954 74.6487C244.954 76.1692 245.322 77.5867 246.061 78.901C246.798 80.2154 247.794 81.2334 249.049 81.955C250.305 82.6637 251.682 83.0181 253.184 83.0181C254.685 83.0181 256.062 82.6637 257.318 81.955C258.573 81.2334 259.569 80.2154 260.307 78.901C261.045 77.5867 261.413 76.1692 261.413 74.6487C261.413 72.2905 260.598 70.2803 258.968 68.618C257.35 66.9557 255.422 66.1246 253.184 66.1246Z" fill="black"/>
<path d="M264.167 63.5093H261.394V85.7032H264.167V63.5093Z" fill="black"/>
<path d="M116.521 56.5233V58.9688H131.389V56.5233H116.521Z" fill="black"/>
<path fill-rule="evenodd" clip-rule="evenodd" d="M133.242 58.9673L123.955 45.9438L114.668 58.9673H133.242ZM130.48 58.967L123.955 49.8164L117.429 58.967H130.48Z" fill="black"/>
<path fill-rule="evenodd" clip-rule="evenodd" d="M20.5243 67.0438C22.67 64.6868 25.375 63.5083 28.6392 63.5083C31.9163 63.5083 34.6278 64.6932 36.7736 67.0633C38.7243 69.213 39.6997 71.7514 39.6997 74.6783C39.6997 77.631 38.6723 80.2147 36.6175 82.4293C34.5498 84.6309 31.8904 85.7317 28.6392 85.7317C25.401 85.7317 22.7545 84.6309 20.6998 82.4293C20.0222 81.7035 19.4556 80.9381 19 80.1331L21.3702 78.8086C21.4059 78.8761 21.4425 78.9433 21.4801 79.0103C22.2214 80.3313 23.2227 81.3543 24.4842 82.0796C25.7456 82.7919 27.1306 83.1481 28.6392 83.1481C30.1477 83.1481 31.5327 82.7919 32.7941 82.0796C34.0556 81.3543 35.057 80.3313 35.7983 79.0103C36.5395 77.6893 36.9101 76.2647 36.9101 74.7366C36.9101 72.3665 36.0974 70.3462 34.4718 68.6756C32.8462 67.005 30.9019 66.1696 28.6392 66.1696C26.3894 66.1696 24.4517 67.005 22.8261 68.6756C22.2772 69.2352 21.8202 69.8342 21.4551 70.4723L19.0511 69.0519C19.4571 68.3481 19.9481 67.6787 20.5243 67.0438Z" fill="black"/>
<path d="M37.4916 73.4346H29.6997V75.8015H37.4916V73.4346Z" fill="black"/>
<path fill-rule="evenodd" clip-rule="evenodd" d="M189.913 63.5093C193.178 63.5093 195.882 64.6878 198.028 67.0448C199.966 69.1801 200.941 71.7052 200.954 74.6198H198.184C198.157 72.3006 197.338 70.3196 195.726 68.6766C194.101 67.006 192.163 66.1707 189.913 66.1707C187.65 66.1707 185.707 67.006 184.081 68.6766C182.455 70.3473 181.642 72.3676 181.642 74.7375C181.642 76.2658 182.013 77.6903 182.754 79.0113C183.496 80.3323 184.497 81.3554 185.758 82.0807C187.02 82.7929 188.405 83.149 189.913 83.149C191.422 83.149 192.807 82.7929 194.069 82.0807C195.329 81.3554 196.331 80.3323 197.073 79.0113C197.138 78.8952 197.2 78.7784 197.259 78.6608L199.633 79.9887C199.164 80.8471 198.571 81.6609 197.853 82.4303C195.798 84.6319 193.151 85.7327 189.913 85.7327C186.662 85.7327 184.003 84.6319 181.935 82.4303C179.88 80.2157 178.853 77.6321 178.853 74.6793C178.853 71.7524 179.828 69.2141 181.779 67.0642C183.925 64.6943 186.636 63.5093 189.913 63.5093Z" fill="black"/>
<path d="M200.578 72.2534H179.414V74.6203H200.578V72.2534Z" fill="black"/>
<path d="M214.882 58.7907H211.948L220.683 46.564L229.423 58.795H226.486L220.683 50.7317L214.882 58.7907Z" fill="black"/>
<path d="M46.9876 58.9541H44.2409L52.4188 48.8159L60.6007 58.9577H57.852L52.4188 52.2718L46.9876 58.9541Z" fill="black"/>
<path d="M46.9876 49.8794H44.2409L52.4188 39.7412L60.6007 49.883H57.852L52.4188 43.197L46.9876 49.8794Z" fill="black"/>
</svg>
