<svg width="119" height="105" viewBox="0 0 119 105" fill="none" xmlns="http://www.w3.org/2000/svg">
<rect width="119" height="104" transform="translate(0 0.241211)" fill="white"/>
<path d="M30.1987 61.5987H29.447V61.3345H31.2567V61.5987H30.505V63.5182H30.2034V61.5987H30.1987Z" fill="#555151"/>
<path d="M33.1964 61.2974C33.8275 61.2974 34.3193 61.7842 34.3193 62.4147C34.3193 63.0453 33.8275 63.5599 33.1964 63.5599C32.5653 63.5599 32.0735 63.0592 32.0735 62.4147C32.0735 61.7703 32.5653 61.2974 33.1964 61.2974ZM33.1964 63.2771C33.6419 63.2771 34.0038 62.9016 34.0038 62.4147C34.0038 61.9279 33.6465 61.5802 33.1964 61.5802C32.7463 61.5802 32.389 61.9418 32.389 62.4147C32.389 62.8877 32.7509 63.2771 33.1964 63.2771Z" fill="#555151"/>
<path d="M35.4329 61.3345H36.2356C36.6347 61.3345 36.9223 61.6034 36.9223 62.0207C36.9223 62.4379 36.6393 62.7161 36.2356 62.7161H35.7391V63.5229H35.4329V61.3345ZM36.1846 62.4472C36.4444 62.4472 36.6115 62.2849 36.6115 62.0207C36.6115 61.7564 36.449 61.6034 36.1892 61.6034H35.7391V62.4472H36.1846Z" fill="#555151"/>
<path d="M37.9755 61.3342H39.1819V61.5985H38.2817V63.518H37.9755V61.3296V61.3342Z" fill="#555151"/>
<path d="M41.1216 61.2974C41.7526 61.2974 42.2445 61.7842 42.2445 62.4147C42.2445 63.0453 41.7526 63.5599 41.1216 63.5599C40.4905 63.5599 39.994 63.0592 39.994 62.4147C39.994 61.7703 40.4859 61.2974 41.1216 61.2974ZM41.1216 63.2771C41.567 63.2771 41.9243 62.9016 41.9243 62.4147C41.9243 61.9279 41.567 61.5802 41.1216 61.5802C40.6761 61.5802 40.3142 61.9418 40.3142 62.4147C40.3142 62.8877 40.6715 63.2771 41.1216 63.2771Z" fill="#555151"/>
<path d="M43.358 61.3345H44.1237C44.4949 61.3345 44.7594 61.5385 44.7594 61.8908C44.7594 62.1041 44.6526 62.2757 44.4856 62.3638C44.7176 62.4379 44.8475 62.6559 44.8475 62.9016C44.8475 63.3142 44.5273 63.5229 44.1422 63.5229H43.358V61.3345ZM44.1237 62.2525C44.3232 62.2525 44.4438 62.1134 44.4438 61.9233C44.4438 61.7332 44.3278 61.6034 44.119 61.6034H43.6643V62.2571H44.1237V62.2525ZM44.1608 63.2539C44.3974 63.2539 44.5366 63.1056 44.5366 62.8784C44.5366 62.6512 44.3881 62.5075 44.1608 62.5075H43.6689V63.2539H44.1608Z" fill="#555151"/>
<path d="M46.9636 61.2974C47.5947 61.2974 48.0865 61.7842 48.0865 62.4147C48.0865 63.0453 47.5947 63.5599 46.9636 63.5599C46.3326 63.5599 45.8361 63.0592 45.8361 62.4147C45.8361 61.7703 46.3279 61.2974 46.9636 61.2974ZM46.9636 63.2771C47.4091 63.2771 47.771 62.9016 47.771 62.4147C47.771 61.9279 47.4091 61.5802 46.9636 61.5802C46.5182 61.5802 46.1562 61.9418 46.1562 62.4147C46.1562 62.8877 46.5135 63.2771 46.9636 63.2771Z" fill="#555151"/>
<path d="M49.1676 62.5029H50.0724V62.7672H49.1676V62.5029Z" fill="#555151"/>
<path d="M51.2463 61.3345H52.0491C52.4481 61.3345 52.7358 61.6034 52.7358 62.0207C52.7358 62.4379 52.4481 62.7161 52.0491 62.7161H51.5526V63.5229H51.2463V61.3345ZM52.0027 62.4472C52.2625 62.4472 52.4296 62.2849 52.4296 62.0207C52.4296 61.7564 52.2625 61.6034 52.0073 61.6034H51.5572V62.4472H52.0027Z" fill="#555151"/>
<path d="M54.2299 61.3345H54.5547L55.3389 63.5229H55.0233L54.8052 62.8923H53.9793L53.7612 63.5229H53.4503L54.2345 61.3345H54.2299ZM54.7217 62.6373L54.4804 61.9465C54.4433 61.8306 54.3923 61.6358 54.3923 61.6358H54.3876C54.3876 61.6358 54.3412 61.8352 54.3041 61.9465L54.0582 62.6373H54.7217Z" fill="#555151"/>
<path d="M56.3923 63.0499C56.5083 63.1751 56.7031 63.2771 56.9073 63.2771C57.1718 63.2771 57.362 63.1287 57.362 62.883C57.362 62.6558 57.1904 62.5214 56.9537 62.5214H56.6846V62.2664H56.9027C57.1208 62.2664 57.2971 62.1226 57.2971 61.914C57.2971 61.7239 57.1811 61.5663 56.912 61.5663C56.7588 61.5663 56.5825 61.6173 56.4247 61.7517L56.2948 61.5245C56.5268 61.3345 56.7728 61.2974 56.9584 61.2974C57.3342 61.2974 57.6173 61.5153 57.6173 61.8815C57.6173 62.1458 57.4548 62.2988 57.3017 62.373C57.5291 62.4426 57.6869 62.6326 57.6869 62.9016C57.6869 63.3096 57.3574 63.5599 56.9444 63.5599C56.6799 63.5599 56.4062 63.4533 56.2345 63.2632L56.4062 63.0546L56.3923 63.0499Z" fill="#555151"/>
<path d="M58.8004 61.3345H59.566C59.9372 61.3345 60.2017 61.5385 60.2017 61.8908C60.2017 62.1041 60.095 62.2757 59.928 62.3638C60.16 62.4379 60.2899 62.6559 60.2899 62.9016C60.2899 63.3142 59.9697 63.5229 59.5846 63.5229H58.8004V61.3345ZM59.566 62.2525C59.7656 62.2525 59.8862 62.1134 59.8862 61.9233C59.8862 61.7332 59.7702 61.6034 59.5614 61.6034H59.1067V62.2571H59.566V62.2525ZM59.6032 63.2539C59.8398 63.2539 59.979 63.1056 59.979 62.8784C59.979 62.6512 59.8305 62.5075 59.6032 62.5075H59.1113V63.2539H59.6032Z" fill="#555151"/>
<path d="M61.7051 61.8491V61.3345H62.9811V63.5229H62.6749V61.6034H61.9974V61.8584C61.9974 62.9062 61.8118 63.5136 61.2086 63.5507V63.2679C61.5752 63.2169 61.7051 62.7439 61.7051 61.8538V61.8491Z" fill="#555151"/>
<path d="M64.2296 61.3342H65.501V61.5985H64.5359V62.2847H65.32V62.549H64.5359V63.2537H65.5567V63.518H64.2296V61.3296V61.3342Z" fill="#555151"/>
<path d="M66.6284 61.3345H66.9347V62.2525H67.2595L67.8163 61.3345H68.155L67.5147 62.373L68.1921 63.5229H67.8395L67.2548 62.5214H66.93V63.5229H66.6238V61.3345H66.6284Z" fill="#555151"/>
<path d="M69.8765 61.3345H70.2013L70.9855 63.5229H70.6699L70.4518 62.8923H69.6259L69.4078 63.5229H69.0969L69.8811 61.3345H69.8765ZM70.3683 62.6373L70.127 61.9465C70.0899 61.8306 70.0389 61.6358 70.0389 61.6358H70.0342C70.0342 61.6358 69.9878 61.8352 69.9507 61.9465L69.7048 62.6373H70.3683Z" fill="#555151"/>
<path d="M72.3267 61.5987H71.575V61.3345H73.3846V61.5987H72.6329V63.5182H72.3313V61.5987H72.3267Z" fill="#555151"/>
<path d="M74.4146 61.3342H75.6859V61.5985H74.7208V62.2847H75.505V62.549H74.7208V63.2537H75.7416V63.518H74.4146V61.3296V61.3342Z" fill="#555151"/>
<path d="M77.1756 61.8491V61.3345H78.4516V63.5229H78.1454V61.6034H77.4679V61.8584C77.4679 62.9062 77.2823 63.5136 76.6791 63.5507V63.2679C77.0456 63.2169 77.1756 62.7439 77.1756 61.8538V61.8491Z" fill="#555151"/>
<path d="M79.6998 61.3345H80.0061V62.1598H80.4701C80.8506 62.1598 81.1336 62.4101 81.1336 62.8459C81.1336 63.2539 80.8599 63.5229 80.4794 63.5229H79.6952V61.3345H79.6998ZM80.433 63.2539C80.6789 63.2539 80.8274 63.1009 80.8274 62.8459C80.8274 62.5909 80.6743 62.424 80.433 62.424H80.0107V63.2539H80.4376H80.433Z" fill="#555151"/>
<path d="M82.196 61.3345H82.5023V62.2942H83.6391V61.3345H83.9454V63.5229H83.6391V62.5631H82.5023V63.5229H82.196V61.3345Z" fill="#555151"/>
<path d="M85.1935 61.3345H85.4997V62.1598H85.9498C86.3349 62.1598 86.6134 62.4101 86.6134 62.8459C86.6134 63.2539 86.3442 63.5229 85.9637 63.5229H85.1935V61.3345ZM85.9127 63.2539C86.1586 63.2539 86.3025 63.1009 86.3025 62.8459C86.3025 62.5909 86.1493 62.424 85.9081 62.424H85.4997V63.2539H85.9173H85.9127ZM86.9242 61.3345H87.2259V63.5229H86.9242V61.3345Z" fill="#555151"/>
<path d="M88.4789 61.3344H88.7851V62.7532C88.7851 62.8784 88.7666 63.0731 88.7666 63.0731H88.7712C88.7712 63.0731 88.8779 62.8691 88.9568 62.7532L89.9266 61.3391H90.2282V63.5275H89.922V62.1087C89.922 61.9835 89.9405 61.7888 89.9405 61.7888H89.9359C89.9359 61.7888 89.8292 61.9882 89.7549 62.1087L88.7805 63.5275H88.4789V61.3391V61.3344ZM88.9058 60.8337V60.7873H89.1471V60.8291C89.1471 60.9635 89.2538 61.0331 89.3651 61.0331C89.4765 61.0331 89.5832 60.9635 89.5832 60.8244V60.7827H89.8199V60.8291C89.8199 61.0841 89.6018 61.2232 89.3605 61.2232C89.1192 61.2232 88.9011 61.0794 88.9011 60.8291L88.9058 60.8337Z" fill="#555151"/>
<path d="M49.0608 66.6338H49.367V67.5518H49.6918L50.2487 66.6338H50.5874L49.9471 67.6723L50.6245 68.8222H50.2719L49.6872 67.8207H49.3624V68.8222H49.0562V66.6338H49.0608Z" fill="#555151"/>
<path d="M52.5594 66.5967C53.1905 66.5967 53.6824 67.0835 53.6824 67.7141C53.6824 68.3446 53.1905 68.8592 52.5594 68.8592C51.9284 68.8592 51.4319 68.3585 51.4319 67.7141C51.4319 67.0696 51.9237 66.5967 52.5594 66.5967ZM52.5594 68.5764C53.0049 68.5764 53.3622 68.2009 53.3622 67.7141C53.3622 67.2272 53.0049 66.8795 52.5594 66.8795C52.114 66.8795 51.7521 67.2411 51.7521 67.7141C51.7521 68.187 52.1093 68.5764 52.5594 68.5764Z" fill="#555151"/>
<path d="M54.8796 66.6338H55.1997L55.7055 67.8161C55.7566 67.9366 55.8122 68.1128 55.8122 68.1128H55.8169C55.8169 68.1128 55.8772 67.9366 55.9236 67.8161L56.4294 66.6338H56.7495L56.9259 68.8222H56.6196L56.5129 67.4452C56.499 67.3107 56.5083 67.1253 56.5083 67.1253H56.5036C56.5036 67.1253 56.434 67.3246 56.3876 67.4452L55.9514 68.4281H55.6777L55.2415 67.4452C55.1905 67.3293 55.1255 67.116 55.1255 67.116H55.1209C55.1209 67.116 55.1255 67.3107 55.1162 67.4452L55.0095 68.8222H54.7032L54.8842 66.6338H54.8796Z" fill="#555151"/>
<path d="M58.0999 66.6338H59.8213V68.8222H59.5151V66.9027H58.4061V68.8222H58.0999V66.6338Z" fill="#555151"/>
<path d="M61.3432 67.1533V66.6387H62.6192V68.8271H62.313V66.9076H61.6355V67.1626C61.6355 68.2104 61.4499 68.8178 60.8467 68.8549V68.5721C61.2133 68.5211 61.3432 68.0481 61.3432 67.158V67.1533Z" fill="#555151"/>
<path d="M63.8721 66.6338H65.1435V66.8981H64.1783V67.5843H64.9625V67.8485H64.1783V68.5533H65.1991V68.8222H63.8721V66.6338Z" fill="#555151"/>
<path d="M66.2709 66.6338H66.5771V67.5518H66.9019L67.4587 66.6338H67.7975L67.1571 67.6723L67.8346 68.8222H67.482L66.8973 67.8207H66.5725V68.8222H66.2662V66.6338H66.2709Z" fill="#555151"/>
<path d="M69.756 66.5967C70.039 66.5967 70.3453 66.6848 70.5541 66.8841L70.3963 67.1113C70.2339 66.9676 69.9926 66.8749 69.7653 66.8749C69.2548 66.8749 68.9579 67.2504 68.9579 67.7094C68.9579 68.1684 69.2641 68.5718 69.7745 68.5718C70.0205 68.5718 70.271 68.4652 70.4473 68.289L70.6098 68.5069C70.4241 68.6923 70.1504 68.8546 69.7653 68.8546C69.0878 68.8546 68.6423 68.3539 68.6423 67.7141C68.6423 67.0742 69.1064 66.5967 69.756 66.5967Z" fill="#555151"/>
<path d="M57.2461 29.6027C56.9816 29.204 56.6661 28.8284 56.332 28.4807C55.9701 28.1051 55.5756 27.7528 55.1673 27.4236C54.1882 26.6447 53.2417 25.8147 52.2858 25.008C50.9587 23.8906 49.627 22.7825 48.3046 21.6652C47.1028 20.6498 45.8917 19.6483 44.6899 18.633C44.096 18.1322 42.8756 17.1076 42.8617 17.0983C42.1842 16.5327 41.5903 16.987 41.3026 17.293C41.2376 17.3626 41.1216 17.5156 41.1263 17.5202C39.4744 19.8987 38.2633 22.611 37.6183 25.5319C37.6183 25.5412 37.6137 25.5505 37.609 25.5551C37.6044 25.5783 37.5998 25.5968 37.5951 25.62C37.5951 25.6293 37.5905 25.6432 37.5858 25.6664C37.2332 27.2613 38.1148 27.9707 38.6484 28.5085C43.8315 33.7847 53.4829 41.4812 56.6104 43.6742C56.6104 43.6742 57.3018 44.1471 57.5663 44.2306C57.9003 44.3326 58.2808 44.2445 58.2808 43.3033C58.2808 42.2601 58.3412 32.8018 58.188 31.8792C58.0488 31.0632 57.6962 30.275 57.2414 29.5888L57.2461 29.6027Z" fill="url(#paint0_linear_143_2309)"/>
<path d="M80.767 28.7356C77.3147 31.6519 69.7699 38.1475 65.6494 41.5877C62.6983 44.0543 62.1183 45.7141 61.5151 48.2595C61.3666 48.8901 61.4084 50.8513 61.4084 50.8513C61.4084 53.2993 63.2505 52.8913 63.2505 52.8913C74.2059 51.2732 82.5117 41.8427 82.5117 30.4464C82.5117 30.1683 82.6787 27.1268 80.767 28.7356Z" fill="url(#paint1_linear_143_2309)"/>
<path d="M62.5173 39.9279C62.6473 39.8676 62.7865 39.7842 62.9442 39.6776C65.0137 38.282 71.1294 34.4848 80.3076 25.6756C81.4723 24.702 81.2124 23.0653 80.9619 22.2215C80.1916 19.6065 78.6279 17.4645 76.8461 15.4616C76.8461 15.4616 76.6094 15.1973 76.6048 15.1927C76.3357 14.9562 75.8624 14.4926 74.9019 15.1231L74.7395 15.2483L74.4054 15.5311L64.6982 23.6727C61.4084 26.4313 61.3016 30.5253 61.3016 30.9472V38.078C61.3016 39.6126 61.6496 40.3545 62.522 39.9326L62.5173 39.9279Z" fill="url(#paint2_linear_143_2309)"/>
<path d="M61.8167 22.0036C62.1044 21.883 62.4524 21.6651 62.6195 21.5492C64.3502 20.3484 69.1481 16.7969 72.619 13.0831C72.721 12.9765 72.8092 12.8652 72.8556 12.7771C73.2036 12.1234 72.2756 11.4789 72.2756 11.4789C69.3662 9.55943 65.9372 8.32151 62.2993 7.90423C62.2993 7.90423 61.1949 7.83005 61.1949 8.76197L61.3017 21.4333C61.3017 22.0082 61.5708 22.1056 61.8214 22.0036H61.8167Z" fill="url(#paint3_linear_143_2309)"/>
<path d="M44.9126 14.8681C47.2234 17.5387 54.0861 22.7917 56.5965 24.7159C56.8285 24.8967 57.2693 25.263 57.5662 25.3789C57.9096 25.5133 58.2808 25.467 58.2808 24.637L58.3875 9.21171C58.3875 7.71878 56.6104 7.99233 56.6104 7.99233C52.3183 8.60897 48.3324 10.4033 45.1632 13.0877C45.1632 13.0877 44.3279 13.8018 44.6806 14.5575C44.6806 14.5575 44.8152 14.7708 44.908 14.8728L44.9126 14.8681Z" fill="url(#paint4_linear_143_2309)"/>
<path d="M58.021 50.2765C57.4549 48.1252 55.4689 46.5581 55.4689 46.5581L38.0823 31.9766C37.0615 31.1374 37.1636 32.4078 37.1636 32.4078C38.0684 42.9834 46.1237 51.482 56.5408 52.9239C56.6754 52.9425 57.956 53.2067 58.1416 52.2934C58.3133 51.3429 58.021 50.2765 58.021 50.2765Z" fill="url(#paint5_linear_143_2309)"/>
<path d="M56.0673 80.659C55.5662 80.0795 54.9862 79.639 54.3319 79.3377C53.6777 79.0363 53.0002 78.8833 52.2949 78.8833C51.5896 78.8833 50.889 79.0363 50.244 79.3377C49.599 79.639 49.0236 80.0795 48.5225 80.659C48.0214 81.2386 47.6223 81.9433 47.3253 82.7779C47.0284 83.6124 46.8845 84.5629 46.8845 85.6293C46.8845 86.6957 47.033 87.6461 47.3253 88.4807C47.6177 89.3152 48.0167 90.02 48.5225 90.5995C49.0236 91.1791 49.599 91.6195 50.244 91.9209C50.889 92.2223 51.5711 92.3753 52.2949 92.3753C53.0188 92.3753 53.6777 92.2223 54.3319 91.9209C54.9862 91.6149 55.5662 91.1791 56.0673 90.5995C56.5685 90.02 56.9675 89.3152 57.2645 88.4807C57.5615 87.6461 57.7053 86.6957 57.7053 85.6293C57.7053 84.5629 57.5568 83.6171 57.2645 82.7779C56.9722 81.9433 56.5731 81.234 56.0673 80.659ZM54.8702 88.4158C54.6892 89.2225 54.4619 89.8716 54.1881 90.3584C53.9097 90.8452 53.6081 91.193 53.2786 91.4062C52.9492 91.6149 52.6197 91.7215 52.2949 91.7215C51.9701 91.7215 51.6453 91.6149 51.3158 91.4062C50.9818 91.193 50.6801 90.8452 50.4064 90.3584C50.1326 89.8716 49.9052 89.2271 49.7243 88.4158C49.548 87.609 49.4552 86.8394 49.4552 85.6293C49.4552 84.4192 49.548 83.6542 49.7243 82.8428C49.9052 82.0361 50.1326 81.387 50.4064 80.9001C50.6848 80.4133 50.9864 80.0656 51.3158 79.8523C51.6453 79.6437 51.9747 79.537 52.2949 79.537C52.6151 79.537 52.9445 79.6437 53.2786 79.8523C53.6081 80.0656 53.9143 80.4133 54.1881 80.9001C54.4619 81.387 54.6892 82.0361 54.8702 82.8428C55.0512 83.6495 55.1393 84.4192 55.1393 85.6293C55.1393 86.8394 55.0465 87.609 54.8702 88.4158Z" fill="#555151"/>
<path d="M20.1204 91.1417C20.1018 90.9377 20.0647 90.1078 20.0647 89.76C20.0647 89.505 20.0647 89.25 20.0786 89.0043C20.0786 88.9579 20.0786 88.9162 20.0833 88.8698V88.8606C20.0833 88.6519 19.9534 88.6705 19.7492 88.6705C19.2109 88.6705 18.7887 89.199 18.6959 89.3659C18.3664 89.9501 18.2736 90.4416 18.2736 91.1741H13.0071V83.4684H15.6705L16.334 85.6754C16.3572 85.7588 16.4315 85.8237 16.5243 85.8237H16.9048V80.3064C16.9048 80.3064 16.5382 80.3064 16.5336 80.3064C16.4361 80.3064 16.3619 80.3759 16.3387 80.4687L15.6659 82.6756H13.0071V76.0733H17.9999C17.9999 76.8059 18.0927 77.2927 18.4221 77.8815C18.5149 78.0485 18.9418 78.577 19.4754 78.577C19.6796 78.577 19.8095 78.5956 19.8095 78.3869C19.8095 78.3869 19.8095 78.3823 19.8095 78.3776C19.8095 78.3313 19.8049 78.2896 19.8049 78.2432C19.7956 77.9975 19.7909 77.7425 19.7909 77.4875C19.7909 77.1397 19.8281 76.3098 19.8466 76.1058C19.8652 75.8879 19.893 75.4521 19.9302 75.2852H8.76599V75.6514C8.76599 75.7442 8.83095 75.8183 8.91448 75.8415L10.4179 76.2171V91.049L8.91448 91.4245C8.82631 91.4477 8.76599 91.5219 8.76599 91.6146V91.9809H20.2039C20.1668 91.814 20.139 91.3781 20.1204 91.1602V91.1417Z" fill="#555151"/>
<path d="M44.597 82.7823C44.3139 81.9477 43.9474 81.2383 43.4926 80.6634C43.0425 80.0839 42.5275 79.6434 41.9475 79.3421C41.3674 79.0407 40.7874 78.8877 40.1981 78.8877C40.0032 78.8877 39.8223 78.9016 39.646 78.9294C39.646 78.9294 39.632 78.9294 39.6274 78.9294C39.6135 78.9294 39.5949 78.9341 39.581 78.9387C38.0266 79.2076 37.2563 80.5661 37.2563 80.5661V79.3003H33.173V79.6666C33.173 79.764 33.2426 79.8382 33.3354 79.8613L34.8156 80.2323V95.6576L33.3215 96.0378C33.2379 96.061 33.173 96.1351 33.173 96.2279V96.5941H38.9314V96.2279C38.9314 96.1305 38.8618 96.0563 38.769 96.0378L37.2609 95.6576V91.2994C37.3862 91.4431 37.5254 91.5775 37.6925 91.7027C37.9291 91.8836 38.2307 92.0458 38.588 92.1849C38.9453 92.324 39.3908 92.3889 39.9244 92.3889C40.5879 92.3889 41.219 92.2359 41.8268 91.9346C42.4347 91.6285 42.9776 91.1927 43.4555 90.6132C43.9288 90.0336 44.3139 89.3289 44.597 88.4943C44.88 87.6598 45.0239 86.7093 45.0239 85.6429C45.0239 84.5766 44.88 83.6307 44.597 82.7916V82.7823ZM42.2816 88.5778C42.198 88.958 42.1006 89.3011 41.9892 89.6117C41.9799 89.6395 41.9707 89.6627 41.9614 89.6905C41.9103 89.8296 41.8593 89.9641 41.799 90.0846C41.7897 90.1078 41.7758 90.131 41.7665 90.1542C41.734 90.2191 41.7015 90.2794 41.6691 90.3396C41.1262 91.2762 40.3513 91.5358 39.8455 91.6007C39.7434 91.61 39.632 91.61 39.5068 91.6146C39.0938 91.6146 38.7179 91.5034 38.4024 91.3318C38.3003 91.2762 38.2075 91.2159 38.1147 91.1556C37.428 90.59 37.2749 89.8899 37.247 89.3243V82.6756C37.247 82.0822 37.4326 81.4563 37.7528 80.9602C38.2261 80.2323 38.9871 79.611 39.9012 79.662C40.6482 79.7037 41.2793 80.1534 41.6412 80.7979C41.9057 81.2754 42.0959 81.8967 42.2723 82.6895C42.4486 83.4777 42.5321 84.4607 42.5321 85.6337C42.5321 86.8067 42.444 87.7896 42.2723 88.5824L42.2816 88.5778Z" fill="#555151"/>
<path d="M72.0019 91.4062L70.5217 91.0353V76.208L72.0158 75.8325C72.1086 75.8093 72.1782 75.7351 72.1782 75.6378V75.2715H58.5363V75.6378C58.5363 75.7351 58.6059 75.8093 58.6987 75.8325L60.1881 76.208V91.0353L58.6847 91.4108C58.6012 91.434 58.5363 91.5082 58.5363 91.6009V91.9672H64.4153C64.4153 91.8884 64.4153 91.6056 64.4153 91.6009C64.4153 91.5036 64.3457 91.4294 64.2529 91.4108L62.7773 91.0399H62.7727V76.0689H67.9325V91.0353H67.9186L66.4338 91.4155C66.3502 91.4386 66.2853 91.5128 66.2853 91.6056V91.9672H72.1643C72.1643 91.9672 72.1643 91.6056 72.1643 91.6009C72.1643 91.5036 72.0947 91.4294 72.0019 91.4062Z" fill="#555151"/>
<path d="M84.3445 91.406L82.8643 91.0351H82.855V83.0141C82.855 82.9631 82.855 82.9168 82.855 82.8658V82.8426C82.8364 82.2584 82.7343 81.7298 82.5441 81.2569C81.6486 78.7208 79.0454 78.7533 77.7648 78.9387C77.556 78.9665 77.3611 79.0036 77.1708 79.05C77.0827 79.0685 77.0363 79.0825 77.0363 79.0825C76.9713 79.1056 76.9063 79.1242 76.8414 79.1427C76.3356 79.3189 75.9041 79.5461 75.5468 79.8289C75.1988 80.1071 74.9343 80.4177 74.7533 80.7608C74.7487 80.7701 74.744 80.7747 74.744 80.784C74.744 80.784 74.744 80.7887 74.7394 80.7933C74.7394 80.7933 74.7394 80.8026 74.7394 80.8072C74.2383 81.7345 74.4424 82.4809 74.5538 82.7591C74.5631 82.7823 74.5724 82.8009 74.5816 82.8194C74.6002 82.8565 74.6095 82.875 74.6095 82.875C74.809 83.283 75.2266 83.5659 75.7092 83.5659C76.382 83.5659 76.9295 83.0188 76.9295 82.3465C76.9295 82.3372 76.9295 82.3326 76.9295 82.3279C76.9295 82.3279 76.9295 82.2584 76.9295 82.2538C76.9295 82.2167 76.8553 81.5537 76.9527 80.8675C76.9527 80.8396 76.962 80.8118 76.9667 80.7886C77.0084 80.58 77.1569 80.0144 77.6441 79.6759C77.8112 79.5693 77.9968 79.4905 78.1963 79.4487C78.3077 79.4255 78.419 79.4116 78.535 79.4116C78.6371 79.4116 78.7392 79.4255 78.8366 79.4441C78.883 79.4534 78.9294 79.4673 78.9758 79.4765C79.0176 79.4905 79.064 79.4997 79.1058 79.5183C79.8575 79.8011 80.1127 80.5986 80.1962 81.0158C80.3076 81.6835 80.2844 82.3975 80.2844 82.8426V84.6786C79.2032 84.7018 78.252 84.8177 77.4446 85.0402C76.5444 85.2906 75.8066 85.6151 75.2266 86.0185C74.6466 86.4219 74.2151 86.8809 73.932 87.3955C73.6443 87.9102 73.5051 88.4248 73.5051 88.9395C73.5051 89.9085 73.7928 90.6967 74.3682 91.304C74.3682 91.304 74.5306 91.4663 74.5445 91.4756C75.2405 92.0876 76.3263 92.426 77.5745 92.3843C77.6163 92.3843 78.1313 92.3658 78.6093 92.2081C79.2589 91.9902 79.8064 91.6471 80.2844 91.1325V91.9763H84.5301C84.5301 91.9763 84.5301 91.6147 84.5301 91.61C84.5301 91.5127 84.4605 91.4385 84.3677 91.4199L84.3445 91.406ZM80.2612 88.4155C80.2612 88.4712 80.2612 88.5315 80.2612 88.601C80.2612 89.417 80.1359 89.876 80.0663 90.0707C79.7739 90.7708 79.2218 91.355 78.2102 91.355C77.1987 91.355 76.6697 90.8497 76.4238 90.1727C76.2892 89.7508 76.1361 88.9116 76.4516 87.6876C76.6419 87.1405 76.9388 86.6676 77.3564 86.2828C78.0525 85.6383 78.9062 85.2906 80.2658 85.235V88.4202L80.2612 88.4155Z" fill="#555151"/>
<path d="M32.6535 88.0079C32.6303 87.7158 32.5653 87.4469 32.4586 87.2011C32.3194 86.8905 32.1384 86.6123 31.9064 86.3759C31.6744 86.1348 31.4146 85.9308 31.1222 85.7546C30.8299 85.5784 30.5329 85.4393 30.2406 85.328C29.526 85.0545 28.8903 84.8783 28.0087 84.8041C28.4634 84.7438 28.8161 84.6558 29.1687 84.5445C29.5028 84.4425 31.3264 83.9278 31.5259 82.6065C31.5259 82.6065 31.5306 82.5833 31.5306 82.5694C31.5491 82.4488 31.5631 82.319 31.5631 82.1846C31.5631 82.0733 31.5538 81.9666 31.5399 81.86C31.5306 81.7905 31.5167 81.7255 31.5027 81.6606C31.4981 81.6375 31.4935 81.6189 31.4888 81.5957C30.6443 78.0118 22.0554 79.2914 22.0554 79.2914V79.6577C22.0554 79.7504 22.1157 79.8246 22.2039 79.8478L23.6841 80.2187L23.7119 80.228V91.0355H23.698L22.2085 91.4156C22.125 91.4388 22.0647 91.513 22.0647 91.6057V91.972C22.0647 91.972 29.2708 93.1079 31.7904 90.4837C32.8623 89.3895 32.6628 88.0125 32.6628 88.0125L32.6535 88.0079ZM26.1527 79.7319C26.1527 79.7319 26.6445 79.7597 26.8904 79.7875C28.3567 79.9498 29.3543 80.6035 29.3543 82.166C29.3543 83.7285 28.5098 84.2988 26.8765 84.4054C26.4496 84.4332 26.1527 84.4471 26.1527 84.4471V79.7273V79.7319ZM29.3126 90.5625C28.7326 91.1282 28.0134 91.3507 26.9368 91.4898L26.1527 91.5686V85.1611C26.1527 85.1611 26.6909 85.1426 26.8719 85.1519C27.953 85.2029 28.7326 85.4857 29.3126 86.0513C29.8926 86.6216 30.1803 87.2707 30.1803 88.2443C30.1803 89.218 29.8926 89.9876 29.3126 90.5579V90.5625Z" fill="#555151"/>
<path d="M110.069 91.4109L108.789 91.091L104.357 83.835L105.165 82.4255C105.281 82.2262 106.032 81.0578 107.485 80.9836C108 80.9511 108.408 80.5246 108.408 80.0053C108.408 79.5741 108.13 79.2079 107.74 79.078C107.735 79.078 107.731 79.078 107.726 79.078C107.717 79.078 107.708 79.0734 107.698 79.0688C107.304 78.9529 106.933 79.0641 106.696 79.1708C106.696 79.1708 106.691 79.1708 106.687 79.1708C106.65 79.1893 106.613 79.2079 106.575 79.231C106.566 79.2357 106.557 79.2403 106.548 79.2449C106.543 79.2496 106.534 79.2542 106.524 79.2589C106.459 79.2959 106.427 79.3238 106.427 79.3238C106.297 79.4165 106.167 79.5324 106.032 79.6854C105.8 79.9451 105.541 80.3067 105.244 80.775C104.951 81.2432 104.594 81.8552 104.172 82.6063L101.921 86.6076V80.2279L103.42 79.8523C103.504 79.8291 103.564 79.755 103.564 79.6622V79.3006H97.8102C97.8102 79.3006 97.8102 79.6622 97.8102 79.6669C97.8102 79.7642 97.8798 79.8384 97.9726 79.8616L99.4899 80.2418V91.0446L97.9633 91.4248C97.8798 91.448 97.8195 91.5222 97.8195 91.6149V91.9765H103.573C103.573 91.9765 103.573 91.6195 103.573 91.6149C103.573 91.5175 103.504 91.4433 103.411 91.4202L101.921 91.0493V88.0773L102.942 86.3016L105.875 91.1095L104.617 91.4248C104.534 91.448 104.469 91.5222 104.469 91.6149V91.9765H110.223C110.223 91.9765 110.223 91.6195 110.223 91.6149C110.223 91.5175 110.153 91.4433 110.06 91.4202L110.069 91.4109Z" fill="#555151"/>
<path d="M96.4366 82.7823C96.1535 81.9477 95.787 81.2383 95.3369 80.6634C94.8868 80.0839 94.3717 79.6434 93.7917 79.3421C93.2117 79.0407 92.6317 78.8877 92.0424 78.8877C91.8475 78.8877 91.6665 78.9016 91.4902 78.9294C91.4809 78.9294 91.4763 78.9294 91.4716 78.9294C91.4531 78.9294 91.4392 78.9341 91.4252 78.9387C89.8708 79.2076 89.1005 80.5661 89.1005 80.5661V79.3003H85.0172V79.6666C85.0172 79.764 85.0868 79.8382 85.1796 79.8613L86.6598 80.2323V95.6576L85.1657 96.0378C85.0822 96.061 85.0172 96.1351 85.0172 96.2279V96.5941H90.7756C90.7756 96.5941 90.7756 96.2325 90.7756 96.2279C90.7756 96.1305 90.706 96.0563 90.6132 96.0378L89.1052 95.6576V91.2994C89.2305 91.4431 89.3697 91.5775 89.5413 91.7027C89.778 91.8836 90.0796 92.0458 90.4369 92.1849C90.7942 92.324 91.2396 92.3889 91.7732 92.3889C92.4368 92.3889 93.0678 92.2359 93.6757 91.9346C94.2836 91.6285 94.8265 91.1927 95.3044 90.6132C95.7777 90.0336 96.1628 89.3289 96.4459 88.4943C96.7289 87.6598 96.8728 86.7093 96.8728 85.6429C96.8728 84.5766 96.7289 83.6307 96.4459 82.7916L96.4366 82.7823ZM94.1212 88.5778C94.0376 88.958 93.9402 89.3011 93.8288 89.6117C93.8195 89.6395 93.8103 89.6627 93.801 89.6905C93.7499 89.8296 93.6989 89.9641 93.6386 90.0846C93.6293 90.1078 93.6154 90.131 93.6061 90.1542C93.5736 90.2191 93.5411 90.2794 93.5087 90.3396C92.9658 91.2762 92.1909 91.5358 91.6851 91.6007C91.583 91.61 91.4716 91.61 91.3464 91.6146C90.9287 91.6146 90.5575 91.5034 90.242 91.3318C90.1399 91.2762 90.0471 91.2159 89.9543 91.1556C89.2676 90.59 89.1191 89.8899 89.0866 89.3243V82.6756C89.0866 82.0822 89.2722 81.4563 89.5924 80.9602C90.0657 80.2323 90.8267 79.611 91.7408 79.662C92.4925 79.7037 93.1189 80.1534 93.4808 80.7979C93.7453 81.2754 93.9355 81.8967 94.1119 82.6895C94.2882 83.4777 94.3764 84.4607 94.3764 85.6337C94.3764 86.8067 94.2882 87.7896 94.1119 88.5824L94.1212 88.5778Z" fill="#555151"/>
<defs>
<linearGradient id="paint0_linear_143_2309" x1="58.2948" y1="37.7489" x2="39.2039" y2="21.7892" gradientUnits="userSpaceOnUse">
<stop stop-color="#8BAE1F"/>
<stop offset="1" stop-color="#B4CE4A"/>
</linearGradient>
<linearGradient id="paint1_linear_143_2309" x1="63.3247" y1="51.3288" x2="83.2337" y2="31.7194" gradientUnits="userSpaceOnUse">
<stop stop-color="#8BAE1F"/>
<stop offset="1" stop-color="#B4CE4A"/>
</linearGradient>
<linearGradient id="paint2_linear_143_2309" x1="61.1021" y1="34.9716" x2="79.1903" y2="18.6926" gradientUnits="userSpaceOnUse">
<stop stop-color="#8BAE1F"/>
<stop offset="1" stop-color="#B4CE4A"/>
</linearGradient>
<linearGradient id="paint3_linear_143_2309" x1="61.9559" y1="21.9479" x2="67.4842" y2="9.6303" gradientUnits="userSpaceOnUse">
<stop stop-color="#8BAE1F"/>
<stop offset="1" stop-color="#B4CE4A"/>
</linearGradient>
<linearGradient id="paint4_linear_143_2309" x1="58.1323" y1="25.3371" x2="50.6622" y2="9.88392" gradientUnits="userSpaceOnUse">
<stop stop-color="#8BAE1F"/>
<stop offset="1" stop-color="#B4CE4A"/>
</linearGradient>
<linearGradient id="paint5_linear_143_2309" x1="56.9445" y1="53.5081" x2="35.7135" y2="33.3412" gradientUnits="userSpaceOnUse">
<stop stop-color="#8BAE1F"/>
<stop offset="1" stop-color="#B4CE4A"/>
</linearGradient>
</defs>
</svg>
