<svg width="180" height="105" viewBox="0 0 180 105" fill="none" xmlns="http://www.w3.org/2000/svg">
<path d="M13 15.2412H167.423V88.2412H13V15.2412Z" fill="#3C5485"/>
<path fill-rule="evenodd" clip-rule="evenodd" d="M43.443 68.9692H37.3596V34.5132H42.5183C48.918 42.7622 54.831 50.5489 56.5586 53.6149C52.4706 58.9196 48.042 64.0052 43.443 68.9692ZM44.2216 68.9692H43.7593C48.553 64.0052 53.225 58.9926 57.678 53.8582C55.196 50.0379 49.283 42.3729 43.1266 34.5132H43.516C50.086 42.9082 56.1693 50.9139 57.9456 54.0286C57.9456 54.0286 57.9456 54.0286 57.9456 54.0529C53.5656 59.0899 48.9423 64.0539 44.2216 68.9692ZM71.8156 34.5132V68.9692H45.2436C51.0106 64.8082 56.948 60.5986 63.1773 56.9972C62.9096 56.6809 62.6176 56.3646 62.35 56.0482C56.2423 59.9659 50.4266 64.5162 44.7813 68.9692H44.5136C50.2563 64.1999 56.1693 59.3089 62.423 55.0992C56.437 48.2859 50.4266 41.4239 44.4163 34.5132H71.8156Z" fill="white"/>
<path fill-rule="evenodd" clip-rule="evenodd" d="M141.798 40.4503V41.6913H141.336C140.727 41.6913 140.557 41.3749 140.557 41.0586C140.557 40.7423 140.727 40.4259 141.336 40.4259H141.798V40.4503ZM142.577 39.6959H141.36C139.949 39.6959 139.778 40.6449 139.778 41.0586C139.778 41.7886 140.265 42.2509 140.898 42.3239L139.73 43.8813H140.63L141.749 42.2509V43.8813H142.528V39.6959H142.577ZM135.593 42.0563L136.08 40.8396L136.566 42.0563H135.593ZM134.011 43.9056H134.863L135.301 42.8349H136.834L137.272 43.9056H138.124L136.372 39.7203H135.739L134.011 43.9056ZM129.461 43.9056H130.24V42.0806L131.554 43.9056H132.478L130.897 41.7643L132.478 39.6959H131.554L130.24 41.5209V39.6959H129.461V43.9056ZM127.563 40.9126C127.222 40.1096 126.492 39.6473 125.616 39.6473C124.132 39.6473 123.426 40.8883 123.426 41.8129C123.426 42.7863 124.132 44.0029 125.616 44.0029C126.541 44.0029 127.198 43.4919 127.539 42.7619H126.638C126.371 43.1026 126.006 43.2486 125.641 43.2486C124.838 43.2486 124.205 42.5916 124.205 41.8129C124.205 41.0829 124.789 40.4016 125.616 40.4016C126.103 40.4016 126.468 40.6449 126.663 40.9126H127.563ZM119.728 42.0806H120.36C120.725 42.0806 120.969 42.2753 120.969 42.6159C120.969 42.9566 120.725 43.1513 120.36 43.1513H119.728V42.0806ZM118.973 39.6959V43.8813H120.385C121.212 43.8813 121.772 43.3703 121.772 42.5916C121.772 41.9589 121.431 41.3019 120.385 41.3019H119.752V39.6959H118.973ZM115.494 39.6959H114.812L113.158 43.8813H114.009L115.153 40.7666L116.297 43.8813H117.148L115.494 39.6959ZM109.143 43.9056H111.381V43.1513H109.921V42.1779H111.333V41.4236H109.921V40.4503H111.406V39.6959H109.167V43.9056H109.143ZM105.274 43.9056H106.052V40.4746H107.366V39.7203H105.274V43.9056ZM100.018 43.9056H100.796V42.1536H102.329V43.9056H103.108V39.7203H102.329V41.3993H100.796V39.7203H100.018V43.9056ZM95.6621 42.0563L96.1488 40.8396L96.6354 42.0563H95.6621ZM94.0804 43.9056H94.9321L95.3701 42.8349H96.9031L97.3411 43.9056H98.1928L96.4408 39.7203H95.8081L94.0804 43.9056ZM88.8244 43.9056H89.7248L90.7224 42.4456L91.7201 43.9056H92.6204L91.1604 41.8129L92.6204 39.7203H91.7201L90.7224 41.1803L89.7248 39.7203H88.8244L90.2601 41.8129L88.8244 43.9056ZM85.3934 40.4503H85.8558C86.0504 40.4503 86.5128 40.4746 86.5128 41.0099C86.5128 41.5209 86.0504 41.5696 85.8558 41.5696H85.3934V40.4503ZM84.6148 43.9056H85.3934V42.3239H85.7828C86.9994 42.3239 87.2914 41.5453 87.2914 41.0343C87.2914 40.6449 87.1211 39.7203 85.7828 39.7203H84.6148V43.9056ZM80.2834 42.0563L80.7701 40.8396L81.2568 42.0563H80.2834ZM78.7018 43.9056H79.5534L79.9914 42.8349H81.5244L81.9624 43.9056H82.8141L81.0621 39.7203H80.4294L78.7018 43.9056Z" fill="white"/>
<path fill-rule="evenodd" clip-rule="evenodd" d="M141.993 48.3586V49.3076H141.652C141.19 49.3076 141.068 49.0642 141.068 48.8209C141.068 48.5776 141.19 48.3342 141.652 48.3342H141.993V48.3586ZM142.577 47.7746H141.652C140.582 47.7746 140.46 48.5046 140.46 48.8209C140.46 49.3806 140.825 49.7456 141.312 49.7942L140.436 50.9866H141.117L141.969 49.7456V50.9866H142.553V47.7746H142.577ZM137.443 49.5752L137.808 48.6506L138.173 49.5752H137.443ZM136.226 50.9866H136.883L137.224 50.1592H138.392L138.732 50.9866H139.389L138.051 47.7746H137.564L136.226 50.9866ZM132.698 50.9866H133.282V49.6482H134.45V50.9866H135.034V47.7746H134.45V49.0642H133.282V47.7746H132.698V50.9866ZM131.238 47.7746H130.654V49.1859H130.094C129.997 49.1859 129.826 49.1859 129.729 49.0886C129.607 48.9669 129.607 48.7966 129.607 48.7236V47.7746H129.023V48.7966C129.023 49.0399 129.048 49.3319 129.315 49.5509C129.534 49.7456 129.851 49.7456 130.094 49.7456H130.629V50.9622H131.213V47.7746H131.238ZM127.928 47.7746H127.271L126.541 49.4779L125.69 47.7746H124.96L126.201 50.1592L125.836 50.9622H126.493L127.928 47.7746ZM122.113 49.5752L122.478 48.6506L122.843 49.5752H122.113ZM120.896 50.9866H121.553L121.894 50.1592H123.062L123.402 50.9866H124.059L122.721 47.7746H122.234L120.896 50.9866ZM117.343 50.9866H117.927V49.6482H119.095V50.9866H119.679V47.7746H119.095V49.0642H117.952V47.7746H117.368V50.9866H117.343ZM111.211 48.3586V49.3076H110.871C110.408 49.3076 110.287 49.0642 110.287 48.8209C110.287 48.5776 110.408 48.3342 110.871 48.3342H111.211V48.3586ZM111.795 47.7746H110.871C109.8 47.7746 109.678 48.5046 109.678 48.8209C109.678 49.3806 110.043 49.7456 110.53 49.7942L109.654 50.9866H110.335L111.187 49.7456V50.9866H111.771V47.7746H111.795ZM106.661 49.5752L107.026 48.6506L107.391 49.5752H106.661ZM105.444 50.9866H106.101L106.442 50.1592H107.61L107.951 50.9866H108.608L107.269 47.7746H106.783L105.444 50.9866ZM101.916 50.9866H102.5V49.6482H103.668V50.9866H104.252V47.7746H103.668V49.0642H102.5V47.7746H101.916V50.9866ZM99.5312 50.9866H100.115V48.3586H100.699V47.7746H98.9229V48.3586H99.5069V50.9866H99.5312ZM97.9739 48.6992C97.7062 48.0909 97.1465 47.7259 96.4895 47.7259C95.3459 47.7259 94.8105 48.6749 94.8105 49.3806C94.8105 50.1106 95.3459 51.0596 96.4895 51.0596C97.1952 51.0596 97.7062 50.6702 97.9739 50.1106H97.2682C97.0735 50.3782 96.7815 50.4756 96.4895 50.4756C95.8812 50.4756 95.3945 49.9646 95.3945 49.3806C95.3945 48.8209 95.8325 48.2856 96.4895 48.2856C96.8789 48.2856 97.1465 48.4802 97.2925 48.6749H97.9739V48.6992ZM91.8419 49.5752L92.2069 48.6506L92.5719 49.5752H91.8419ZM90.6495 50.9866H91.3065L91.6472 50.1592H92.8152L93.1559 50.9866H93.8129L92.4745 47.7746H91.9879L90.6495 50.9866ZM88.4352 47.7746H87.9242L86.6589 50.9866H87.3159L88.1919 48.6019L89.0679 50.9866H89.7249L88.4352 47.7746ZM84.0552 49.5996H84.5662C84.9312 49.5996 85.0285 49.8672 85.0285 50.0132C85.0285 50.2079 84.8825 50.4269 84.5662 50.4269H84.0552V49.5996ZM83.4469 47.7746V50.9866H84.5419C85.1745 50.9866 85.6125 50.5972 85.6125 50.0132C85.6125 49.8429 85.5639 49.0156 84.5419 49.0156H84.0309V48.3586H85.3205V47.7746H83.4469ZM80.4782 50.4999C79.8699 50.4999 79.3832 50.0132 79.3832 49.4049C79.3832 48.7966 79.8455 48.3099 80.4782 48.3099C81.1109 48.3099 81.5732 48.7966 81.5732 49.4049C81.5732 49.9889 81.1109 50.4999 80.4782 50.4999ZM80.4782 47.7259C79.5292 47.7259 78.7992 48.4802 78.7992 49.4049C78.7992 50.3296 79.5292 51.0596 80.4782 51.0596C81.4272 51.0596 82.1572 50.3296 82.1572 49.4049C82.1572 48.4802 81.4272 47.7259 80.4782 47.7259Z" fill="white"/>
<path fill-rule="evenodd" clip-rule="evenodd" d="M140.533 56.8512L141.019 55.6345L141.506 56.8512H140.533ZM138.951 58.7005H139.803L140.241 57.6299H141.774L142.212 58.7005H143.063L141.311 54.5152H140.679L138.951 58.7005ZM132.722 58.7005H133.5V56.8512L134.814 58.6762H135.739L134.157 56.5349L135.739 54.4665H134.814L133.5 56.2915V54.4665H132.722V58.7005ZM126.736 58.7005H128.974V57.9462H127.49V56.9729H128.901V56.2185H127.49V55.2452H128.974V54.4909H126.736V58.7005ZM121.747 58.7005H122.526V55.2695H123.305V54.5152H120.969V55.2695H121.747V58.7005ZM115.518 58.0435C114.715 58.0435 114.082 57.3865 114.082 56.6079C114.082 55.8292 114.691 55.1965 115.518 55.1965C116.345 55.1965 116.954 55.8292 116.954 56.6079C116.954 57.3865 116.345 58.0435 115.518 58.0435ZM115.518 54.4179C114.277 54.4179 113.304 55.3912 113.304 56.6079C113.304 57.8245 114.277 58.7979 115.518 58.7979C116.759 58.7979 117.732 57.8245 117.732 56.6079C117.732 55.4155 116.759 54.4179 115.518 54.4179ZM106.271 54.4909V58.6762H107.05L108.924 55.7319V58.6762H109.702V54.4909H108.924L107.05 57.4352V54.4909H106.271ZM101.161 54.4909H100.48L98.8255 58.6762H99.6771L100.821 55.5615L101.964 58.6762H102.816L101.161 54.4909ZM93.4965 56.8755H94.1778C94.6645 56.8755 94.7861 57.2162 94.7861 57.4109C94.7861 57.6785 94.6158 57.9462 94.1778 57.9462H93.4965V56.8755ZM92.7178 54.4909V58.6762H94.1535C94.9808 58.6762 95.5405 58.1652 95.5405 57.3865C95.5405 57.1675 95.4918 56.0969 94.1535 56.0969H93.4965V55.2452H95.1755V54.4909H92.7178ZM85.4908 54.4909V58.6762H86.2695L88.1431 55.7319V58.6762H88.9218V54.4909H88.1431L86.2695 57.4352V54.4909H85.4908ZM79.8211 56.8755H80.5025C80.9891 56.8755 81.1108 57.2162 81.1108 57.4109C81.1108 57.6785 80.9405 57.9462 80.5025 57.9462H79.8211V56.8755ZM79.0425 54.4909V58.6762H80.4781C81.3055 58.6762 81.8651 58.1652 81.8651 57.3865C81.8651 57.1675 81.8165 56.0969 80.4781 56.0969H79.8211V55.2452H81.5001V54.4909H79.0425Z" fill="white"/>
<path fill-rule="evenodd" clip-rule="evenodd" d="M141.433 62.3744C141.823 62.3744 142.09 62.6664 142.09 63.0801C142.09 63.4938 141.823 63.7858 141.433 63.7858C141.044 63.7858 140.752 63.4938 140.752 63.1044C140.752 62.6908 141.044 62.3744 141.433 62.3744ZM142.601 61.9364H142.09V62.2528C141.92 61.9851 141.677 61.8634 141.336 61.8634C140.703 61.8634 140.192 62.3744 140.192 63.1044C140.192 63.8344 140.728 64.2968 141.312 64.2968C141.433 64.2968 141.823 64.2724 142.066 63.9074V64.2238H142.577V61.9364H142.601ZM137.856 63.2991H138.246C138.489 63.2991 138.513 63.4694 138.513 63.5424C138.513 63.6398 138.465 63.7858 138.246 63.7858H137.856V63.2991ZM137.856 62.3988H138.221C138.392 62.3988 138.44 62.5204 138.44 62.5934C138.44 62.7394 138.319 62.7881 138.221 62.7881H137.856V62.3988ZM137.321 61.9364V64.2238H138.294C138.805 64.2238 139.073 63.9074 139.073 63.5424C139.073 63.2991 138.903 63.0801 138.635 63.0071C138.83 62.9341 138.976 62.7394 138.976 62.5204C138.976 62.2284 138.781 61.9121 138.319 61.9121H137.321V61.9364ZM134.839 62.3744C135.253 62.3744 135.496 62.7151 135.496 63.0801C135.496 63.4451 135.228 63.7858 134.839 63.7858C134.425 63.7858 134.182 63.4694 134.182 63.0801C134.158 62.7151 134.425 62.3744 134.839 62.3744ZM134.839 61.8634C134.133 61.8634 133.622 62.4231 133.622 63.0801C133.622 63.7371 134.133 64.2968 134.839 64.2968C135.545 64.2968 136.056 63.7371 136.056 63.0801C136.056 62.4231 135.545 61.8634 134.839 61.8634ZM131.262 62.4474C131.651 62.4474 131.919 62.6908 131.919 63.1044C131.919 63.4938 131.651 63.7614 131.262 63.7614C130.873 63.7614 130.605 63.5181 130.605 63.1044C130.605 62.7151 130.897 62.4474 131.262 62.4474ZM132.357 61.1578L131.481 61.1821C131.189 61.1821 130.021 61.2308 130.021 62.8611C130.021 63.3478 130.118 64.2968 131.213 64.2968C131.943 64.2968 132.454 63.7858 132.454 63.0801C132.454 62.3988 131.992 61.9608 131.359 61.9608C130.97 61.9608 130.678 62.1068 130.483 62.3744C130.581 61.7418 131.165 61.6688 131.457 61.6444L132.357 61.6201V61.1578ZM127.661 62.3744C128.074 62.3744 128.318 62.7151 128.318 63.0801C128.318 63.4451 128.05 63.7858 127.661 63.7858C127.247 63.7858 126.979 63.4694 126.979 63.0801C126.979 62.7151 127.247 62.3744 127.661 62.3744ZM126.128 62.7638V61.9364H125.568V64.2238H126.128V63.2748H126.468C126.566 63.8344 127.004 64.2968 127.685 64.2968C128.391 64.2968 128.902 63.7614 128.902 63.0801C128.902 62.3988 128.391 61.8634 127.685 61.8634C127.077 61.8634 126.639 62.2284 126.493 62.7638H126.128ZM123.451 61.9364H122.964L122.04 64.2238H122.648L123.208 62.6664L123.767 64.2238H124.376L123.451 61.9364ZM119.752 62.3744C120.166 62.3744 120.409 62.7151 120.409 63.0801C120.409 63.4451 120.142 63.7858 119.752 63.7858C119.339 63.7858 119.095 63.4694 119.095 63.0801C119.071 62.7151 119.339 62.3744 119.752 62.3744ZM119.752 61.8634C119.047 61.8634 118.536 62.4231 118.536 63.0801C118.536 63.7371 119.047 64.2968 119.752 64.2968C120.458 64.2968 120.969 63.7371 120.969 63.0801C120.969 62.4231 120.458 61.8634 119.752 61.8634ZM116.175 62.3744C116.638 62.3744 116.832 62.7638 116.832 63.0801C116.832 63.4938 116.54 63.7858 116.151 63.7858C115.786 63.7858 115.494 63.5181 115.494 63.0801C115.494 62.6908 115.762 62.3744 116.175 62.3744ZM114.983 65.0024H115.543V63.9804C115.762 64.2481 116.054 64.2968 116.224 64.2968C116.954 64.2968 117.368 63.7128 117.368 63.0801C117.368 62.3501 116.832 61.8634 116.224 61.8634C116.054 61.8634 115.689 61.9121 115.494 62.2284V61.9364H114.983V65.0024ZM112.501 62.4474C112.89 62.4474 113.158 62.6908 113.158 63.1044C113.158 63.4938 112.89 63.7614 112.501 63.7614C112.112 63.7614 111.844 63.5181 111.844 63.1044C111.844 62.7151 112.136 62.4474 112.501 62.4474ZM113.62 61.1578L112.744 61.1821C112.452 61.1821 111.284 61.2308 111.284 62.8611C111.284 63.3478 111.382 64.2968 112.477 64.2968C113.207 64.2968 113.718 63.7858 113.718 63.0801C113.718 62.3988 113.255 61.9608 112.623 61.9608C112.233 61.9608 111.941 62.1068 111.747 62.3744C111.844 61.7418 112.428 61.6688 112.72 61.6444L113.62 61.6201V61.1578ZM108.9 62.3744C109.313 62.3744 109.557 62.7151 109.557 63.0801C109.557 63.4451 109.289 63.7858 108.9 63.7858C108.486 63.7858 108.243 63.4694 108.243 63.0801C108.243 62.7151 108.486 62.3744 108.9 62.3744ZM108.9 61.8634C108.194 61.8634 107.683 62.4231 107.683 63.0801C107.683 63.7371 108.194 64.2968 108.9 64.2968C109.605 64.2968 110.116 63.7371 110.116 63.0801C110.116 62.4231 109.605 61.8634 108.9 61.8634ZM104.203 63.6884L104.958 61.9608L105.712 63.6884H104.203ZM105.201 61.1578H104.714L103.571 63.6641H103.279V64.7834H103.838V64.1994H106.053V64.7834H106.612V63.6641H106.32L105.201 61.1578ZM100.48 64.2238H101.04V63.6641H100.48V64.2238ZM97.3655 62.8854L97.7062 61.9851L98.0469 62.8854H97.3655ZM96.2219 64.2238H96.8545L97.1709 63.4451H98.2902L98.6065 64.2238H99.2392L97.9739 61.1578H97.5115L96.2219 64.2238ZM93.4235 64.2238H93.9832V63.6641H93.4235V64.2238ZM89.6519 64.2238H90.2115V62.9341H91.3309V64.2238H91.8905V61.1578H91.3309V62.3744H90.2115V61.1578H89.6519V64.2238ZM86.6102 64.2238H87.1699V63.6641H86.6102V64.2238ZM82.3762 61.9364V64.2238H82.9359V62.5448L83.5442 64.2238H84.0065L84.6149 62.5448V64.2238H85.1745V61.9364H84.3715L83.7875 63.5668L83.2035 61.9364H82.3762ZM78.8722 61.9364V64.2238H79.4319L80.4539 62.7394V64.2238H81.0135V61.9364H80.4539L79.4319 63.4208V61.9364H78.8722Z" fill="white"/>
</svg>
