<svg width="93" height="105" viewBox="0 0 93 105" fill="none" xmlns="http://www.w3.org/2000/svg">
<g clip-path="url(#clip0_143_2238)">
<path d="M15.706 95.6727C15.706 95.2812 15.6222 95.0017 15.4545 94.834C15.3008 94.6661 15.1331 94.5752 14.9515 94.5614C14.77 94.5334 14.4765 94.5194 14.0714 94.5194H5.66771V100.285H1.95837V85.6081H14.4067C15.3846 85.6081 16.2718 85.8179 17.0682 86.2371C17.8645 86.6426 18.4862 87.1738 18.9333 87.8307C19.3944 88.4736 19.6249 89.1377 19.6249 89.8226C19.6249 90.3398 19.5062 90.8361 19.2686 91.3114C19.0451 91.7726 18.6539 92.2689 18.0951 92.8001C18.6539 93.3313 19.0451 93.8205 19.2686 94.2677C19.5062 94.7151 19.6249 95.1833 19.6249 95.6727V100.306H15.706V95.6727ZM13.9875 91.4162C15.1192 91.4162 15.685 90.9479 15.685 90.0112C15.685 89.536 15.5104 89.2006 15.1611 89.0048C14.8258 88.8091 14.4346 88.7114 13.9875 88.7114H5.66771V91.4162H13.9875ZM34.0944 100.621C31.9148 100.621 29.896 100.265 28.0379 99.5517C26.1798 98.8388 24.7057 97.8952 23.6161 96.7211C22.5401 95.5467 22.0023 94.3026 22.0023 92.9887C22.0023 91.6748 22.5401 90.4307 23.6161 89.2565C24.7057 88.0684 26.1798 87.1178 28.0379 86.4048C29.896 85.6919 31.9148 85.3356 34.0944 85.3356C36.274 85.3356 38.2928 85.6919 40.1509 86.4048C42.009 87.1178 43.476 88.0684 44.5518 89.2565C45.6416 90.4307 46.1865 91.6748 46.1865 92.9887C46.1865 94.3026 45.6416 95.5467 44.5518 96.7211C43.476 97.8952 42.009 98.8388 40.1509 99.5517C38.2928 100.265 36.274 100.621 34.0944 100.621ZM25.9213 92.9887C25.9213 93.8274 26.2845 94.5963 27.011 95.2952C27.7516 95.9802 28.7433 96.5254 29.9869 96.9306C31.2443 97.322 32.6133 97.5178 34.0944 97.5178C35.5752 97.5178 36.9373 97.322 38.181 96.9306C39.4384 96.5254 40.4303 95.9802 41.1569 95.2952C41.8974 94.5963 42.2675 93.8274 42.2675 92.9887C42.2675 92.122 41.8974 91.3462 41.1569 90.6613C40.4303 89.9624 39.4384 89.4172 38.181 89.0259C36.9373 88.6345 35.5752 88.4388 34.0944 88.4388C32.6133 88.4388 31.2443 88.6345 29.9869 89.0259C28.7433 89.4172 27.7516 89.9624 27.011 90.6613C26.2845 91.3462 25.9213 92.122 25.9213 92.9887ZM59.6866 100.6C57.507 100.6 55.5091 100.244 53.6928 99.5306C51.8907 98.8179 50.4654 97.8741 49.4177 96.7C48.3837 95.5258 47.8668 94.2817 47.8668 92.9678C47.8668 91.6397 48.3837 90.3887 49.4177 89.2146C50.4654 88.0404 51.8907 87.0969 53.6928 86.3839C55.5091 85.671 57.507 85.3145 59.6866 85.3145C61.6703 85.3145 63.5215 85.629 65.24 86.258C66.9584 86.8732 68.3626 87.691 69.4523 88.7114C70.5559 89.7178 71.2195 90.787 71.4432 91.9194H67.5453C67.3497 91.2485 66.8537 90.6473 66.0574 90.1161C65.2749 89.5709 64.3109 89.1517 63.1653 88.858C62.0337 88.5645 60.8739 88.4179 59.6866 88.4179C58.3731 88.4179 57.1088 88.6136 55.8932 89.0048C54.6778 89.3963 53.6928 89.9415 52.9385 90.6404C52.1839 91.3253 51.8067 92.1011 51.8067 92.9678C51.8067 93.6807 52.1908 94.3937 52.9594 95.1064C53.7277 95.8055 54.7199 96.3785 55.9352 96.8259C57.1646 97.2732 58.4151 97.4969 59.6866 97.4969C60.8601 97.4969 61.9986 97.3571 63.1024 97.0774C64.2062 96.784 65.1492 96.3785 65.9316 95.8613C66.7279 95.3301 67.2659 94.722 67.5453 94.0371H71.4432C71.2057 95.1695 70.535 96.2388 69.4314 97.2452C68.3417 98.2516 66.9375 99.0623 65.2191 99.6774C63.5146 100.293 61.6703 100.6 59.6866 100.6ZM73.9636 85.629H77.6729V90.3049L91.6302 85.629V89.2354L80.2506 93.0516L91.6302 96.784V100.306L77.6729 95.6936V100.306H73.9636V85.629Z" fill="#262626"/>
<path d="M30.1738 43.5886C29.1545 35.519 29.8913 26.8958 38.8707 21.3026C40.7893 20.1076 42.9588 19.279 45.1577 18.7785C46.2188 18.5371 49.3137 18.3225 48.5109 17.6935C45.1577 15.0661 35.7965 18.375 30.561 25.6611C29.6743 27.0564 29.1594 28.6959 28.7067 30.2742L28.0916 32.6853C27.2671 36.0827 27.4138 47.4676 30.1738 43.5886Z" fill="#E9D6B6"/>
<path fill-rule="evenodd" clip-rule="evenodd" d="M59.5131 63.8222H33.5266C33.6747 62.7228 33.9901 61.6944 34.3025 60.6758C34.7698 59.1513 35.2309 57.6481 35.1152 55.9596C35.0329 54.7549 34.6164 53.4989 34.2021 52.2487C33.8419 51.1622 33.4833 50.0802 33.3467 49.04C32.2983 41.0643 32.1104 30.3659 38.8706 24.6588C40.6576 23.1498 42.7919 22.0528 45.0529 21.4554C45.5567 21.3221 46.1067 21.2489 46.6592 21.1753C47.4141 21.0746 48.1734 20.9735 48.8251 20.7181C49.3543 20.5108 49.815 20.0923 50.2715 19.6773C50.5874 19.3902 50.9015 19.1048 51.235 18.8922C53.1502 17.6721 55.283 17.202 57.5221 17.3787C57.2407 18.268 56.6693 19.1311 56.1207 19.9594C55.8997 20.2933 55.6823 20.6214 55.4892 20.9432C55.4397 21.026 55.3854 21.1107 55.33 21.1973C55.0335 21.66 54.7022 22.1774 54.8666 22.7254C55.1958 23.8238 56.4728 25.0223 57.5121 25.9977C57.8271 26.2933 58.1206 26.5685 58.3589 26.8142C60.7556 29.2845 63.1216 31.8667 65.2539 34.5724C65.4239 34.7881 65.6187 35.0185 65.8238 35.261C66.8716 36.5008 68.1887 38.0591 67.8549 39.6044C67.6808 40.4089 67.0295 41.0503 66.4288 41.5649C65.776 42.1239 64.8974 42.8304 64.0187 42.94C63.0205 43.0644 62.2436 42.5451 61.4589 42.0208C61.3346 41.9379 61.2102 41.8548 61.0848 41.7738C60.6098 41.4685 60.1241 41.1287 59.6301 40.7831C58.4431 39.9531 57.2073 39.0888 55.9503 38.5797C55.5228 38.4066 55.0053 38.3952 54.4994 38.3842C54.204 38.3775 53.9125 38.3713 53.6451 38.3328C52.0895 38.1088 50.5688 37.4924 49.4579 36.3529C49.4118 36.3057 49.3668 36.2577 49.3229 36.209C49.2345 36.4349 49.1167 36.5693 48.9979 36.7043C48.8159 36.9114 48.6323 37.1203 48.5524 37.6651C48.3703 38.3465 48.318 38.6611 48.5524 39.2901C48.6653 39.5935 48.7273 40.1012 48.7909 40.621C48.837 40.9993 48.884 41.3839 48.952 41.7012C49.2412 43.0526 49.7831 44.4044 50.5085 45.5805C51.3994 47.0253 52.5838 48.1484 53.772 49.2752C54.6382 50.0964 55.5062 50.9198 56.2642 51.8706C59.1278 55.4637 59.7033 59.3879 59.5131 63.8222ZM54.6933 27.4003C52.916 27.8608 54.9056 30.5928 56.1582 30.205C57.7901 29.7003 55.8471 27.101 54.6933 27.4003Z" fill="#E9D6B6"/>
<path d="M33.5018 66.1289C34.159 67.1954 34.9676 68.2763 35.8294 69.2741C35.0499 69.2756 34.2544 69.3107 33.5018 69.4612C29.5098 70.2598 30.2433 73.4998 30.2433 75.6691H62.8298C62.8298 73.4998 63.5632 70.2598 59.5712 69.4612C58.8186 69.3107 58.0232 69.2756 57.2436 69.2741C58.1055 68.2763 58.9139 67.1954 59.5712 66.1289H33.5018Z" fill="#E9D6B6"/>
<path fill-rule="evenodd" clip-rule="evenodd" d="M44.8599 0.5H46.5366H48.213V3.64517H51.3566V6.79032H48.213V9.93549H55.3384C54.8823 11.048 54.251 11.1484 53.668 11.241C53.0576 11.338 52.5 11.4267 52.2518 12.6613C52.0469 13.6806 52.8441 14.673 53.7667 14.9677V15.0726H46.5366H39.3065V14.9677C40.2289 14.673 41.0261 13.6806 40.8214 12.6613C40.5732 11.4267 40.0156 11.338 39.405 11.241C38.8222 11.1484 38.1909 11.048 37.7347 9.93549H44.8599V6.79032H41.7164V3.64517H44.8599V0.5Z" fill="#E9D6B6"/>
</g>
<defs>
<clipPath id="clip0_143_2238">
<rect width="92" height="104" fill="white" transform="translate(0.512451 0.5)"/>
</clipPath>
</defs>
</svg>
