<svg width="64" height="63" viewBox="0 0 64 63" fill="none" xmlns="http://www.w3.org/2000/svg">
<mask id="path-1-outside-1_4_1079" maskUnits="userSpaceOnUse" x="0" y="0" width="64" height="63" fill="black">
<rect fill="white" width="64" height="63"/>
<path d="M39.2177 2.52055C40.7056 3.6236 41.4157 4.90642 41.9948 6.62853C42.1984 8.70828 41.9277 10.4998 41.159 12.428C41.0828 12.6303 41.0066 12.8325 40.9305 13.0348C40.4685 14.2297 39.8933 15.33 39.246 16.4352C38.7713 17.2501 38.3601 18.0963 37.943 18.9411C37.8239 19.1784 37.6999 19.4132 37.5755 19.6478C36.9671 20.7991 36.5276 21.8833 36.5624 23.1985C37.2348 21.9197 37.2348 21.9197 37.7986 20.5922C38.1975 19.5632 38.7877 18.6237 39.3483 17.6752C39.4375 17.5223 39.5267 17.3694 39.6187 17.2119C41.7693 13.6288 44.7938 10.0973 49.0116 8.99321C51.1663 8.56448 53.3717 8.79829 55.227 10.0224C55.3191 10.0872 55.4112 10.1519 55.5061 10.2187C55.6296 10.2984 55.7532 10.3782 55.8804 10.4603C56.9489 11.4909 57.6544 12.7398 57.7348 14.2231C57.7437 14.3742 57.7527 14.5254 57.762 14.6811C57.8522 17.5406 56.631 19.854 54.9489 22.0939C54.7654 22.3523 54.5826 22.6112 54.4005 22.8706C54.2583 23.072 54.1161 23.2733 53.9739 23.4747C54.1147 23.4605 54.2554 23.4462 54.4005 23.4316C56.6144 23.4393 58.7165 24.8643 60.2344 26.3389C61.1684 27.2937 61.9667 28.4546 62.4707 29.6885C62.512 29.7798 62.5533 29.8711 62.5958 29.9652C63.2637 31.7113 63.051 33.7495 62.3445 35.4384C62.2942 35.5459 62.2439 35.6534 62.1921 35.7641C62.1002 35.7641 62.0082 35.7641 61.9135 35.7641C61.8787 35.8656 61.8439 35.9671 61.808 36.0716C61.1805 37.4603 59.6337 38.2511 58.3017 38.8462C54.5855 40.16 49.7938 38.9701 46.1951 37.7951C45.935 37.7104 45.6743 37.6276 45.4134 37.5452C44.5988 37.2848 43.81 36.9856 43.0226 36.6531C42.4382 36.4066 41.851 36.1673 41.2635 35.9281C41.0568 35.8438 40.85 35.7595 40.6432 35.6751C40.4917 35.6134 40.3401 35.5516 40.184 35.488C40.1682 35.6663 40.1682 35.6663 40.4191 35.8774C40.9177 36.37 41.4142 36.8574 41.9513 37.3089C43.1208 38.3054 44.2299 39.4163 45.2241 40.5847C45.4922 40.8904 45.7727 41.183 46.0544 41.4764C46.9932 42.4604 47.8143 43.5062 48.6165 44.6013C48.8142 44.8697 49.0149 45.1356 49.2168 45.4009C50.0765 46.5359 50.8568 47.7052 51.5985 48.9191C51.7234 49.1227 51.8508 49.3248 51.9786 49.5266C53.1046 51.3228 54.1268 53.3244 54.6703 55.372C54.7626 55.6656 54.8556 55.959 54.9489 56.2523C55.5589 58.2175 55.5589 58.2175 55.5061 59.2383C55.4631 59.4093 55.4631 59.4093 55.4631 59.4784C55.4631 59.6855 55.4585 59.6759 55.331 59.763C54.7839 60.1365 54.3255 60.6294 53.8517 61.0884C53.4064 61.5101 53.0477 61.8251 52.4417 62C52.4296 61.8227 52.4176 61.6454 52.4052 61.4628C52.1532 58.1729 51.2685 54.9953 49.7847 52.0394C49.6527 51.7755 49.5238 51.5102 49.3952 51.2446C47.6326 47.6373 45.3246 44.3087 42.8833 41.1245C42.6051 40.7605 42.3307 40.3938 42.0557 40.0275C41.598 39.4213 41.1284 38.8258 40.6541 38.2324C40.0492 37.4755 39.4756 36.7029 38.9304 35.9022C39.0553 36.3119 39.1756 36.6772 39.4032 37.0425C41.7233 40.9708 42.3505 47.0939 41.2722 51.4711C40.5252 54.2251 39.1942 56.7279 36.7017 58.2717C34.9939 59.232 33.3155 59.7081 31.3477 59.6871C31.2193 59.6861 31.0909 59.685 30.9587 59.684C28.61 59.6471 26.5858 58.9739 24.869 57.3197C24.1522 56.53 23.9423 55.7996 23.9516 54.7404C24.0914 53.8535 24.5516 53.1027 25.0012 52.3342C24.8707 52.374 24.7401 52.4139 24.6056 52.455C23.3483 52.8082 22.156 52.9398 20.8486 52.9383C20.7059 52.9385 20.5633 52.9386 20.4163 52.9388C18.2188 52.908 16.1962 52.5248 14.5576 50.9922C13.8529 50.2046 13.6565 49.4863 13.6718 48.4549C13.918 46.3429 15.4404 44.5908 17.0545 43.3086C18.6059 42.1402 20.3427 41.2997 22.0935 40.4676C24.1903 39.4385 26.1235 38.0007 27.9182 36.5263C28.4363 36.1032 28.9601 35.6874 29.4847 35.2722C29.5783 35.198 29.672 35.1239 29.7685 35.0474C29.9902 34.872 30.2119 34.6967 30.4336 34.5214C30.3219 34.5851 30.2102 34.6488 30.0951 34.7145C29.6568 34.9638 29.2177 35.212 28.7783 35.4595C28.5857 35.5683 28.3933 35.6775 28.2012 35.7872C27.4662 36.2064 26.7245 36.6116 25.9762 37.0069C25.8523 37.0725 25.7283 37.138 25.6006 37.2056C22.3634 38.8917 18.8442 40.0627 15.2508 40.7351C14.9313 40.805 14.6124 40.8767 14.2936 40.9495C12.0773 41.4119 9.2806 41.4528 7.25891 40.3727C6.29522 39.7436 5.59366 38.8652 5.28216 37.7566C4.87462 35.4927 5.72046 33.3214 6.75397 31.3455C6.59022 31.3369 6.42646 31.3284 6.25775 31.3196C4.73523 31.1482 2.75272 30.572 1.75253 29.3692C1.11553 28.4398 0.89812 27.7845 1.04301 26.6506C1.42864 25.497 2.03798 24.5129 2.8538 23.6128C2.94843 23.5078 3.04306 23.4028 3.14055 23.2946C3.88818 22.5098 4.69627 21.9375 5.63964 21.4035C5.73247 21.3497 5.8253 21.2959 5.92094 21.2406C9.88598 19.1056 15.0221 19.8452 19.1636 21.0215C20.3056 21.359 21.4047 21.7525 22.4939 22.232C22.5897 22.2737 22.6855 22.3154 22.7842 22.3584C23.5315 22.685 24.2721 23.0241 25.0099 23.3711C25.1228 23.4242 25.2357 23.4772 25.352 23.5319C26.4501 24.0498 27.5379 24.5873 28.6228 25.1317C27.2363 24.0513 25.6054 23.2663 24.0262 22.5081C23.7299 22.3618 23.4339 22.2151 23.1382 22.068C23.0022 22.0009 22.8663 21.9338 22.7263 21.8646C22.5023 21.7531 22.279 21.6403 22.057 21.5248C21.4267 21.1991 20.7846 20.9562 20.1146 20.7217C19.4115 20.4679 18.7254 20.174 18.0366 19.8845C16.8951 19.4072 15.7473 18.947 14.5951 18.4957C10.5899 16.9189 10.5899 16.9189 9.64428 15.1379C9.3621 14.1589 9.55419 13.2071 9.95768 12.29C11.2522 10.1725 13.436 8.87258 15.8079 8.28553C18.1627 7.72066 20.5782 8.34422 22.6419 9.48513C23.352 9.92093 23.9458 10.4692 24.5485 11.037C24.8365 11.3268 24.8365 11.3267 25.1405 11.4614C25.1071 11.3023 25.1071 11.3023 25.073 11.14C24.9787 10.4741 24.97 9.82015 24.9664 9.14855C24.9621 8.95418 24.9621 8.95418 24.9577 8.75588C24.9461 6.67294 25.9164 5.11133 27.3273 3.61227C30.5188 0.647145 35.5536 0.0993688 39.2177 2.52055ZM27.7919 5.0438C26.2508 6.90297 25.9293 8.86131 26.0692 11.2016C26.1915 12.2518 26.5676 13.2427 26.9513 14.2231C26.5675 13.9288 26.2536 13.6692 25.9501 13.2911C25.8668 13.1885 25.7835 13.086 25.6977 12.9804C25.5154 12.8061 25.6546 12.9442 25.5154 12.8061C25.3761 12.6681 25.4282 12.7063 25.2798 12.5661C23.0561 10.4657 20.7184 9.58222 17.6971 9.64101C15.6238 9.7086 13.6641 10.4218 12.1717 11.8876C11.4732 12.6556 11.1233 13.2173 11.1515 14.2706C11.2999 15.1801 11.9059 15.8162 12.6216 16.3634C14.1479 17.3477 15.9306 17.9984 17.6302 18.6283C18.3311 18.8897 19.0198 19.1779 19.7081 19.4703C19.7987 19.5085 19.8894 19.5467 19.9827 19.5861C24.1341 21.3444 28.2482 23.5606 31.5479 26.6506C31.8439 26.9052 32.1414 27.1577 32.4403 27.409C32.6622 27.6172 32.6622 27.6172 32.9408 28.0315C31.3408 27.7929 29.7529 26.7292 28.3404 25.9759C27.5311 25.5463 26.7378 25.1504 25.8723 24.8431C25.485 24.6881 25.12 24.5014 24.7487 24.3118C24.0986 23.9835 23.4521 23.7166 22.7624 23.4825C22.3615 23.3391 21.974 23.1778 21.5831 23.0098C17.3075 21.2342 11.7892 19.9197 7.31114 21.6796C5.32269 22.508 3.19035 24.0761 2.26181 26.0551C2.07913 26.855 1.95386 27.6223 2.33146 28.3815C3.33779 29.7648 5.11541 30.4476 6.77084 30.7289C7.09105 30.7609 7.40738 30.7851 7.72902 30.7931C7.6852 30.8935 7.64139 30.9939 7.59625 31.0974C7.40345 31.5464 7.21765 31.9979 7.03256 32.4501C6.97636 32.5794 6.92016 32.7086 6.86225 32.8417C6.32069 34.2156 6.13175 36.1738 6.72133 37.5743C7.41159 38.6224 8.36815 39.1223 9.55396 39.4304C13.7513 40.0753 18.208 38.6019 22.0761 37.145C22.1861 37.1036 22.2961 37.0622 22.4094 37.0195C24.123 36.368 25.801 35.6389 27.478 34.9006C28.4089 34.4913 29.345 34.0948 30.2839 33.704C31.0937 33.3637 31.8796 32.9858 32.6622 32.5882C30.2538 36.1695 26.8432 38.723 23.1526 40.8707C22.93 41.0007 22.7087 41.1327 22.4874 41.2648C21.8047 41.6691 21.1172 42.0411 20.4007 42.3821C19.3628 42.8776 18.4742 43.4094 17.6187 44.1872C17.5205 44.2736 17.4223 44.3599 17.3211 44.4488C16.0504 45.6269 15.3986 46.7961 15.3291 48.5196C15.3403 49.2682 15.4259 49.7394 15.9336 50.3023C17.2769 51.3909 18.8572 51.697 20.5439 51.6869C20.6741 51.6865 20.8043 51.6861 20.9384 51.6857C22.9557 51.657 24.9887 51.417 26.9513 50.9533C26.8809 51.0904 26.8105 51.2274 26.738 51.3687C26.1333 52.5989 25.7 53.6999 25.9762 55.0958C26.2816 55.8622 26.7977 56.235 27.5259 56.5975C29.7454 57.4758 32.4175 57.4339 34.6336 56.5845C36.189 55.8845 37.188 54.7953 37.9553 53.3007C38.0151 53.1872 38.0749 53.0736 38.1365 52.9566C38.8037 51.5437 39.0443 49.9884 39.3483 48.4678C39.3861 48.3065 39.3861 48.3065 39.4247 48.142C40.253 43.3388 38.9352 38.1972 37.3982 33.6929C37.565 33.7547 37.7318 33.8164 37.9036 33.8801C39.1388 34.3355 40.3751 34.7787 41.6275 35.1854C41.9819 35.3005 42.3355 35.417 42.6885 35.536C42.7808 35.5669 42.873 35.5979 42.9681 35.6298C43.2225 35.7152 43.4768 35.8009 43.731 35.8866C44.262 36.0523 44.7971 36.187 45.3378 36.3165C45.5626 36.3724 45.7873 36.4285 46.012 36.4848C46.2486 36.5437 46.4853 36.6027 46.722 36.6617C46.8394 36.6911 46.9567 36.7204 47.0776 36.7507C49.359 37.3183 51.5222 37.5843 53.8781 37.5937C54.054 37.595 54.2299 37.5963 54.4112 37.5976C56.6905 37.5902 58.6844 37.2762 60.3726 35.6536C61.3834 34.5851 61.5648 33.5605 61.5386 32.1222C61.3482 29.9047 59.873 28.0419 58.2136 26.642C56.3689 25.2384 54.175 24.385 51.8845 24.027C52.0388 23.8562 52.0388 23.8562 52.1963 23.6818C53.5755 22.1335 54.8363 20.4884 55.7847 18.6418C55.8612 18.5075 55.8612 18.5075 55.9392 18.3705C56.6773 17.0317 56.8154 15.5022 56.4724 14.0246C55.9984 12.4771 54.9991 11.2006 53.5745 10.4118C51.8642 9.65497 50.0456 9.75096 48.2907 10.3223C44.5342 11.7773 42.0731 15.0729 40.0649 18.3829C39.9542 18.5627 39.8409 18.7409 39.7258 18.918C39.3481 19.4993 39.0573 20.0713 38.7911 20.713C38.5651 21.175 38.3267 21.6309 38.0892 22.0871C37.5595 23.1204 37.2001 24.1888 36.8497 25.293C36.7002 25.6879 36.5136 26.0204 36.2838 26.3745C35.4219 24.3702 35.7748 22.1432 36.5624 20.1607C36.9741 19.2093 37.4339 18.2819 37.9045 17.358C38.0809 17.0117 38.2546 16.6642 38.4271 16.3159C39.1344 14.8935 39.1344 14.8935 39.4223 14.4378C39.6859 13.9832 39.8647 13.5061 40.0447 13.0149C40.0811 12.9168 40.1175 12.8188 40.155 12.7178C40.2585 12.4374 40.3609 12.1567 40.4626 11.8757C40.5095 11.7465 40.5563 11.6172 40.6046 11.4841C41.2623 9.602 41.3081 7.39661 40.4321 5.58751C39.5812 4.03643 38.2966 3.21976 36.6756 2.58959C33.3771 1.71762 30.1447 2.58018 27.7919 5.0438Z"/>
</mask>
<path d="M39.2177 2.52055C40.7056 3.6236 41.4157 4.90642 41.9948 6.62853C42.1984 8.70828 41.9277 10.4998 41.159 12.428C41.0828 12.6303 41.0066 12.8325 40.9305 13.0348C40.4685 14.2297 39.8933 15.33 39.246 16.4352C38.7713 17.2501 38.3601 18.0963 37.943 18.9411C37.8239 19.1784 37.6999 19.4132 37.5755 19.6478C36.9671 20.7991 36.5276 21.8833 36.5624 23.1985C37.2348 21.9197 37.2348 21.9197 37.7986 20.5922C38.1975 19.5632 38.7877 18.6237 39.3483 17.6752C39.4375 17.5223 39.5267 17.3694 39.6187 17.2119C41.7693 13.6288 44.7938 10.0973 49.0116 8.99321C51.1663 8.56448 53.3717 8.79829 55.227 10.0224C55.3191 10.0872 55.4112 10.1519 55.5061 10.2187C55.6296 10.2984 55.7532 10.3782 55.8804 10.4603C56.9489 11.4909 57.6544 12.7398 57.7348 14.2231C57.7437 14.3742 57.7527 14.5254 57.762 14.6811C57.8522 17.5406 56.631 19.854 54.9489 22.0939C54.7654 22.3523 54.5826 22.6112 54.4005 22.8706C54.2583 23.072 54.1161 23.2733 53.9739 23.4747C54.1147 23.4605 54.2554 23.4462 54.4005 23.4316C56.6144 23.4393 58.7165 24.8643 60.2344 26.3389C61.1684 27.2937 61.9667 28.4546 62.4707 29.6885C62.512 29.7798 62.5533 29.8711 62.5958 29.9652C63.2637 31.7113 63.051 33.7495 62.3445 35.4384C62.2942 35.5459 62.2439 35.6534 62.1921 35.7641C62.1002 35.7641 62.0082 35.7641 61.9135 35.7641C61.8787 35.8656 61.8439 35.9671 61.808 36.0716C61.1805 37.4603 59.6337 38.2511 58.3017 38.8462C54.5855 40.16 49.7938 38.9701 46.1951 37.7951C45.935 37.7104 45.6743 37.6276 45.4134 37.5452C44.5988 37.2848 43.81 36.9856 43.0226 36.6531C42.4382 36.4066 41.851 36.1673 41.2635 35.9281C41.0568 35.8438 40.85 35.7595 40.6432 35.6751C40.4917 35.6134 40.3401 35.5516 40.184 35.488C40.1682 35.6663 40.1682 35.6663 40.4191 35.8774C40.9177 36.37 41.4142 36.8574 41.9513 37.3089C43.1208 38.3054 44.2299 39.4163 45.2241 40.5847C45.4922 40.8904 45.7727 41.183 46.0544 41.4764C46.9932 42.4604 47.8143 43.5062 48.6165 44.6013C48.8142 44.8697 49.0149 45.1356 49.2168 45.4009C50.0765 46.5359 50.8568 47.7052 51.5985 48.9191C51.7234 49.1227 51.8508 49.3248 51.9786 49.5266C53.1046 51.3228 54.1268 53.3244 54.6703 55.372C54.7626 55.6656 54.8556 55.959 54.9489 56.2523C55.5589 58.2175 55.5589 58.2175 55.5061 59.2383C55.4631 59.4093 55.4631 59.4093 55.4631 59.4784C55.4631 59.6855 55.4585 59.6759 55.331 59.763C54.7839 60.1365 54.3255 60.6294 53.8517 61.0884C53.4064 61.5101 53.0477 61.8251 52.4417 62C52.4296 61.8227 52.4176 61.6454 52.4052 61.4628C52.1532 58.1729 51.2685 54.9953 49.7847 52.0394C49.6527 51.7755 49.5238 51.5102 49.3952 51.2446C47.6326 47.6373 45.3246 44.3087 42.8833 41.1245C42.6051 40.7605 42.3307 40.3938 42.0557 40.0275C41.598 39.4213 41.1284 38.8258 40.6541 38.2324C40.0492 37.4755 39.4756 36.7029 38.9304 35.9022C39.0553 36.3119 39.1756 36.6772 39.4032 37.0425C41.7233 40.9708 42.3505 47.0939 41.2722 51.4711C40.5252 54.2251 39.1942 56.7279 36.7017 58.2717C34.9939 59.232 33.3155 59.7081 31.3477 59.6871C31.2193 59.6861 31.0909 59.685 30.9587 59.684C28.61 59.6471 26.5858 58.9739 24.869 57.3197C24.1522 56.53 23.9423 55.7996 23.9516 54.7404C24.0914 53.8535 24.5516 53.1027 25.0012 52.3342C24.8707 52.374 24.7401 52.4139 24.6056 52.455C23.3483 52.8082 22.156 52.9398 20.8486 52.9383C20.7059 52.9385 20.5633 52.9386 20.4163 52.9388C18.2188 52.908 16.1962 52.5248 14.5576 50.9922C13.8529 50.2046 13.6565 49.4863 13.6718 48.4549C13.918 46.3429 15.4404 44.5908 17.0545 43.3086C18.6059 42.1402 20.3427 41.2997 22.0935 40.4676C24.1903 39.4385 26.1235 38.0007 27.9182 36.5263C28.4363 36.1032 28.9601 35.6874 29.4847 35.2722C29.5783 35.198 29.672 35.1239 29.7685 35.0474C29.9902 34.872 30.2119 34.6967 30.4336 34.5214C30.3219 34.5851 30.2102 34.6488 30.0951 34.7145C29.6568 34.9638 29.2177 35.212 28.7783 35.4595C28.5857 35.5683 28.3933 35.6775 28.2012 35.7872C27.4662 36.2064 26.7245 36.6116 25.9762 37.0069C25.8523 37.0725 25.7283 37.138 25.6006 37.2056C22.3634 38.8917 18.8442 40.0627 15.2508 40.7351C14.9313 40.805 14.6124 40.8767 14.2936 40.9495C12.0773 41.4119 9.2806 41.4528 7.25891 40.3727C6.29522 39.7436 5.59366 38.8652 5.28216 37.7566C4.87462 35.4927 5.72046 33.3214 6.75397 31.3455C6.59022 31.3369 6.42646 31.3284 6.25775 31.3196C4.73523 31.1482 2.75272 30.572 1.75253 29.3692C1.11553 28.4398 0.89812 27.7845 1.04301 26.6506C1.42864 25.497 2.03798 24.5129 2.8538 23.6128C2.94843 23.5078 3.04306 23.4028 3.14055 23.2946C3.88818 22.5098 4.69627 21.9375 5.63964 21.4035C5.73247 21.3497 5.8253 21.2959 5.92094 21.2406C9.88598 19.1056 15.0221 19.8452 19.1636 21.0215C20.3056 21.359 21.4047 21.7525 22.4939 22.232C22.5897 22.2737 22.6855 22.3154 22.7842 22.3584C23.5315 22.685 24.2721 23.0241 25.0099 23.3711C25.1228 23.4242 25.2357 23.4772 25.352 23.5319C26.4501 24.0498 27.5379 24.5873 28.6228 25.1317C27.2363 24.0513 25.6054 23.2663 24.0262 22.5081C23.7299 22.3618 23.4339 22.2151 23.1382 22.068C23.0022 22.0009 22.8663 21.9338 22.7263 21.8646C22.5023 21.7531 22.279 21.6403 22.057 21.5248C21.4267 21.1991 20.7846 20.9562 20.1146 20.7217C19.4115 20.4679 18.7254 20.174 18.0366 19.8845C16.8951 19.4072 15.7473 18.947 14.5951 18.4957C10.5899 16.9189 10.5899 16.9189 9.64428 15.1379C9.3621 14.1589 9.55419 13.2071 9.95768 12.29C11.2522 10.1725 13.436 8.87258 15.8079 8.28553C18.1627 7.72066 20.5782 8.34422 22.6419 9.48513C23.352 9.92093 23.9458 10.4692 24.5485 11.037C24.8365 11.3268 24.8365 11.3267 25.1405 11.4614C25.1071 11.3023 25.1071 11.3023 25.073 11.14C24.9787 10.4741 24.97 9.82015 24.9664 9.14855C24.9621 8.95418 24.9621 8.95418 24.9577 8.75588C24.9461 6.67294 25.9164 5.11133 27.3273 3.61227C30.5188 0.647145 35.5536 0.0993688 39.2177 2.52055ZM27.7919 5.0438C26.2508 6.90297 25.9293 8.86131 26.0692 11.2016C26.1915 12.2518 26.5676 13.2427 26.9513 14.2231C26.5675 13.9288 26.2536 13.6692 25.9501 13.2911C25.8668 13.1885 25.7835 13.086 25.6977 12.9804C25.5154 12.8061 25.6546 12.9442 25.5154 12.8061C25.3761 12.6681 25.4282 12.7063 25.2798 12.5661C23.0561 10.4657 20.7184 9.58222 17.6971 9.64101C15.6238 9.7086 13.6641 10.4218 12.1717 11.8876C11.4732 12.6556 11.1233 13.2173 11.1515 14.2706C11.2999 15.1801 11.9059 15.8162 12.6216 16.3634C14.1479 17.3477 15.9306 17.9984 17.6302 18.6283C18.3311 18.8897 19.0198 19.1779 19.7081 19.4703C19.7987 19.5085 19.8894 19.5467 19.9827 19.5861C24.1341 21.3444 28.2482 23.5606 31.5479 26.6506C31.8439 26.9052 32.1414 27.1577 32.4403 27.409C32.6622 27.6172 32.6622 27.6172 32.9408 28.0315C31.3408 27.7929 29.7529 26.7292 28.3404 25.9759C27.5311 25.5463 26.7378 25.1504 25.8723 24.8431C25.485 24.6881 25.12 24.5014 24.7487 24.3118C24.0986 23.9835 23.4521 23.7166 22.7624 23.4825C22.3615 23.3391 21.974 23.1778 21.5831 23.0098C17.3075 21.2342 11.7892 19.9197 7.31114 21.6796C5.32269 22.508 3.19035 24.0761 2.26181 26.0551C2.07913 26.855 1.95386 27.6223 2.33146 28.3815C3.33779 29.7648 5.11541 30.4476 6.77084 30.7289C7.09105 30.7609 7.40738 30.7851 7.72902 30.7931C7.6852 30.8935 7.64139 30.9939 7.59625 31.0974C7.40345 31.5464 7.21765 31.9979 7.03256 32.4501C6.97636 32.5794 6.92016 32.7086 6.86225 32.8417C6.32069 34.2156 6.13175 36.1738 6.72133 37.5743C7.41159 38.6224 8.36815 39.1223 9.55396 39.4304C13.7513 40.0753 18.208 38.6019 22.0761 37.145C22.1861 37.1036 22.2961 37.0622 22.4094 37.0195C24.123 36.368 25.801 35.6389 27.478 34.9006C28.4089 34.4913 29.345 34.0948 30.2839 33.704C31.0937 33.3637 31.8796 32.9858 32.6622 32.5882C30.2538 36.1695 26.8432 38.723 23.1526 40.8707C22.93 41.0007 22.7087 41.1327 22.4874 41.2648C21.8047 41.6691 21.1172 42.0411 20.4007 42.3821C19.3628 42.8776 18.4742 43.4094 17.6187 44.1872C17.5205 44.2736 17.4223 44.3599 17.3211 44.4488C16.0504 45.6269 15.3986 46.7961 15.3291 48.5196C15.3403 49.2682 15.4259 49.7394 15.9336 50.3023C17.2769 51.3909 18.8572 51.697 20.5439 51.6869C20.6741 51.6865 20.8043 51.6861 20.9384 51.6857C22.9557 51.657 24.9887 51.417 26.9513 50.9533C26.8809 51.0904 26.8105 51.2274 26.738 51.3687C26.1333 52.5989 25.7 53.6999 25.9762 55.0958C26.2816 55.8622 26.7977 56.235 27.5259 56.5975C29.7454 57.4758 32.4175 57.4339 34.6336 56.5845C36.189 55.8845 37.188 54.7953 37.9553 53.3007C38.0151 53.1872 38.0749 53.0736 38.1365 52.9566C38.8037 51.5437 39.0443 49.9884 39.3483 48.4678C39.3861 48.3065 39.3861 48.3065 39.4247 48.142C40.253 43.3388 38.9352 38.1972 37.3982 33.6929C37.565 33.7547 37.7318 33.8164 37.9036 33.8801C39.1388 34.3355 40.3751 34.7787 41.6275 35.1854C41.9819 35.3005 42.3355 35.417 42.6885 35.536C42.7808 35.5669 42.873 35.5979 42.9681 35.6298C43.2225 35.7152 43.4768 35.8009 43.731 35.8866C44.262 36.0523 44.7971 36.187 45.3378 36.3165C45.5626 36.3724 45.7873 36.4285 46.012 36.4848C46.2486 36.5437 46.4853 36.6027 46.722 36.6617C46.8394 36.6911 46.9567 36.7204 47.0776 36.7507C49.359 37.3183 51.5222 37.5843 53.8781 37.5937C54.054 37.595 54.2299 37.5963 54.4112 37.5976C56.6905 37.5902 58.6844 37.2762 60.3726 35.6536C61.3834 34.5851 61.5648 33.5605 61.5386 32.1222C61.3482 29.9047 59.873 28.0419 58.2136 26.642C56.3689 25.2384 54.175 24.385 51.8845 24.027C52.0388 23.8562 52.0388 23.8562 52.1963 23.6818C53.5755 22.1335 54.8363 20.4884 55.7847 18.6418C55.8612 18.5075 55.8612 18.5075 55.9392 18.3705C56.6773 17.0317 56.8154 15.5022 56.4724 14.0246C55.9984 12.4771 54.9991 11.2006 53.5745 10.4118C51.8642 9.65497 50.0456 9.75096 48.2907 10.3223C44.5342 11.7773 42.0731 15.0729 40.0649 18.3829C39.9542 18.5627 39.8409 18.7409 39.7258 18.918C39.3481 19.4993 39.0573 20.0713 38.7911 20.713C38.5651 21.175 38.3267 21.6309 38.0892 22.0871C37.5595 23.1204 37.2001 24.1888 36.8497 25.293C36.7002 25.6879 36.5136 26.0204 36.2838 26.3745C35.4219 24.3702 35.7748 22.1432 36.5624 20.1607C36.9741 19.2093 37.4339 18.2819 37.9045 17.358C38.0809 17.0117 38.2546 16.6642 38.4271 16.3159C39.1344 14.8935 39.1344 14.8935 39.4223 14.4378C39.6859 13.9832 39.8647 13.5061 40.0447 13.0149C40.0811 12.9168 40.1175 12.8188 40.155 12.7178C40.2585 12.4374 40.3609 12.1567 40.4626 11.8757C40.5095 11.7465 40.5563 11.6172 40.6046 11.4841C41.2623 9.602 41.3081 7.39661 40.4321 5.58751C39.5812 4.03643 38.2966 3.21976 36.6756 2.58959C33.3771 1.71762 30.1447 2.58018 27.7919 5.0438Z" fill="#EEF8F5"/>
<path d="M39.2177 2.52055C40.7056 3.6236 41.4157 4.90642 41.9948 6.62853C42.1984 8.70828 41.9277 10.4998 41.159 12.428C41.0828 12.6303 41.0066 12.8325 40.9305 13.0348C40.4685 14.2297 39.8933 15.33 39.246 16.4352C38.7713 17.2501 38.3601 18.0963 37.943 18.9411C37.8239 19.1784 37.6999 19.4132 37.5755 19.6478C36.9671 20.7991 36.5276 21.8833 36.5624 23.1985C37.2348 21.9197 37.2348 21.9197 37.7986 20.5922C38.1975 19.5632 38.7877 18.6237 39.3483 17.6752C39.4375 17.5223 39.5267 17.3694 39.6187 17.2119C41.7693 13.6288 44.7938 10.0973 49.0116 8.99321C51.1663 8.56448 53.3717 8.79829 55.227 10.0224C55.3191 10.0872 55.4112 10.1519 55.5061 10.2187C55.6296 10.2984 55.7532 10.3782 55.8804 10.4603C56.9489 11.4909 57.6544 12.7398 57.7348 14.2231C57.7437 14.3742 57.7527 14.5254 57.762 14.6811C57.8522 17.5406 56.631 19.854 54.9489 22.0939C54.7654 22.3523 54.5826 22.6112 54.4005 22.8706C54.2583 23.072 54.1161 23.2733 53.9739 23.4747C54.1147 23.4605 54.2554 23.4462 54.4005 23.4316C56.6144 23.4393 58.7165 24.8643 60.2344 26.3389C61.1684 27.2937 61.9667 28.4546 62.4707 29.6885C62.512 29.7798 62.5533 29.8711 62.5958 29.9652C63.2637 31.7113 63.051 33.7495 62.3445 35.4384C62.2942 35.5459 62.2439 35.6534 62.1921 35.7641C62.1002 35.7641 62.0082 35.7641 61.9135 35.7641C61.8787 35.8656 61.8439 35.9671 61.808 36.0716C61.1805 37.4603 59.6337 38.2511 58.3017 38.8462C54.5855 40.16 49.7938 38.9701 46.1951 37.7951C45.935 37.7104 45.6743 37.6276 45.4134 37.5452C44.5988 37.2848 43.81 36.9856 43.0226 36.6531C42.4382 36.4066 41.851 36.1673 41.2635 35.9281C41.0568 35.8438 40.85 35.7595 40.6432 35.6751C40.4917 35.6134 40.3401 35.5516 40.184 35.488C40.1682 35.6663 40.1682 35.6663 40.4191 35.8774C40.9177 36.37 41.4142 36.8574 41.9513 37.3089C43.1208 38.3054 44.2299 39.4163 45.2241 40.5847C45.4922 40.8904 45.7727 41.183 46.0544 41.4764C46.9932 42.4604 47.8143 43.5062 48.6165 44.6013C48.8142 44.8697 49.0149 45.1356 49.2168 45.4009C50.0765 46.5359 50.8568 47.7052 51.5985 48.9191C51.7234 49.1227 51.8508 49.3248 51.9786 49.5266C53.1046 51.3228 54.1268 53.3244 54.6703 55.372C54.7626 55.6656 54.8556 55.959 54.9489 56.2523C55.5589 58.2175 55.5589 58.2175 55.5061 59.2383C55.4631 59.4093 55.4631 59.4093 55.4631 59.4784C55.4631 59.6855 55.4585 59.6759 55.331 59.763C54.7839 60.1365 54.3255 60.6294 53.8517 61.0884C53.4064 61.5101 53.0477 61.8251 52.4417 62C52.4296 61.8227 52.4176 61.6454 52.4052 61.4628C52.1532 58.1729 51.2685 54.9953 49.7847 52.0394C49.6527 51.7755 49.5238 51.5102 49.3952 51.2446C47.6326 47.6373 45.3246 44.3087 42.8833 41.1245C42.6051 40.7605 42.3307 40.3938 42.0557 40.0275C41.598 39.4213 41.1284 38.8258 40.6541 38.2324C40.0492 37.4755 39.4756 36.7029 38.9304 35.9022C39.0553 36.3119 39.1756 36.6772 39.4032 37.0425C41.7233 40.9708 42.3505 47.0939 41.2722 51.4711C40.5252 54.2251 39.1942 56.7279 36.7017 58.2717C34.9939 59.232 33.3155 59.7081 31.3477 59.6871C31.2193 59.6861 31.0909 59.685 30.9587 59.684C28.61 59.6471 26.5858 58.9739 24.869 57.3197C24.1522 56.53 23.9423 55.7996 23.9516 54.7404C24.0914 53.8535 24.5516 53.1027 25.0012 52.3342C24.8707 52.374 24.7401 52.4139 24.6056 52.455C23.3483 52.8082 22.156 52.9398 20.8486 52.9383C20.7059 52.9385 20.5633 52.9386 20.4163 52.9388C18.2188 52.908 16.1962 52.5248 14.5576 50.9922C13.8529 50.2046 13.6565 49.4863 13.6718 48.4549C13.918 46.3429 15.4404 44.5908 17.0545 43.3086C18.6059 42.1402 20.3427 41.2997 22.0935 40.4676C24.1903 39.4385 26.1235 38.0007 27.9182 36.5263C28.4363 36.1032 28.9601 35.6874 29.4847 35.2722C29.5783 35.198 29.672 35.1239 29.7685 35.0474C29.9902 34.872 30.2119 34.6967 30.4336 34.5214C30.3219 34.5851 30.2102 34.6488 30.0951 34.7145C29.6568 34.9638 29.2177 35.212 28.7783 35.4595C28.5857 35.5683 28.3933 35.6775 28.2012 35.7872C27.4662 36.2064 26.7245 36.6116 25.9762 37.0069C25.8523 37.0725 25.7283 37.138 25.6006 37.2056C22.3634 38.8917 18.8442 40.0627 15.2508 40.7351C14.9313 40.805 14.6124 40.8767 14.2936 40.9495C12.0773 41.4119 9.2806 41.4528 7.25891 40.3727C6.29522 39.7436 5.59366 38.8652 5.28216 37.7566C4.87462 35.4927 5.72046 33.3214 6.75397 31.3455C6.59022 31.3369 6.42646 31.3284 6.25775 31.3196C4.73523 31.1482 2.75272 30.572 1.75253 29.3692C1.11553 28.4398 0.89812 27.7845 1.04301 26.6506C1.42864 25.497 2.03798 24.5129 2.8538 23.6128C2.94843 23.5078 3.04306 23.4028 3.14055 23.2946C3.88818 22.5098 4.69627 21.9375 5.63964 21.4035C5.73247 21.3497 5.8253 21.2959 5.92094 21.2406C9.88598 19.1056 15.0221 19.8452 19.1636 21.0215C20.3056 21.359 21.4047 21.7525 22.4939 22.232C22.5897 22.2737 22.6855 22.3154 22.7842 22.3584C23.5315 22.685 24.2721 23.0241 25.0099 23.3711C25.1228 23.4242 25.2357 23.4772 25.352 23.5319C26.4501 24.0498 27.5379 24.5873 28.6228 25.1317C27.2363 24.0513 25.6054 23.2663 24.0262 22.5081C23.7299 22.3618 23.4339 22.2151 23.1382 22.068C23.0022 22.0009 22.8663 21.9338 22.7263 21.8646C22.5023 21.7531 22.279 21.6403 22.057 21.5248C21.4267 21.1991 20.7846 20.9562 20.1146 20.7217C19.4115 20.4679 18.7254 20.174 18.0366 19.8845C16.8951 19.4072 15.7473 18.947 14.5951 18.4957C10.5899 16.9189 10.5899 16.9189 9.64428 15.1379C9.3621 14.1589 9.55419 13.2071 9.95768 12.29C11.2522 10.1725 13.436 8.87258 15.8079 8.28553C18.1627 7.72066 20.5782 8.34422 22.6419 9.48513C23.352 9.92093 23.9458 10.4692 24.5485 11.037C24.8365 11.3268 24.8365 11.3267 25.1405 11.4614C25.1071 11.3023 25.1071 11.3023 25.073 11.14C24.9787 10.4741 24.97 9.82015 24.9664 9.14855C24.9621 8.95418 24.9621 8.95418 24.9577 8.75588C24.9461 6.67294 25.9164 5.11133 27.3273 3.61227C30.5188 0.647145 35.5536 0.0993688 39.2177 2.52055ZM27.7919 5.0438C26.2508 6.90297 25.9293 8.86131 26.0692 11.2016C26.1915 12.2518 26.5676 13.2427 26.9513 14.2231C26.5675 13.9288 26.2536 13.6692 25.9501 13.2911C25.8668 13.1885 25.7835 13.086 25.6977 12.9804C25.5154 12.8061 25.6546 12.9442 25.5154 12.8061C25.3761 12.6681 25.4282 12.7063 25.2798 12.5661C23.0561 10.4657 20.7184 9.58222 17.6971 9.64101C15.6238 9.7086 13.6641 10.4218 12.1717 11.8876C11.4732 12.6556 11.1233 13.2173 11.1515 14.2706C11.2999 15.1801 11.9059 15.8162 12.6216 16.3634C14.1479 17.3477 15.9306 17.9984 17.6302 18.6283C18.3311 18.8897 19.0198 19.1779 19.7081 19.4703C19.7987 19.5085 19.8894 19.5467 19.9827 19.5861C24.1341 21.3444 28.2482 23.5606 31.5479 26.6506C31.8439 26.9052 32.1414 27.1577 32.4403 27.409C32.6622 27.6172 32.6622 27.6172 32.9408 28.0315C31.3408 27.7929 29.7529 26.7292 28.3404 25.9759C27.5311 25.5463 26.7378 25.1504 25.8723 24.8431C25.485 24.6881 25.12 24.5014 24.7487 24.3118C24.0986 23.9835 23.4521 23.7166 22.7624 23.4825C22.3615 23.3391 21.974 23.1778 21.5831 23.0098C17.3075 21.2342 11.7892 19.9197 7.31114 21.6796C5.32269 22.508 3.19035 24.0761 2.26181 26.0551C2.07913 26.855 1.95386 27.6223 2.33146 28.3815C3.33779 29.7648 5.11541 30.4476 6.77084 30.7289C7.09105 30.7609 7.40738 30.7851 7.72902 30.7931C7.6852 30.8935 7.64139 30.9939 7.59625 31.0974C7.40345 31.5464 7.21765 31.9979 7.03256 32.4501C6.97636 32.5794 6.92016 32.7086 6.86225 32.8417C6.32069 34.2156 6.13175 36.1738 6.72133 37.5743C7.41159 38.6224 8.36815 39.1223 9.55396 39.4304C13.7513 40.0753 18.208 38.6019 22.0761 37.145C22.1861 37.1036 22.2961 37.0622 22.4094 37.0195C24.123 36.368 25.801 35.6389 27.478 34.9006C28.4089 34.4913 29.345 34.0948 30.2839 33.704C31.0937 33.3637 31.8796 32.9858 32.6622 32.5882C30.2538 36.1695 26.8432 38.723 23.1526 40.8707C22.93 41.0007 22.7087 41.1327 22.4874 41.2648C21.8047 41.6691 21.1172 42.0411 20.4007 42.3821C19.3628 42.8776 18.4742 43.4094 17.6187 44.1872C17.5205 44.2736 17.4223 44.3599 17.3211 44.4488C16.0504 45.6269 15.3986 46.7961 15.3291 48.5196C15.3403 49.2682 15.4259 49.7394 15.9336 50.3023C17.2769 51.3909 18.8572 51.697 20.5439 51.6869C20.6741 51.6865 20.8043 51.6861 20.9384 51.6857C22.9557 51.657 24.9887 51.417 26.9513 50.9533C26.8809 51.0904 26.8105 51.2274 26.738 51.3687C26.1333 52.5989 25.7 53.6999 25.9762 55.0958C26.2816 55.8622 26.7977 56.235 27.5259 56.5975C29.7454 57.4758 32.4175 57.4339 34.6336 56.5845C36.189 55.8845 37.188 54.7953 37.9553 53.3007C38.0151 53.1872 38.0749 53.0736 38.1365 52.9566C38.8037 51.5437 39.0443 49.9884 39.3483 48.4678C39.3861 48.3065 39.3861 48.3065 39.4247 48.142C40.253 43.3388 38.9352 38.1972 37.3982 33.6929C37.565 33.7547 37.7318 33.8164 37.9036 33.8801C39.1388 34.3355 40.3751 34.7787 41.6275 35.1854C41.9819 35.3005 42.3355 35.417 42.6885 35.536C42.7808 35.5669 42.873 35.5979 42.9681 35.6298C43.2225 35.7152 43.4768 35.8009 43.731 35.8866C44.262 36.0523 44.7971 36.187 45.3378 36.3165C45.5626 36.3724 45.7873 36.4285 46.012 36.4848C46.2486 36.5437 46.4853 36.6027 46.722 36.6617C46.8394 36.6911 46.9567 36.7204 47.0776 36.7507C49.359 37.3183 51.5222 37.5843 53.8781 37.5937C54.054 37.595 54.2299 37.5963 54.4112 37.5976C56.6905 37.5902 58.6844 37.2762 60.3726 35.6536C61.3834 34.5851 61.5648 33.5605 61.5386 32.1222C61.3482 29.9047 59.873 28.0419 58.2136 26.642C56.3689 25.2384 54.175 24.385 51.8845 24.027C52.0388 23.8562 52.0388 23.8562 52.1963 23.6818C53.5755 22.1335 54.8363 20.4884 55.7847 18.6418C55.8612 18.5075 55.8612 18.5075 55.9392 18.3705C56.6773 17.0317 56.8154 15.5022 56.4724 14.0246C55.9984 12.4771 54.9991 11.2006 53.5745 10.4118C51.8642 9.65497 50.0456 9.75096 48.2907 10.3223C44.5342 11.7773 42.0731 15.0729 40.0649 18.3829C39.9542 18.5627 39.8409 18.7409 39.7258 18.918C39.3481 19.4993 39.0573 20.0713 38.7911 20.713C38.5651 21.175 38.3267 21.6309 38.0892 22.0871C37.5595 23.1204 37.2001 24.1888 36.8497 25.293C36.7002 25.6879 36.5136 26.0204 36.2838 26.3745C35.4219 24.3702 35.7748 22.1432 36.5624 20.1607C36.9741 19.2093 37.4339 18.2819 37.9045 17.358C38.0809 17.0117 38.2546 16.6642 38.4271 16.3159C39.1344 14.8935 39.1344 14.8935 39.4223 14.4378C39.6859 13.9832 39.8647 13.5061 40.0447 13.0149C40.0811 12.9168 40.1175 12.8188 40.155 12.7178C40.2585 12.4374 40.3609 12.1567 40.4626 11.8757C40.5095 11.7465 40.5563 11.6172 40.6046 11.4841C41.2623 9.602 41.3081 7.39661 40.4321 5.58751C39.5812 4.03643 38.2966 3.21976 36.6756 2.58959C33.3771 1.71762 30.1447 2.58018 27.7919 5.0438Z" stroke="white" mask="url(#path-1-outside-1_4_1079)"/>
</svg>
