<svg width="77" height="77" viewBox="0 0 77 77" fill="none" xmlns="http://www.w3.org/2000/svg">
<path d="M28.875 64.1666C16.7764 61.3818 9.625 50.297 9.625 40.1362C9.625 28.0536 20.4371 16.1154 28.028 9.22393C30.0161 7.41787 32.6057 6.41724 35.2917 6.41724C37.9776 6.41724 40.5672 7.41787 42.5553 9.22393C47.3903 13.6129 53.1749 20.0521 56.9511 27.2708" stroke="#82A816" stroke-width="6" stroke-linecap="round" stroke-linejoin="round"/>
<path d="M54.5417 49.7292C49.7292 52.9375 41.7084 59.3542 35.2917 70.5833M41.7084 60.9583C33.1614 42.1575 50.804 36.0488 63.9261 35.343C65.511 35.2564 66.3002 35.2147 66.8713 35.7633C67.4392 36.3087 67.4039 37.0948 67.3397 38.6572C66.7975 51.6606 60.9423 69.3225 41.7084 60.9583Z" stroke="#82A816" stroke-width="6" stroke-linecap="round" stroke-linejoin="round"/>
</svg>
