<svg width="50" height="49" viewBox="0 0 50 49" fill="none" xmlns="http://www.w3.org/2000/svg">
<path d="M25 3.0625C16.374 3.0625 9.375 9.23631 9.375 16.8438C9.375 29.0938 25 45.9375 25 45.9375C25 45.9375 40.625 29.0938 40.625 16.8438C40.625 9.23631 33.626 3.0625 25 3.0625ZM25 24.5C23.7639 24.5 22.5555 24.1408 21.5277 23.4678C20.4999 22.7947 19.6988 21.8381 19.2258 20.7189C18.7527 19.5997 18.6289 18.3682 18.8701 17.1801C19.1112 15.9919 19.7065 14.9006 20.5806 14.044C21.4547 13.1874 22.5683 12.604 23.7807 12.3677C24.9931 12.1314 26.2497 12.2527 27.3918 12.7162C28.5338 13.1798 29.5099 13.9649 30.1967 14.9721C30.8834 15.9794 31.25 17.1636 31.25 18.375C31.2482 19.9989 30.5891 21.5558 29.4174 22.7041C28.2457 23.8523 26.657 24.4982 25 24.5Z" fill="#A2D01E"/>
</svg>
