<svg width="60" height="60" viewBox="0 0 60 60" fill="none" xmlns="http://www.w3.org/2000/svg">
<path d="M44.9997 20.775C44.0997 19.75 43.1747 18.725 42.1997 17.75L41.4747 17.075L41.8247 16.775C43.0473 15.7255 43.9185 14.3263 44.3208 12.7661C44.7232 11.2059 44.6373 9.55984 44.0747 8.05C43.2594 6.34743 41.9687 4.91733 40.3582 3.93246C38.7478 2.94758 36.8867 2.45006 34.9997 2.5V7.5C35.8892 7.48762 36.7659 7.71278 37.5393 8.15224C38.3128 8.5917 38.955 9.22955 39.3997 10C39.8247 11 39.3997 12.1 38.2247 13.275C38.0497 13.475 37.8497 13.6 37.6747 13.775C30.1747 7.75 21.9497 4.35 17.9247 8.375C17.5045 8.80718 17.1582 9.30549 16.8997 9.85V10.1L16.4497 11.425L5.42468 44.175C5.00766 45.4092 4.89067 46.7249 5.08342 48.0133C5.27616 49.3016 5.77309 50.5255 6.53304 51.5836C7.293 52.6417 8.2941 53.5035 9.45344 54.0976C10.6128 54.6917 11.897 55.001 13.1997 55C14.0503 54.9922 14.8942 54.8487 15.6997 54.575L49.9997 43.2C50.4212 43.0431 50.7926 42.7753 51.0747 42.425L51.5997 41.975C55.1747 38.375 52.8747 31.45 48.0747 24.725C50.9248 23.0616 54.2066 22.2869 57.4997 22.5V17.5C53.0931 17.2576 48.7213 18.4029 44.9997 20.775ZM14.2497 49.825C13.6822 50.0128 13.0737 50.0392 12.4921 49.9013C11.9104 49.7633 11.3786 49.4664 10.9559 49.0438C10.5332 48.6211 10.2364 48.0893 10.0984 47.5076C9.96045 46.926 9.98686 46.3175 10.1747 45.75L13.5747 35.5C16.0011 40.1272 19.7296 43.9426 24.2997 46.475L14.2497 49.825ZM31.7497 44C27.9715 42.9994 24.5249 41.018 21.759 38.2565C18.9931 35.495 17.0063 32.0516 15.9997 28.275L18.4997 20.775L18.6497 21C18.9247 21.55 19.2747 22.125 19.6247 22.7C19.9747 23.275 20.0247 23.425 20.2747 23.8C20.5247 24.175 21.0997 25 21.5497 25.625C21.9997 26.25 22.0247 26.325 22.2997 26.675C22.5747 27.025 23.3747 28.05 23.9497 28.725L24.6747 29.6C25.5247 30.575 26.4247 31.525 27.3747 32.5C28.3247 33.475 29.0747 34.1 29.8747 35L30.6997 35.7L32.6497 37.275L33.5747 37.975C34.2747 38.475 34.9497 38.975 35.6497 39.425L36.4247 39.925C37.3247 40.475 38.2247 41 39.0997 41.45H39.2247L31.7497 44ZM48.0247 38.425H47.8747C46.1497 39.375 38.9747 37 30.8997 28.9C30.0497 28.05 29.2497 27.225 28.5247 26.4L27.7997 25.525L26.4747 23.925L25.7497 22.925C25.4247 22.45 25.0747 22 24.7747 21.55L24.1247 20.5L23.3997 19.325C23.1997 18.975 23.0497 18.65 22.8747 18.325C22.6997 18 22.4997 17.675 22.3497 17.325C22.2138 17.0328 22.0969 16.7322 21.9997 16.425C21.8747 16.1 21.7247 15.775 21.6247 15.475C21.5247 15.175 21.4997 15 21.4247 14.7C21.3497 14.4 21.2997 14.15 21.2497 13.9C21.2356 13.6836 21.2356 13.4664 21.2497 13.25C21.2256 13.0507 21.2256 12.8493 21.2497 12.65L21.5247 11.875C22.4247 10.975 27.0997 11.875 33.3497 16.625C32.2907 17.1045 31.1579 17.4004 29.9997 17.5V22.5C32.6552 22.3473 35.2318 21.5399 37.4997 20.15L38.6997 21.3C39.7497 22.35 40.7247 23.425 41.6497 24.5C40.2186 27.0878 39.6908 30.0787 40.1497 33L45.1497 32.025C45.0036 31.0974 45.0036 30.1526 45.1497 29.225C45.9151 30.3806 46.592 31.5924 47.1747 32.85C48.5747 36.15 48.4747 38 48.0247 38.425Z" fill="#82A816"/>
</svg>
