<svg width="38" height="38" viewBox="0 0 38 38" fill="none" xmlns="http://www.w3.org/2000/svg">
<path d="M19.187 24.7133L24.3201 30.5495C26.2201 32.7108 27.1717 33.7922 28.1676 33.5278C29.162 33.2649 29.504 31.8431 30.1864 28.9978L33.9706 13.2152C35.0235 8.83251 35.5491 6.64276 34.3806 5.56134C33.2121 4.47993 31.1871 5.28426 27.1369 6.89134L8.34906 14.3536C5.10956 15.6408 3.48981 16.2837 3.3869 17.3888C3.37478 17.5015 3.37478 17.6151 3.3869 17.7277C3.48665 18.8344 5.10323 19.482 8.33956 20.7788C9.80415 21.3662 10.5372 21.6607 11.0629 22.2228C11.122 22.2861 11.179 22.3515 11.2339 22.4191C11.7184 23.0208 11.9242 23.8124 12.3375 25.3894L13.1117 28.3455C13.5123 29.8813 13.7134 30.6508 14.2406 30.7553C14.7679 30.8598 15.2255 30.2233 16.1422 28.9488L19.187 24.7133ZM19.187 24.7133L18.6851 24.1908C18.1119 23.5923 17.8253 23.2947 17.8253 22.9242C17.8253 22.5537 18.1103 22.2544 18.6851 21.6575L24.3423 15.7612" stroke="#82A816" stroke-width="2" stroke-linecap="round" stroke-linejoin="round"/>
</svg>
