<svg width="24" height="24" viewBox="0 0 24 24" fill="none" xmlns="http://www.w3.org/2000/svg">
<path d="M12.118 15.6085L15.36 19.2945C16.56 20.6595 17.161 21.3425 17.79 21.1755C18.418 21.0095 18.634 20.1115 19.065 18.3145L21.455 8.34648C22.12 5.57848 22.452 4.19548 21.714 3.51248C20.976 2.82948 19.697 3.33748 17.139 4.35248L5.27304 9.06548C3.22704 9.87848 2.20404 10.2845 2.13904 10.9825C2.13139 11.0536 2.13139 11.1254 2.13904 11.1965C2.20204 11.8955 3.22304 12.3045 5.26704 13.1235C6.19204 13.4945 6.65504 13.6805 6.98704 14.0355C7.02438 14.0755 7.06038 14.1168 7.09504 14.1595C7.40104 14.5395 7.53104 15.0395 7.79204 16.0355L8.28104 17.9025C8.53404 18.8725 8.66104 19.3585 8.99404 19.4245C9.32704 19.4905 9.61604 19.0885 10.195 18.2835L12.118 15.6085ZM12.118 15.6085L11.801 15.2785C11.439 14.9005 11.258 14.7125 11.258 14.4785C11.258 14.2445 11.438 14.0555 11.801 13.6785L15.374 9.95448" stroke="#F7FFE1" stroke-width="2" stroke-linecap="round" stroke-linejoin="round"/>
</svg>
