<svg width="60" height="60" viewBox="0 0 60 60" fill="none" xmlns="http://www.w3.org/2000/svg">
<path d="M16.7133 45.9376L24.6952 37.9557L22.044 35.3044L14.0621 43.2863L12.5752 41.7994C12.2236 41.4479 11.7468 41.2505 11.2496 41.2505C10.7524 41.2505 10.2756 41.4479 9.92397 41.7994L2.42397 49.2994C2.07247 49.6511 1.875 50.1279 1.875 50.6251C1.875 51.1223 2.07247 51.5991 2.42397 51.9507L8.04897 57.5757C8.40059 57.9272 8.87742 58.1247 9.3746 58.1247C9.87178 58.1247 10.3486 57.9272 10.7002 57.5757L18.2002 50.0757C18.5517 49.7241 18.7492 49.2473 18.7492 48.7501C18.7492 48.2529 18.5517 47.7761 18.2002 47.4244L16.7133 45.9376ZM9.3746 53.5988L6.40085 50.6251L11.2496 45.7763L14.2233 48.7501L9.3746 53.5988Z" fill="#82A816"/>
<path d="M44.9998 56.25C42.0172 56.2466 39.1577 55.0602 37.0487 52.9511C34.9396 50.8421 33.7533 47.9827 33.7498 45C33.7497 44.0198 33.8822 43.0441 34.1435 42.0994L17.9023 25.8563C16.9561 26.1135 15.9803 26.2458 14.9998 26.25C13.1668 26.2574 11.3601 25.8149 9.73792 24.9615C8.11577 24.1081 6.72774 22.8697 5.69555 21.355C4.66335 19.8403 4.01851 18.0955 3.81755 16.2736C3.61659 14.4517 3.86566 12.6083 4.54291 10.905L5.58916 8.24066L11.7992 14.4507C12.1561 14.792 12.6309 14.9825 13.1248 14.9825C13.6186 14.9825 14.0935 14.792 14.4504 14.4507C14.8019 14.099 14.9994 13.6222 14.9994 13.125C14.9994 12.6279 14.8019 12.151 14.4504 11.7994L8.23666 5.58566L10.9048 4.54129C12.6082 3.86446 14.4516 3.61577 16.2735 3.81703C18.0954 4.01829 19.8401 4.66335 21.3547 5.69567C22.8693 6.72799 24.1076 8.11605 24.961 9.73821C25.8144 11.3604 26.257 13.1671 26.2498 15C26.2499 15.9802 26.1174 16.956 25.856 17.9007L42.0992 34.1438C43.0448 33.8868 44.0199 33.7544 44.9998 33.75C46.8327 33.7427 48.6395 34.1852 50.2617 35.0386C51.8838 35.892 53.2718 37.1304 54.304 38.6451C55.3362 40.1598 55.9811 41.9046 56.182 43.7265C56.383 45.5484 56.1339 47.3918 55.4567 49.095L54.4123 51.7594L48.2004 45.5494C47.8436 45.2087 47.3691 45.0185 46.8757 45.0185C46.3823 45.0185 45.9079 45.2087 45.551 45.5494C45.1993 45.9008 45.0015 46.3775 45.0011 46.8746C45.0008 47.3718 45.1979 47.8488 45.5492 48.2007L51.761 54.4125L49.0948 55.4588C47.791 55.9755 46.4022 56.2438 44.9998 56.25ZM18.8679 21.5175L38.4804 41.1338L38.0323 42.2757C37.5931 43.3735 37.4215 44.56 37.5315 45.7372C37.6415 46.9144 38.03 48.0486 38.6649 49.046C39.2998 50.0435 40.1629 50.8755 41.1829 51.4735C42.2029 52.0715 43.3506 52.4182 44.531 52.485L42.8979 50.8538C42.3755 50.3314 41.9611 49.7113 41.6783 49.0288C41.3956 48.3463 41.2501 47.6147 41.2501 46.876C41.2501 46.1372 41.3956 45.4057 41.6783 44.7232C41.9611 44.0406 42.3755 43.4205 42.8979 42.8982C43.969 41.8741 45.3938 41.3026 46.8757 41.3026C48.3576 41.3026 49.7824 41.8741 50.8535 42.8982L52.4848 44.5313C52.4177 43.3507 52.0707 42.2031 51.4725 41.1831C50.8743 40.1631 50.0421 39.3001 49.0445 38.6652C48.047 38.0303 46.9127 37.6418 45.7354 37.5318C44.558 37.4218 43.3714 37.5935 42.2735 38.0325L41.1317 38.4807L21.5192 18.8682L21.9692 17.7244C22.4079 16.6265 22.5792 15.4399 22.4689 14.2627C22.3586 13.0855 21.9699 11.9514 21.3349 10.954C20.6998 9.95667 19.8367 9.12467 18.8166 8.52671C17.7966 7.92875 16.649 7.58199 15.4685 7.51504L17.0998 9.14629C17.6222 9.66863 18.0366 10.2888 18.3194 10.9713C18.6021 11.6538 18.7476 12.3853 18.7476 13.1241C18.7476 13.8629 18.6021 14.5944 18.3194 15.2769C18.0366 15.9594 17.6222 16.5796 17.0998 17.1019C16.0287 18.126 14.6039 18.6975 13.122 18.6975C11.6401 18.6975 10.2153 18.126 9.14416 17.1019L7.51291 15.4688C7.57974 16.6493 7.92646 17.7969 8.52443 18.8169C9.1224 19.8369 9.95447 20.7 10.9519 21.3349C11.9493 21.9698 13.0835 22.3583 14.2607 22.4683C15.438 22.5783 16.6245 22.4067 17.7223 21.9675L18.8679 21.5175Z" fill="#82A816"/>
<path d="M54.6056 5.34384C53.5345 4.3198 52.1097 3.74829 50.6278 3.74829C49.1459 3.74829 47.7211 4.3198 46.65 5.34384L32.625 19.3688L35.2762 22.0201L49.3013 7.99509C49.6584 7.65421 50.1332 7.46402 50.6269 7.46402C51.1206 7.46402 51.5953 7.65421 51.9525 7.99509C52.304 8.34671 52.5015 8.82353 52.5015 9.32072C52.5015 9.8179 52.304 10.2947 51.9525 10.6463L37.9275 24.6713L40.5788 27.3245L54.6038 13.2995C55.6575 12.2438 56.2493 10.8132 56.2493 9.32165C56.2493 7.8301 55.6593 6.39949 54.6056 5.34384Z" fill="#82A816"/>
</svg>
