<svg width="38" height="38" viewBox="0 0 38 38" fill="none" xmlns="http://www.w3.org/2000/svg">
<path fill-rule="evenodd" clip-rule="evenodd" d="M37.058 26.7031C36.1965 24.9685 35.0615 23.3839 33.6965 22.0101C33.2393 21.4947 32.7613 20.9982 32.2636 20.5217L32.2035 20.4632C32.0185 20.284 31.8359 20.1024 31.6556 19.9185C33.522 17.3232 35.1189 14.5443 36.4215 11.625L36.4737 11.5078L36.5101 11.3843C36.6827 10.8096 36.879 9.71707 36.1824 8.72907C35.4604 7.70941 34.3061 7.52574 33.5319 7.52574H29.9741C29.2291 7.4913 28.4923 7.69367 27.8694 8.10384C27.2464 8.514 26.7694 9.11089 26.5066 9.80891C25.741 11.6324 24.7824 13.3686 23.6471 14.988V10.8191C23.6471 10.2807 23.5965 9.37824 23.0185 8.61824C22.3282 7.70624 21.3291 7.52574 20.6356 7.52574H14.9895C14.2527 7.50879 13.5376 7.77585 12.9923 8.27161C12.4471 8.76737 12.1133 9.45386 12.0603 10.1889L12.0555 10.2602V10.3314C12.0555 11.0993 12.3595 11.6662 12.6034 12.0224C12.7126 12.1823 12.8282 12.328 12.9026 12.4198L12.9185 12.4404C12.9976 12.5386 13.0499 12.6035 13.1021 12.6763C13.2415 12.8632 13.4394 13.1545 13.4964 13.905V16.2372C12.3631 14.3392 11.4338 12.3267 10.724 10.2332L10.7113 10.1984L10.6986 10.1652C10.5055 9.66007 10.1967 8.92541 9.57762 8.36491C8.85562 7.70782 8.00062 7.52574 7.22321 7.52574H3.61321C2.82629 7.52574 1.87787 7.70941 1.17012 8.45516C0.475041 9.18982 0.395874 10.0702 0.395874 10.5357V10.7478L0.440207 10.9537C1.43813 15.5946 3.49811 19.9411 6.45846 23.652C7.81113 25.7853 9.64763 27.5697 11.819 28.8605C13.9903 30.1513 16.4353 30.912 18.9557 31.081L19.0206 31.0857H19.0871C20.2366 31.0857 21.4352 30.986 22.3361 30.3859C23.5505 29.5752 23.6471 28.3323 23.6471 27.7117V25.9098C23.959 26.1632 24.3454 26.502 24.8188 26.958C25.392 27.5312 25.848 28.0283 26.239 28.4622L26.448 28.6933C26.752 29.0322 27.0513 29.3662 27.3236 29.6402C27.6656 29.9837 28.0884 30.3622 28.6172 30.6424C29.192 30.9448 29.7952 31.0826 30.4349 31.0826H34.0465C34.808 31.0826 35.899 30.9021 36.6669 30.0122C37.5029 29.0432 37.4395 27.8542 37.1767 27.0007L37.1292 26.8472L37.058 26.7031ZM28.0013 26.8709C27.5107 26.3223 27.0054 25.7869 26.486 25.2654L26.4813 25.2607C24.3327 23.1897 23.3305 22.8302 22.6211 22.8302C22.2427 22.8302 21.8263 22.8714 21.5555 23.2102C21.4351 23.3727 21.3553 23.5616 21.3228 23.7612C21.285 23.9936 21.2681 24.2289 21.2721 24.4642V27.7117C21.2721 28.1154 21.2056 28.2848 21.0188 28.4083C20.7702 28.5746 20.2398 28.7092 19.1014 28.7092C16.9389 28.562 14.8422 27.9037 12.9837 26.7884C11.1251 25.6731 9.55787 24.1325 8.41071 22.2935L8.39804 22.2729L8.38221 22.2539C5.62433 18.824 3.70314 14.7989 2.77087 10.4977C2.77721 10.2918 2.82154 10.1667 2.89437 10.0907C2.96879 10.0116 3.15087 9.90074 3.61321 9.90074H7.22321C7.62379 9.90074 7.83279 9.98941 7.98321 10.124C8.15104 10.2792 8.29987 10.5404 8.47721 11.0059C9.36388 13.6121 10.5609 16.0504 11.6961 17.8427C12.263 18.7373 12.8203 19.4831 13.3238 20.0103C13.5755 20.2732 13.821 20.4917 14.0569 20.6468C14.2833 20.7957 14.5414 20.9144 14.8074 20.9144C14.9467 20.9144 15.1098 20.8986 15.2665 20.8305C15.436 20.756 15.5755 20.6266 15.6624 20.4632C15.8255 20.1655 15.8714 19.7269 15.8714 19.1522V13.8116C15.7875 12.5164 15.3964 11.7865 15.0164 11.2687C14.9393 11.1653 14.8601 11.0634 14.7789 10.9632L14.7583 10.9378C14.6911 10.8556 14.6267 10.7711 14.5651 10.6845C14.488 10.5872 14.4412 10.4694 14.4305 10.3457C14.443 10.2198 14.503 10.1035 14.5984 10.0205C14.6937 9.93752 14.8172 9.8941 14.9435 9.89916H20.6356C20.9618 9.89916 21.071 9.97832 21.1265 10.0527C21.2056 10.1557 21.2721 10.3694 21.2721 10.8191V17.9884C21.2721 18.8402 21.6648 19.4166 22.2348 19.4166C22.8903 19.4166 23.3637 19.0192 24.1902 18.1927L24.2045 18.1768L24.2171 18.1626C26.0714 15.9022 27.5862 13.3835 28.7138 10.6861L28.7201 10.6671C28.8044 10.4285 28.9647 10.2241 29.1764 10.0854C29.388 9.94666 29.6394 9.88124 29.8918 9.89916H33.5335C34.0275 9.89916 34.189 10.0258 34.2428 10.1002C34.2982 10.1794 34.3378 10.3488 34.2428 10.6813C32.9424 13.589 31.3346 16.3491 29.4469 18.9147L29.4342 18.9337C29.2521 19.2139 29.051 19.5242 29.0225 19.8789C28.9909 20.2621 29.1555 20.6088 29.4453 20.9825C29.6559 21.2928 30.0913 21.7187 30.533 22.151L30.5742 22.1922C31.0365 22.645 31.5385 23.1358 31.9406 23.6108L31.9517 23.6219L31.9628 23.6346C33.1619 24.8309 34.1591 26.2137 34.9157 27.7291C35.036 28.1407 34.9632 28.3529 34.8682 28.4622C34.759 28.5888 34.5135 28.7076 34.048 28.7076H30.4349C30.1886 28.7143 29.9447 28.657 29.7271 28.5413C29.4607 28.3853 29.2185 28.1911 29.0083 27.965C28.7819 27.7386 28.5365 27.4647 28.2356 27.1306L28.0013 26.8709Z" fill="#82A816"/>
</svg>
