<svg width="40" height="40" viewBox="0 0 40 40" fill="none" xmlns="http://www.w3.org/2000/svg">
<g clip-path="url(#clip0_4_1109)">
<path d="M20 0.800003C9.39605 0.800003 0.800049 9.396 0.800049 20C0.800049 30.604 9.39605 39.2 20 39.2C30.604 39.2 39.2001 30.604 39.2001 20C39.2001 9.396 30.604 0.800003 20 0.800003ZM27.3841 22.462C27.3841 22.462 29.0821 24.138 29.5 24.916C29.512 24.9333 29.5194 24.9467 29.522 24.956C29.6914 25.24 29.7334 25.4647 29.6481 25.63C29.5081 25.906 29.028 26.042 28.864 26.054H25.864C25.656 26.054 25.22 26 24.692 25.636C24.286 25.352 23.886 24.886 23.496 24.432C22.914 23.756 22.41 23.172 21.9021 23.172C21.8375 23.1717 21.7734 23.1819 21.712 23.202C21.328 23.326 20.8361 23.874 20.8361 25.334C20.8361 25.79 20.476 26.052 20.222 26.052H18.848C18.38 26.052 15.942 25.888 13.782 23.61C11.138 20.82 8.75805 15.224 8.73805 15.172C8.58805 14.81 8.89805 14.616 9.23605 14.616H12.266C12.67 14.616 12.802 14.862 12.894 15.08C13.002 15.334 13.398 16.344 14.048 17.48C15.102 19.332 15.748 20.084 16.266 20.084C16.3632 20.0829 16.4586 20.0582 16.544 20.012C17.22 19.636 17.094 17.226 17.064 16.726C17.064 16.632 17.062 15.648 16.716 15.176C16.468 14.834 16.046 14.704 15.79 14.656C15.8937 14.513 16.0302 14.3971 16.188 14.318C16.652 14.086 17.4881 14.052 18.3181 14.052H18.7801C19.68 14.064 19.9121 14.122 20.2381 14.204C20.8981 14.362 20.9121 14.788 20.854 16.246C20.8361 16.66 20.8181 17.128 20.8181 17.68L20.812 18.064C20.792 18.806 20.768 19.648 21.292 19.994C21.3596 20.0386 21.4391 20.0616 21.5201 20.06C21.702 20.06 22.25 20.06 23.734 17.514C24.19 16.6936 24.5877 15.8422 24.924 14.966C24.9541 14.914 25.042 14.754 25.146 14.692C25.2236 14.6551 25.3082 14.6354 25.394 14.634H28.956C29.344 14.634 29.6101 14.692 29.66 14.842C29.748 15.08 29.644 15.806 28.018 18.008L27.292 18.966C25.8181 20.898 25.8181 20.996 27.3841 22.462Z" fill="#F7FFE1"/>
</g>
<defs>
<clipPath id="clip0_4_1109">
<rect width="40" height="40" fill="white"/>
</clipPath>
</defs>
</svg>
