<svg width="24" height="24" viewBox="0 0 24 24" fill="none" xmlns="http://www.w3.org/2000/svg">
<path fill-rule="evenodd" clip-rule="evenodd" d="M23.405 16.8649C22.8609 15.7694 22.1441 14.7686 21.282 13.9009C20.9932 13.5754 20.6913 13.2618 20.377 12.9609L20.339 12.9239C20.2222 12.8107 20.1069 12.696 19.993 12.5799C21.1718 10.9407 22.1803 9.18564 23.003 7.34187L23.036 7.26787L23.059 7.18987C23.168 6.82687 23.292 6.13687 22.852 5.51287C22.396 4.86887 21.667 4.75287 21.178 4.75287H18.931C18.4605 4.73112 17.9951 4.85893 17.6017 5.11798C17.2082 5.37703 16.907 5.75401 16.741 6.19487C16.2575 7.34653 15.652 8.44311 14.935 9.46587V6.83287C14.935 6.49287 14.903 5.92287 14.538 5.44287C14.102 4.86687 13.471 4.75287 13.033 4.75287H9.467C9.00168 4.74216 8.55006 4.91083 8.20567 5.22394C7.86128 5.53706 7.65051 5.97063 7.617 6.43487L7.614 6.47987V6.52487C7.614 7.00987 7.806 7.36787 7.96 7.59287C8.029 7.69387 8.102 7.78587 8.149 7.84387L8.159 7.85687C8.209 7.91887 8.242 7.95987 8.275 8.00587C8.363 8.12387 8.488 8.30787 8.524 8.78187V10.2549C7.80828 9.05614 7.22134 7.78507 6.773 6.46287L6.765 6.44087L6.757 6.41987C6.635 6.10087 6.44 5.63687 6.049 5.28287C5.593 4.86787 5.053 4.75287 4.562 4.75287H2.282C1.785 4.75287 1.186 4.86887 0.739 5.33987C0.3 5.80387 0.25 6.35987 0.25 6.65387V6.78787L0.278 6.91787C0.908264 9.849 2.20931 12.5942 4.079 14.9379C4.93332 16.2852 6.09321 17.4122 7.46459 18.2275C8.83596 19.0427 10.3802 19.5231 11.972 19.6299L12.013 19.6329H12.055C12.781 19.6329 13.538 19.5699 14.107 19.1909C14.874 18.6789 14.935 17.8939 14.935 17.5019V16.3639C15.132 16.5239 15.376 16.7379 15.675 17.0259C16.037 17.3879 16.325 17.7019 16.572 17.9759L16.704 18.1219C16.896 18.3359 17.085 18.5469 17.257 18.7199C17.473 18.9369 17.74 19.1759 18.074 19.3529C18.437 19.5439 18.818 19.6309 19.222 19.6309H21.503C21.984 19.6309 22.673 19.5169 23.158 18.9549C23.686 18.3429 23.646 17.5919 23.48 17.0529L23.45 16.9559L23.405 16.8649ZM17.685 16.9709C17.3751 16.6244 17.056 16.2863 16.728 15.9569L16.725 15.9539C15.368 14.6459 14.735 14.4189 14.287 14.4189C14.048 14.4189 13.785 14.4449 13.614 14.6589C13.5379 14.7615 13.4875 14.8808 13.467 15.0069C13.4432 15.1536 13.4324 15.3022 13.435 15.4509V17.5019C13.435 17.7569 13.393 17.8639 13.275 17.9419C13.118 18.0469 12.783 18.1319 12.064 18.1319C10.6982 18.0389 9.37398 17.6232 8.20018 16.9188C7.02637 16.2143 6.03652 15.2414 5.312 14.0799L5.304 14.0669L5.294 14.0549C3.55218 11.8886 2.3388 9.34647 1.75 6.62987C1.754 6.49987 1.782 6.42087 1.828 6.37287C1.875 6.32287 1.99 6.25287 2.282 6.25287H4.562C4.815 6.25287 4.947 6.30887 5.042 6.39387C5.148 6.49187 5.242 6.65687 5.354 6.95087C5.914 8.59687 6.67 10.1369 7.387 11.2689C7.745 11.8339 8.097 12.3049 8.415 12.6379C8.574 12.8039 8.729 12.9419 8.878 13.0399C9.021 13.1339 9.184 13.2089 9.352 13.2089C9.44 13.2089 9.543 13.1989 9.642 13.1559C9.74905 13.1088 9.83712 13.0271 9.892 12.9239C9.995 12.7359 10.024 12.4589 10.024 12.0959V8.72287C9.971 7.90487 9.724 7.44387 9.484 7.11687C9.43532 7.05152 9.38531 6.98718 9.334 6.92387L9.321 6.90787C9.27856 6.85591 9.23787 6.80255 9.199 6.74787C9.1503 6.68641 9.12075 6.61199 9.114 6.53387C9.12185 6.4544 9.15976 6.38094 9.21999 6.32852C9.28023 6.2761 9.35822 6.24868 9.438 6.25187H13.033C13.239 6.25187 13.308 6.30187 13.343 6.34887C13.393 6.41387 13.435 6.54887 13.435 6.83287V11.3609C13.435 11.8989 13.683 12.2629 14.043 12.2629C14.457 12.2629 14.756 12.0119 15.278 11.4899L15.287 11.4799L15.295 11.4709C16.4661 10.0432 17.4228 8.45251 18.135 6.74887L18.139 6.73687C18.1922 6.58616 18.2935 6.4571 18.4272 6.36948C18.5608 6.28187 18.7196 6.24055 18.879 6.25187H21.179C21.491 6.25187 21.593 6.33187 21.627 6.37887C21.662 6.42887 21.687 6.53587 21.627 6.74587C20.8057 8.58228 19.7903 10.3255 18.598 11.9459L18.59 11.9579C18.475 12.1349 18.348 12.3309 18.33 12.5549C18.31 12.7969 18.414 13.0159 18.597 13.2519C18.73 13.4479 19.005 13.7169 19.284 13.9899L19.31 14.0159C19.602 14.3019 19.919 14.6119 20.173 14.9119L20.18 14.9189L20.187 14.9269C20.9443 15.6824 21.5741 16.5558 22.052 17.5129C22.128 17.7729 22.082 17.9069 22.022 17.9759C21.953 18.0559 21.798 18.1309 21.504 18.1309H19.222C19.0664 18.1351 18.9124 18.0989 18.775 18.0259C18.6067 17.9273 18.4538 17.8047 18.321 17.6619C18.178 17.5189 18.023 17.3459 17.833 17.1349L17.685 16.9709Z" fill="#F7FFE1"/>
</svg>
