<svg width="429" height="98" viewBox="0 0 429 98" fill="none" xmlns="http://www.w3.org/2000/svg">
<path d="M79.4248 53.8936C79.4248 53.9782 79.4248 54.0628 79.4248 54.1475C79.4248 55.0277 79.2979 55.8825 79.0439 56.7119C78.79 57.5413 78.4176 58.3242 77.9268 59.0605C77.4359 59.7884 76.8477 60.4486 76.1621 61.041C75.4766 61.625 74.7191 62.1201 73.8896 62.5264C73.0687 62.9326 72.1885 63.2458 71.249 63.4658C70.3096 63.6859 69.349 63.7959 68.3672 63.7959C67.1992 63.7959 66.0143 63.6309 64.8125 63.3008C63.6191 62.9707 62.4596 62.4544 61.334 61.752C60.2083 61.041 59.1419 60.1312 58.1348 59.0225C57.1276 57.9137 56.2305 56.5807 55.4434 55.0234L58.0713 53.7031C58.6891 54.9303 59.3916 55.9925 60.1787 56.8896C60.9658 57.7783 61.8037 58.5104 62.6924 59.0859C63.5895 59.6615 64.5205 60.0889 65.4854 60.3682C66.4587 60.6475 67.4404 60.7871 68.4307 60.7871C69.3109 60.7871 70.1149 60.6898 70.8428 60.4951C71.5706 60.3005 72.2223 60.0381 72.7979 59.708C73.3734 59.3779 73.8727 58.9928 74.2959 58.5527C74.7191 58.1042 75.0703 57.626 75.3496 57.1182C75.6289 56.6104 75.832 56.0941 75.959 55.5693C76.0859 55.0446 76.1494 54.5368 76.1494 54.0459C76.1494 54.0205 76.1494 53.9909 76.1494 53.957C76.141 53.39 76.069 52.8314 75.9336 52.2812C75.8066 51.7227 75.6077 51.1937 75.3369 50.6943C75.0661 50.1865 74.7106 49.7168 74.2705 49.2852C73.8389 48.8535 73.3099 48.4811 72.6836 48.168C72.0573 47.8464 71.3294 47.5967 70.5 47.4189C69.6706 47.2412 68.7184 47.1523 67.6436 47.1523C64.9691 47.1523 62.667 47.6813 60.7373 48.7393C58.8076 49.7887 57.2461 51.3714 56.0527 53.4873C55.9089 53.7412 55.7184 54.1094 55.4814 54.5918C55.2529 55.0658 55.0286 55.6413 54.8086 56.3184C54.5885 56.9954 54.3981 57.7656 54.2373 58.6289C54.0765 59.4922 53.9961 60.4359 53.9961 61.46V63.3262H50.5303V61.46C50.5303 60.4274 50.4456 59.4795 50.2764 58.6162C50.1156 57.7445 49.9251 56.9701 49.7051 56.293C49.485 55.6074 49.2565 55.0277 49.0195 54.5537C48.791 54.0798 48.609 53.7243 48.4736 53.4873C47.2803 51.3714 45.7188 49.7887 43.7891 48.7393C41.8594 47.6813 39.5573 47.1523 36.8828 47.1523C35.8164 47.1523 34.8643 47.2412 34.0264 47.4189C33.1969 47.5967 32.4691 47.8464 31.8428 48.168C31.2165 48.4811 30.6833 48.8535 30.2432 49.2852C29.8115 49.7168 29.4603 50.1865 29.1895 50.6943C28.9186 51.1937 28.7197 51.7227 28.5928 52.2812C28.4658 52.8314 28.3981 53.39 28.3896 53.957C28.3896 53.9909 28.3896 54.0247 28.3896 54.0586C28.3896 54.541 28.4489 55.0446 28.5674 55.5693C28.6943 56.0941 28.8975 56.6104 29.1768 57.1182C29.4561 57.626 29.8073 58.1042 30.2305 58.5527C30.6536 58.9928 31.153 59.3779 31.7285 59.708C32.304 60.0381 32.9557 60.3005 33.6836 60.4951C34.4115 60.6898 35.2155 60.7871 36.0957 60.7871C37.0859 60.7871 38.0635 60.6475 39.0283 60.3682C40.0016 60.0889 40.9326 59.6615 41.8213 59.0859C42.7184 58.5104 43.5605 57.7783 44.3477 56.8896C45.1348 55.9925 45.8372 54.9303 46.4551 53.7031L49.083 55.0234C48.2959 56.5807 47.3945 57.9137 46.3789 59.0225C45.3717 60.1312 44.3053 61.041 43.1797 61.752C42.054 62.4629 40.8903 62.9834 39.6885 63.3135C38.4867 63.6351 37.3018 63.7959 36.1338 63.7959C35.152 63.7959 34.1914 63.6859 33.252 63.4658C32.321 63.2458 31.4408 62.9326 30.6113 62.5264C29.7904 62.1117 29.0371 61.6123 28.3516 61.0283C27.666 60.4443 27.0778 59.7842 26.5869 59.0479C26.1045 58.3115 25.7363 57.5329 25.4824 56.7119C25.2285 55.8825 25.1016 55.0277 25.1016 54.1475C25.1016 54.0628 25.1016 53.9782 25.1016 53.8936C25.1185 53.1149 25.2285 52.3363 25.4316 51.5576C25.6348 50.779 25.9395 50.0342 26.3457 49.3232C26.752 48.6038 27.2682 47.9352 27.8945 47.3174C28.5208 46.6995 29.2656 46.1621 30.1289 45.7051C31.0007 45.248 31.9951 44.8883 33.1123 44.626C34.2295 44.3636 35.4863 44.2324 36.8828 44.2324C38.7363 44.2324 40.3867 44.4398 41.834 44.8545C43.2897 45.2607 44.5677 45.7982 45.668 46.4668C46.7767 47.127 47.7288 47.876 48.5244 48.7139C49.32 49.5433 49.9886 50.3812 50.5303 51.2275V44.7021H53.9961V51.2275C54.5378 50.3812 55.2064 49.5433 56.002 48.7139C56.7975 47.876 57.7454 47.127 58.8457 46.4668C59.9544 45.7982 61.2324 45.2607 62.6797 44.8545C64.1354 44.4398 65.79 44.2324 67.6436 44.2324C69.04 44.2324 70.2969 44.3636 71.4141 44.626C72.5312 44.8883 73.5215 45.248 74.3848 45.7051C75.2565 46.1621 76.0055 46.6995 76.6318 47.3174C77.2581 47.9352 77.7744 48.6038 78.1807 49.3232C78.5869 50.0342 78.8916 50.779 79.0947 51.5576C79.2979 52.3363 79.4079 53.1149 79.4248 53.8936ZM100.651 59.4668C100.042 60.237 99.3734 60.8971 98.6455 61.4473C97.9261 61.9889 97.1813 62.4333 96.4111 62.7803C95.641 63.1273 94.8623 63.3812 94.0752 63.542C93.2881 63.7028 92.5264 63.7832 91.79 63.7832C90.5374 63.7832 89.4202 63.6224 88.4385 63.3008C87.4567 62.9792 86.5934 62.5687 85.8486 62.0693C85.1038 61.57 84.4691 61.0199 83.9443 60.4189C83.4196 59.818 82.988 59.2383 82.6494 58.6797C82.3109 58.1126 82.0527 57.609 81.875 57.1689C81.6973 56.7288 81.5872 56.4199 81.5449 56.2422C81.0879 56.2337 80.7747 56.2295 80.6055 56.2295C80.4362 56.221 80.3262 56.2126 80.2754 56.2041L80.3516 53.2588C80.36 53.2588 80.377 53.2588 80.4023 53.2588C80.4362 53.2588 80.487 53.263 80.5547 53.2715C80.6309 53.2715 80.7324 53.2757 80.8594 53.2842C80.9948 53.2842 81.1641 53.2842 81.3672 53.2842C81.4603 52.5394 81.6507 51.8031 81.9385 51.0752C82.2262 50.3473 82.6029 49.6533 83.0684 48.9932C83.5423 48.333 84.0967 47.7194 84.7314 47.1523C85.3662 46.5853 86.0687 46.0902 86.8389 45.667C87.609 45.2438 88.4427 44.9095 89.3398 44.6641C90.237 44.4102 91.1849 44.2705 92.1836 44.2451C92.2936 44.2451 92.4036 44.2451 92.5137 44.2451C93.2331 44.2451 93.944 44.3255 94.6465 44.4863C95.349 44.6387 96.0218 44.8714 96.665 45.1846C97.3083 45.4893 97.888 45.8532 98.4043 46.2764C98.929 46.6911 99.3734 47.1396 99.7373 47.6221C100.101 48.1045 100.381 48.6081 100.575 49.1328C100.778 49.6491 100.88 50.1569 100.88 50.6562C100.88 51.4772 100.749 52.1839 100.486 52.7764C100.224 53.3604 99.8812 53.8512 99.458 54.249C99.0433 54.6468 98.5736 54.9642 98.0488 55.2012C97.5241 55.4382 96.9951 55.6243 96.4619 55.7598C95.9372 55.8867 95.4378 55.9714 94.9639 56.0137C94.4899 56.056 94.0921 56.0856 93.7705 56.1025L93.4404 56.1152C92.9242 56.1322 92.3275 56.1533 91.6504 56.1787C90.9818 56.1956 90.2751 56.2168 89.5303 56.2422C88.7855 56.2591 88.1211 56.2718 87.5371 56.2803C86.9616 56.2803 86.4876 56.2803 86.1152 56.2803C85.7428 56.2803 85.3747 56.2803 85.0107 56.2803C85.2816 56.9574 85.6709 57.571 86.1787 58.1211C86.695 58.6712 87.2747 59.1452 87.918 59.543C88.5697 59.9323 89.2594 60.2327 89.9873 60.4443C90.7152 60.6559 91.4346 60.7617 92.1455 60.7617C92.6956 60.7617 93.2458 60.6982 93.7959 60.5713C94.3545 60.4443 94.9046 60.2497 95.4463 59.9873C95.988 59.7165 96.5127 59.3695 97.0205 58.9463C97.5283 58.5146 98.0107 58.0026 98.4678 57.4102L100.651 59.4668ZM96.6523 48.9043C96.043 48.3118 95.3701 47.8802 94.6338 47.6094C93.9059 47.3385 93.1442 47.2031 92.3486 47.2031C91.4938 47.2031 90.6432 47.3512 89.7969 47.6475C88.959 47.9437 88.1888 48.3626 87.4863 48.9043C86.7923 49.4375 86.1956 50.0807 85.6963 50.834C85.2054 51.5788 84.8753 52.4082 84.7061 53.3223C85.1885 53.3307 85.6709 53.335 86.1533 53.335C86.3988 53.335 86.7627 53.335 87.2451 53.335C87.736 53.3265 88.3285 53.318 89.0225 53.3096C89.7249 53.2926 90.3893 53.2757 91.0156 53.2588C91.6419 53.2334 92.209 53.2038 92.7168 53.1699L92.9072 53.1572C93.762 53.098 94.4814 53.0091 95.0654 52.8906C95.6494 52.7721 96.1191 52.6156 96.4746 52.4209C96.8301 52.2178 97.084 51.9723 97.2363 51.6846C97.3971 51.3883 97.4775 51.0456 97.4775 50.6562C97.4775 50.0299 97.2025 49.446 96.6523 48.9043ZM126.283 58.9717C125.716 59.6572 125.022 60.2962 124.201 60.8887C123.389 61.4727 122.487 61.9805 121.497 62.4121C120.515 62.8438 119.466 63.1781 118.349 63.415C117.231 63.6605 116.089 63.7832 114.921 63.7832C113.736 63.7832 112.576 63.6647 111.442 63.4277C110.317 63.1908 109.255 62.8564 108.256 62.4248C107.257 61.9932 106.339 61.4769 105.501 60.876C104.663 60.2751 103.944 59.6149 103.343 58.8955C102.742 58.1676 102.272 57.3932 101.934 56.5723C101.595 55.7428 101.426 54.888 101.426 54.0078C101.426 53.1276 101.595 52.277 101.934 51.4561C102.272 50.6266 102.742 49.8522 103.343 49.1328C103.944 48.4049 104.663 47.7406 105.501 47.1396C106.339 46.5387 107.257 46.0225 108.256 45.5908C109.255 45.1592 110.317 44.8249 111.442 44.5879C112.576 44.3509 113.736 44.2324 114.921 44.2324C116.089 44.2324 117.231 44.3551 118.349 44.6006C119.466 44.8376 120.515 45.1719 121.497 45.6035C122.487 46.0267 123.389 46.5345 124.201 47.127C125.022 47.7109 125.716 48.3457 126.283 49.0312L123.389 50.7959C123.312 50.7028 123.181 50.5547 122.995 50.3516C122.817 50.14 122.572 49.9072 122.259 49.6533C121.946 49.391 121.565 49.1243 121.116 48.8535C120.676 48.5742 120.156 48.3245 119.555 48.1045C118.962 47.876 118.285 47.6898 117.523 47.5459C116.77 47.3936 115.928 47.3174 114.997 47.3174C113.389 47.3174 111.976 47.512 110.757 47.9014C109.538 48.2822 108.514 48.7858 107.685 49.4121C106.864 50.0384 106.242 50.7536 105.818 51.5576C105.395 52.3532 105.179 52.9668 105.171 53.3984C105.162 53.8301 105.158 54.0586 105.158 54.084C105.158 54.8965 105.353 55.6963 105.742 56.4834C106.14 57.2705 106.745 57.9772 107.558 58.6035C108.37 59.2298 109.394 59.7376 110.63 60.127C111.874 60.5078 113.33 60.6982 114.997 60.6982C115.937 60.6982 116.787 60.6221 117.549 60.4697C118.311 60.3174 118.992 60.127 119.593 59.8984C120.194 59.6699 120.714 59.416 121.154 59.1367C121.603 58.849 121.979 58.5781 122.284 58.3242C122.597 58.0703 122.843 57.8418 123.021 57.6387C123.198 57.4355 123.321 57.2959 123.389 57.2197L126.283 58.9717ZM139.88 47.6348H136.338L129.254 63.3135H125.687L132.771 47.6348H128.264L129.597 44.7021H141.213L139.88 47.6348ZM160.903 55.8867C160.895 56.0475 160.891 56.2126 160.891 56.3818C160.891 56.7204 160.912 57.1097 160.954 57.5498C160.996 57.9814 161.068 58.43 161.17 58.8955C161.28 59.3525 161.415 59.7503 161.576 60.0889C161.737 60.4189 161.919 60.639 162.122 60.749L160.535 63.7959C160.163 63.6012 159.803 63.3177 159.456 62.9453C159.109 62.5645 158.8 62.1286 158.529 61.6377C158.267 61.1383 158.055 60.5967 157.895 60.0127C157.742 59.4202 157.666 58.8151 157.666 58.1973C157.539 58.3327 157.357 58.54 157.12 58.8193C156.892 59.0986 156.617 59.4118 156.295 59.7588C155.982 60.0973 155.622 60.457 155.216 60.8379C154.81 61.2103 154.365 61.57 153.883 61.917C153.409 62.264 152.893 62.5814 152.334 62.8691C151.784 63.1484 151.204 63.36 150.595 63.5039C150.341 63.5716 150.04 63.6266 149.693 63.6689C149.355 63.7113 148.987 63.7324 148.589 63.7324C148.191 63.7324 147.776 63.7028 147.345 63.6436C146.913 63.5843 146.486 63.4743 146.062 63.3135C145.639 63.1611 145.229 62.958 144.831 62.7041C144.442 62.4417 144.082 62.1159 143.752 61.7266C143.422 61.3288 143.134 60.8548 142.889 60.3047C142.652 59.7546 142.478 59.1156 142.368 58.3877C142.275 57.7783 142.203 57.1859 142.152 56.6104C142.11 56.0264 142.08 55.5059 142.063 55.0488C142.047 54.6426 142.038 54.2533 142.038 53.8809V44.7021H145.479V55.0615C145.479 56.0602 145.559 56.9023 145.72 57.5879C145.889 58.2734 146.113 58.8278 146.393 59.251C146.68 59.6657 147.015 59.9661 147.396 60.1523C147.785 60.3301 148.2 60.4189 148.64 60.4189C149.097 60.4189 149.571 60.3385 150.062 60.1777C150.561 60.0085 151.052 59.7884 151.534 59.5176C152.017 59.2467 152.482 58.9378 152.931 58.5908C153.388 58.2438 153.798 57.8926 154.162 57.5371C155.008 56.7161 155.694 55.9671 156.219 55.29C156.752 54.6045 157.167 54.0247 157.463 53.5508V44.7021H160.903V55.8867ZM186.751 53.7793C187.919 54.3379 188.799 54.9727 189.392 55.6836C189.993 56.3861 190.293 57.1732 190.293 58.0449C190.293 58.4004 190.229 58.7982 190.103 59.2383C189.984 59.6784 189.76 60.1185 189.43 60.5586C189.108 60.9987 188.668 61.4219 188.109 61.8281C187.551 62.2259 186.836 62.5645 185.964 62.8438C184.982 63.1654 183.84 63.4023 182.536 63.5547C181.233 63.7155 179.769 63.7959 178.144 63.7959C177.001 63.7959 175.88 63.7155 174.779 63.5547C173.688 63.3939 172.655 63.1654 171.682 62.8691C170.717 62.5645 169.837 62.2005 169.041 61.7773C168.245 61.3542 167.573 60.8844 167.022 60.3682L169.041 58.2354C169.371 58.5485 169.828 58.8659 170.412 59.1875C170.996 59.5007 171.677 59.7799 172.456 60.0254C173.243 60.2708 174.115 60.474 175.071 60.6348C176.028 60.7871 177.052 60.8633 178.144 60.8633C178.643 60.8633 179.206 60.8421 179.832 60.7998C180.458 60.7575 181.093 60.6898 181.736 60.5967C182.38 60.5036 183.006 60.3851 183.615 60.2412C184.233 60.0973 184.779 59.9281 185.253 59.7334C185.735 59.5303 186.12 59.2975 186.408 59.0352C186.704 58.7643 186.853 58.4639 186.853 58.1338C186.853 57.8545 186.747 57.5583 186.535 57.2451C186.324 56.932 185.96 56.6442 185.443 56.3818C184.936 56.1195 184.254 55.9036 183.399 55.7344C182.553 55.5566 181.487 55.4678 180.2 55.4678H167.556C167.488 55.7386 167.412 56.0475 167.327 56.3945C167.243 56.7415 167.179 57.0758 167.137 57.3975C167.103 57.6598 167.069 57.9476 167.035 58.2607C167.001 58.5654 166.972 58.8828 166.946 59.2129C166.929 59.543 166.912 59.873 166.896 60.2031C166.879 60.5332 166.862 60.8506 166.845 61.1553C166.811 61.8662 166.79 62.5856 166.781 63.3135H163.582V44.7021H166.781V50.0088C166.866 49.8903 167.022 49.666 167.251 49.3359C167.479 49.0059 167.805 48.625 168.229 48.1934C168.66 47.7617 169.198 47.3132 169.841 46.8477C170.493 46.3822 171.271 45.9548 172.177 45.5654C173.082 45.1761 174.132 44.8545 175.325 44.6006C176.527 44.3467 177.89 44.2197 179.413 44.2197C180.81 44.2197 182.083 44.3509 183.234 44.6133C184.385 44.8757 185.384 45.2607 186.23 45.7686C187.085 46.2848 187.745 46.9069 188.211 47.6348C188.676 48.3542 188.909 49.1243 188.909 49.9453C188.909 50.6816 188.719 51.3799 188.338 52.04C187.965 52.7002 187.437 53.2799 186.751 53.7793ZM180.467 52.5352C181.415 52.5352 182.236 52.4505 182.93 52.2812C183.624 52.112 184.195 51.9004 184.644 51.6465C185.092 51.3926 185.426 51.1133 185.646 50.8086C185.867 50.5039 185.977 50.2161 185.977 49.9453C185.977 49.6576 185.867 49.3698 185.646 49.082C185.426 48.7943 185.113 48.5277 184.707 48.2822C184.495 48.1553 184.233 48.0241 183.92 47.8887C183.607 47.7533 183.234 47.6305 182.803 47.5205C182.371 47.4105 181.876 47.3216 181.317 47.2539C180.759 47.1862 180.124 47.1523 179.413 47.1523C177.881 47.1523 176.535 47.292 175.376 47.5713C174.216 47.8421 173.209 48.2188 172.354 48.7012C171.5 49.1836 170.776 49.7549 170.184 50.415C169.591 51.0667 169.092 51.7734 168.686 52.5352H180.467ZM220.559 44.7021V63.3135H217.093V61.5107C217.093 60.6136 217.021 59.7249 216.877 58.8447C216.742 57.9645 216.53 57.1012 216.242 56.2549C216.183 56.0687 216.086 55.7979 215.95 55.4424C215.815 55.0785 215.633 54.668 215.404 54.2109C215.176 53.7454 214.892 53.2503 214.554 52.7256C214.215 52.1924 213.805 51.6676 213.322 51.1514C212.848 50.6266 212.298 50.123 211.672 49.6406C211.046 49.1582 210.326 48.735 209.514 48.3711C208.701 47.9987 207.791 47.7025 206.784 47.4824C205.785 47.2624 204.673 47.1523 203.445 47.1523C202.379 47.1523 201.427 47.2454 200.589 47.4316C199.759 47.6094 199.032 47.859 198.405 48.1807C197.779 48.4938 197.246 48.8662 196.806 49.2979C196.374 49.7295 196.023 50.1992 195.752 50.707C195.481 51.2148 195.282 51.748 195.155 52.3066C195.028 52.8652 194.956 53.4281 194.939 53.9951C194.939 54.029 194.939 54.0586 194.939 54.084C194.939 54.5749 195.003 55.0827 195.13 55.6074C195.257 56.1322 195.46 56.6484 195.739 57.1562C196.019 57.6641 196.37 58.1423 196.793 58.5908C197.216 59.0394 197.715 59.4329 198.291 59.7715C198.867 60.1016 199.518 60.3639 200.246 60.5586C200.974 60.7533 201.778 60.8506 202.658 60.8506C203.648 60.8506 204.626 60.7109 205.591 60.4316C206.564 60.1523 207.495 59.7249 208.384 59.1494C209.281 58.5654 210.123 57.8249 210.91 56.9277C211.697 56.0306 212.4 54.9684 213.018 53.7412L215.646 55.0615C214.198 57.9391 212.374 60.1143 210.174 61.5869C207.973 63.0511 205.455 63.7832 202.62 63.7832C202.383 63.7832 202.083 63.7832 201.719 63.7832C201.355 63.7832 200.944 63.7578 200.487 63.707C200.03 63.6647 199.535 63.5843 199.002 63.4658C198.469 63.3473 197.914 63.1696 197.339 62.9326C196.763 62.6956 196.175 62.391 195.574 62.0186C194.982 61.6377 194.398 61.1637 193.822 60.5967C192.9 59.6911 192.206 58.6839 191.74 57.5752C191.283 56.4665 191.055 55.3154 191.055 54.1221C191.055 54.0628 191.055 53.9993 191.055 53.9316C191.072 53.153 191.194 52.3743 191.423 51.5957C191.66 50.8086 192.003 50.0553 192.451 49.3359C192.908 48.6165 193.475 47.9479 194.152 47.3301C194.829 46.7038 195.625 46.1621 196.539 45.7051C197.453 45.248 198.481 44.8883 199.624 44.626C200.775 44.3636 202.049 44.2324 203.445 44.2324C204.681 44.2324 205.824 44.3298 206.873 44.5244C207.931 44.7106 208.904 44.9688 209.793 45.2988C210.682 45.6289 211.494 46.0182 212.23 46.4668C212.967 46.9154 213.635 47.402 214.236 47.9268C214.837 48.443 215.37 48.9847 215.836 49.5518C216.31 50.1104 216.729 50.6732 217.093 51.2402V44.7021H220.559ZM235.006 44.7021V63.3135H231.68V48.5234L225.002 63.3135H221.358L229.775 44.6895H233.419V44.7021H235.006ZM256.728 59.4668C256.118 60.237 255.45 60.8971 254.722 61.4473C254.002 61.9889 253.257 62.4333 252.487 62.7803C251.717 63.1273 250.938 63.3812 250.151 63.542C249.364 63.7028 248.603 63.7832 247.866 63.7832C246.614 63.7832 245.496 63.6224 244.515 63.3008C243.533 62.9792 242.67 62.5687 241.925 62.0693C241.18 61.57 240.545 61.0199 240.021 60.4189C239.496 59.818 239.064 59.2383 238.726 58.6797C238.387 58.1126 238.129 57.609 237.951 57.1689C237.773 56.7288 237.663 56.4199 237.621 56.2422C237.164 56.2337 236.851 56.2295 236.682 56.2295C236.512 56.221 236.402 56.2126 236.352 56.2041L236.428 53.2588C236.436 53.2588 236.453 53.2588 236.479 53.2588C236.512 53.2588 236.563 53.263 236.631 53.2715C236.707 53.2715 236.809 53.2757 236.936 53.2842C237.071 53.2842 237.24 53.2842 237.443 53.2842C237.536 52.5394 237.727 51.8031 238.015 51.0752C238.302 50.3473 238.679 49.6533 239.145 48.9932C239.618 48.333 240.173 47.7194 240.808 47.1523C241.442 46.5853 242.145 46.0902 242.915 45.667C243.685 45.2438 244.519 44.9095 245.416 44.6641C246.313 44.4102 247.261 44.2705 248.26 44.2451C248.37 44.2451 248.48 44.2451 248.59 44.2451C249.309 44.2451 250.02 44.3255 250.723 44.4863C251.425 44.6387 252.098 44.8714 252.741 45.1846C253.384 45.4893 253.964 45.8532 254.48 46.2764C255.005 46.6911 255.45 47.1396 255.813 47.6221C256.177 48.1045 256.457 48.6081 256.651 49.1328C256.854 49.6491 256.956 50.1569 256.956 50.6562C256.956 51.4772 256.825 52.1839 256.562 52.7764C256.3 53.3604 255.957 53.8512 255.534 54.249C255.119 54.6468 254.65 54.9642 254.125 55.2012C253.6 55.4382 253.071 55.6243 252.538 55.7598C252.013 55.8867 251.514 55.9714 251.04 56.0137C250.566 56.056 250.168 56.0856 249.847 56.1025L249.517 56.1152C249 56.1322 248.404 56.1533 247.727 56.1787C247.058 56.1956 246.351 56.2168 245.606 56.2422C244.862 56.2591 244.197 56.2718 243.613 56.2803C243.038 56.2803 242.564 56.2803 242.191 56.2803C241.819 56.2803 241.451 56.2803 241.087 56.2803C241.358 56.9574 241.747 57.571 242.255 58.1211C242.771 58.6712 243.351 59.1452 243.994 59.543C244.646 59.9323 245.336 60.2327 246.063 60.4443C246.791 60.6559 247.511 60.7617 248.222 60.7617C248.772 60.7617 249.322 60.6982 249.872 60.5713C250.431 60.4443 250.981 60.2497 251.522 59.9873C252.064 59.7165 252.589 59.3695 253.097 58.9463C253.604 58.5146 254.087 58.0026 254.544 57.4102L256.728 59.4668ZM252.729 48.9043C252.119 48.3118 251.446 47.8802 250.71 47.6094C249.982 47.3385 249.22 47.2031 248.425 47.2031C247.57 47.2031 246.719 47.3512 245.873 47.6475C245.035 47.9437 244.265 48.3626 243.562 48.9043C242.868 49.4375 242.272 50.0807 241.772 50.834C241.282 51.5788 240.951 52.4082 240.782 53.3223C241.265 53.3307 241.747 53.335 242.229 53.335C242.475 53.335 242.839 53.335 243.321 53.335C243.812 53.3265 244.405 53.318 245.099 53.3096C245.801 53.2926 246.465 53.2757 247.092 53.2588C247.718 53.2334 248.285 53.2038 248.793 53.1699L248.983 53.1572C249.838 53.098 250.558 53.0091 251.142 52.8906C251.726 52.7721 252.195 52.6156 252.551 52.4209C252.906 52.2178 253.16 51.9723 253.312 51.6846C253.473 51.3883 253.554 51.0456 253.554 50.6562C253.554 50.0299 253.279 49.446 252.729 48.9043Z" fill="#82A816"/>
<path fill-rule="evenodd" clip-rule="evenodd" d="M46.6243 0.0618515C60.7159 -0.743533 74.3304 6.38159 82.8041 17.627C90.9978 28.5009 90.9414 42.5273 88.7335 55.945C86.2754 70.8832 83.572 87.9298 70.0875 94.9077C56.3319 102.026 40.002 95.6117 26.404 88.199C13.8454 81.3529 2.69225 70.9616 0.350609 56.8919C-1.86118 43.6024 6.78224 31.9469 15.3007 21.4851C23.6949 11.176 33.3214 0.82216 46.6243 0.0618515Z" fill="#82A816"/>
<mask id="mask0_78_103" style="mask-type:alpha" maskUnits="userSpaceOnUse" x="0" y="0" width="90" height="98">
<path fill-rule="evenodd" clip-rule="evenodd" d="M46.6243 0.0618515C60.7159 -0.743533 74.3304 6.38159 82.8041 17.627C90.9978 28.5009 90.9414 42.5273 88.7335 55.945C86.2754 70.8832 83.572 87.9298 70.0875 94.9077C56.3319 102.026 40.002 95.6117 26.404 88.199C13.8454 81.3529 2.69225 70.9616 0.350609 56.8919C-1.86118 43.6024 6.78224 31.9469 15.3007 21.4851C23.6949 11.176 33.3214 0.82216 46.6243 0.0618515Z" fill="#82A816"/>
</mask>
<g mask="url(#mask0_78_103)">
<path d="M40.8164 19.8555C42.0013 19.8555 43.1523 19.974 44.2695 20.2109C45.3952 20.4395 46.4531 20.7653 47.4434 21.1885C48.4336 21.6117 49.3392 22.1237 50.1602 22.7246C50.9811 23.3171 51.6878 23.9772 52.2803 24.7051C52.8812 25.4245 53.3467 26.2031 53.6768 27.041C54.0068 27.8704 54.1719 28.7337 54.1719 29.6309C54.1719 30.528 54.0068 31.3955 53.6768 32.2334C53.3467 33.0628 52.8812 33.8415 52.2803 34.5693C51.6878 35.2887 50.9811 35.9489 50.1602 36.5498C49.3392 37.1423 48.4336 37.6501 47.4434 38.0732C46.4531 38.4964 45.3952 38.8223 44.2695 39.0508C43.1523 39.2878 42.0013 39.4062 40.8164 39.4062C39.6315 39.4062 38.4762 39.2878 37.3506 39.0508C36.2334 38.8223 35.1797 38.4964 34.1895 38.0732C33.1992 37.6501 32.2894 37.1423 31.46 36.5498C30.639 35.9489 29.9323 35.2887 29.3398 34.5693C28.7474 33.8415 28.2861 33.0628 27.9561 32.2334C27.626 31.3955 27.4609 30.528 27.4609 29.6309C27.4609 28.7337 27.626 27.8704 27.9561 27.041C28.2861 26.2031 28.7474 25.4245 29.3398 24.7051C29.9323 23.9772 30.639 23.3171 31.46 22.7246C32.2894 22.1237 33.1992 21.6117 34.1895 21.1885C35.1797 20.7653 36.2334 20.4395 37.3506 20.2109C38.4762 19.974 39.6315 19.8555 40.8164 19.8555ZM31.0791 29.6309C31.0791 30.3757 31.2061 31.0612 31.46 31.6875C31.7139 32.3138 32.0651 32.8766 32.5137 33.376C32.9707 33.8753 33.5039 34.3112 34.1133 34.6836C34.7311 35.056 35.3997 35.3691 36.1191 35.623C36.8385 35.8685 37.596 36.0547 38.3916 36.1816C39.1872 36.3001 39.9912 36.3594 40.8037 36.3594C41.6162 36.3594 42.4202 36.3001 43.2158 36.1816C44.0114 36.0547 44.7689 35.8685 45.4883 35.623C46.2161 35.3691 46.8848 35.056 47.4941 34.6836C48.112 34.3027 48.6452 33.8626 49.0938 33.3633C49.5508 32.8639 49.9062 32.3053 50.1602 31.6875C50.4141 31.0612 50.541 30.3757 50.541 29.6309C50.541 28.8776 50.4141 28.1921 50.1602 27.5742C49.9062 26.9479 49.5508 26.3851 49.0938 25.8857C48.6452 25.3864 48.112 24.9505 47.4941 24.5781C46.8848 24.2057 46.2161 23.8968 45.4883 23.6514C44.7689 23.3975 44.0114 23.2113 43.2158 23.0928C42.4202 22.9658 41.6162 22.9023 40.8037 22.9023C39.9912 22.9023 39.1872 22.9658 38.3916 23.0928C37.596 23.2113 36.8385 23.3975 36.1191 23.6514C35.3997 23.8968 34.7311 24.21 34.1133 24.5908C33.5039 24.9632 32.9707 25.3991 32.5137 25.8984C32.0651 26.3978 31.7139 26.9606 31.46 27.5869C31.2061 28.2048 31.0791 28.8861 31.0791 29.6309Z" fill="#F7FFE1"/>
<path d="M79.6191 53.9531C79.6191 54.0378 79.6191 54.1224 79.6191 54.207C79.6191 55.0872 79.4922 55.9421 79.2383 56.7715C78.9844 57.6009 78.612 58.3838 78.1211 59.1201C77.6302 59.848 77.042 60.5081 76.3564 61.1006C75.6709 61.6846 74.9134 62.1797 74.084 62.5859C73.263 62.9922 72.3828 63.3053 71.4434 63.5254C70.5039 63.7454 69.5433 63.8555 68.5615 63.8555C67.3936 63.8555 66.2087 63.6904 65.0068 63.3604C63.8135 63.0303 62.654 62.514 61.5283 61.8115C60.4027 61.1006 59.3363 60.1908 58.3291 59.082C57.3219 57.9733 56.4248 56.6403 55.6377 55.083L58.2656 53.7627C58.8835 54.9899 59.5859 56.0521 60.373 56.9492C61.1602 57.8379 61.998 58.57 62.8867 59.1455C63.7839 59.721 64.7148 60.1484 65.6797 60.4277C66.653 60.707 67.6348 60.8467 68.625 60.8467C69.5052 60.8467 70.3092 60.7493 71.0371 60.5547C71.765 60.36 72.4167 60.0977 72.9922 59.7676C73.5677 59.4375 74.0671 59.0524 74.4902 58.6123C74.9134 58.1637 75.2646 57.6855 75.5439 57.1777C75.8232 56.6699 76.0264 56.1536 76.1533 55.6289C76.2803 55.1042 76.3438 54.5964 76.3438 54.1055C76.3438 54.0801 76.3438 54.0505 76.3438 54.0166C76.3353 53.4495 76.2633 52.891 76.1279 52.3408C76.001 51.7822 75.8021 51.2533 75.5312 50.7539C75.2604 50.2461 74.9049 49.7764 74.4648 49.3447C74.0332 48.9131 73.5042 48.5407 72.8779 48.2275C72.2516 47.9059 71.5238 47.6562 70.6943 47.4785C69.8649 47.3008 68.9128 47.2119 67.8379 47.2119C65.1634 47.2119 62.8613 47.7409 60.9316 48.7988C59.002 49.8483 57.4404 51.431 56.2471 53.5469C56.1032 53.8008 55.9128 54.1689 55.6758 54.6514C55.4473 55.1253 55.223 55.7008 55.0029 56.3779C54.7829 57.055 54.5924 57.8252 54.4316 58.6885C54.2708 59.5518 54.1904 60.4954 54.1904 61.5195V63.3857H50.7246V61.5195C50.7246 60.487 50.64 59.5391 50.4707 58.6758C50.3099 57.804 50.1195 57.0296 49.8994 56.3525C49.6794 55.667 49.4508 55.0872 49.2139 54.6133C48.9854 54.1393 48.8034 53.7839 48.668 53.5469C47.4746 51.431 45.9131 49.8483 43.9834 48.7988C42.0537 47.7409 39.7516 47.2119 37.0771 47.2119C36.0107 47.2119 35.0586 47.3008 34.2207 47.4785C33.3913 47.6562 32.6634 47.9059 32.0371 48.2275C31.4108 48.5407 30.8776 48.9131 30.4375 49.3447C30.0059 49.7764 29.6546 50.2461 29.3838 50.7539C29.113 51.2533 28.9141 51.7822 28.7871 52.3408C28.6602 52.891 28.5924 53.4495 28.584 54.0166C28.584 54.0505 28.584 54.0843 28.584 54.1182C28.584 54.6006 28.6432 55.1042 28.7617 55.6289C28.8887 56.1536 29.0918 56.6699 29.3711 57.1777C29.6504 57.6855 30.0016 58.1637 30.4248 58.6123C30.848 59.0524 31.3473 59.4375 31.9229 59.7676C32.4984 60.0977 33.1501 60.36 33.8779 60.5547C34.6058 60.7493 35.4098 60.8467 36.29 60.8467C37.2803 60.8467 38.2578 60.707 39.2227 60.4277C40.196 60.1484 41.127 59.721 42.0156 59.1455C42.9128 58.57 43.7549 57.8379 44.542 56.9492C45.3291 56.0521 46.0316 54.9899 46.6494 53.7627L49.2773 55.083C48.4902 56.6403 47.5889 57.9733 46.5732 59.082C45.5661 60.1908 44.4997 61.1006 43.374 61.8115C42.2484 62.5225 41.0846 63.043 39.8828 63.373C38.681 63.6947 37.4961 63.8555 36.3281 63.8555C35.3464 63.8555 34.3857 63.7454 33.4463 63.5254C32.5153 63.3053 31.6351 62.9922 30.8057 62.5859C29.9847 62.1712 29.2314 61.6719 28.5459 61.0879C27.8604 60.5039 27.2721 59.8438 26.7812 59.1074C26.2988 58.3711 25.9307 57.5924 25.6768 56.7715C25.4229 55.9421 25.2959 55.0872 25.2959 54.207C25.2959 54.1224 25.2959 54.0378 25.2959 53.9531C25.3128 53.1745 25.4229 52.3958 25.626 51.6172C25.8291 50.8385 26.1338 50.0938 26.54 49.3828C26.9463 48.6634 27.4626 47.9948 28.0889 47.377C28.7152 46.7591 29.46 46.2217 30.3232 45.7646C31.195 45.3076 32.1895 44.9479 33.3066 44.6855C34.4238 44.4232 35.6807 44.292 37.0771 44.292C38.9307 44.292 40.5811 44.4993 42.0283 44.9141C43.484 45.3203 44.762 45.8577 45.8623 46.5264C46.971 47.1865 47.9232 47.9355 48.7188 48.7734C49.5143 49.6029 50.1829 50.4408 50.7246 51.2871V44.7617H54.1904V51.2871C54.7321 50.4408 55.4007 49.6029 56.1963 48.7734C56.9919 47.9355 57.9398 47.1865 59.04 46.5264C60.1488 45.8577 61.4268 45.3203 62.874 44.9141C64.3298 44.4993 65.9844 44.292 67.8379 44.292C69.2344 44.292 70.4912 44.4232 71.6084 44.6855C72.7256 44.9479 73.7158 45.3076 74.5791 45.7646C75.4508 46.2217 76.1999 46.7591 76.8262 47.377C77.4525 47.9948 77.9688 48.6634 78.375 49.3828C78.7812 50.0938 79.0859 50.8385 79.2891 51.6172C79.4922 52.3958 79.6022 53.1745 79.6191 53.9531ZM100.846 59.5264C100.236 60.2965 99.5677 60.9567 98.8398 61.5068C98.1204 62.0485 97.3757 62.4928 96.6055 62.8398C95.8353 63.1868 95.0566 63.4408 94.2695 63.6016C93.4824 63.7624 92.7207 63.8428 91.9844 63.8428C90.7318 63.8428 89.6146 63.682 88.6328 63.3604C87.651 63.0387 86.7878 62.6283 86.043 62.1289C85.2982 61.6296 84.6634 61.0794 84.1387 60.4785C83.6139 59.8776 83.1823 59.2979 82.8438 58.7393C82.5052 58.1722 82.2471 57.6686 82.0693 57.2285C81.8916 56.7884 81.7816 56.4795 81.7393 56.3018C81.2822 56.2933 80.9691 56.2891 80.7998 56.2891C80.6305 56.2806 80.5205 56.2721 80.4697 56.2637L80.5459 53.3184C80.5544 53.3184 80.5713 53.3184 80.5967 53.3184C80.6305 53.3184 80.6813 53.3226 80.749 53.3311C80.8252 53.3311 80.9268 53.3353 81.0537 53.3438C81.1891 53.3438 81.3584 53.3438 81.5615 53.3438C81.6546 52.599 81.8451 51.8626 82.1328 51.1348C82.4206 50.4069 82.7972 49.7129 83.2627 49.0527C83.7367 48.3926 84.291 47.779 84.9258 47.2119C85.5605 46.6449 86.263 46.1497 87.0332 45.7266C87.8034 45.3034 88.637 44.9691 89.5342 44.7236C90.4313 44.4697 91.3792 44.3301 92.3779 44.3047C92.488 44.3047 92.598 44.3047 92.708 44.3047C93.4274 44.3047 94.1383 44.3851 94.8408 44.5459C95.5433 44.6982 96.2161 44.931 96.8594 45.2441C97.5026 45.5488 98.0824 45.9128 98.5986 46.3359C99.1234 46.7507 99.5677 47.1992 99.9316 47.6816C100.296 48.1641 100.575 48.6676 100.77 49.1924C100.973 49.7087 101.074 50.2165 101.074 50.7158C101.074 51.5368 100.943 52.2435 100.681 52.8359C100.418 53.4199 100.076 53.9108 99.6523 54.3086C99.2376 54.7064 98.7679 55.0238 98.2432 55.2607C97.7184 55.4977 97.1895 55.6839 96.6562 55.8193C96.1315 55.9463 95.6322 56.0309 95.1582 56.0732C94.6842 56.1156 94.2865 56.1452 93.9648 56.1621L93.6348 56.1748C93.1185 56.1917 92.5218 56.2129 91.8447 56.2383C91.1761 56.2552 90.4694 56.2764 89.7246 56.3018C88.9798 56.3187 88.3154 56.3314 87.7314 56.3398C87.1559 56.3398 86.682 56.3398 86.3096 56.3398C85.9372 56.3398 85.569 56.3398 85.2051 56.3398C85.4759 57.0169 85.8652 57.6305 86.373 58.1807C86.8893 58.7308 87.4691 59.2048 88.1123 59.6025C88.764 59.9919 89.4538 60.2923 90.1816 60.5039C90.9095 60.7155 91.6289 60.8213 92.3398 60.8213C92.89 60.8213 93.4401 60.7578 93.9902 60.6309C94.5488 60.5039 95.099 60.3092 95.6406 60.0469C96.1823 59.776 96.707 59.429 97.2148 59.0059C97.7227 58.5742 98.2051 58.0622 98.6621 57.4697L100.846 59.5264ZM96.8467 48.9639C96.2373 48.3714 95.5645 47.9398 94.8281 47.6689C94.1003 47.3981 93.3385 47.2627 92.543 47.2627C91.6882 47.2627 90.8376 47.4108 89.9912 47.707C89.1533 48.0033 88.3831 48.4222 87.6807 48.9639C86.9867 49.4971 86.39 50.1403 85.8906 50.8936C85.3997 51.6383 85.0697 52.4678 84.9004 53.3818C85.3828 53.3903 85.8652 53.3945 86.3477 53.3945C86.5931 53.3945 86.957 53.3945 87.4395 53.3945C87.9303 53.3861 88.5228 53.3776 89.2168 53.3691C89.9193 53.3522 90.5837 53.3353 91.21 53.3184C91.8363 53.293 92.4033 53.2633 92.9111 53.2295L93.1016 53.2168C93.9564 53.1576 94.6758 53.0687 95.2598 52.9502C95.8438 52.8317 96.3135 52.6751 96.6689 52.4805C97.0244 52.2773 97.2783 52.0319 97.4307 51.7441C97.5915 51.4479 97.6719 51.1051 97.6719 50.7158C97.6719 50.0895 97.3968 49.5055 96.8467 48.9639ZM126.478 59.0312C125.91 59.7168 125.216 60.3558 124.396 60.9482C123.583 61.5322 122.682 62.04 121.691 62.4717C120.71 62.9033 119.66 63.2376 118.543 63.4746C117.426 63.7201 116.283 63.8428 115.115 63.8428C113.93 63.8428 112.771 63.7243 111.637 63.4873C110.511 63.2503 109.449 62.916 108.45 62.4844C107.451 62.0527 106.533 61.5365 105.695 60.9355C104.857 60.3346 104.138 59.6745 103.537 58.9551C102.936 58.2272 102.466 57.4528 102.128 56.6318C101.789 55.8024 101.62 54.9476 101.62 54.0674C101.62 53.1872 101.789 52.3366 102.128 51.5156C102.466 50.6862 102.936 49.9118 103.537 49.1924C104.138 48.4645 104.857 47.8001 105.695 47.1992C106.533 46.5983 107.451 46.082 108.45 45.6504C109.449 45.2188 110.511 44.8844 111.637 44.6475C112.771 44.4105 113.93 44.292 115.115 44.292C116.283 44.292 117.426 44.4147 118.543 44.6602C119.66 44.8971 120.71 45.2314 121.691 45.6631C122.682 46.0863 123.583 46.5941 124.396 47.1865C125.216 47.7705 125.91 48.4053 126.478 49.0908L123.583 50.8555C123.507 50.7624 123.376 50.6143 123.189 50.4111C123.012 50.1995 122.766 49.9668 122.453 49.7129C122.14 49.4505 121.759 49.1839 121.311 48.9131C120.87 48.6338 120.35 48.3841 119.749 48.1641C119.157 47.9355 118.479 47.7493 117.718 47.6055C116.965 47.4531 116.122 47.377 115.191 47.377C113.583 47.377 112.17 47.5716 110.951 47.9609C109.732 48.3418 108.708 48.8454 107.879 49.4717C107.058 50.098 106.436 50.8132 106.013 51.6172C105.59 52.4128 105.374 53.0264 105.365 53.458C105.357 53.8896 105.353 54.1182 105.353 54.1436C105.353 54.9561 105.547 55.7559 105.937 56.543C106.334 57.3301 106.939 58.0368 107.752 58.6631C108.564 59.2894 109.589 59.7972 110.824 60.1865C112.068 60.5674 113.524 60.7578 115.191 60.7578C116.131 60.7578 116.981 60.6816 117.743 60.5293C118.505 60.377 119.186 60.1865 119.787 59.958C120.388 59.7295 120.909 59.4756 121.349 59.1963C121.797 58.9085 122.174 58.6377 122.479 58.3838C122.792 58.1299 123.037 57.9014 123.215 57.6982C123.393 57.4951 123.515 57.3555 123.583 57.2793L126.478 59.0312ZM140.074 47.6943H136.532L129.448 63.373H125.881L132.965 47.6943H128.458L129.791 44.7617H141.407L140.074 47.6943ZM161.098 55.9463C161.089 56.1071 161.085 56.2721 161.085 56.4414C161.085 56.7799 161.106 57.1693 161.148 57.6094C161.191 58.041 161.263 58.4896 161.364 58.9551C161.474 59.4121 161.61 59.8099 161.771 60.1484C161.931 60.4785 162.113 60.6986 162.316 60.8086L160.729 63.8555C160.357 63.6608 159.997 63.3773 159.65 63.0049C159.303 62.624 158.994 62.1882 158.724 61.6973C158.461 61.1979 158.25 60.6562 158.089 60.0723C157.937 59.4798 157.86 58.8747 157.86 58.2568C157.733 58.3923 157.551 58.5996 157.314 58.8789C157.086 59.1582 156.811 59.4714 156.489 59.8184C156.176 60.1569 155.816 60.5166 155.41 60.8975C155.004 61.2699 154.56 61.6296 154.077 61.9766C153.603 62.3236 153.087 62.641 152.528 62.9287C151.978 63.208 151.398 63.4196 150.789 63.5635C150.535 63.6312 150.235 63.6862 149.888 63.7285C149.549 63.7708 149.181 63.792 148.783 63.792C148.385 63.792 147.971 63.7624 147.539 63.7031C147.107 63.6439 146.68 63.5339 146.257 63.373C145.834 63.2207 145.423 63.0176 145.025 62.7637C144.636 62.5013 144.276 62.1755 143.946 61.7861C143.616 61.3883 143.328 60.9144 143.083 60.3643C142.846 59.8141 142.673 59.1751 142.562 58.4473C142.469 57.8379 142.397 57.2454 142.347 56.6699C142.304 56.0859 142.275 55.5654 142.258 55.1084C142.241 54.7021 142.232 54.3128 142.232 53.9404V44.7617H145.673V55.1211C145.673 56.1198 145.753 56.9619 145.914 57.6475C146.083 58.333 146.308 58.8874 146.587 59.3105C146.875 59.7253 147.209 60.0257 147.59 60.2119C147.979 60.3896 148.394 60.4785 148.834 60.4785C149.291 60.4785 149.765 60.3981 150.256 60.2373C150.755 60.068 151.246 59.848 151.729 59.5771C152.211 59.3063 152.676 58.9974 153.125 58.6504C153.582 58.3034 153.993 57.9521 154.356 57.5967C155.203 56.7757 155.888 56.0267 156.413 55.3496C156.946 54.6641 157.361 54.0843 157.657 53.6104V44.7617H161.098V55.9463ZM186.945 53.8389C188.113 54.3975 188.993 55.0322 189.586 55.7432C190.187 56.4456 190.487 57.2327 190.487 58.1045C190.487 58.46 190.424 58.8577 190.297 59.2979C190.178 59.738 189.954 60.1781 189.624 60.6182C189.302 61.0583 188.862 61.4814 188.304 61.8877C187.745 62.2855 187.03 62.624 186.158 62.9033C185.176 63.2249 184.034 63.4619 182.73 63.6143C181.427 63.7751 179.963 63.8555 178.338 63.8555C177.195 63.8555 176.074 63.7751 174.974 63.6143C173.882 63.4535 172.849 63.2249 171.876 62.9287C170.911 62.624 170.031 62.2601 169.235 61.8369C168.44 61.4137 167.767 60.944 167.217 60.4277L169.235 58.2949C169.565 58.6081 170.022 58.9255 170.606 59.2471C171.19 59.5602 171.872 59.8395 172.65 60.085C173.438 60.3304 174.309 60.5335 175.266 60.6943C176.222 60.8467 177.246 60.9229 178.338 60.9229C178.837 60.9229 179.4 60.9017 180.026 60.8594C180.653 60.8171 181.287 60.7493 181.931 60.6562C182.574 60.5632 183.2 60.4447 183.81 60.3008C184.427 60.1569 184.973 59.9876 185.447 59.793C185.93 59.5898 186.315 59.3571 186.603 59.0947C186.899 58.8239 187.047 58.5234 187.047 58.1934C187.047 57.9141 186.941 57.6178 186.729 57.3047C186.518 56.9915 186.154 56.7038 185.638 56.4414C185.13 56.179 184.449 55.9632 183.594 55.7939C182.747 55.6162 181.681 55.5273 180.395 55.5273H167.75C167.682 55.7982 167.606 56.1071 167.521 56.4541C167.437 56.8011 167.373 57.1354 167.331 57.457C167.297 57.7194 167.263 58.0072 167.229 58.3203C167.196 58.625 167.166 58.9424 167.141 59.2725C167.124 59.6025 167.107 59.9326 167.09 60.2627C167.073 60.5928 167.056 60.9102 167.039 61.2148C167.005 61.9258 166.984 62.6452 166.976 63.373H163.776V44.7617H166.976V50.0684C167.06 49.9499 167.217 49.7256 167.445 49.3955C167.674 49.0654 168 48.6846 168.423 48.2529C168.854 47.8213 169.392 47.3727 170.035 46.9072C170.687 46.4417 171.465 46.0143 172.371 45.625C173.277 45.2357 174.326 44.9141 175.52 44.6602C176.721 44.4062 178.084 44.2793 179.607 44.2793C181.004 44.2793 182.278 44.4105 183.429 44.6729C184.58 44.9352 185.578 45.3203 186.425 45.8281C187.28 46.3444 187.94 46.9665 188.405 47.6943C188.871 48.4137 189.104 49.1839 189.104 50.0049C189.104 50.7412 188.913 51.4395 188.532 52.0996C188.16 52.7598 187.631 53.3395 186.945 53.8389ZM180.661 52.5947C181.609 52.5947 182.43 52.5101 183.124 52.3408C183.818 52.1715 184.389 51.96 184.838 51.7061C185.286 51.4521 185.621 51.1729 185.841 50.8682C186.061 50.5635 186.171 50.2757 186.171 50.0049C186.171 49.7171 186.061 49.4294 185.841 49.1416C185.621 48.8538 185.308 48.5872 184.901 48.3418C184.69 48.2148 184.427 48.0837 184.114 47.9482C183.801 47.8128 183.429 47.6901 182.997 47.5801C182.565 47.4701 182.07 47.3812 181.512 47.3135C180.953 47.2458 180.318 47.2119 179.607 47.2119C178.076 47.2119 176.73 47.3516 175.57 47.6309C174.411 47.9017 173.404 48.2783 172.549 48.7607C171.694 49.2432 170.97 49.8145 170.378 50.4746C169.785 51.1263 169.286 51.833 168.88 52.5947H180.661ZM220.753 44.7617V63.373H217.287V61.5703C217.287 60.6732 217.215 59.7845 217.071 58.9043C216.936 58.0241 216.724 57.1608 216.437 56.3145C216.377 56.1283 216.28 55.8574 216.145 55.502C216.009 55.138 215.827 54.7275 215.599 54.2705C215.37 53.805 215.087 53.3099 214.748 52.7852C214.41 52.252 213.999 51.7272 213.517 51.2109C213.043 50.6862 212.493 50.1826 211.866 49.7002C211.24 49.2178 210.521 48.7946 209.708 48.4307C208.896 48.0583 207.986 47.762 206.979 47.542C205.98 47.3219 204.867 47.2119 203.64 47.2119C202.573 47.2119 201.621 47.305 200.783 47.4912C199.954 47.6689 199.226 47.9186 198.6 48.2402C197.973 48.5534 197.44 48.9258 197 49.3574C196.568 49.7891 196.217 50.2588 195.946 50.7666C195.675 51.2744 195.477 51.8076 195.35 52.3662C195.223 52.9248 195.151 53.4876 195.134 54.0547C195.134 54.0885 195.134 54.1182 195.134 54.1436C195.134 54.6344 195.197 55.1423 195.324 55.667C195.451 56.1917 195.654 56.708 195.934 57.2158C196.213 57.7236 196.564 58.2018 196.987 58.6504C197.41 59.099 197.91 59.4925 198.485 59.8311C199.061 60.1611 199.713 60.4235 200.44 60.6182C201.168 60.8128 201.972 60.9102 202.853 60.9102C203.843 60.9102 204.82 60.7705 205.785 60.4912C206.758 60.2119 207.689 59.7845 208.578 59.209C209.475 58.625 210.317 57.8844 211.104 56.9873C211.892 56.0902 212.594 55.028 213.212 53.8008L215.84 55.1211C214.393 57.9987 212.569 60.1738 210.368 61.6465C208.168 63.1107 205.65 63.8428 202.814 63.8428C202.577 63.8428 202.277 63.8428 201.913 63.8428C201.549 63.8428 201.139 63.8174 200.682 63.7666C200.225 63.7243 199.729 63.6439 199.196 63.5254C198.663 63.4069 198.109 63.2292 197.533 62.9922C196.958 62.7552 196.369 62.4505 195.769 62.0781C195.176 61.6973 194.592 61.2233 194.017 60.6562C193.094 59.7507 192.4 58.7435 191.935 57.6348C191.478 56.526 191.249 55.375 191.249 54.1816C191.249 54.1224 191.249 54.0589 191.249 53.9912C191.266 53.2126 191.389 52.4339 191.617 51.6553C191.854 50.8682 192.197 50.1149 192.646 49.3955C193.103 48.6761 193.67 48.0075 194.347 47.3896C195.024 46.7633 195.819 46.2217 196.733 45.7646C197.647 45.3076 198.676 44.9479 199.818 44.6855C200.969 44.4232 202.243 44.292 203.64 44.292C204.875 44.292 206.018 44.3893 207.067 44.584C208.125 44.7702 209.099 45.0283 209.987 45.3584C210.876 45.6885 211.688 46.0778 212.425 46.5264C213.161 46.9749 213.83 47.4616 214.431 47.9863C215.032 48.5026 215.565 49.0443 216.03 49.6113C216.504 50.1699 216.923 50.7327 217.287 51.2998V44.7617H220.753ZM235.2 44.7617V63.373H231.874V48.583L225.196 63.373H221.553L229.97 44.749H233.613V44.7617H235.2ZM254.637 52.8867C255.322 53.4961 255.843 54.1943 256.198 54.9814C256.554 55.7686 256.731 56.6107 256.731 57.5078C256.731 58.3542 256.566 59.1582 256.236 59.9199C255.915 60.6732 255.449 61.346 254.84 61.9385C254.18 62.5732 253.405 63.0514 252.517 63.373C251.636 63.6947 250.667 63.8555 249.609 63.8555C247.934 63.8555 246.423 63.5169 245.077 62.8398C243.731 62.1543 242.585 61.1429 241.637 59.8057L244.036 58.1045C244.713 59.0609 245.509 59.7718 246.423 60.2373C247.337 60.6943 248.399 60.9229 249.609 60.9229C250.329 60.9229 250.951 60.8213 251.476 60.6182C252.009 60.415 252.445 60.1527 252.783 59.8311C253.13 59.5094 253.384 59.1455 253.545 58.7393C253.714 58.333 253.799 57.9225 253.799 57.5078C253.799 57.0423 253.701 56.6022 253.507 56.1875C253.321 55.7643 253.046 55.3919 252.682 55.0703C252.225 54.6641 251.662 54.3551 250.993 54.1436C250.325 53.932 249.567 53.8262 248.721 53.8262C247.595 53.8262 246.588 53.9954 245.699 54.334C244.811 54.6641 244.04 55.138 243.389 55.7559C242.745 56.3652 242.221 57.1016 241.814 57.9648C241.417 58.8281 241.142 59.793 240.989 60.8594V63.3857H237.523V44.7617H240.989V54.0039C241.379 53.5807 241.823 53.1829 242.322 52.8105C242.822 52.4297 243.389 52.0996 244.023 51.8203C244.658 51.5326 245.365 51.304 246.144 51.1348C246.922 50.9655 247.781 50.8809 248.721 50.8809C249.931 50.8809 251.035 51.0501 252.034 51.3887C253.041 51.7272 253.909 52.2266 254.637 52.8867Z" fill="#F7FFE1"/>
</g>
</svg>
