<svg width="419" height="118" viewBox="0 0 419 118" fill="none" xmlns="http://www.w3.org/2000/svg">
<path fill-rule="evenodd" clip-rule="evenodd" d="M55.1499 0.00430762C69.1092 0.191935 83.3857 5.72926 92.2836 15.5303C100.427 24.5002 96.8322 37.5741 99.5785 48.9425C101.95 58.7606 110.551 67.9243 107.259 77.5194C103.96 87.1339 91.7743 90.8917 83.0578 97.0895C73.9349 103.576 66.3695 111.987 55.1499 114.571C41.7302 117.661 25.1023 121.139 14.6857 112.834C4.19437 104.47 9.82901 88.7675 7.15003 76.3031C4.90979 65.88 -1.42123 56.3606 0.289719 45.8546C2.21189 34.0516 7.56018 22.5875 17.2115 14.5212C27.5725 5.86181 41.0911 -0.184657 55.1499 0.00430762Z" fill="#82A816"/>
<path d="M41.8398 41.7314C42.1191 42.0531 42.4069 42.3366 42.7031 42.582C43.0078 42.819 43.3125 43.0264 43.6172 43.2041C43.9219 43.3818 44.2223 43.5299 44.5186 43.6484C44.8148 43.7585 45.0983 43.8473 45.3691 43.915C45.9701 44.0674 46.5667 44.1436 47.1592 44.1436C47.1846 44.1436 47.2142 44.1436 47.248 44.1436L48.0859 46.9619C48.0521 46.9704 47.8997 47 47.6289 47.0508C47.3665 47.11 47.0111 47.1396 46.5625 47.1396C45.7331 47.1396 44.9756 47.055 44.29 46.8857C43.6045 46.7165 42.9782 46.4922 42.4111 46.2129C41.8441 45.9336 41.3236 45.612 40.8496 45.248C40.3841 44.8757 39.944 44.4863 39.5293 44.0801C39.123 43.6738 38.738 43.2676 38.374 42.8613C38.0101 42.4466 37.6504 42.0573 37.2949 41.6934C36.9395 41.3294 36.5755 40.9993 36.2031 40.7031C35.8392 40.4069 35.4499 40.1742 35.0352 40.0049C34.5697 39.8102 34.0872 39.6536 33.5879 39.5352C33.097 39.4167 32.6104 39.3278 32.1279 39.2686C31.6455 39.2008 31.1758 39.1543 30.7188 39.1289C30.2702 39.1035 29.8597 39.0908 29.4873 39.0908C28.9372 39.0908 28.5013 39.1035 28.1797 39.1289C27.9935 39.1374 27.8285 39.1501 27.6846 39.167V47H24.0156V28.3887H27.6846V36.1455C28.9287 36.1455 30.0163 36.0947 30.9473 35.9932C31.8783 35.8916 32.6865 35.7562 33.3721 35.5869C34.0576 35.4176 34.6374 35.2188 35.1113 34.9902C35.5938 34.7617 36 34.5247 36.3301 34.2793C36.6686 34.0254 36.9564 33.7673 37.1934 33.5049C37.4303 33.2425 37.6462 32.9886 37.8408 32.7432C38.6279 31.7783 39.432 31.0081 40.2529 30.4326C41.0739 29.8486 41.8695 29.4001 42.6396 29.0869C43.4098 28.7738 44.1292 28.5664 44.7979 28.4648C45.4749 28.3633 46.0547 28.3125 46.5371 28.3125C46.9434 28.3125 47.265 28.3294 47.502 28.3633C47.7474 28.3971 47.8828 28.4183 47.9082 28.4268L47.083 31.2451C47.0238 31.2282 46.9561 31.2155 46.8799 31.207C46.7445 31.1816 46.554 31.1689 46.3086 31.1689C46.0208 31.1689 45.6654 31.207 45.2422 31.2832C44.8275 31.3509 44.3662 31.5033 43.8584 31.7402C43.3506 31.9688 42.8132 32.2988 42.2461 32.7305C41.679 33.1536 41.1035 33.7207 40.5195 34.4316C40.2995 34.694 40.0456 34.9775 39.7578 35.2822C39.4785 35.5785 39.1738 35.8662 38.8438 36.1455C38.5137 36.4163 38.1582 36.6618 37.7773 36.8818C37.4049 37.1019 37.0156 37.2627 36.6094 37.3643C36.8802 37.4489 37.1849 37.6012 37.5234 37.8213C37.862 38.0413 38.209 38.2952 38.5645 38.583C38.9199 38.8623 39.2712 39.167 39.6182 39.4971C39.9736 39.8187 40.2995 40.1276 40.5957 40.4238C40.8919 40.7116 41.1501 40.974 41.3701 41.2109C41.5902 41.4479 41.7467 41.6214 41.8398 41.7314ZM59.3467 27.8555C60.5316 27.8555 61.6826 27.974 62.7998 28.2109C63.9255 28.4395 64.9834 28.7653 65.9736 29.1885C66.9639 29.6117 67.8695 30.1237 68.6904 30.7246C69.5114 31.3171 70.2181 31.9772 70.8105 32.7051C71.4115 33.4245 71.877 34.2031 72.207 35.041C72.5371 35.8704 72.7021 36.7337 72.7021 37.6309C72.7021 38.528 72.5371 39.3955 72.207 40.2334C71.877 41.0628 71.4115 41.8415 70.8105 42.5693C70.2181 43.2887 69.5114 43.9489 68.6904 44.5498C67.8695 45.1423 66.9639 45.6501 65.9736 46.0732C64.9834 46.4964 63.9255 46.8223 62.7998 47.0508C61.6826 47.2878 60.5316 47.4062 59.3467 47.4062C58.1618 47.4062 57.0065 47.2878 55.8809 47.0508C54.7637 46.8223 53.71 46.4964 52.7197 46.0732C51.7295 45.6501 50.8197 45.1423 49.9902 44.5498C49.1693 43.9489 48.4626 43.2887 47.8701 42.5693C47.2777 41.8415 46.8164 41.0628 46.4863 40.2334C46.1562 39.3955 45.9912 38.528 45.9912 37.6309C45.9912 36.7337 46.1562 35.8704 46.4863 35.041C46.8164 34.2031 47.2777 33.4245 47.8701 32.7051C48.4626 31.9772 49.1693 31.3171 49.9902 30.7246C50.8197 30.1237 51.7295 29.6117 52.7197 29.1885C53.71 28.7653 54.7637 28.4395 55.8809 28.2109C57.0065 27.974 58.1618 27.8555 59.3467 27.8555ZM49.6094 37.6309C49.6094 38.3757 49.7363 39.0612 49.9902 39.6875C50.2441 40.3138 50.5954 40.8766 51.0439 41.376C51.501 41.8753 52.0342 42.3112 52.6436 42.6836C53.2614 43.056 53.93 43.3691 54.6494 43.623C55.3688 43.8685 56.1263 44.0547 56.9219 44.1816C57.7174 44.3001 58.5215 44.3594 59.334 44.3594C60.1465 44.3594 60.9505 44.3001 61.7461 44.1816C62.5417 44.0547 63.2992 43.8685 64.0186 43.623C64.7464 43.3691 65.415 43.056 66.0244 42.6836C66.6423 42.3027 67.1755 41.8626 67.624 41.3633C68.0811 40.8639 68.4365 40.3053 68.6904 39.6875C68.9443 39.0612 69.0713 38.3757 69.0713 37.6309C69.0713 36.8776 68.9443 36.1921 68.6904 35.5742C68.4365 34.9479 68.0811 34.3851 67.624 33.8857C67.1755 33.3864 66.6423 32.9505 66.0244 32.5781C65.415 32.2057 64.7464 31.8968 64.0186 31.6514C63.2992 31.3975 62.5417 31.2113 61.7461 31.0928C60.9505 30.9658 60.1465 30.9023 59.334 30.9023C58.5215 30.9023 57.7174 30.9658 56.9219 31.0928C56.1263 31.2113 55.3688 31.3975 54.6494 31.6514C53.93 31.8968 53.2614 32.21 52.6436 32.5908C52.0342 32.9632 51.501 33.3991 51.0439 33.8984C50.5954 34.3978 50.2441 34.9606 49.9902 35.5869C49.7363 36.2048 49.6094 36.8861 49.6094 37.6309ZM99.7686 28.3887V47H96.3662V38.583C96.2223 38.7184 96.0658 38.8242 95.8965 38.9004C95.7357 38.9681 95.5283 39.0189 95.2744 39.0527C95.0205 39.0866 94.7031 39.1077 94.3223 39.1162C93.9499 39.1247 93.4759 39.1289 92.9004 39.1289H87.3525C85.626 39.1374 83.6497 39.1416 81.4238 39.1416V40.665C81.4238 41.3506 81.4027 41.9642 81.3604 42.5059C81.318 43.0391 81.2292 43.5257 81.0938 43.9658C80.9668 44.4059 80.7806 44.8164 80.5352 45.1973C80.2982 45.5697 79.9808 45.9378 79.583 46.3018C79.1514 46.6995 78.6647 46.9915 78.123 47.1777C77.5898 47.3724 77.0397 47.4697 76.4727 47.4697C75.9056 47.4697 75.3512 47.3724 74.8096 47.1777C74.2679 46.9915 73.7855 46.7122 73.3623 46.3398C72.9391 45.9674 72.6006 45.5062 72.3467 44.9561C72.0843 44.3975 71.9531 43.75 71.9531 43.0137C71.9531 42.5143 72.0378 41.9515 72.207 41.3252C72.3763 40.6904 72.681 40.0641 73.1211 39.4463C73.5697 38.82 74.179 38.2445 74.9492 37.7197C75.7194 37.1865 76.7054 36.7718 77.9072 36.4756V28.3887H81.4238V36.2344C81.627 36.2174 81.8089 36.209 81.9697 36.209C82.1305 36.2005 82.3252 36.1963 82.5537 36.1963L93.7383 36.209C94.0853 36.209 94.39 36.2005 94.6523 36.1836C94.9147 36.1582 95.1432 36.0947 95.3379 35.9932C95.5326 35.8831 95.6934 35.7223 95.8203 35.5107C95.9557 35.2907 96.0615 34.986 96.1377 34.5967C96.2223 34.1989 96.2816 33.7038 96.3154 33.1113C96.3493 32.5189 96.3662 31.7952 96.3662 30.9404V28.3887H99.7686ZM77.1836 43.8135C77.3021 43.6865 77.4036 43.5257 77.4883 43.3311C77.5729 43.1364 77.6449 42.929 77.7041 42.709C77.7633 42.4805 77.8057 42.2435 77.8311 41.998C77.8649 41.7526 77.8903 41.5114 77.9072 41.2744C77.9242 40.9951 77.9326 40.7074 77.9326 40.4111C77.9326 40.1149 77.9242 39.8145 77.9072 39.5098C77.5264 39.6367 77.1624 39.8018 76.8154 40.0049C76.4769 40.1995 76.1807 40.4365 75.9268 40.7158C75.6729 40.9951 75.4697 41.321 75.3174 41.6934C75.1735 42.0658 75.1016 42.4847 75.1016 42.9502C75.1016 43.3988 75.2158 43.7246 75.4443 43.9277C75.6729 44.1224 75.9268 44.2197 76.2061 44.2197C76.3923 44.2197 76.57 44.1859 76.7393 44.1182C76.917 44.042 77.0651 43.9404 77.1836 43.8135ZM115.46 31.3213H111.918L104.834 47H101.267L108.351 31.3213H103.844L105.177 28.3887H116.793L115.46 31.3213ZM143.732 28.3887V47H140.267V45.1973C140.267 44.3001 140.195 43.4115 140.051 42.5312C139.915 41.651 139.704 40.7878 139.416 39.9414C139.357 39.7552 139.259 39.4844 139.124 39.1289C138.989 38.765 138.807 38.3545 138.578 37.8975C138.35 37.432 138.066 36.9368 137.728 36.4121C137.389 35.8789 136.979 35.3542 136.496 34.8379C136.022 34.3132 135.472 33.8096 134.846 33.3271C134.219 32.8447 133.5 32.4215 132.688 32.0576C131.875 31.6852 130.965 31.389 129.958 31.1689C128.959 30.9489 127.846 30.8389 126.619 30.8389C125.553 30.8389 124.601 30.932 123.763 31.1182C122.933 31.2959 122.205 31.5456 121.579 31.8672C120.953 32.1803 120.42 32.5527 119.979 32.9844C119.548 33.416 119.197 33.8857 118.926 34.3936C118.655 34.9014 118.456 35.4346 118.329 35.9932C118.202 36.5518 118.13 37.1146 118.113 37.6816C118.113 37.7155 118.113 37.7451 118.113 37.7705C118.113 38.2614 118.177 38.7692 118.304 39.2939C118.431 39.8187 118.634 40.335 118.913 40.8428C119.192 41.3506 119.544 41.8288 119.967 42.2773C120.39 42.7259 120.889 43.1195 121.465 43.458C122.04 43.7881 122.692 44.0505 123.42 44.2451C124.148 44.4398 124.952 44.5371 125.832 44.5371C126.822 44.5371 127.8 44.3975 128.765 44.1182C129.738 43.8389 130.669 43.4115 131.558 42.8359C132.455 42.252 133.297 41.5114 134.084 40.6143C134.871 39.7171 135.574 38.6549 136.191 37.4277L138.819 38.748C137.372 41.6257 135.548 43.8008 133.348 45.2734C131.147 46.7376 128.629 47.4697 125.794 47.4697C125.557 47.4697 125.257 47.4697 124.893 47.4697C124.529 47.4697 124.118 47.4443 123.661 47.3936C123.204 47.3512 122.709 47.2708 122.176 47.1523C121.643 47.0339 121.088 46.8561 120.513 46.6191C119.937 46.3822 119.349 46.0775 118.748 45.7051C118.156 45.3242 117.572 44.8503 116.996 44.2832C116.074 43.3776 115.38 42.3704 114.914 41.2617C114.457 40.153 114.229 39.002 114.229 37.8086C114.229 37.7493 114.229 37.6859 114.229 37.6182C114.245 36.8395 114.368 36.0609 114.597 35.2822C114.834 34.4951 115.176 33.7419 115.625 33.0225C116.082 32.3031 116.649 31.6344 117.326 31.0166C118.003 30.3903 118.799 29.8486 119.713 29.3916C120.627 28.9346 121.655 28.5749 122.798 28.3125C123.949 28.0501 125.223 27.9189 126.619 27.9189C127.855 27.9189 128.997 28.0163 130.047 28.2109C131.105 28.3971 132.078 28.6553 132.967 28.9854C133.855 29.3154 134.668 29.7048 135.404 30.1533C136.141 30.6019 136.809 31.0885 137.41 31.6133C138.011 32.1296 138.544 32.6712 139.01 33.2383C139.484 33.7969 139.903 34.3597 140.267 34.9268V28.3887H143.732ZM164.375 41.7314C164.654 42.0531 164.942 42.3366 165.238 42.582C165.543 42.819 165.848 43.0264 166.152 43.2041C166.457 43.3818 166.757 43.5299 167.054 43.6484C167.35 43.7585 167.633 43.8473 167.904 43.915C168.505 44.0674 169.102 44.1436 169.694 44.1436C169.72 44.1436 169.749 44.1436 169.783 44.1436L170.621 46.9619C170.587 46.9704 170.435 47 170.164 47.0508C169.902 47.11 169.546 47.1396 169.098 47.1396C168.268 47.1396 167.511 47.055 166.825 46.8857C166.14 46.7165 165.513 46.4922 164.946 46.2129C164.379 45.9336 163.859 45.612 163.385 45.248C162.919 44.8757 162.479 44.4863 162.064 44.0801C161.658 43.6738 161.273 43.2676 160.909 42.8613C160.545 42.4466 160.186 42.0573 159.83 41.6934C159.475 41.3294 159.111 40.9993 158.738 40.7031C158.374 40.4069 157.985 40.1742 157.57 40.0049C157.105 39.8102 156.622 39.6536 156.123 39.5352C155.632 39.4167 155.146 39.3278 154.663 39.2686C154.181 39.2008 153.711 39.1543 153.254 39.1289C152.805 39.1035 152.395 39.0908 152.022 39.0908C151.472 39.0908 151.036 39.1035 150.715 39.1289C150.529 39.1374 150.364 39.1501 150.22 39.167V47H146.551V28.3887H150.22V36.1455C151.464 36.1455 152.551 36.0947 153.482 35.9932C154.413 35.8916 155.222 35.7562 155.907 35.5869C156.593 35.4176 157.173 35.2188 157.646 34.9902C158.129 34.7617 158.535 34.5247 158.865 34.2793C159.204 34.0254 159.492 33.7673 159.729 33.5049C159.965 33.2425 160.181 32.9886 160.376 32.7432C161.163 31.7783 161.967 31.0081 162.788 30.4326C163.609 29.8486 164.405 29.4001 165.175 29.0869C165.945 28.7738 166.664 28.5664 167.333 28.4648C168.01 28.3633 168.59 28.3125 169.072 28.3125C169.479 28.3125 169.8 28.3294 170.037 28.3633C170.283 28.3971 170.418 28.4183 170.443 28.4268L169.618 31.2451C169.559 31.2282 169.491 31.2155 169.415 31.207C169.28 31.1816 169.089 31.1689 168.844 31.1689C168.556 31.1689 168.201 31.207 167.777 31.2832C167.363 31.3509 166.901 31.5033 166.394 31.7402C165.886 31.9688 165.348 32.2988 164.781 32.7305C164.214 33.1536 163.639 33.7207 163.055 34.4316C162.835 34.694 162.581 34.9775 162.293 35.2822C162.014 35.5785 161.709 35.8662 161.379 36.1455C161.049 36.4163 160.693 36.6618 160.312 36.8818C159.94 37.1019 159.551 37.2627 159.145 37.3643C159.415 37.4489 159.72 37.6012 160.059 37.8213C160.397 38.0413 160.744 38.2952 161.1 38.583C161.455 38.8623 161.806 39.167 162.153 39.4971C162.509 39.8187 162.835 40.1276 163.131 40.4238C163.427 40.7116 163.685 40.974 163.905 41.2109C164.125 41.4479 164.282 41.6214 164.375 41.7314ZM185.106 31.3213H181.564L174.48 47H170.913L177.997 31.3213H173.49L174.823 28.3887H186.439L185.106 31.3213ZM209.278 28.3887V47H205.876V38.583C205.732 38.7184 205.576 38.8242 205.406 38.9004C205.245 38.9681 205.038 39.0189 204.784 39.0527C204.53 39.0866 204.213 39.1077 203.832 39.1162C203.46 39.1247 202.986 39.1289 202.41 39.1289H196.862C195.136 39.1374 193.16 39.1416 190.934 39.1416V40.665C190.934 41.3506 190.912 41.9642 190.87 42.5059C190.828 43.0391 190.739 43.5257 190.604 43.9658C190.477 44.4059 190.29 44.8164 190.045 45.1973C189.808 45.5697 189.491 45.9378 189.093 46.3018C188.661 46.6995 188.174 46.9915 187.633 47.1777C187.1 47.3724 186.549 47.4697 185.982 47.4697C185.415 47.4697 184.861 47.3724 184.319 47.1777C183.778 46.9915 183.295 46.7122 182.872 46.3398C182.449 45.9674 182.11 45.5062 181.856 44.9561C181.594 44.3975 181.463 43.75 181.463 43.0137C181.463 42.5143 181.548 41.9515 181.717 41.3252C181.886 40.6904 182.191 40.0641 182.631 39.4463C183.079 38.82 183.689 38.2445 184.459 37.7197C185.229 37.1865 186.215 36.7718 187.417 36.4756V28.3887H190.934V36.2344C191.137 36.2174 191.319 36.209 191.479 36.209C191.64 36.2005 191.835 36.1963 192.063 36.1963L203.248 36.209C203.595 36.209 203.9 36.2005 204.162 36.1836C204.424 36.1582 204.653 36.0947 204.848 35.9932C205.042 35.8831 205.203 35.7223 205.33 35.5107C205.465 35.2907 205.571 34.986 205.647 34.5967C205.732 34.1989 205.791 33.7038 205.825 33.1113C205.859 32.5189 205.876 31.7952 205.876 30.9404V28.3887H209.278ZM186.693 43.8135C186.812 43.6865 186.913 43.5257 186.998 43.3311C187.083 43.1364 187.155 42.929 187.214 42.709C187.273 42.4805 187.315 42.2435 187.341 41.998C187.375 41.7526 187.4 41.5114 187.417 41.2744C187.434 40.9951 187.442 40.7074 187.442 40.4111C187.442 40.1149 187.434 39.8145 187.417 39.5098C187.036 39.6367 186.672 39.8018 186.325 40.0049C185.987 40.1995 185.69 40.4365 185.437 40.7158C185.183 40.9951 184.979 41.321 184.827 41.6934C184.683 42.0658 184.611 42.4847 184.611 42.9502C184.611 43.3988 184.726 43.7246 184.954 43.9277C185.183 44.1224 185.437 44.2197 185.716 44.2197C185.902 44.2197 186.08 44.1859 186.249 44.1182C186.427 44.042 186.575 43.9404 186.693 43.8135ZM240.268 28.3887V47H236.802V45.1973C236.802 44.3001 236.73 43.4115 236.586 42.5312C236.451 41.651 236.239 40.7878 235.951 39.9414C235.892 39.7552 235.795 39.4844 235.659 39.1289C235.524 38.765 235.342 38.3545 235.113 37.8975C234.885 37.432 234.601 36.9368 234.263 36.4121C233.924 35.8789 233.514 35.3542 233.031 34.8379C232.557 34.3132 232.007 33.8096 231.381 33.3271C230.755 32.8447 230.035 32.4215 229.223 32.0576C228.41 31.6852 227.5 31.389 226.493 31.1689C225.494 30.9489 224.382 30.8389 223.154 30.8389C222.088 30.8389 221.136 30.932 220.298 31.1182C219.468 31.2959 218.741 31.5456 218.114 31.8672C217.488 32.1803 216.955 32.5527 216.515 32.9844C216.083 33.416 215.732 33.8857 215.461 34.3936C215.19 34.9014 214.991 35.4346 214.864 35.9932C214.737 36.5518 214.665 37.1146 214.648 37.6816C214.648 37.7155 214.648 37.7451 214.648 37.7705C214.648 38.2614 214.712 38.7692 214.839 39.2939C214.966 39.8187 215.169 40.335 215.448 40.8428C215.728 41.3506 216.079 41.8288 216.502 42.2773C216.925 42.7259 217.424 43.1195 218 43.458C218.576 43.7881 219.227 44.0505 219.955 44.2451C220.683 44.4398 221.487 44.5371 222.367 44.5371C223.357 44.5371 224.335 44.3975 225.3 44.1182C226.273 43.8389 227.204 43.4115 228.093 42.8359C228.99 42.252 229.832 41.5114 230.619 40.6143C231.406 39.7171 232.109 38.6549 232.727 37.4277L235.354 38.748C233.907 41.6257 232.083 43.8008 229.883 45.2734C227.682 46.7376 225.164 47.4697 222.329 47.4697C222.092 47.4697 221.792 47.4697 221.428 47.4697C221.064 47.4697 220.653 47.4443 220.196 47.3936C219.739 47.3512 219.244 47.2708 218.711 47.1523C218.178 47.0339 217.623 46.8561 217.048 46.6191C216.472 46.3822 215.884 46.0775 215.283 45.7051C214.691 45.3242 214.107 44.8503 213.531 44.2832C212.609 43.3776 211.915 42.3704 211.449 41.2617C210.992 40.153 210.764 39.002 210.764 37.8086C210.764 37.7493 210.764 37.6859 210.764 37.6182C210.781 36.8395 210.903 36.0609 211.132 35.2822C211.369 34.4951 211.712 33.7419 212.16 33.0225C212.617 32.3031 213.184 31.6344 213.861 31.0166C214.538 30.3903 215.334 29.8486 216.248 29.3916C217.162 28.9346 218.19 28.5749 219.333 28.3125C220.484 28.0501 221.758 27.9189 223.154 27.9189C224.39 27.9189 225.533 28.0163 226.582 28.2109C227.64 28.3971 228.613 28.6553 229.502 28.9854C230.391 29.3154 231.203 29.7048 231.939 30.1533C232.676 30.6019 233.344 31.0885 233.945 31.6133C234.546 32.1296 235.079 32.6712 235.545 33.2383C236.019 33.7969 236.438 34.3597 236.802 34.9268V28.3887H240.268ZM264.579 28.4014V47.0127H261.405V43.8516C261.38 43.5807 261.338 43.2168 261.278 42.7598C261.228 42.3027 261.143 41.7822 261.024 41.1982C260.906 40.6143 260.754 39.988 260.567 39.3193C260.381 38.6507 260.148 37.9779 259.869 37.3008C258.109 33.0013 255.324 30.8516 251.516 30.8516C250.813 30.8516 250.183 30.8939 249.624 30.9785C249.074 31.0547 248.583 31.1562 248.151 31.2832C247.728 31.4102 247.36 31.5498 247.047 31.7021C246.742 31.8545 246.484 32.0068 246.272 32.1592C245.832 32.4639 245.494 32.8109 245.257 33.2002C245.028 33.5811 244.914 33.9788 244.914 34.3936C244.914 34.7998 245.028 35.2018 245.257 35.5996C245.494 35.9889 245.845 36.3359 246.311 36.6406C246.776 36.9453 247.352 37.195 248.037 37.3896C248.723 37.5758 249.518 37.6689 250.424 37.6689C252.701 37.6689 254.613 37.1569 256.162 36.1328L259.247 38.4561C259.239 38.473 259.23 38.4941 259.222 38.5195L259.196 38.5576C259.196 38.583 259.188 38.6042 259.171 38.6211C258.9 39.1712 258.57 39.7721 258.181 40.4238C257.791 41.0755 257.343 41.7314 256.835 42.3916C256.327 43.0433 255.752 43.6738 255.108 44.2832C254.474 44.8926 253.771 45.4342 253.001 45.9082C252.239 46.3822 251.401 46.7588 250.487 47.0381C249.582 47.3258 248.604 47.4697 247.555 47.4697C247.123 47.4697 246.67 47.4232 246.196 47.3301C245.722 47.2454 245.244 47.1227 244.762 46.9619C244.288 46.7926 243.814 46.5895 243.34 46.3525C242.866 46.1156 242.409 45.8447 241.969 45.54L243.632 43.1279C243.945 43.3395 244.271 43.5342 244.609 43.7119C244.948 43.8812 245.286 44.0293 245.625 44.1562C245.972 44.2747 246.311 44.3678 246.641 44.4355C246.971 44.5033 247.275 44.5371 247.555 44.5371C248.401 44.5371 249.188 44.4059 249.916 44.1436C250.644 43.8727 251.317 43.5215 251.935 43.0898C252.561 42.6582 253.128 42.1673 253.636 41.6172C254.152 41.0586 254.613 40.4915 255.02 39.916C253.623 40.373 252.091 40.6016 250.424 40.6016C249.036 40.6016 247.813 40.4238 246.755 40.0684C245.705 39.7129 244.825 39.2432 244.114 38.6592C243.412 38.0752 242.879 37.4108 242.515 36.666C242.159 35.9212 241.981 35.1637 241.981 34.3936C241.981 33.4964 242.206 32.6458 242.654 31.8418C243.103 31.0378 243.746 30.3438 244.584 29.7598C245.439 29.1504 246.45 28.6934 247.618 28.3887C248.795 28.0755 250.094 27.9189 251.516 27.9189C253.648 27.9189 255.544 28.4141 257.203 29.4043C258.862 30.3945 260.263 31.8587 261.405 33.7969V28.4014H264.579Z" fill="#82A816"/>
<path d="M42.9951 77.5732C42.9867 77.734 42.9824 77.8991 42.9824 78.0684C42.9824 78.4069 43.0036 78.7962 43.0459 79.2363C43.0882 79.668 43.1602 80.1165 43.2617 80.582C43.3717 81.0391 43.5072 81.4368 43.668 81.7754C43.8288 82.1055 44.0107 82.3255 44.2139 82.4355L42.627 85.4824C42.2546 85.2878 41.8949 85.0042 41.5479 84.6318C41.2008 84.251 40.8919 83.8151 40.6211 83.3242C40.3587 82.8249 40.1471 82.2832 39.9863 81.6992C39.834 81.1068 39.7578 80.5016 39.7578 79.8838C39.6309 80.0192 39.4489 80.2266 39.2119 80.5059C38.9834 80.7852 38.7083 81.0983 38.3867 81.4453C38.0736 81.7839 37.7139 82.1436 37.3076 82.5244C36.9014 82.8968 36.457 83.2565 35.9746 83.6035C35.5007 83.9505 34.9844 84.2679 34.4258 84.5557C33.8757 84.835 33.2959 85.0465 32.6865 85.1904C32.4326 85.2581 32.1322 85.3132 31.7852 85.3555C31.4466 85.3978 31.0785 85.4189 30.6807 85.4189C30.2829 85.4189 29.8682 85.3893 29.4365 85.3301C29.0049 85.2708 28.5775 85.1608 28.1543 85C27.7311 84.8477 27.3206 84.6445 26.9229 84.3906C26.5335 84.1283 26.1738 83.8024 25.8438 83.4131C25.5137 83.0153 25.2259 82.5413 24.9805 81.9912C24.7435 81.4411 24.57 80.8021 24.46 80.0742C24.3669 79.4648 24.2949 78.8724 24.2441 78.2969C24.2018 77.7129 24.1722 77.1924 24.1553 76.7354C24.1383 76.3291 24.1299 75.9398 24.1299 75.5674V66.3887H27.5703V76.748C27.5703 77.7467 27.6507 78.5889 27.8115 79.2744C27.9808 79.96 28.2051 80.5143 28.4844 80.9375C28.7721 81.3522 29.1064 81.6527 29.4873 81.8389C29.8766 82.0166 30.2913 82.1055 30.7314 82.1055C31.1885 82.1055 31.6624 82.0251 32.1533 81.8643C32.6527 81.695 33.1436 81.4749 33.626 81.2041C34.1084 80.9333 34.5739 80.6243 35.0225 80.2773C35.4795 79.9303 35.89 79.5791 36.2539 79.2236C37.1003 78.4027 37.7858 77.6536 38.3105 76.9766C38.8438 76.291 39.2585 75.7113 39.5547 75.2373V66.3887H42.9951V77.5732ZM72.4736 66.3887V85H69.0713V76.583C68.9274 76.7184 68.7708 76.8242 68.6016 76.9004C68.4408 76.9681 68.2334 77.0189 67.9795 77.0527C67.7256 77.0866 67.4082 77.1077 67.0273 77.1162C66.6549 77.1247 66.181 77.1289 65.6055 77.1289H60.0576C58.3311 77.1374 56.3548 77.1416 54.1289 77.1416V78.665C54.1289 79.3506 54.1077 79.9642 54.0654 80.5059C54.0231 81.0391 53.9342 81.5257 53.7988 81.9658C53.6719 82.4059 53.4857 82.8164 53.2402 83.1973C53.0033 83.5697 52.6859 83.9378 52.2881 84.3018C51.8564 84.6995 51.3698 84.9915 50.8281 85.1777C50.2949 85.3724 49.7448 85.4697 49.1777 85.4697C48.6107 85.4697 48.0563 85.3724 47.5146 85.1777C46.973 84.9915 46.4906 84.7122 46.0674 84.3398C45.6442 83.9674 45.3057 83.5062 45.0518 82.9561C44.7894 82.3975 44.6582 81.75 44.6582 81.0137C44.6582 80.5143 44.7428 79.9515 44.9121 79.3252C45.0814 78.6904 45.3861 78.0641 45.8262 77.4463C46.2747 76.82 46.8841 76.2445 47.6543 75.7197C48.4245 75.1865 49.4105 74.7718 50.6123 74.4756V66.3887H54.1289V74.2344C54.332 74.2174 54.514 74.209 54.6748 74.209C54.8356 74.2005 55.0303 74.1963 55.2588 74.1963L66.4434 74.209C66.7904 74.209 67.0951 74.2005 67.3574 74.1836C67.6198 74.1582 67.8483 74.0947 68.043 73.9932C68.2376 73.8831 68.3984 73.7223 68.5254 73.5107C68.6608 73.2907 68.7666 72.986 68.8428 72.5967C68.9274 72.1989 68.9867 71.7038 69.0205 71.1113C69.0544 70.5189 69.0713 69.7952 69.0713 68.9404V66.3887H72.4736ZM49.8887 81.8135C50.0072 81.6865 50.1087 81.5257 50.1934 81.3311C50.278 81.1364 50.3499 80.929 50.4092 80.709C50.4684 80.4805 50.5107 80.2435 50.5361 79.998C50.57 79.7526 50.5954 79.5114 50.6123 79.2744C50.6292 78.9951 50.6377 78.7074 50.6377 78.4111C50.6377 78.1149 50.6292 77.8145 50.6123 77.5098C50.2314 77.6367 49.8675 77.8018 49.5205 78.0049C49.182 78.1995 48.8857 78.4365 48.6318 78.7158C48.3779 78.9951 48.1748 79.321 48.0225 79.6934C47.8786 80.0658 47.8066 80.4847 47.8066 80.9502C47.8066 81.3988 47.9209 81.7246 48.1494 81.9277C48.3779 82.1224 48.6318 82.2197 48.9111 82.2197C49.0973 82.2197 49.2751 82.1859 49.4443 82.1182C49.6221 82.042 49.7702 81.9404 49.8887 81.8135ZM127.952 75.5801C127.952 75.6647 127.952 75.7493 127.952 75.834C127.952 76.7142 127.825 77.569 127.571 78.3984C127.317 79.2279 126.945 80.0107 126.454 80.7471C125.963 81.4749 125.375 82.1351 124.689 82.7275C124.004 83.3115 123.246 83.8066 122.417 84.2129C121.596 84.6191 120.716 84.9323 119.776 85.1523C118.837 85.3724 117.876 85.4824 116.895 85.4824C115.727 85.4824 114.542 85.3174 113.34 84.9873C112.146 84.6572 110.987 84.141 109.861 83.4385C108.736 82.7275 107.669 81.8177 106.662 80.709C105.655 79.6003 104.758 78.2673 103.971 76.71L106.599 75.3896C107.216 76.6169 107.919 77.679 108.706 78.5762C109.493 79.4648 110.331 80.1969 111.22 80.7725C112.117 81.348 113.048 81.7754 114.013 82.0547C114.986 82.334 115.968 82.4736 116.958 82.4736C117.838 82.4736 118.642 82.3763 119.37 82.1816C120.098 81.987 120.75 81.7246 121.325 81.3945C121.901 81.0645 122.4 80.6794 122.823 80.2393C123.246 79.7907 123.598 79.3125 123.877 78.8047C124.156 78.2969 124.359 77.7806 124.486 77.2559C124.613 76.7311 124.677 76.2233 124.677 75.7324C124.677 75.707 124.677 75.6774 124.677 75.6436C124.668 75.0765 124.596 74.5179 124.461 73.9678C124.334 73.4092 124.135 72.8802 123.864 72.3809C123.593 71.873 123.238 71.4033 122.798 70.9717C122.366 70.54 121.837 70.1676 121.211 69.8545C120.585 69.5329 119.857 69.2832 119.027 69.1055C118.198 68.9277 117.246 68.8389 116.171 68.8389C113.496 68.8389 111.194 69.3678 109.265 70.4258C107.335 71.4753 105.773 73.0579 104.58 75.1738C104.436 75.4277 104.246 75.7959 104.009 76.2783C103.78 76.7523 103.556 77.3278 103.336 78.0049C103.116 78.682 102.925 79.4521 102.765 80.3154C102.604 81.1787 102.523 82.1224 102.523 83.1465V85.0127H99.0576V83.1465C99.0576 82.1139 98.973 81.166 98.8037 80.3027C98.6429 79.431 98.4525 78.6566 98.2324 77.9795C98.0124 77.2939 97.7839 76.7142 97.5469 76.2402C97.3184 75.7663 97.1364 75.4108 97.001 75.1738C95.8076 73.0579 94.2461 71.4753 92.3164 70.4258C90.3867 69.3678 88.0846 68.8389 85.4102 68.8389C84.3438 68.8389 83.3916 68.9277 82.5537 69.1055C81.7243 69.2832 80.9964 69.5329 80.3701 69.8545C79.7438 70.1676 79.2106 70.54 78.7705 70.9717C78.3389 71.4033 77.9876 71.873 77.7168 72.3809C77.446 72.8802 77.2471 73.4092 77.1201 73.9678C76.9932 74.5179 76.9255 75.0765 76.917 75.6436C76.917 75.6774 76.917 75.7113 76.917 75.7451C76.917 76.2275 76.9762 76.7311 77.0947 77.2559C77.2217 77.7806 77.4248 78.2969 77.7041 78.8047C77.9834 79.3125 78.3346 79.7907 78.7578 80.2393C79.181 80.6794 79.6803 81.0645 80.2559 81.3945C80.8314 81.7246 81.4831 81.987 82.2109 82.1816C82.9388 82.3763 83.7428 82.4736 84.623 82.4736C85.6133 82.4736 86.5908 82.334 87.5557 82.0547C88.529 81.7754 89.46 81.348 90.3486 80.7725C91.2458 80.1969 92.0879 79.4648 92.875 78.5762C93.6621 77.679 94.3646 76.6169 94.9824 75.3896L97.6104 76.71C96.8232 78.2673 95.9219 79.6003 94.9062 80.709C93.8991 81.8177 92.8327 82.7275 91.707 83.4385C90.5814 84.1494 89.4176 84.6699 88.2158 85C87.014 85.3216 85.8291 85.4824 84.6611 85.4824C83.6794 85.4824 82.7188 85.3724 81.7793 85.1523C80.8483 84.9323 79.9681 84.6191 79.1387 84.2129C78.3177 83.7982 77.5645 83.2988 76.8789 82.7148C76.1934 82.1309 75.6051 81.4707 75.1143 80.7344C74.6318 79.998 74.2637 79.2194 74.0098 78.3984C73.7559 77.569 73.6289 76.7142 73.6289 75.834C73.6289 75.7493 73.6289 75.6647 73.6289 75.5801C73.6458 74.8014 73.7559 74.0228 73.959 73.2441C74.1621 72.4655 74.4668 71.7207 74.873 71.0098C75.2793 70.2904 75.7956 69.6217 76.4219 69.0039C77.0482 68.3861 77.793 67.8486 78.6562 67.3916C79.528 66.9346 80.5225 66.5749 81.6396 66.3125C82.7568 66.0501 84.0137 65.9189 85.4102 65.9189C87.2637 65.9189 88.9141 66.1263 90.3613 66.541C91.8171 66.9473 93.0951 67.4847 94.1953 68.1533C95.304 68.8135 96.2562 69.5625 97.0518 70.4004C97.8473 71.2298 98.516 72.0677 99.0576 72.9141V66.3887H102.523V72.9141C103.065 72.0677 103.734 71.2298 104.529 70.4004C105.325 69.5625 106.273 68.8135 107.373 68.1533C108.482 67.4847 109.76 66.9473 111.207 66.541C112.663 66.1263 114.317 65.9189 116.171 65.9189C117.567 65.9189 118.824 66.0501 119.941 66.3125C121.059 66.5749 122.049 66.9346 122.912 67.3916C123.784 67.8486 124.533 68.3861 125.159 69.0039C125.785 69.6217 126.302 70.2904 126.708 71.0098C127.114 71.7207 127.419 72.4655 127.622 73.2441C127.825 74.0228 127.935 74.8014 127.952 75.5801ZM147.655 65.9062C148.815 65.9062 149.898 66.0163 150.905 66.2363C151.912 66.4479 152.831 66.7441 153.66 67.125C154.498 67.4974 155.243 67.9417 155.895 68.458C156.546 68.9743 157.096 69.5371 157.545 70.1465C157.993 70.7474 158.332 71.3822 158.561 72.0508C158.798 72.7109 158.916 73.3796 158.916 74.0566C158.916 74.7507 158.81 75.4447 158.599 76.1387C158.396 76.8327 158.074 77.4971 157.634 78.1318C157.202 78.7581 156.648 79.3464 155.971 79.8965C155.302 80.4382 154.494 80.9079 153.546 81.3057C152.606 81.7035 151.527 82.0166 150.309 82.2451C149.098 82.4736 147.736 82.5879 146.221 82.5879C144.41 82.5879 142.789 82.4186 141.358 82.0801C139.937 81.7331 138.68 81.2845 137.588 80.7344C136.505 80.1758 135.569 79.5495 134.782 78.8555C134.004 78.1615 133.343 77.459 132.802 76.748V88.2627H129.349V66.3887H132.802V67.8994C132.802 68.8643 132.899 69.7402 133.094 70.5273C133.288 71.3145 133.504 71.9915 133.741 72.5586C133.987 73.1257 134.211 73.5742 134.414 73.9043C134.617 74.2259 134.731 74.4036 134.757 74.4375C137.101 77.916 140.923 79.6553 146.221 79.6553C147.727 79.6553 149.039 79.4987 150.156 79.1855C151.273 78.8724 152.2 78.4577 152.937 77.9414C153.681 77.4167 154.236 76.82 154.6 76.1514C154.964 75.4743 155.146 74.776 155.146 74.0566C155.146 73.4896 155.01 72.9014 154.739 72.292C154.477 71.6742 154.049 71.1113 153.457 70.6035C152.865 70.0872 152.09 69.6641 151.134 69.334C150.186 69.0039 149.026 68.8389 147.655 68.8389C145.175 68.8389 143.026 69.3171 141.206 70.2734C139.386 71.2214 137.893 72.6517 136.725 74.5645L134.224 73.0283C134.554 72.4867 134.943 71.9365 135.392 71.3779C135.84 70.8109 136.352 70.265 136.928 69.7402C137.503 69.207 138.151 68.7119 138.87 68.2549C139.598 67.7894 140.402 67.3831 141.282 67.0361C142.171 66.6891 143.144 66.4141 144.202 66.2109C145.26 66.0078 146.411 65.9062 147.655 65.9062ZM196.126 66.376V85H192.571V69.6895C192.258 69.7826 191.835 69.9222 191.302 70.1084C190.777 70.2861 190.18 70.5062 189.512 70.7686C188.843 71.0309 188.124 71.3356 187.354 71.6826C186.592 72.0212 185.817 72.402 185.03 72.8252C184.243 73.2399 183.46 73.6927 182.682 74.1836C181.911 74.666 181.188 75.1823 180.511 75.7324C181.078 76.4518 181.514 77.1543 181.818 77.8398C182.123 78.5169 182.322 79.1178 182.415 79.6426C182.517 80.1673 182.567 80.6286 182.567 81.0264C182.567 81.1872 182.55 81.4411 182.517 81.7881C182.491 82.1351 182.407 82.5286 182.263 82.9688C182.127 83.4004 181.958 83.777 181.755 84.0986C181.552 84.4202 181.353 84.6699 181.158 84.8477C180.76 85.2201 180.303 85.4909 179.787 85.6602C179.271 85.8294 178.746 85.9141 178.213 85.9141C177.637 85.9141 177.083 85.821 176.55 85.6348C176.017 85.457 175.568 85.1947 175.204 84.8477C174.789 84.4583 174.451 83.9378 174.188 83.2861C173.935 82.6344 173.808 81.9023 173.808 81.0898C173.808 80.2773 173.964 79.4141 174.277 78.5C174.599 77.5775 175.124 76.6549 175.852 75.7324C175.251 75.2415 174.612 74.776 173.935 74.3359C173.266 73.8958 172.576 73.4811 171.865 73.0918C171.163 72.694 170.452 72.3258 169.732 71.9873C169.013 71.6403 168.306 71.3271 167.612 71.0479C166.927 70.7601 166.258 70.502 165.606 70.2734C164.955 70.0449 164.35 69.8503 163.791 69.6895V85H160.236V66.376H163.461C164.113 66.5537 164.832 66.778 165.619 67.0488C166.406 67.3112 167.227 67.6117 168.082 67.9502C168.945 68.2887 169.826 68.6654 170.723 69.0801C171.628 69.4863 172.517 69.9264 173.389 70.4004C174.26 70.8743 175.103 71.3779 175.915 71.9111C176.736 72.4443 177.493 72.9987 178.188 73.5742C178.992 72.9056 179.91 72.237 180.942 71.5684C181.975 70.8997 183.109 70.2565 184.345 69.6387C185.589 69.0124 186.926 68.4242 188.356 67.874C189.795 67.3154 191.314 66.8161 192.914 66.376H196.126ZM179.33 81.1787C179.33 80.5863 179.229 80.0234 179.025 79.4902C178.822 78.9486 178.543 78.4238 178.188 77.916C177.832 78.4238 177.553 78.9486 177.35 79.4902C177.146 80.0234 177.045 80.5863 177.045 81.1787C177.045 81.3818 177.058 81.585 177.083 81.7881C177.117 81.9912 177.172 82.1774 177.248 82.3467C177.333 82.516 177.451 82.6556 177.604 82.7656C177.756 82.8672 177.955 82.918 178.2 82.918C178.437 82.918 178.628 82.863 178.771 82.7529C178.924 82.6429 179.038 82.5033 179.114 82.334C179.199 82.1647 179.254 81.9785 179.279 81.7754C179.313 81.5638 179.33 81.3649 179.33 81.1787ZM227.395 66.3887V85H223.929V83.1973C223.929 82.3001 223.857 81.4115 223.713 80.5312C223.577 79.651 223.366 78.7878 223.078 77.9414C223.019 77.7552 222.922 77.4844 222.786 77.1289C222.651 76.765 222.469 76.3545 222.24 75.8975C222.012 75.432 221.728 74.9368 221.39 74.4121C221.051 73.8789 220.641 73.3542 220.158 72.8379C219.684 72.3132 219.134 71.8096 218.508 71.3271C217.882 70.8447 217.162 70.4215 216.35 70.0576C215.537 69.6852 214.627 69.389 213.62 69.1689C212.621 68.9489 211.508 68.8389 210.281 68.8389C209.215 68.8389 208.263 68.932 207.425 69.1182C206.595 69.2959 205.868 69.5456 205.241 69.8672C204.615 70.1803 204.082 70.5527 203.642 70.9844C203.21 71.416 202.859 71.8857 202.588 72.3936C202.317 72.9014 202.118 73.4346 201.991 73.9932C201.864 74.5518 201.792 75.1146 201.775 75.6816C201.775 75.7155 201.775 75.7451 201.775 75.7705C201.775 76.2614 201.839 76.7692 201.966 77.2939C202.093 77.8187 202.296 78.335 202.575 78.8428C202.854 79.3506 203.206 79.8288 203.629 80.2773C204.052 80.7259 204.551 81.1195 205.127 81.458C205.702 81.7881 206.354 82.0505 207.082 82.2451C207.81 82.4398 208.614 82.5371 209.494 82.5371C210.484 82.5371 211.462 82.3975 212.427 82.1182C213.4 81.8389 214.331 81.4115 215.22 80.8359C216.117 80.252 216.959 79.5114 217.746 78.6143C218.533 77.7171 219.236 76.6549 219.854 75.4277L222.481 76.748C221.034 79.6257 219.21 81.8008 217.01 83.2734C214.809 84.7376 212.291 85.4697 209.456 85.4697C209.219 85.4697 208.919 85.4697 208.555 85.4697C208.191 85.4697 207.78 85.4443 207.323 85.3936C206.866 85.3512 206.371 85.2708 205.838 85.1523C205.305 85.0339 204.75 84.8561 204.175 84.6191C203.599 84.3822 203.011 84.0775 202.41 83.7051C201.818 83.3242 201.234 82.8503 200.658 82.2832C199.736 81.3776 199.042 80.3704 198.576 79.2617C198.119 78.153 197.891 77.002 197.891 75.8086C197.891 75.7493 197.891 75.6859 197.891 75.6182C197.908 74.8395 198.03 74.0609 198.259 73.2822C198.496 72.4951 198.839 71.7419 199.287 71.0225C199.744 70.3031 200.311 69.6344 200.988 69.0166C201.665 68.3903 202.461 67.8486 203.375 67.3916C204.289 66.9346 205.317 66.5749 206.46 66.3125C207.611 66.0501 208.885 65.9189 210.281 65.9189C211.517 65.9189 212.66 66.0163 213.709 66.2109C214.767 66.3971 215.74 66.6553 216.629 66.9854C217.518 67.3154 218.33 67.7048 219.066 68.1533C219.803 68.6019 220.471 69.0885 221.072 69.6133C221.673 70.1296 222.206 70.6712 222.672 71.2383C223.146 71.7969 223.565 72.3597 223.929 72.9268V66.3887H227.395ZM230.188 80.0615C230.094 79.4521 230.022 78.8597 229.972 78.2842C229.929 77.7002 229.9 77.1797 229.883 76.7227C229.866 76.3249 229.857 75.9398 229.857 75.5674V66.3887H233.298V76.748C233.298 77.7467 233.378 78.5889 233.539 79.2744C233.708 79.96 233.933 80.5143 234.212 80.9375C234.5 81.3522 234.834 81.6527 235.215 81.8389C235.604 82.0166 236.019 82.1055 236.459 82.1055C237.009 82.1055 237.572 81.9997 238.147 81.7881C238.723 81.568 239.29 81.276 239.849 80.9121C240.416 80.5482 240.966 80.1335 241.499 79.668C242.032 79.194 242.532 78.7031 242.997 78.1953C243.471 77.6875 243.903 77.1797 244.292 76.6719C244.681 76.1556 245.011 75.6774 245.282 75.2373V66.3887H248.723V78.1064C248.723 78.5127 248.731 78.902 248.748 79.2744C248.773 79.6383 248.833 79.9854 248.926 80.3154C249.027 80.6455 249.18 80.9544 249.383 81.2422C249.594 81.5299 249.886 81.7965 250.259 82.042C250.741 82.3467 251.084 82.6937 251.287 83.083C251.499 83.4723 251.604 83.8659 251.604 84.2637C251.604 84.2806 251.6 84.3991 251.592 84.6191C251.592 84.8307 251.482 85.1354 251.262 85.5332C251.05 85.931 250.754 86.2865 250.373 86.5996C250.001 86.9128 249.552 87.1624 249.027 87.3486C248.503 87.5433 247.927 87.6406 247.301 87.6406C246.607 87.6406 245.866 87.5052 245.079 87.2344C244.3 86.972 243.488 86.5234 242.642 85.8887L244.432 83.502C244.99 83.9251 245.507 84.2087 245.98 84.3525C246.463 84.488 246.882 84.5557 247.237 84.5557C247.584 84.5557 247.859 84.5218 248.062 84.4541C248.274 84.3779 248.401 84.3271 248.443 84.3018C247.936 83.9717 247.5 83.6416 247.136 83.3115C246.772 82.9814 246.467 82.6344 246.222 82.2705C245.985 81.9066 245.807 81.5257 245.688 81.1279C245.578 80.7217 245.523 80.2858 245.523 79.8203C245.515 79.8288 245.502 79.8499 245.485 79.8838C245.358 80.0192 245.181 80.2266 244.952 80.5059C244.724 80.7852 244.449 81.0983 244.127 81.4453C243.814 81.7839 243.454 82.1436 243.048 82.5244C242.642 82.8968 242.197 83.2565 241.715 83.6035C241.232 83.9505 240.716 84.2679 240.166 84.5557C239.616 84.835 239.032 85.0465 238.414 85.1904C238.16 85.2497 237.864 85.3005 237.525 85.3428C237.187 85.3936 236.819 85.4189 236.421 85.4189C236.023 85.4189 235.608 85.3893 235.177 85.3301C234.745 85.2708 234.318 85.1608 233.895 85C233.471 84.8477 233.061 84.6445 232.663 84.3906C232.265 84.1283 231.901 83.7982 231.571 83.4004C231.25 83.0026 230.966 82.5286 230.721 81.9785C230.475 81.4284 230.298 80.7894 230.188 80.0615ZM270.14 77.5732C270.131 77.734 270.127 77.8991 270.127 78.0684C270.127 78.4069 270.148 78.7962 270.19 79.2363C270.233 79.668 270.305 80.1165 270.406 80.582C270.516 81.0391 270.652 81.4368 270.812 81.7754C270.973 82.1055 271.155 82.3255 271.358 82.4355L269.771 85.4824C269.399 85.2878 269.039 85.0042 268.692 84.6318C268.345 84.251 268.036 83.8151 267.766 83.3242C267.503 82.8249 267.292 82.2832 267.131 81.6992C266.979 81.1068 266.902 80.5016 266.902 79.8838C266.775 80.0192 266.593 80.2266 266.356 80.5059C266.128 80.7852 265.853 81.0983 265.531 81.4453C265.218 81.7839 264.858 82.1436 264.452 82.5244C264.046 82.8968 263.602 83.2565 263.119 83.6035C262.645 83.9505 262.129 84.2679 261.57 84.5557C261.02 84.835 260.44 85.0465 259.831 85.1904C259.577 85.2581 259.277 85.3132 258.93 85.3555C258.591 85.3978 258.223 85.4189 257.825 85.4189C257.427 85.4189 257.013 85.3893 256.581 85.3301C256.149 85.2708 255.722 85.1608 255.299 85C254.876 84.8477 254.465 84.6445 254.067 84.3906C253.678 84.1283 253.318 83.8024 252.988 83.4131C252.658 83.0153 252.37 82.5413 252.125 81.9912C251.888 81.4411 251.715 80.8021 251.604 80.0742C251.511 79.4648 251.439 78.8724 251.389 78.2969C251.346 77.7129 251.317 77.1924 251.3 76.7354C251.283 76.3291 251.274 75.9398 251.274 75.5674V66.3887H254.715V76.748C254.715 77.7467 254.795 78.5889 254.956 79.2744C255.125 79.96 255.35 80.5143 255.629 80.9375C255.917 81.3522 256.251 81.6527 256.632 81.8389C257.021 82.0166 257.436 82.1055 257.876 82.1055C258.333 82.1055 258.807 82.0251 259.298 81.8643C259.797 81.695 260.288 81.4749 260.771 81.2041C261.253 80.9333 261.718 80.6243 262.167 80.2773C262.624 79.9303 263.035 79.5791 263.398 79.2236C264.245 78.4027 264.93 77.6536 265.455 76.9766C265.988 76.291 266.403 75.7113 266.699 75.2373V66.3887H270.14V77.5732ZM294.87 66.4014V85.0127H291.696V81.8516C291.671 81.5807 291.629 81.2168 291.569 80.7598C291.519 80.3027 291.434 79.7822 291.315 79.1982C291.197 78.6143 291.045 77.988 290.858 77.3193C290.672 76.6507 290.439 75.9779 290.16 75.3008C288.4 71.0013 285.615 68.8516 281.807 68.8516C281.104 68.8516 280.474 68.8939 279.915 68.9785C279.365 69.0547 278.874 69.1562 278.442 69.2832C278.019 69.4102 277.651 69.5498 277.338 69.7021C277.033 69.8545 276.775 70.0068 276.563 70.1592C276.123 70.4639 275.785 70.8109 275.548 71.2002C275.319 71.5811 275.205 71.9788 275.205 72.3936C275.205 72.7998 275.319 73.2018 275.548 73.5996C275.785 73.9889 276.136 74.3359 276.602 74.6406C277.067 74.9453 277.643 75.195 278.328 75.3896C279.014 75.5758 279.809 75.6689 280.715 75.6689C282.992 75.6689 284.904 75.1569 286.453 74.1328L289.538 76.4561C289.53 76.473 289.521 76.4941 289.513 76.5195L289.487 76.5576C289.487 76.583 289.479 76.6042 289.462 76.6211C289.191 77.1712 288.861 77.7721 288.472 78.4238C288.082 79.0755 287.634 79.7314 287.126 80.3916C286.618 81.0433 286.043 81.6738 285.399 82.2832C284.765 82.8926 284.062 83.4342 283.292 83.9082C282.53 84.3822 281.692 84.7588 280.778 85.0381C279.873 85.3258 278.895 85.4697 277.846 85.4697C277.414 85.4697 276.961 85.4232 276.487 85.3301C276.013 85.2454 275.535 85.1227 275.053 84.9619C274.579 84.7926 274.105 84.5895 273.631 84.3525C273.157 84.1156 272.7 83.8447 272.26 83.54L273.923 81.1279C274.236 81.3395 274.562 81.5342 274.9 81.7119C275.239 81.8812 275.577 82.0293 275.916 82.1562C276.263 82.2747 276.602 82.3678 276.932 82.4355C277.262 82.5033 277.566 82.5371 277.846 82.5371C278.692 82.5371 279.479 82.4059 280.207 82.1436C280.935 81.8727 281.608 81.5215 282.226 81.0898C282.852 80.6582 283.419 80.1673 283.927 79.6172C284.443 79.0586 284.904 78.4915 285.311 77.916C283.914 78.373 282.382 78.6016 280.715 78.6016C279.327 78.6016 278.104 78.4238 277.046 78.0684C275.996 77.7129 275.116 77.2432 274.405 76.6592C273.703 76.0752 273.17 75.4108 272.806 74.666C272.45 73.9212 272.272 73.1637 272.272 72.3936C272.272 71.4964 272.497 70.6458 272.945 69.8418C273.394 69.0378 274.037 68.3438 274.875 67.7598C275.73 67.1504 276.741 66.6934 277.909 66.3887C279.086 66.0755 280.385 65.9189 281.807 65.9189C283.939 65.9189 285.835 66.4141 287.494 67.4043C289.153 68.3945 290.554 69.8587 291.696 71.7969V66.4014H294.87Z" fill="#82A816"/>
<mask id="mask0_172_305" style="mask-type:alpha" maskUnits="userSpaceOnUse" x="0" y="0" width="108" height="118">
<path fill-rule="evenodd" clip-rule="evenodd" d="M55.1499 0.00430762C69.1092 0.191935 83.3857 5.72926 92.2836 15.5303C100.427 24.5002 96.8322 37.5741 99.5785 48.9425C101.95 58.7606 110.551 67.9243 107.259 77.5194C103.96 87.1339 91.7743 90.8917 83.0578 97.0895C73.9349 103.576 66.3695 111.987 55.1499 114.571C41.7302 117.661 25.1023 121.139 14.6857 112.834C4.19437 104.47 9.82901 88.7675 7.15003 76.3031C4.90979 65.88 -1.42123 56.3606 0.289719 45.8546C2.21189 34.0516 7.56018 22.5875 17.2115 14.5212C27.5725 5.86181 41.0911 -0.184657 55.1499 0.00430762Z" fill="#82A816"/>
</mask>
<g mask="url(#mask0_172_305)">
<path d="M41.8398 41.7314C42.1191 42.0531 42.4069 42.3366 42.7031 42.582C43.0078 42.819 43.3125 43.0264 43.6172 43.2041C43.9219 43.3818 44.2223 43.5299 44.5186 43.6484C44.8148 43.7585 45.0983 43.8473 45.3691 43.915C45.9701 44.0674 46.5667 44.1436 47.1592 44.1436C47.1846 44.1436 47.2142 44.1436 47.248 44.1436L48.0859 46.9619C48.0521 46.9704 47.8997 47 47.6289 47.0508C47.3665 47.11 47.0111 47.1396 46.5625 47.1396C45.7331 47.1396 44.9756 47.055 44.29 46.8857C43.6045 46.7165 42.9782 46.4922 42.4111 46.2129C41.8441 45.9336 41.3236 45.612 40.8496 45.248C40.3841 44.8757 39.944 44.4863 39.5293 44.0801C39.123 43.6738 38.738 43.2676 38.374 42.8613C38.0101 42.4466 37.6504 42.0573 37.2949 41.6934C36.9395 41.3294 36.5755 40.9993 36.2031 40.7031C35.8392 40.4069 35.4499 40.1742 35.0352 40.0049C34.5697 39.8102 34.0872 39.6536 33.5879 39.5352C33.097 39.4167 32.6104 39.3278 32.1279 39.2686C31.6455 39.2008 31.1758 39.1543 30.7188 39.1289C30.2702 39.1035 29.8597 39.0908 29.4873 39.0908C28.9372 39.0908 28.5013 39.1035 28.1797 39.1289C27.9935 39.1374 27.8285 39.1501 27.6846 39.167V47H24.0156V28.3887H27.6846V36.1455C28.9287 36.1455 30.0163 36.0947 30.9473 35.9932C31.8783 35.8916 32.6865 35.7562 33.3721 35.5869C34.0576 35.4176 34.6374 35.2188 35.1113 34.9902C35.5938 34.7617 36 34.5247 36.3301 34.2793C36.6686 34.0254 36.9564 33.7673 37.1934 33.5049C37.4303 33.2425 37.6462 32.9886 37.8408 32.7432C38.6279 31.7783 39.432 31.0081 40.2529 30.4326C41.0739 29.8486 41.8695 29.4001 42.6396 29.0869C43.4098 28.7738 44.1292 28.5664 44.7979 28.4648C45.4749 28.3633 46.0547 28.3125 46.5371 28.3125C46.9434 28.3125 47.265 28.3294 47.502 28.3633C47.7474 28.3971 47.8828 28.4183 47.9082 28.4268L47.083 31.2451C47.0238 31.2282 46.9561 31.2155 46.8799 31.207C46.7445 31.1816 46.554 31.1689 46.3086 31.1689C46.0208 31.1689 45.6654 31.207 45.2422 31.2832C44.8275 31.3509 44.3662 31.5033 43.8584 31.7402C43.3506 31.9688 42.8132 32.2988 42.2461 32.7305C41.679 33.1536 41.1035 33.7207 40.5195 34.4316C40.2995 34.694 40.0456 34.9775 39.7578 35.2822C39.4785 35.5785 39.1738 35.8662 38.8438 36.1455C38.5137 36.4163 38.1582 36.6618 37.7773 36.8818C37.4049 37.1019 37.0156 37.2627 36.6094 37.3643C36.8802 37.4489 37.1849 37.6012 37.5234 37.8213C37.862 38.0413 38.209 38.2952 38.5645 38.583C38.9199 38.8623 39.2712 39.167 39.6182 39.4971C39.9736 39.8187 40.2995 40.1276 40.5957 40.4238C40.8919 40.7116 41.1501 40.974 41.3701 41.2109C41.5902 41.4479 41.7467 41.6214 41.8398 41.7314ZM59.3467 27.8555C60.5316 27.8555 61.6826 27.974 62.7998 28.2109C63.9255 28.4395 64.9834 28.7653 65.9736 29.1885C66.9639 29.6117 67.8695 30.1237 68.6904 30.7246C69.5114 31.3171 70.2181 31.9772 70.8105 32.7051C71.4115 33.4245 71.877 34.2031 72.207 35.041C72.5371 35.8704 72.7021 36.7337 72.7021 37.6309C72.7021 38.528 72.5371 39.3955 72.207 40.2334C71.877 41.0628 71.4115 41.8415 70.8105 42.5693C70.2181 43.2887 69.5114 43.9489 68.6904 44.5498C67.8695 45.1423 66.9639 45.6501 65.9736 46.0732C64.9834 46.4964 63.9255 46.8223 62.7998 47.0508C61.6826 47.2878 60.5316 47.4062 59.3467 47.4062C58.1618 47.4062 57.0065 47.2878 55.8809 47.0508C54.7637 46.8223 53.71 46.4964 52.7197 46.0732C51.7295 45.6501 50.8197 45.1423 49.9902 44.5498C49.1693 43.9489 48.4626 43.2887 47.8701 42.5693C47.2777 41.8415 46.8164 41.0628 46.4863 40.2334C46.1562 39.3955 45.9912 38.528 45.9912 37.6309C45.9912 36.7337 46.1562 35.8704 46.4863 35.041C46.8164 34.2031 47.2777 33.4245 47.8701 32.7051C48.4626 31.9772 49.1693 31.3171 49.9902 30.7246C50.8197 30.1237 51.7295 29.6117 52.7197 29.1885C53.71 28.7653 54.7637 28.4395 55.8809 28.2109C57.0065 27.974 58.1618 27.8555 59.3467 27.8555ZM49.6094 37.6309C49.6094 38.3757 49.7363 39.0612 49.9902 39.6875C50.2441 40.3138 50.5954 40.8766 51.0439 41.376C51.501 41.8753 52.0342 42.3112 52.6436 42.6836C53.2614 43.056 53.93 43.3691 54.6494 43.623C55.3688 43.8685 56.1263 44.0547 56.9219 44.1816C57.7174 44.3001 58.5215 44.3594 59.334 44.3594C60.1465 44.3594 60.9505 44.3001 61.7461 44.1816C62.5417 44.0547 63.2992 43.8685 64.0186 43.623C64.7464 43.3691 65.415 43.056 66.0244 42.6836C66.6423 42.3027 67.1755 41.8626 67.624 41.3633C68.0811 40.8639 68.4365 40.3053 68.6904 39.6875C68.9443 39.0612 69.0713 38.3757 69.0713 37.6309C69.0713 36.8776 68.9443 36.1921 68.6904 35.5742C68.4365 34.9479 68.0811 34.3851 67.624 33.8857C67.1755 33.3864 66.6423 32.9505 66.0244 32.5781C65.415 32.2057 64.7464 31.8968 64.0186 31.6514C63.2992 31.3975 62.5417 31.2113 61.7461 31.0928C60.9505 30.9658 60.1465 30.9023 59.334 30.9023C58.5215 30.9023 57.7174 30.9658 56.9219 31.0928C56.1263 31.2113 55.3688 31.3975 54.6494 31.6514C53.93 31.8968 53.2614 32.21 52.6436 32.5908C52.0342 32.9632 51.501 33.3991 51.0439 33.8984C50.5954 34.3978 50.2441 34.9606 49.9902 35.5869C49.7363 36.2048 49.6094 36.8861 49.6094 37.6309ZM99.7686 28.3887V47H96.3662V38.583C96.2223 38.7184 96.0658 38.8242 95.8965 38.9004C95.7357 38.9681 95.5283 39.0189 95.2744 39.0527C95.0205 39.0866 94.7031 39.1077 94.3223 39.1162C93.9499 39.1247 93.4759 39.1289 92.9004 39.1289H87.3525C85.626 39.1374 83.6497 39.1416 81.4238 39.1416V40.665C81.4238 41.3506 81.4027 41.9642 81.3604 42.5059C81.318 43.0391 81.2292 43.5257 81.0938 43.9658C80.9668 44.4059 80.7806 44.8164 80.5352 45.1973C80.2982 45.5697 79.9808 45.9378 79.583 46.3018C79.1514 46.6995 78.6647 46.9915 78.123 47.1777C77.5898 47.3724 77.0397 47.4697 76.4727 47.4697C75.9056 47.4697 75.3512 47.3724 74.8096 47.1777C74.2679 46.9915 73.7855 46.7122 73.3623 46.3398C72.9391 45.9674 72.6006 45.5062 72.3467 44.9561C72.0843 44.3975 71.9531 43.75 71.9531 43.0137C71.9531 42.5143 72.0378 41.9515 72.207 41.3252C72.3763 40.6904 72.681 40.0641 73.1211 39.4463C73.5697 38.82 74.179 38.2445 74.9492 37.7197C75.7194 37.1865 76.7054 36.7718 77.9072 36.4756V28.3887H81.4238V36.2344C81.627 36.2174 81.8089 36.209 81.9697 36.209C82.1305 36.2005 82.3252 36.1963 82.5537 36.1963L93.7383 36.209C94.0853 36.209 94.39 36.2005 94.6523 36.1836C94.9147 36.1582 95.1432 36.0947 95.3379 35.9932C95.5326 35.8831 95.6934 35.7223 95.8203 35.5107C95.9557 35.2907 96.0615 34.986 96.1377 34.5967C96.2223 34.1989 96.2816 33.7038 96.3154 33.1113C96.3493 32.5189 96.3662 31.7952 96.3662 30.9404V28.3887H99.7686ZM77.1836 43.8135C77.3021 43.6865 77.4036 43.5257 77.4883 43.3311C77.5729 43.1364 77.6449 42.929 77.7041 42.709C77.7633 42.4805 77.8057 42.2435 77.8311 41.998C77.8649 41.7526 77.8903 41.5114 77.9072 41.2744C77.9242 40.9951 77.9326 40.7074 77.9326 40.4111C77.9326 40.1149 77.9242 39.8145 77.9072 39.5098C77.5264 39.6367 77.1624 39.8018 76.8154 40.0049C76.4769 40.1995 76.1807 40.4365 75.9268 40.7158C75.6729 40.9951 75.4697 41.321 75.3174 41.6934C75.1735 42.0658 75.1016 42.4847 75.1016 42.9502C75.1016 43.3988 75.2158 43.7246 75.4443 43.9277C75.6729 44.1224 75.9268 44.2197 76.2061 44.2197C76.3923 44.2197 76.57 44.1859 76.7393 44.1182C76.917 44.042 77.0651 43.9404 77.1836 43.8135ZM115.46 31.3213H111.918L104.834 47H101.267L108.351 31.3213H103.844L105.177 28.3887H116.793L115.46 31.3213ZM143.732 28.3887V47H140.267V45.1973C140.267 44.3001 140.195 43.4115 140.051 42.5312C139.915 41.651 139.704 40.7878 139.416 39.9414C139.357 39.7552 139.259 39.4844 139.124 39.1289C138.989 38.765 138.807 38.3545 138.578 37.8975C138.35 37.432 138.066 36.9368 137.728 36.4121C137.389 35.8789 136.979 35.3542 136.496 34.8379C136.022 34.3132 135.472 33.8096 134.846 33.3271C134.219 32.8447 133.5 32.4215 132.688 32.0576C131.875 31.6852 130.965 31.389 129.958 31.1689C128.959 30.9489 127.846 30.8389 126.619 30.8389C125.553 30.8389 124.601 30.932 123.763 31.1182C122.933 31.2959 122.205 31.5456 121.579 31.8672C120.953 32.1803 120.42 32.5527 119.979 32.9844C119.548 33.416 119.197 33.8857 118.926 34.3936C118.655 34.9014 118.456 35.4346 118.329 35.9932C118.202 36.5518 118.13 37.1146 118.113 37.6816C118.113 37.7155 118.113 37.7451 118.113 37.7705C118.113 38.2614 118.177 38.7692 118.304 39.2939C118.431 39.8187 118.634 40.335 118.913 40.8428C119.192 41.3506 119.544 41.8288 119.967 42.2773C120.39 42.7259 120.889 43.1195 121.465 43.458C122.04 43.7881 122.692 44.0505 123.42 44.2451C124.148 44.4398 124.952 44.5371 125.832 44.5371C126.822 44.5371 127.8 44.3975 128.765 44.1182C129.738 43.8389 130.669 43.4115 131.558 42.8359C132.455 42.252 133.297 41.5114 134.084 40.6143C134.871 39.7171 135.574 38.6549 136.191 37.4277L138.819 38.748C137.372 41.6257 135.548 43.8008 133.348 45.2734C131.147 46.7376 128.629 47.4697 125.794 47.4697C125.557 47.4697 125.257 47.4697 124.893 47.4697C124.529 47.4697 124.118 47.4443 123.661 47.3936C123.204 47.3512 122.709 47.2708 122.176 47.1523C121.643 47.0339 121.088 46.8561 120.513 46.6191C119.937 46.3822 119.349 46.0775 118.748 45.7051C118.156 45.3242 117.572 44.8503 116.996 44.2832C116.074 43.3776 115.38 42.3704 114.914 41.2617C114.457 40.153 114.229 39.002 114.229 37.8086C114.229 37.7493 114.229 37.6859 114.229 37.6182C114.245 36.8395 114.368 36.0609 114.597 35.2822C114.834 34.4951 115.176 33.7419 115.625 33.0225C116.082 32.3031 116.649 31.6344 117.326 31.0166C118.003 30.3903 118.799 29.8486 119.713 29.3916C120.627 28.9346 121.655 28.5749 122.798 28.3125C123.949 28.0501 125.223 27.9189 126.619 27.9189C127.855 27.9189 128.997 28.0163 130.047 28.2109C131.105 28.3971 132.078 28.6553 132.967 28.9854C133.855 29.3154 134.668 29.7048 135.404 30.1533C136.141 30.6019 136.809 31.0885 137.41 31.6133C138.011 32.1296 138.544 32.6712 139.01 33.2383C139.484 33.7969 139.903 34.3597 140.267 34.9268V28.3887H143.732ZM164.375 41.7314C164.654 42.0531 164.942 42.3366 165.238 42.582C165.543 42.819 165.848 43.0264 166.152 43.2041C166.457 43.3818 166.757 43.5299 167.054 43.6484C167.35 43.7585 167.633 43.8473 167.904 43.915C168.505 44.0674 169.102 44.1436 169.694 44.1436C169.72 44.1436 169.749 44.1436 169.783 44.1436L170.621 46.9619C170.587 46.9704 170.435 47 170.164 47.0508C169.902 47.11 169.546 47.1396 169.098 47.1396C168.268 47.1396 167.511 47.055 166.825 46.8857C166.14 46.7165 165.513 46.4922 164.946 46.2129C164.379 45.9336 163.859 45.612 163.385 45.248C162.919 44.8757 162.479 44.4863 162.064 44.0801C161.658 43.6738 161.273 43.2676 160.909 42.8613C160.545 42.4466 160.186 42.0573 159.83 41.6934C159.475 41.3294 159.111 40.9993 158.738 40.7031C158.374 40.4069 157.985 40.1742 157.57 40.0049C157.105 39.8102 156.622 39.6536 156.123 39.5352C155.632 39.4167 155.146 39.3278 154.663 39.2686C154.181 39.2008 153.711 39.1543 153.254 39.1289C152.805 39.1035 152.395 39.0908 152.022 39.0908C151.472 39.0908 151.036 39.1035 150.715 39.1289C150.529 39.1374 150.364 39.1501 150.22 39.167V47H146.551V28.3887H150.22V36.1455C151.464 36.1455 152.551 36.0947 153.482 35.9932C154.413 35.8916 155.222 35.7562 155.907 35.5869C156.593 35.4176 157.173 35.2188 157.646 34.9902C158.129 34.7617 158.535 34.5247 158.865 34.2793C159.204 34.0254 159.492 33.7673 159.729 33.5049C159.965 33.2425 160.181 32.9886 160.376 32.7432C161.163 31.7783 161.967 31.0081 162.788 30.4326C163.609 29.8486 164.405 29.4001 165.175 29.0869C165.945 28.7738 166.664 28.5664 167.333 28.4648C168.01 28.3633 168.59 28.3125 169.072 28.3125C169.479 28.3125 169.8 28.3294 170.037 28.3633C170.283 28.3971 170.418 28.4183 170.443 28.4268L169.618 31.2451C169.559 31.2282 169.491 31.2155 169.415 31.207C169.28 31.1816 169.089 31.1689 168.844 31.1689C168.556 31.1689 168.201 31.207 167.777 31.2832C167.363 31.3509 166.901 31.5033 166.394 31.7402C165.886 31.9688 165.348 32.2988 164.781 32.7305C164.214 33.1536 163.639 33.7207 163.055 34.4316C162.835 34.694 162.581 34.9775 162.293 35.2822C162.014 35.5785 161.709 35.8662 161.379 36.1455C161.049 36.4163 160.693 36.6618 160.312 36.8818C159.94 37.1019 159.551 37.2627 159.145 37.3643C159.415 37.4489 159.72 37.6012 160.059 37.8213C160.397 38.0413 160.744 38.2952 161.1 38.583C161.455 38.8623 161.806 39.167 162.153 39.4971C162.509 39.8187 162.835 40.1276 163.131 40.4238C163.427 40.7116 163.685 40.974 163.905 41.2109C164.125 41.4479 164.282 41.6214 164.375 41.7314ZM185.106 31.3213H181.564L174.48 47H170.913L177.997 31.3213H173.49L174.823 28.3887H186.439L185.106 31.3213ZM209.278 28.3887V47H205.876V38.583C205.732 38.7184 205.576 38.8242 205.406 38.9004C205.245 38.9681 205.038 39.0189 204.784 39.0527C204.53 39.0866 204.213 39.1077 203.832 39.1162C203.46 39.1247 202.986 39.1289 202.41 39.1289H196.862C195.136 39.1374 193.16 39.1416 190.934 39.1416V40.665C190.934 41.3506 190.912 41.9642 190.87 42.5059C190.828 43.0391 190.739 43.5257 190.604 43.9658C190.477 44.4059 190.29 44.8164 190.045 45.1973C189.808 45.5697 189.491 45.9378 189.093 46.3018C188.661 46.6995 188.174 46.9915 187.633 47.1777C187.1 47.3724 186.549 47.4697 185.982 47.4697C185.415 47.4697 184.861 47.3724 184.319 47.1777C183.778 46.9915 183.295 46.7122 182.872 46.3398C182.449 45.9674 182.11 45.5062 181.856 44.9561C181.594 44.3975 181.463 43.75 181.463 43.0137C181.463 42.5143 181.548 41.9515 181.717 41.3252C181.886 40.6904 182.191 40.0641 182.631 39.4463C183.079 38.82 183.689 38.2445 184.459 37.7197C185.229 37.1865 186.215 36.7718 187.417 36.4756V28.3887H190.934V36.2344C191.137 36.2174 191.319 36.209 191.479 36.209C191.64 36.2005 191.835 36.1963 192.063 36.1963L203.248 36.209C203.595 36.209 203.9 36.2005 204.162 36.1836C204.424 36.1582 204.653 36.0947 204.848 35.9932C205.042 35.8831 205.203 35.7223 205.33 35.5107C205.465 35.2907 205.571 34.986 205.647 34.5967C205.732 34.1989 205.791 33.7038 205.825 33.1113C205.859 32.5189 205.876 31.7952 205.876 30.9404V28.3887H209.278ZM186.693 43.8135C186.812 43.6865 186.913 43.5257 186.998 43.3311C187.083 43.1364 187.155 42.929 187.214 42.709C187.273 42.4805 187.315 42.2435 187.341 41.998C187.375 41.7526 187.4 41.5114 187.417 41.2744C187.434 40.9951 187.442 40.7074 187.442 40.4111C187.442 40.1149 187.434 39.8145 187.417 39.5098C187.036 39.6367 186.672 39.8018 186.325 40.0049C185.987 40.1995 185.69 40.4365 185.437 40.7158C185.183 40.9951 184.979 41.321 184.827 41.6934C184.683 42.0658 184.611 42.4847 184.611 42.9502C184.611 43.3988 184.726 43.7246 184.954 43.9277C185.183 44.1224 185.437 44.2197 185.716 44.2197C185.902 44.2197 186.08 44.1859 186.249 44.1182C186.427 44.042 186.575 43.9404 186.693 43.8135ZM240.268 28.3887V47H236.802V45.1973C236.802 44.3001 236.73 43.4115 236.586 42.5312C236.451 41.651 236.239 40.7878 235.951 39.9414C235.892 39.7552 235.795 39.4844 235.659 39.1289C235.524 38.765 235.342 38.3545 235.113 37.8975C234.885 37.432 234.601 36.9368 234.263 36.4121C233.924 35.8789 233.514 35.3542 233.031 34.8379C232.557 34.3132 232.007 33.8096 231.381 33.3271C230.755 32.8447 230.035 32.4215 229.223 32.0576C228.41 31.6852 227.5 31.389 226.493 31.1689C225.494 30.9489 224.382 30.8389 223.154 30.8389C222.088 30.8389 221.136 30.932 220.298 31.1182C219.468 31.2959 218.741 31.5456 218.114 31.8672C217.488 32.1803 216.955 32.5527 216.515 32.9844C216.083 33.416 215.732 33.8857 215.461 34.3936C215.19 34.9014 214.991 35.4346 214.864 35.9932C214.737 36.5518 214.665 37.1146 214.648 37.6816C214.648 37.7155 214.648 37.7451 214.648 37.7705C214.648 38.2614 214.712 38.7692 214.839 39.2939C214.966 39.8187 215.169 40.335 215.448 40.8428C215.728 41.3506 216.079 41.8288 216.502 42.2773C216.925 42.7259 217.424 43.1195 218 43.458C218.576 43.7881 219.227 44.0505 219.955 44.2451C220.683 44.4398 221.487 44.5371 222.367 44.5371C223.357 44.5371 224.335 44.3975 225.3 44.1182C226.273 43.8389 227.204 43.4115 228.093 42.8359C228.99 42.252 229.832 41.5114 230.619 40.6143C231.406 39.7171 232.109 38.6549 232.727 37.4277L235.354 38.748C233.907 41.6257 232.083 43.8008 229.883 45.2734C227.682 46.7376 225.164 47.4697 222.329 47.4697C222.092 47.4697 221.792 47.4697 221.428 47.4697C221.064 47.4697 220.653 47.4443 220.196 47.3936C219.739 47.3512 219.244 47.2708 218.711 47.1523C218.178 47.0339 217.623 46.8561 217.048 46.6191C216.472 46.3822 215.884 46.0775 215.283 45.7051C214.691 45.3242 214.107 44.8503 213.531 44.2832C212.609 43.3776 211.915 42.3704 211.449 41.2617C210.992 40.153 210.764 39.002 210.764 37.8086C210.764 37.7493 210.764 37.6859 210.764 37.6182C210.781 36.8395 210.903 36.0609 211.132 35.2822C211.369 34.4951 211.712 33.7419 212.16 33.0225C212.617 32.3031 213.184 31.6344 213.861 31.0166C214.538 30.3903 215.334 29.8486 216.248 29.3916C217.162 28.9346 218.19 28.5749 219.333 28.3125C220.484 28.0501 221.758 27.9189 223.154 27.9189C224.39 27.9189 225.533 28.0163 226.582 28.2109C227.64 28.3971 228.613 28.6553 229.502 28.9854C230.391 29.3154 231.203 29.7048 231.939 30.1533C232.676 30.6019 233.344 31.0885 233.945 31.6133C234.546 32.1296 235.079 32.6712 235.545 33.2383C236.019 33.7969 236.438 34.3597 236.802 34.9268V28.3887H240.268ZM264.579 28.4014V47.0127H261.405V43.8516C261.38 43.5807 261.338 43.2168 261.278 42.7598C261.228 42.3027 261.143 41.7822 261.024 41.1982C260.906 40.6143 260.754 39.988 260.567 39.3193C260.381 38.6507 260.148 37.9779 259.869 37.3008C258.109 33.0013 255.324 30.8516 251.516 30.8516C250.813 30.8516 250.183 30.8939 249.624 30.9785C249.074 31.0547 248.583 31.1562 248.151 31.2832C247.728 31.4102 247.36 31.5498 247.047 31.7021C246.742 31.8545 246.484 32.0068 246.272 32.1592C245.832 32.4639 245.494 32.8109 245.257 33.2002C245.028 33.5811 244.914 33.9788 244.914 34.3936C244.914 34.7998 245.028 35.2018 245.257 35.5996C245.494 35.9889 245.845 36.3359 246.311 36.6406C246.776 36.9453 247.352 37.195 248.037 37.3896C248.723 37.5758 249.518 37.6689 250.424 37.6689C252.701 37.6689 254.613 37.1569 256.162 36.1328L259.247 38.4561C259.239 38.473 259.23 38.4941 259.222 38.5195L259.196 38.5576C259.196 38.583 259.188 38.6042 259.171 38.6211C258.9 39.1712 258.57 39.7721 258.181 40.4238C257.791 41.0755 257.343 41.7314 256.835 42.3916C256.327 43.0433 255.752 43.6738 255.108 44.2832C254.474 44.8926 253.771 45.4342 253.001 45.9082C252.239 46.3822 251.401 46.7588 250.487 47.0381C249.582 47.3258 248.604 47.4697 247.555 47.4697C247.123 47.4697 246.67 47.4232 246.196 47.3301C245.722 47.2454 245.244 47.1227 244.762 46.9619C244.288 46.7926 243.814 46.5895 243.34 46.3525C242.866 46.1156 242.409 45.8447 241.969 45.54L243.632 43.1279C243.945 43.3395 244.271 43.5342 244.609 43.7119C244.948 43.8812 245.286 44.0293 245.625 44.1562C245.972 44.2747 246.311 44.3678 246.641 44.4355C246.971 44.5033 247.275 44.5371 247.555 44.5371C248.401 44.5371 249.188 44.4059 249.916 44.1436C250.644 43.8727 251.317 43.5215 251.935 43.0898C252.561 42.6582 253.128 42.1673 253.636 41.6172C254.152 41.0586 254.613 40.4915 255.02 39.916C253.623 40.373 252.091 40.6016 250.424 40.6016C249.036 40.6016 247.813 40.4238 246.755 40.0684C245.705 39.7129 244.825 39.2432 244.114 38.6592C243.412 38.0752 242.879 37.4108 242.515 36.666C242.159 35.9212 241.981 35.1637 241.981 34.3936C241.981 33.4964 242.206 32.6458 242.654 31.8418C243.103 31.0378 243.746 30.3438 244.584 29.7598C245.439 29.1504 246.45 28.6934 247.618 28.3887C248.795 28.0755 250.094 27.9189 251.516 27.9189C253.648 27.9189 255.544 28.4141 257.203 29.4043C258.862 30.3945 260.263 31.8587 261.405 33.7969V28.4014H264.579Z" fill="#F7FFE1"/>
<path d="M42.9951 77.5732C42.9867 77.734 42.9824 77.8991 42.9824 78.0684C42.9824 78.4069 43.0036 78.7962 43.0459 79.2363C43.0882 79.668 43.1602 80.1165 43.2617 80.582C43.3717 81.0391 43.5072 81.4368 43.668 81.7754C43.8288 82.1055 44.0107 82.3255 44.2139 82.4355L42.627 85.4824C42.2546 85.2878 41.8949 85.0042 41.5479 84.6318C41.2008 84.251 40.8919 83.8151 40.6211 83.3242C40.3587 82.8249 40.1471 82.2832 39.9863 81.6992C39.834 81.1068 39.7578 80.5016 39.7578 79.8838C39.6309 80.0192 39.4489 80.2266 39.2119 80.5059C38.9834 80.7852 38.7083 81.0983 38.3867 81.4453C38.0736 81.7839 37.7139 82.1436 37.3076 82.5244C36.9014 82.8968 36.457 83.2565 35.9746 83.6035C35.5007 83.9505 34.9844 84.2679 34.4258 84.5557C33.8757 84.835 33.2959 85.0465 32.6865 85.1904C32.4326 85.2581 32.1322 85.3132 31.7852 85.3555C31.4466 85.3978 31.0785 85.4189 30.6807 85.4189C30.2829 85.4189 29.8682 85.3893 29.4365 85.3301C29.0049 85.2708 28.5775 85.1608 28.1543 85C27.7311 84.8477 27.3206 84.6445 26.9229 84.3906C26.5335 84.1283 26.1738 83.8024 25.8438 83.4131C25.5137 83.0153 25.2259 82.5413 24.9805 81.9912C24.7435 81.4411 24.57 80.8021 24.46 80.0742C24.3669 79.4648 24.2949 78.8724 24.2441 78.2969C24.2018 77.7129 24.1722 77.1924 24.1553 76.7354C24.1383 76.3291 24.1299 75.9398 24.1299 75.5674V66.3887H27.5703V76.748C27.5703 77.7467 27.6507 78.5889 27.8115 79.2744C27.9808 79.96 28.2051 80.5143 28.4844 80.9375C28.7721 81.3522 29.1064 81.6527 29.4873 81.8389C29.8766 82.0166 30.2913 82.1055 30.7314 82.1055C31.1885 82.1055 31.6624 82.0251 32.1533 81.8643C32.6527 81.695 33.1436 81.4749 33.626 81.2041C34.1084 80.9333 34.5739 80.6243 35.0225 80.2773C35.4795 79.9303 35.89 79.5791 36.2539 79.2236C37.1003 78.4027 37.7858 77.6536 38.3105 76.9766C38.8438 76.291 39.2585 75.7113 39.5547 75.2373V66.3887H42.9951V77.5732ZM98.9814 75.5801C98.9814 75.6647 98.9814 75.7493 98.9814 75.834C98.9814 76.7142 98.8545 77.569 98.6006 78.3984C98.3467 79.2279 97.9743 80.0107 97.4834 80.7471C96.9925 81.4749 96.4043 82.1351 95.7188 82.7275C95.0332 83.3115 94.2757 83.8066 93.4463 84.2129C92.6253 84.6191 91.7451 84.9323 90.8057 85.1523C89.8662 85.3724 88.9056 85.4824 87.9238 85.4824C86.7559 85.4824 85.571 85.3174 84.3691 84.9873C83.1758 84.6572 82.0163 84.141 80.8906 83.4385C79.765 82.7275 78.6986 81.8177 77.6914 80.709C76.6842 79.6003 75.7871 78.2673 75 76.71L77.6279 75.3896C78.2458 76.6169 78.9482 77.679 79.7354 78.5762C80.5225 79.4648 81.3604 80.1969 82.249 80.7725C83.1462 81.348 84.0771 81.7754 85.042 82.0547C86.0153 82.334 86.9971 82.4736 87.9873 82.4736C88.8675 82.4736 89.6715 82.3763 90.3994 82.1816C91.1273 81.987 91.779 81.7246 92.3545 81.3945C92.93 81.0645 93.4294 80.6794 93.8525 80.2393C94.2757 79.7907 94.627 79.3125 94.9062 78.8047C95.1855 78.2969 95.3887 77.7806 95.5156 77.2559C95.6426 76.7311 95.7061 76.2233 95.7061 75.7324C95.7061 75.707 95.7061 75.6774 95.7061 75.6436C95.6976 75.0765 95.6257 74.5179 95.4902 73.9678C95.3633 73.4092 95.1644 72.8802 94.8936 72.3809C94.6227 71.873 94.2673 71.4033 93.8271 70.9717C93.3955 70.54 92.8665 70.1676 92.2402 69.8545C91.6139 69.5329 90.8861 69.2832 90.0566 69.1055C89.2272 68.9277 88.2751 68.8389 87.2002 68.8389C84.5257 68.8389 82.2236 69.3678 80.2939 70.4258C78.3643 71.4753 76.8027 73.0579 75.6094 75.1738C75.4655 75.4277 75.2751 75.7959 75.0381 76.2783C74.8096 76.7523 74.5853 77.3278 74.3652 78.0049C74.1452 78.682 73.9548 79.4521 73.7939 80.3154C73.6331 81.1787 73.5527 82.1224 73.5527 83.1465V85.0127H70.0869V83.1465C70.0869 82.1139 70.0023 81.166 69.833 80.3027C69.6722 79.431 69.4818 78.6566 69.2617 77.9795C69.0417 77.2939 68.8132 76.7142 68.5762 76.2402C68.3477 75.7663 68.1657 75.4108 68.0303 75.1738C66.8369 73.0579 65.2754 71.4753 63.3457 70.4258C61.416 69.3678 59.1139 68.8389 56.4395 68.8389C55.373 68.8389 54.4209 68.9277 53.583 69.1055C52.7536 69.2832 52.0257 69.5329 51.3994 69.8545C50.7731 70.1676 50.2399 70.54 49.7998 70.9717C49.3682 71.4033 49.0169 71.873 48.7461 72.3809C48.4753 72.8802 48.2764 73.4092 48.1494 73.9678C48.0225 74.5179 47.9548 75.0765 47.9463 75.6436C47.9463 75.6774 47.9463 75.7113 47.9463 75.7451C47.9463 76.2275 48.0055 76.7311 48.124 77.2559C48.251 77.7806 48.4541 78.2969 48.7334 78.8047C49.0127 79.3125 49.3639 79.7907 49.7871 80.2393C50.2103 80.6794 50.7096 81.0645 51.2852 81.3945C51.8607 81.7246 52.5124 81.987 53.2402 82.1816C53.9681 82.3763 54.7721 82.4736 55.6523 82.4736C56.6426 82.4736 57.6201 82.334 58.585 82.0547C59.5583 81.7754 60.4893 81.348 61.3779 80.7725C62.2751 80.1969 63.1172 79.4648 63.9043 78.5762C64.6914 77.679 65.3939 76.6169 66.0117 75.3896L68.6396 76.71C67.8525 78.2673 66.9512 79.6003 65.9355 80.709C64.9284 81.8177 63.862 82.7275 62.7363 83.4385C61.6107 84.1494 60.4469 84.6699 59.2451 85C58.0433 85.3216 56.8584 85.4824 55.6904 85.4824C54.7087 85.4824 53.748 85.3724 52.8086 85.1523C51.8776 84.9323 50.9974 84.6191 50.168 84.2129C49.347 83.7982 48.5938 83.2988 47.9082 82.7148C47.2227 82.1309 46.6344 81.4707 46.1436 80.7344C45.6611 79.998 45.293 79.2194 45.0391 78.3984C44.7852 77.569 44.6582 76.7142 44.6582 75.834C44.6582 75.7493 44.6582 75.6647 44.6582 75.5801C44.6751 74.8014 44.7852 74.0228 44.9883 73.2441C45.1914 72.4655 45.4961 71.7207 45.9023 71.0098C46.3086 70.2904 46.8249 69.6217 47.4512 69.0039C48.0775 68.3861 48.8223 67.8486 49.6855 67.3916C50.5573 66.9346 51.5518 66.5749 52.6689 66.3125C53.7861 66.0501 55.043 65.9189 56.4395 65.9189C58.293 65.9189 59.9434 66.1263 61.3906 66.541C62.8464 66.9473 64.1243 67.4847 65.2246 68.1533C66.3333 68.8135 67.2855 69.5625 68.0811 70.4004C68.8766 71.2298 69.5452 72.0677 70.0869 72.9141V66.3887H73.5527V72.9141C74.0944 72.0677 74.763 71.2298 75.5586 70.4004C76.3542 69.5625 77.3021 68.8135 78.4023 68.1533C79.5111 67.4847 80.7891 66.9473 82.2363 66.541C83.6921 66.1263 85.3467 65.9189 87.2002 65.9189C88.5967 65.9189 89.8535 66.0501 90.9707 66.3125C92.0879 66.5749 93.0781 66.9346 93.9414 67.3916C94.8132 67.8486 95.5622 68.3861 96.1885 69.0039C96.8148 69.6217 97.3311 70.2904 97.7373 71.0098C98.1436 71.7207 98.4482 72.4655 98.6514 73.2441C98.8545 74.0228 98.9645 74.8014 98.9814 75.5801ZM113.226 65.8555C114.41 65.8555 115.562 65.974 116.679 66.2109C117.804 66.4395 118.862 66.7653 119.853 67.1885C120.843 67.6117 121.748 68.1237 122.569 68.7246C123.39 69.3171 124.097 69.9772 124.689 70.7051C125.29 71.4245 125.756 72.2031 126.086 73.041C126.416 73.8704 126.581 74.7337 126.581 75.6309C126.581 76.528 126.416 77.3955 126.086 78.2334C125.756 79.0628 125.29 79.8415 124.689 80.5693C124.097 81.2887 123.39 81.9489 122.569 82.5498C121.748 83.1423 120.843 83.6501 119.853 84.0732C118.862 84.4964 117.804 84.8223 116.679 85.0508C115.562 85.2878 114.41 85.4062 113.226 85.4062C112.041 85.4062 110.885 85.2878 109.76 85.0508C108.643 84.8223 107.589 84.4964 106.599 84.0732C105.608 83.6501 104.699 83.1423 103.869 82.5498C103.048 81.9489 102.341 81.2887 101.749 80.5693C101.157 79.8415 100.695 79.0628 100.365 78.2334C100.035 77.3955 99.8701 76.528 99.8701 75.6309C99.8701 74.7337 100.035 73.8704 100.365 73.041C100.695 72.2031 101.157 71.4245 101.749 70.7051C102.341 69.9772 103.048 69.3171 103.869 68.7246C104.699 68.1237 105.608 67.6117 106.599 67.1885C107.589 66.7653 108.643 66.4395 109.76 66.2109C110.885 65.974 112.041 65.8555 113.226 65.8555ZM103.488 75.6309C103.488 76.3757 103.615 77.0612 103.869 77.6875C104.123 78.3138 104.474 78.8766 104.923 79.376C105.38 79.8753 105.913 80.3112 106.522 80.6836C107.14 81.056 107.809 81.3691 108.528 81.623C109.248 81.8685 110.005 82.0547 110.801 82.1816C111.596 82.3001 112.4 82.3594 113.213 82.3594C114.025 82.3594 114.829 82.3001 115.625 82.1816C116.421 82.0547 117.178 81.8685 117.897 81.623C118.625 81.3691 119.294 81.056 119.903 80.6836C120.521 80.3027 121.054 79.8626 121.503 79.3633C121.96 78.8639 122.315 78.3053 122.569 77.6875C122.823 77.0612 122.95 76.3757 122.95 75.6309C122.95 74.8776 122.823 74.1921 122.569 73.5742C122.315 72.9479 121.96 72.3851 121.503 71.8857C121.054 71.3864 120.521 70.9505 119.903 70.5781C119.294 70.2057 118.625 69.8968 117.897 69.6514C117.178 69.3975 116.421 69.2113 115.625 69.0928C114.829 68.9658 114.025 68.9023 113.213 68.9023C112.4 68.9023 111.596 68.9658 110.801 69.0928C110.005 69.2113 109.248 69.3975 108.528 69.6514C107.809 69.8968 107.14 70.21 106.522 70.5908C105.913 70.9632 105.38 71.3991 104.923 71.8984C104.474 72.3978 104.123 72.9606 103.869 73.5869C103.615 74.2048 103.488 74.8861 103.488 75.6309ZM146.513 65.9062C147.672 65.9062 148.756 66.0163 149.763 66.2363C150.77 66.4479 151.688 66.7441 152.518 67.125C153.355 67.4974 154.1 67.9417 154.752 68.458C155.404 68.9743 155.954 69.5371 156.402 70.1465C156.851 70.7474 157.189 71.3822 157.418 72.0508C157.655 72.7109 157.773 73.3796 157.773 74.0566C157.773 74.7507 157.668 75.4447 157.456 76.1387C157.253 76.8327 156.931 77.4971 156.491 78.1318C156.06 78.7581 155.505 79.3464 154.828 79.8965C154.16 80.4382 153.351 80.9079 152.403 81.3057C151.464 81.7035 150.385 82.0166 149.166 82.2451C147.956 82.4736 146.593 82.5879 145.078 82.5879C143.267 82.5879 141.646 82.4186 140.216 82.0801C138.794 81.7331 137.537 81.2845 136.445 80.7344C135.362 80.1758 134.427 79.5495 133.64 78.8555C132.861 78.1615 132.201 77.459 131.659 76.748V88.2627H128.206V66.3887H131.659V67.8994C131.659 68.8643 131.757 69.7402 131.951 70.5273C132.146 71.3145 132.362 71.9915 132.599 72.5586C132.844 73.1257 133.068 73.5742 133.271 73.9043C133.475 74.2259 133.589 74.4036 133.614 74.4375C135.959 77.916 139.78 79.6553 145.078 79.6553C146.585 79.6553 147.896 79.4987 149.014 79.1855C150.131 78.8724 151.058 78.4577 151.794 77.9414C152.539 77.4167 153.093 76.82 153.457 76.1514C153.821 75.4743 154.003 74.776 154.003 74.0566C154.003 73.4896 153.868 72.9014 153.597 72.292C153.334 71.6742 152.907 71.1113 152.314 70.6035C151.722 70.0872 150.948 69.6641 149.991 69.334C149.043 69.0039 147.884 68.8389 146.513 68.8389C144.033 68.8389 141.883 69.3171 140.063 70.2734C138.244 71.2214 136.75 72.6517 135.582 74.5645L133.081 73.0283C133.411 72.4867 133.8 71.9365 134.249 71.3779C134.698 70.8109 135.21 70.265 135.785 69.7402C136.361 69.207 137.008 68.7119 137.728 68.2549C138.455 67.7894 139.259 67.3831 140.14 67.0361C141.028 66.6891 142.002 66.4141 143.06 66.2109C144.118 66.0078 145.269 65.9062 146.513 65.9062ZM194.983 66.376V85H191.429V69.6895C191.116 69.7826 190.692 69.9222 190.159 70.1084C189.634 70.2861 189.038 70.5062 188.369 70.7686C187.701 71.0309 186.981 71.3356 186.211 71.6826C185.449 72.0212 184.675 72.402 183.888 72.8252C183.101 73.2399 182.318 73.6927 181.539 74.1836C180.769 74.666 180.045 75.1823 179.368 75.7324C179.935 76.4518 180.371 77.1543 180.676 77.8398C180.98 78.5169 181.179 79.1178 181.272 79.6426C181.374 80.1673 181.425 80.6286 181.425 81.0264C181.425 81.1872 181.408 81.4411 181.374 81.7881C181.349 82.1351 181.264 82.5286 181.12 82.9688C180.985 83.4004 180.815 83.777 180.612 84.0986C180.409 84.4202 180.21 84.6699 180.016 84.8477C179.618 85.2201 179.161 85.4909 178.645 85.6602C178.128 85.8294 177.604 85.9141 177.07 85.9141C176.495 85.9141 175.94 85.821 175.407 85.6348C174.874 85.457 174.425 85.1947 174.062 84.8477C173.647 84.4583 173.308 83.9378 173.046 83.2861C172.792 82.6344 172.665 81.9023 172.665 81.0898C172.665 80.2773 172.822 79.4141 173.135 78.5C173.456 77.5775 173.981 76.6549 174.709 75.7324C174.108 75.2415 173.469 74.776 172.792 74.3359C172.123 73.8958 171.434 73.4811 170.723 73.0918C170.02 72.694 169.309 72.3258 168.59 71.9873C167.87 71.6403 167.164 71.3271 166.47 71.0479C165.784 70.7601 165.116 70.502 164.464 70.2734C163.812 70.0449 163.207 69.8503 162.648 69.6895V85H159.094V66.376H162.318C162.97 66.5537 163.689 66.778 164.477 67.0488C165.264 67.3112 166.085 67.6117 166.939 67.9502C167.803 68.2887 168.683 68.6654 169.58 69.0801C170.486 69.4863 171.374 69.9264 172.246 70.4004C173.118 70.8743 173.96 71.3779 174.772 71.9111C175.593 72.4443 176.351 72.9987 177.045 73.5742C177.849 72.9056 178.767 72.237 179.8 71.5684C180.832 70.8997 181.966 70.2565 183.202 69.6387C184.446 69.0124 185.784 68.4242 187.214 67.874C188.653 67.3154 190.172 66.8161 191.771 66.376H194.983ZM178.188 81.1787C178.188 80.5863 178.086 80.0234 177.883 79.4902C177.68 78.9486 177.4 78.4238 177.045 77.916C176.689 78.4238 176.41 78.9486 176.207 79.4902C176.004 80.0234 175.902 80.5863 175.902 81.1787C175.902 81.3818 175.915 81.585 175.94 81.7881C175.974 81.9912 176.029 82.1774 176.105 82.3467C176.19 82.516 176.309 82.6556 176.461 82.7656C176.613 82.8672 176.812 82.918 177.058 82.918C177.295 82.918 177.485 82.863 177.629 82.7529C177.781 82.6429 177.896 82.5033 177.972 82.334C178.056 82.1647 178.111 81.9785 178.137 81.7754C178.171 81.5638 178.188 81.3649 178.188 81.1787ZM226.252 66.3887V85H222.786V83.1973C222.786 82.3001 222.714 81.4115 222.57 80.5312C222.435 79.651 222.223 78.7878 221.936 77.9414C221.876 77.7552 221.779 77.4844 221.644 77.1289C221.508 76.765 221.326 76.3545 221.098 75.8975C220.869 75.432 220.586 74.9368 220.247 74.4121C219.909 73.8789 219.498 73.3542 219.016 72.8379C218.542 72.3132 217.992 71.8096 217.365 71.3271C216.739 70.8447 216.02 70.4215 215.207 70.0576C214.395 69.6852 213.485 69.389 212.478 69.1689C211.479 68.9489 210.366 68.8389 209.139 68.8389C208.072 68.8389 207.12 68.932 206.282 69.1182C205.453 69.2959 204.725 69.5456 204.099 69.8672C203.472 70.1803 202.939 70.5527 202.499 70.9844C202.067 71.416 201.716 71.8857 201.445 72.3936C201.174 72.9014 200.976 73.4346 200.849 73.9932C200.722 74.5518 200.65 75.1146 200.633 75.6816C200.633 75.7155 200.633 75.7451 200.633 75.7705C200.633 76.2614 200.696 76.7692 200.823 77.2939C200.95 77.8187 201.153 78.335 201.433 78.8428C201.712 79.3506 202.063 79.8288 202.486 80.2773C202.91 80.7259 203.409 81.1195 203.984 81.458C204.56 81.7881 205.212 82.0505 205.939 82.2451C206.667 82.4398 207.471 82.5371 208.352 82.5371C209.342 82.5371 210.319 82.3975 211.284 82.1182C212.257 81.8389 213.188 81.4115 214.077 80.8359C214.974 80.252 215.816 79.5114 216.604 78.6143C217.391 77.7171 218.093 76.6549 218.711 75.4277L221.339 76.748C219.892 79.6257 218.068 81.8008 215.867 83.2734C213.667 84.7376 211.149 85.4697 208.313 85.4697C208.076 85.4697 207.776 85.4697 207.412 85.4697C207.048 85.4697 206.638 85.4443 206.181 85.3936C205.724 85.3512 205.229 85.2708 204.695 85.1523C204.162 85.0339 203.608 84.8561 203.032 84.6191C202.457 84.3822 201.868 84.0775 201.268 83.7051C200.675 83.3242 200.091 82.8503 199.516 82.2832C198.593 81.3776 197.899 80.3704 197.434 79.2617C196.977 78.153 196.748 77.002 196.748 75.8086C196.748 75.7493 196.748 75.6859 196.748 75.6182C196.765 74.8395 196.888 74.0609 197.116 73.2822C197.353 72.4951 197.696 71.7419 198.145 71.0225C198.602 70.3031 199.169 69.6344 199.846 69.0166C200.523 68.3903 201.318 67.8486 202.232 67.3916C203.146 66.9346 204.175 66.5749 205.317 66.3125C206.468 66.0501 207.742 65.9189 209.139 65.9189C210.374 65.9189 211.517 66.0163 212.566 66.2109C213.624 66.3971 214.598 66.6553 215.486 66.9854C216.375 67.3154 217.188 67.7048 217.924 68.1533C218.66 68.6019 219.329 69.0885 219.93 69.6133C220.531 70.1296 221.064 70.6712 221.529 71.2383C222.003 71.7969 222.422 72.3597 222.786 72.9268V66.3887H226.252ZM229.045 80.0615C228.952 79.4521 228.88 78.8597 228.829 78.2842C228.787 77.7002 228.757 77.1797 228.74 76.7227C228.723 76.3249 228.715 75.9398 228.715 75.5674V66.3887H232.155V76.748C232.155 77.7467 232.236 78.5889 232.396 79.2744C232.566 79.96 232.79 80.5143 233.069 80.9375C233.357 81.3522 233.691 81.6527 234.072 81.8389C234.462 82.0166 234.876 82.1055 235.316 82.1055C235.867 82.1055 236.429 81.9997 237.005 81.7881C237.58 81.568 238.147 81.276 238.706 80.9121C239.273 80.5482 239.823 80.1335 240.356 79.668C240.89 79.194 241.389 78.7031 241.854 78.1953C242.328 77.6875 242.76 77.1797 243.149 76.6719C243.539 76.1556 243.869 75.6774 244.14 75.2373V66.3887H247.58V78.1064C247.58 78.5127 247.589 78.902 247.605 79.2744C247.631 79.6383 247.69 79.9854 247.783 80.3154C247.885 80.6455 248.037 80.9544 248.24 81.2422C248.452 81.5299 248.744 81.7965 249.116 82.042C249.599 82.3467 249.941 82.6937 250.145 83.083C250.356 83.4723 250.462 83.8659 250.462 84.2637C250.462 84.2806 250.458 84.3991 250.449 84.6191C250.449 84.8307 250.339 85.1354 250.119 85.5332C249.908 85.931 249.611 86.2865 249.23 86.5996C248.858 86.9128 248.41 87.1624 247.885 87.3486C247.36 87.5433 246.785 87.6406 246.158 87.6406C245.464 87.6406 244.724 87.5052 243.937 87.2344C243.158 86.972 242.345 86.5234 241.499 85.8887L243.289 83.502C243.848 83.9251 244.364 84.2087 244.838 84.3525C245.32 84.488 245.739 84.5557 246.095 84.5557C246.442 84.5557 246.717 84.5218 246.92 84.4541C247.132 84.3779 247.258 84.3271 247.301 84.3018C246.793 83.9717 246.357 83.6416 245.993 83.3115C245.629 82.9814 245.325 82.6344 245.079 82.2705C244.842 81.9066 244.664 81.5257 244.546 81.1279C244.436 80.7217 244.381 80.2858 244.381 79.8203C244.372 79.8288 244.36 79.8499 244.343 79.8838C244.216 80.0192 244.038 80.2266 243.81 80.5059C243.581 80.7852 243.306 81.0983 242.984 81.4453C242.671 81.7839 242.312 82.1436 241.905 82.5244C241.499 82.8968 241.055 83.2565 240.572 83.6035C240.09 83.9505 239.574 84.2679 239.023 84.5557C238.473 84.835 237.889 85.0465 237.271 85.1904C237.018 85.2497 236.721 85.3005 236.383 85.3428C236.044 85.3936 235.676 85.4189 235.278 85.4189C234.881 85.4189 234.466 85.3893 234.034 85.3301C233.603 85.2708 233.175 85.1608 232.752 85C232.329 84.8477 231.918 84.6445 231.521 84.3906C231.123 84.1283 230.759 83.7982 230.429 83.4004C230.107 83.0026 229.824 82.5286 229.578 81.9785C229.333 81.4284 229.155 80.7894 229.045 80.0615ZM268.997 77.5732C268.989 77.734 268.984 77.8991 268.984 78.0684C268.984 78.4069 269.006 78.7962 269.048 79.2363C269.09 79.668 269.162 80.1165 269.264 80.582C269.374 81.0391 269.509 81.4368 269.67 81.7754C269.831 82.1055 270.013 82.3255 270.216 82.4355L268.629 85.4824C268.257 85.2878 267.897 85.0042 267.55 84.6318C267.203 84.251 266.894 83.8151 266.623 83.3242C266.361 82.8249 266.149 82.2832 265.988 81.6992C265.836 81.1068 265.76 80.5016 265.76 79.8838C265.633 80.0192 265.451 80.2266 265.214 80.5059C264.985 80.7852 264.71 81.0983 264.389 81.4453C264.076 81.7839 263.716 82.1436 263.31 82.5244C262.903 82.8968 262.459 83.2565 261.977 83.6035C261.503 83.9505 260.986 84.2679 260.428 84.5557C259.878 84.835 259.298 85.0465 258.688 85.1904C258.435 85.2581 258.134 85.3132 257.787 85.3555C257.449 85.3978 257.08 85.4189 256.683 85.4189C256.285 85.4189 255.87 85.3893 255.438 85.3301C255.007 85.2708 254.579 85.1608 254.156 85C253.733 84.8477 253.323 84.6445 252.925 84.3906C252.535 84.1283 252.176 83.8024 251.846 83.4131C251.516 83.0153 251.228 82.5413 250.982 81.9912C250.745 81.4411 250.572 80.8021 250.462 80.0742C250.369 79.4648 250.297 78.8724 250.246 78.2969C250.204 77.7129 250.174 77.1924 250.157 76.7354C250.14 76.3291 250.132 75.9398 250.132 75.5674V66.3887H253.572V76.748C253.572 77.7467 253.653 78.5889 253.813 79.2744C253.983 79.96 254.207 80.5143 254.486 80.9375C254.774 81.3522 255.108 81.6527 255.489 81.8389C255.879 82.0166 256.293 82.1055 256.733 82.1055C257.19 82.1055 257.664 82.0251 258.155 81.8643C258.655 81.695 259.146 81.4749 259.628 81.2041C260.11 80.9333 260.576 80.6243 261.024 80.2773C261.481 79.9303 261.892 79.5791 262.256 79.2236C263.102 78.4027 263.788 77.6536 264.312 76.9766C264.846 76.291 265.26 75.7113 265.557 75.2373V66.3887H268.997V77.5732ZM293.728 66.4014V85.0127H290.554V81.8516C290.528 81.5807 290.486 81.2168 290.427 80.7598C290.376 80.3027 290.291 79.7822 290.173 79.1982C290.054 78.6143 289.902 77.988 289.716 77.3193C289.53 76.6507 289.297 75.9779 289.018 75.3008C287.257 71.0013 284.473 68.8516 280.664 68.8516C279.962 68.8516 279.331 68.8939 278.772 68.9785C278.222 69.0547 277.731 69.1562 277.3 69.2832C276.877 69.4102 276.508 69.5498 276.195 69.7021C275.891 69.8545 275.632 70.0068 275.421 70.1592C274.981 70.4639 274.642 70.8109 274.405 71.2002C274.177 71.5811 274.062 71.9788 274.062 72.3936C274.062 72.7998 274.177 73.2018 274.405 73.5996C274.642 73.9889 274.993 74.3359 275.459 74.6406C275.924 74.9453 276.5 75.195 277.186 75.3896C277.871 75.5758 278.667 75.6689 279.572 75.6689C281.849 75.6689 283.762 75.1569 285.311 74.1328L288.396 76.4561C288.387 76.473 288.379 76.4941 288.37 76.5195L288.345 76.5576C288.345 76.583 288.336 76.6042 288.319 76.6211C288.049 77.1712 287.718 77.7721 287.329 78.4238C286.94 79.0755 286.491 79.7314 285.983 80.3916C285.476 81.0433 284.9 81.6738 284.257 82.2832C283.622 82.8926 282.92 83.4342 282.149 83.9082C281.388 84.3822 280.55 84.7588 279.636 85.0381C278.73 85.3258 277.753 85.4697 276.703 85.4697C276.271 85.4697 275.819 85.4232 275.345 85.3301C274.871 85.2454 274.393 85.1227 273.91 84.9619C273.436 84.7926 272.962 84.5895 272.488 84.3525C272.014 84.1156 271.557 83.8447 271.117 83.54L272.78 81.1279C273.093 81.3395 273.419 81.5342 273.758 81.7119C274.096 81.8812 274.435 82.0293 274.773 82.1562C275.12 82.2747 275.459 82.3678 275.789 82.4355C276.119 82.5033 276.424 82.5371 276.703 82.5371C277.549 82.5371 278.337 82.4059 279.064 82.1436C279.792 81.8727 280.465 81.5215 281.083 81.0898C281.709 80.6582 282.276 80.1673 282.784 79.6172C283.3 79.0586 283.762 78.4915 284.168 77.916C282.771 78.373 281.24 78.6016 279.572 78.6016C278.184 78.6016 276.961 78.4238 275.903 78.0684C274.854 77.7129 273.974 77.2432 273.263 76.6592C272.56 76.0752 272.027 75.4108 271.663 74.666C271.308 73.9212 271.13 73.1637 271.13 72.3936C271.13 71.4964 271.354 70.6458 271.803 69.8418C272.251 69.0378 272.895 68.3438 273.732 67.7598C274.587 67.1504 275.599 66.6934 276.767 66.3887C277.943 66.0755 279.242 65.9189 280.664 65.9189C282.797 65.9189 284.693 66.4141 286.352 67.4043C288.01 68.3945 289.411 69.8587 290.554 71.7969V66.4014H293.728Z" fill="#F7FFE1"/>
</g>
</svg>
